<?xml version="1.0" encoding="UTF-8" standalone="no"?>
<!DOCTYPE svg PUBLIC "-//W3C//DTD SVG 1.1//EN" "http://www.w3.org/Graphics/SVG/1.1/DTD/svg11.dtd">
<svg width="100%" height="100%" viewBox="0 0 317 296" version="1.1" xmlns="http://www.w3.org/2000/svg" xmlns:xlink="http://www.w3.org/1999/xlink" xml:space="preserve" xmlns:serif="http://www.serif.com/" style="fill-rule:evenodd;clip-rule:evenodd;stroke-linecap:round;stroke-linejoin:round;stroke-miterlimit:2;">
    <g transform="matrix(1,0,0,1,-77.0947,-466.278)">
        <path d="M388.955,545.531C387.406,538.334 383.864,531.935 381.286,525.096C379.955,521.564 378.575,518.027 376.712,514.734C375.204,512.071 373.501,509.51 371.687,507.047C356.757,486.778 332.935,471.966 307.558,470.166C299.967,469.628 292.384,470.71 285.017,472.503C277.934,474.228 270.828,476.342 263.974,478.833C257.94,481.025 252.053,483.772 246.792,487.478C241.372,491.295 236.997,495.946 233.214,501.371C230.231,505.649 227.39,510.179 224.798,514.898C223.492,513.308 221.7,512.005 220.135,510.931C216.84,508.671 213.41,506.632 209.831,504.856C205.911,502.911 201.797,501.425 197.689,499.927C191.574,497.697 185.421,495.882 178.958,495.012C167.076,493.415 154.972,493.477 143.222,496.022C131.858,498.484 121.163,503.407 111.782,510.258C103.711,516.152 96.607,523.323 91.279,531.811C85.942,540.314 82.67,549.9 81.418,559.841C80.029,570.87 81.202,582.219 84.523,592.812C87.88,603.52 93.304,613.468 99.623,622.699C105.767,631.674 112.699,640.138 120.858,647.363C128.972,654.549 138.43,660.98 149.11,663.522C150.994,663.971 152.933,664.252 154.872,664.4C154.685,666.439 154.537,668.483 154.422,670.532C153.996,678.076 153.301,685.859 154.844,693.318C154.864,693.414 154.892,693.501 154.923,693.584C155.029,694.734 155.326,695.895 155.58,696.907C156.075,698.873 156.769,701.047 157.868,702.764C157.958,702.904 158.061,703.023 158.173,703.124C160.143,708.909 162.524,714.522 166.046,719.589C168.384,722.952 170.854,726.33 173.719,729.268C176.463,732.081 179.972,733.902 183.136,736.17C186.374,738.49 189.524,740.887 192.892,743.025C196.376,745.237 199.967,747.283 203.667,749.111C210.886,752.679 218.553,755.51 226.541,756.712C239.306,758.634 252.549,757.579 264.941,754.009C277.257,750.46 289.441,744.227 298.251,734.752C300.701,732.118 302.695,729.145 304.971,726.372C307.459,723.339 310.562,721.319 313.646,718.967C319.451,714.541 323.228,708.294 325.239,701.333C326.222,697.932 326.898,694.451 327.758,691.018C328.728,687.148 329.976,683.335 330.592,679.384C331.264,675.078 330.945,670.859 330.684,666.533C330.414,662.059 330.03,657.574 329.368,653.14C328.702,648.674 327.608,644.36 326.07,640.193C338.111,639.102 347.945,629.888 355.903,621.508C365.769,611.12 375.211,599.937 381.812,587.141C385.113,580.744 387.905,573.934 389.287,566.847C390.673,559.734 390.478,552.605 388.955,545.531Z" style="fill:rgb(255,159,130);fill-rule:nonzero;"/>
        <path d="M388.955,545.531C387.406,538.334 383.864,531.935 381.286,525.096C379.955,521.564 378.575,518.027 376.712,514.734C375.204,512.071 373.501,509.51 371.687,507.047C356.757,486.778 332.935,471.966 307.558,470.166C299.967,469.628 292.384,470.71 285.017,472.503C277.934,474.228 270.828,476.342 263.974,478.833C257.94,481.025 252.053,483.772 246.792,487.478C241.372,491.295 236.997,495.946 233.214,501.371C230.231,505.649 227.39,510.179 224.798,514.898C223.492,513.308 221.7,512.005 220.135,510.931C216.84,508.671 213.41,506.632 209.831,504.856C205.911,502.911 201.797,501.425 197.689,499.927C191.574,497.697 185.421,495.882 178.958,495.012C167.076,493.415 154.972,493.477 143.222,496.022C131.858,498.484 121.163,503.407 111.782,510.258C103.711,516.152 96.607,523.323 91.279,531.811C85.942,540.314 82.67,549.9 81.418,559.841C80.029,570.87 81.202,582.219 84.523,592.812C87.88,603.52 93.304,613.468 99.623,622.699C105.767,631.674 112.699,640.138 120.858,647.363C128.972,654.549 138.43,660.98 149.11,663.522C150.994,663.971 152.933,664.252 154.872,664.4C154.685,666.439 154.537,668.483 154.422,670.532C153.996,678.076 153.301,685.859 154.844,693.318C154.864,693.414 154.892,693.501 154.923,693.584C155.029,694.734 155.326,695.895 155.58,696.907C156.075,698.873 156.769,701.047 157.868,702.764C157.958,702.904 158.061,703.023 158.173,703.124C160.143,708.909 162.524,714.522 166.046,719.589C168.384,722.952 170.854,726.33 173.719,729.268C176.463,732.081 179.972,733.902 183.136,736.17C186.374,738.49 189.524,740.887 192.892,743.025C196.376,745.237 199.967,747.283 203.667,749.111C210.886,752.679 218.553,755.51 226.541,756.712C239.306,758.634 252.549,757.579 264.941,754.009C277.257,750.46 289.441,744.227 298.251,734.752C300.701,732.118 302.695,729.145 304.971,726.372C307.459,723.339 310.562,721.319 313.646,718.967C319.451,714.541 323.228,708.294 325.239,701.333C326.222,697.932 326.898,694.451 327.758,691.018C328.728,687.148 329.976,683.335 330.592,679.384C331.264,675.078 330.945,670.859 330.684,666.533C330.414,662.059 330.03,657.574 329.368,653.14C328.702,648.674 327.608,644.36 326.07,640.193C338.111,639.102 347.945,629.888 355.903,621.508C365.769,611.12 375.211,599.937 381.812,587.141C385.113,580.744 387.905,573.934 389.287,566.847C390.673,559.734 390.478,552.605 388.955,545.531Z" style="fill:none;stroke:white;stroke-width:7.5px;"/>
        <path d="M337.004,583.802C336.968,583.459 336.713,583.252 336.367,583.317C334.701,583.628 333,584.69 331.566,585.567C330.154,586.431 328.193,587.451 327.363,588.93C327.118,589.366 327.352,589.859 327.804,590.014C329.677,590.657 332.251,589.714 333.868,588.759C335.48,587.809 337.215,585.796 337.004,583.802ZM300.431,551.411C300.284,550.697 300.235,549.955 300.074,549.248C300.033,549.071 299.962,548.909 299.917,548.736C299.906,548.692 299.897,548.657 299.888,548.628C299.887,548.609 299.884,548.583 299.88,548.551C299.887,548.587 299.891,548.577 299.884,548.438C299.877,548.324 299.815,548 299.851,547.899C299.939,547.652 299.715,547.467 299.501,547.439C297.225,547.146 296.407,549.81 296.352,551.664C296.289,553.806 297.485,556.572 299.832,556.913C300.272,556.976 300.583,556.747 300.633,556.302C300.824,554.634 300.778,553.096 300.431,551.411ZM329.396,545.365C329.209,543.333 328.019,541.347 326.213,540.438C325.964,540.313 325.681,540.42 325.594,540.69C325.089,542.259 325.233,543.834 325.443,545.471C325.555,546.352 325.773,547.129 326.096,547.946C326.348,548.585 326.388,549.249 326.549,549.927C326.613,550.201 326.994,550.383 327.237,550.207C328.689,549.153 329.556,547.122 329.396,545.365ZM208.216,728.587C207.32,727.879 206.537,727.083 205.64,726.363C204.66,725.576 203.449,724.737 202.865,723.59C202.663,723.193 202.101,723.412 202.079,723.802C201.883,727.205 204.669,729.771 208.082,729.096C208.293,729.055 208.393,728.727 208.216,728.587ZM216.069,713.42C215.924,713.071 215.922,712.678 215.773,712.318C215.566,711.818 215.27,711.385 214.919,710.974C214.304,710.253 213.572,709.828 212.807,709.305C211.955,708.722 211.051,709.681 211.211,710.532C211.406,711.577 211.754,712.408 212.512,713.188C212.868,713.553 213.308,713.856 213.769,714.069C214.22,714.277 214.652,714.242 215.102,714.387C215.626,714.556 216.302,713.978 216.069,713.42ZM275.946,664.042C275.731,663.724 275.264,663.696 275.055,664.042C274.192,665.474 273.325,666.869 272.965,668.554C272.785,669.394 272.675,670.352 272.791,671.21C272.898,671.996 273.35,672.68 273.458,673.452C273.523,673.917 274.297,674.01 274.486,673.586C274.806,672.87 275.571,672.343 275.969,671.656C276.447,670.83 276.785,669.904 276.943,668.967C277.24,667.205 276.951,665.535 275.946,664.042ZM271.851,676.706C271.82,676.484 271.491,676.363 271.317,676.489C270.339,677.198 269.3,677.782 268.471,678.693C268.055,679.15 267.717,679.652 267.355,680.151C266.899,680.779 266.86,681.358 266.525,682.025C266.318,682.436 266.662,682.977 267.147,682.834C267.921,682.605 268.471,682.687 269.171,682.213C269.86,681.746 270.46,681.28 270.961,680.614C271.813,679.483 272.042,678.092 271.851,676.706ZM240.501,659.775C240.321,659.797 240.171,659.851 240.01,659.899C239.975,659.898 239.94,659.9 239.905,659.903C239.742,659.878 239.581,659.879 239.42,659.899C239.188,659.875 238.943,659.902 238.672,659.978C238.223,660.105 237.713,660.516 237.641,661.01C237.6,661.282 237.545,661.549 237.572,661.824C237.635,662.45 237.964,662.989 238.598,663.171C238.587,663.163 238.577,663.156 238.567,663.149C239.114,663.451 239.701,663.234 239.981,662.772C240.079,662.661 240.16,662.54 240.226,662.401C240.463,662.188 240.669,661.919 240.73,661.607C240.82,661.391 240.858,661.164 240.841,660.911C240.851,660.846 240.854,660.781 240.852,660.717C240.858,660.7 240.866,660.685 240.873,660.675C241.111,660.368 241.013,659.713 240.501,659.775ZM250.824,664.613C250.659,664.294 250.252,664.432 250.139,664.703C249.749,665.634 248.91,666.237 248.352,667.051C247.856,667.774 247.468,668.593 247.099,669.385C246.826,669.972 245.593,672.946 246.882,673.232C248.835,673.666 250.563,671.812 251.319,670.191C252.283,668.125 251.822,666.544 250.824,664.613ZM241.916,674.095C241.929,674.1 241.94,674.104 241.952,674.109C241.878,674.075 241.879,674.077 241.916,674.095ZM242.734,674.347C242.775,674.489 242.729,674.507 242.596,674.4C242.49,674.353 242.381,674.31 242.271,674.271C242.387,674.319 242.017,674.144 241.916,674.095C241.306,673.827 240.774,673.848 240.241,673.742C239.587,673.612 238.755,673.091 237.952,673.103C237.872,673.048 237.792,672.994 237.713,672.938C237.51,672.796 237.136,672.929 237.095,673.186C237.094,673.21 237.076,673.381 237.07,673.493C236.997,673.617 236.849,673.949 236.832,674.01C236.699,674.492 236.912,675.129 237.095,675.569C237.487,676.516 238.456,677.372 239.434,677.677C240.535,678.021 241.743,677.917 242.569,677.057C243.19,676.41 243.198,675.705 243.509,674.943C243.706,674.461 243.098,674.19 242.734,674.347ZM237.094,673.19C237.094,673.189 237.095,673.188 237.095,673.186C237.095,673.181 237.095,673.181 237.094,673.19ZM253.345,686.237C252.415,686.441 251.489,686.289 250.572,686.463C249.561,686.656 248.593,687.143 247.658,687.556C245.814,688.37 243.798,689.585 241.766,689.759C240.679,689.851 239.554,689.859 238.553,689.377C237.65,688.943 236.842,688.356 235.912,687.952C234.059,687.148 231.728,686.961 230.224,685.579C229.95,685.326 229.579,685.641 229.727,685.962C230.748,688.17 231.794,690.302 234.219,691.228C235.483,691.71 236.647,691.688 237.963,691.556C239.197,691.431 240.38,691.564 241.612,691.634C244.159,691.777 246.536,692.313 249.082,691.679C250.333,691.367 251.649,690.823 252.563,689.884C253.359,689.066 253.668,687.996 254.065,686.958C254.236,686.513 253.74,686.151 253.345,686.237ZM227.407,682.69C227.248,681.588 226.408,680.678 225.722,679.843C224.889,678.828 224.137,677.866 223.724,676.603C223.421,675.679 222.097,676.057 222.277,677.002C222.72,679.319 224.106,683.195 227.001,683.224C227.302,683.227 227.445,682.954 227.407,682.69ZM227.323,662.999C225.337,663.848 224.028,665.88 223.156,667.786C222.234,669.802 222.099,671.757 222.752,673.871C222.828,674.119 223.17,674.113 223.249,673.871C223.862,671.998 225.078,670.2 226.003,668.46C226.854,666.858 227.84,665.154 227.852,663.302C227.854,663.01 227.558,662.899 227.323,662.999ZM293.895,681.572C293.746,681.24 293.274,681.31 293.106,681.572C292.544,682.448 292.184,683.42 291.597,684.28C291.009,685.142 290.543,686.055 290.057,686.98C289.563,687.918 289.112,688.89 288.721,689.877C288.537,690.343 288.306,690.867 288.203,691.356C288.07,691.993 288.106,692.562 287.748,693.155C287.576,693.438 287.976,693.752 288.208,693.51C288.685,693.01 289.341,692.843 289.897,692.49C290.393,692.176 290.876,691.747 291.287,691.335C292.183,690.437 292.948,689.401 293.476,688.247C294.404,686.224 294.843,683.675 293.895,681.572ZM281.864,698.305C279.16,699.326 276.661,700.79 274.26,702.389C272.988,703.237 271.623,704.104 270.49,705.133C270.012,705.568 269.523,706.044 269.131,706.56C268.638,707.208 268.327,707.966 267.727,708.529C267.383,708.852 267.82,709.302 268.196,709.136C269.004,708.781 269.902,708.863 270.746,708.66C271.398,708.503 272.062,708.234 272.673,707.962C274.127,707.314 275.533,706.469 276.85,705.575C279.262,703.937 281.532,701.777 282.498,698.94C282.618,698.586 282.226,698.168 281.864,698.305ZM289.77,648.115C289.212,646.356 288.09,644.698 287.073,643.176C286.188,641.851 284.172,643.007 284.928,644.429C285.751,645.979 286.046,647.572 286.576,649.222C287.044,650.679 288.004,651.688 288.646,653.01C288.801,653.327 289.318,653.242 289.396,652.911C289.786,651.26 290.322,649.854 289.77,648.115ZM283.407,639.69C282.619,637.647 281.559,635.937 279.926,634.464C278.513,633.19 276.509,631.64 274.501,631.74C274.141,631.758 273.855,632.086 273.958,632.452C274.46,634.231 276.214,635.674 277.571,636.82C279.206,638.201 280.854,639.248 282.788,640.167C283.082,640.307 283.553,640.067 283.407,639.69ZM237.996,613.013C237.69,612.512 237.222,612.076 236.77,611.706C236.597,611.529 236.569,611.554 236.685,611.782C236.586,611.654 236.488,611.527 236.39,611.4C236.07,611.139 235.75,610.878 235.383,610.686C233.792,609.852 231.887,610.042 230.198,610.431C228.672,610.783 227.047,611.429 225.764,612.338C225.206,612.734 224.679,613.224 224.188,613.7C223.582,614.287 223.419,615.085 222.851,615.653C222.691,615.814 222.86,616.038 223.057,616.006C223.696,615.902 224.365,616.242 225.031,616.205C225.614,616.172 226.203,616.153 226.786,616.109C228.172,616.004 229.554,615.667 230.931,615.481C232.163,615.315 233.456,615.295 234.646,614.942C234.921,614.861 235.193,614.74 235.455,614.624C235.5,614.604 236.103,614.262 235.943,614.308C236.484,614.109 237.107,614.066 237.653,613.856C237.988,613.728 238.206,613.355 237.996,613.013ZM196.175,640.246C195.084,641.073 193.606,641.954 192.936,643.169C192.265,644.385 191.9,646.174 192.687,647.411C192.989,647.885 193.604,648.072 194.105,647.783C196.454,646.429 196.785,643.367 197.122,640.974C197.189,640.501 196.683,639.861 196.175,640.246ZM248.108,627.448C246.404,626.242 244.164,626.385 242.189,626.238C241.005,626.15 239.78,626.156 238.624,625.838C237.631,625.565 236.748,624.984 235.783,624.621C233.656,623.82 231.382,624.114 229.27,624.857C227.578,625.453 224.749,626.575 224.447,628.65C224.409,628.906 224.471,629.16 224.711,629.298C226.249,630.19 228.598,629.406 230.21,629.094C232.143,628.72 233.998,628.484 235.812,627.681C236.595,627.335 237.382,626.897 238.236,626.777C239.466,626.604 240.739,627.034 241.826,627.577C243.556,628.442 244.943,629.932 246.807,630.535C247.367,630.716 248.046,630.516 248.45,630.101C248.66,629.885 248.829,629.66 248.884,629.355C249.03,628.551 248.769,627.916 248.108,627.448ZM260.1,662.203C259.988,662.1 259.785,662.236 259.879,662.373C261.14,664.215 260.993,666.824 260.635,668.942C260.457,669.996 260.174,671.038 259.888,672.067C259.644,672.94 259.155,673.889 259.161,674.802C259.161,675.082 259.443,675.197 259.672,675.096C261.741,674.184 262.473,670.67 262.636,668.698C262.844,666.177 261.958,663.906 260.1,662.203ZM257.362,659.203C257.096,658.415 256.941,657.63 256.521,656.902C256.052,656.093 255.421,655.32 254.804,654.62C253.533,653.178 252.072,651.944 250.774,650.529C250.483,650.211 249.907,650.637 250.167,650.998C251.241,652.489 252.082,654.111 253.089,655.649C253.566,656.378 254.076,657.097 254.629,657.773C255.249,658.531 255.976,658.964 256.734,659.568C257,659.778 257.493,659.595 257.362,659.203ZM245.19,647.979C242.722,646.608 240.133,646.22 237.339,646.465C234.433,646.719 232.229,647.969 229.9,649.63C229.724,649.756 229.823,650.056 230.054,649.995C232.508,649.337 235.225,649.279 237.764,649.146C240.238,649.016 242.644,649.075 245.1,648.664C245.425,648.61 245.455,648.126 245.19,647.979ZM222.294,652.448C221.323,652.869 220.309,653.145 219.457,653.795C218.576,654.466 217.832,655.279 217.142,656.142C216.059,657.495 214.463,659.58 215.037,661.43C215.131,661.732 215.465,661.869 215.743,661.717C217.232,660.906 218.095,658.858 219.159,657.597C219.761,656.884 220.431,656.234 221.043,655.529C221.702,654.771 222.149,653.865 222.791,653.093C223.097,652.723 222.723,652.262 222.294,652.448ZM214.208,698.095C213.786,697.748 213.871,697.577 213.871,697.161C213.87,696.612 213.814,696.168 213.652,695.649C213.447,694.993 212.984,694.224 212.379,693.871C212.12,693.719 211.842,693.663 211.55,693.629C211.48,693.621 211.429,693.617 211.39,693.616C211.394,693.592 211.377,693.553 211.315,693.488C211.109,693.27 210.768,693.345 210.616,693.578C210.305,694.054 209.768,694.381 209.597,695.002C209.342,695.932 209.833,696.984 210.496,697.621C211.009,698.115 211.763,698.447 212.473,698.474C212.691,698.482 212.976,698.368 213.19,698.338C213.225,698.39 213.908,698.581 213.853,698.555C214.13,698.686 214.483,698.323 214.208,698.095ZM221.259,700.803C220.508,700.281 219.733,699.888 218.792,700.057C218.294,700.146 219.104,700.003 218.438,700.026C218.083,700.038 217.686,700.142 217.345,700.237C217.043,700.322 216.847,700.652 216.936,700.958C217.033,701.297 217.271,701.778 217.321,701.988C217.567,703.019 217.975,703.6 218.799,704.284C219.479,704.849 220.172,705.275 221.032,705.485C221.366,705.566 221.729,705.638 222.07,705.592C222.287,705.582 222.489,705.517 222.676,705.398C223.11,705.057 223.116,705.058 222.694,705.401C223.176,705.324 223.399,704.861 223.422,704.422C223.8,703.037 222.266,701.504 221.259,700.803ZM263.29,703.807C261.552,702.892 259.275,703.888 257.681,704.644C257.001,704.967 253.483,706.324 254.383,707.663C255.405,709.184 258.2,708.538 259.627,708.108C261.295,707.604 263.452,706.26 263.575,704.302C263.587,704.111 263.459,703.895 263.29,703.807ZM287.109,665.145C286.949,663.323 286.622,661.546 285.943,659.844C285.473,658.668 284.478,656.67 283.128,656.339C282.913,656.286 282.704,656.376 282.586,656.56C281.941,657.564 282.212,659.409 282.292,660.554C282.41,662.234 282.615,663.908 282.718,665.591C282.819,667.25 282.728,668.891 282.718,670.55C282.713,671.415 282.844,672.239 283.085,673.067C283.334,673.923 283.808,674.583 284.116,675.408C284.241,675.743 284.638,675.79 284.845,675.504C285.358,674.791 285.959,674.291 286.361,673.495C286.806,672.615 287.079,671.763 287.181,670.776C287.372,668.927 287.272,666.992 287.109,665.145ZM262.209,641.016C259.954,639.729 257.489,639.344 255.066,638.565C254.84,638.493 254.636,638.818 254.826,638.977C256.547,640.405 258.381,641.551 260.2,642.841C261.084,643.467 261.956,644.121 262.687,644.925C263.52,645.841 264.092,646.691 265.229,647.268C265.533,647.423 265.927,647.298 266.02,646.946C266.699,644.39 264.231,642.171 262.209,641.016ZM228.891,640.407C226.662,640.961 224.402,641.292 222.204,641.976C220.214,642.596 218.217,643.279 216.283,644.059C212.214,645.7 208.253,647.683 204.586,650.094C203.71,650.67 204.513,652.075 205.415,651.511C209.224,649.127 213.216,647.488 217.449,646.033C219.367,645.374 221.306,644.764 223.207,644.06C225.307,643.284 227.225,642.183 229.208,641.157C229.63,640.938 229.333,640.297 228.891,640.407ZM198.923,657.02C197.987,657.397 197.141,658.446 196.471,659.177C195.531,660.204 194.678,661.272 193.946,662.461C192.319,665.104 191.141,668.105 190.538,671.151C189.482,676.488 189.655,683.042 195.394,685.485C195.604,685.574 195.825,685.34 195.65,685.153C192.309,681.59 192.562,675.606 193.627,671.21C194.27,668.557 195.176,665.974 196.233,663.458C196.7,662.346 197.166,661.211 197.713,660.135C198.176,659.224 198.949,658.332 199.283,657.38C199.352,657.183 199.127,656.938 198.923,657.02ZM228.267,727.347C227.135,726.479 225.406,725.902 224.06,725.46C222.426,724.924 220.738,724.602 219.077,724.166C215.799,723.306 212.334,722.275 209.65,720.153C209.477,720.017 209.176,720.191 209.318,720.409C211.379,723.558 213.984,726.031 217.456,727.526C219.306,728.323 221.17,728.922 223.196,729.066C224.759,729.177 226.873,729.004 228.267,728.258C228.652,728.052 228.56,727.572 228.267,727.347ZM298.167,691.607C296.756,693.54 295.027,695.251 293.359,696.964C291.835,698.527 290.296,700.078 288.664,701.529C285.333,704.49 281.856,707.349 278.23,709.937C270.9,715.171 263.413,720.831 254.921,724.032C250.029,725.876 244.894,726.519 239.835,727.704C239.353,727.817 239.187,728.624 239.687,728.839C244.15,730.756 248.997,729.538 253.273,727.725C257.834,725.79 262.101,723.138 266.174,720.332C270.047,717.664 273.803,714.833 277.728,712.239C281.542,709.718 285.521,707.349 289.005,704.376C291.016,702.659 292.947,700.844 294.627,698.797C296.34,696.71 297.592,694.372 298.835,691.998C299.07,691.549 298.456,691.211 298.167,691.607ZM303.193,663.69C303.08,663.528 302.753,663.562 302.778,663.802C303.12,667.139 302.781,670.683 302.416,674.006C302.216,675.823 301.763,677.578 301.426,679.37C301.129,680.952 301.199,682.709 300.661,684.209C300.547,684.53 301.03,684.824 301.249,684.551C302.336,683.2 303.375,682.12 304.043,680.474C304.819,678.56 305.066,676.407 305.265,674.365C305.621,670.719 305.321,666.763 303.193,663.69ZM312.264,660.607C311.837,658.832 311.312,657.123 310.552,655.46C309.982,654.214 309.28,652.263 307.837,651.824C307.416,651.696 307.034,651.979 306.893,652.36C306.418,653.646 307.343,655.415 307.665,656.677C308.077,658.295 308.518,659.911 308.859,661.546C309.586,665.032 309.914,668.586 310.638,672.072C311.039,674.005 311.436,675.842 311.053,677.821C310.721,679.54 309.995,681.231 309.469,682.897C308.955,684.52 308.385,686.149 307.706,687.709C307.162,688.958 306.29,690.521 306.56,691.924C306.607,692.17 306.898,692.301 307.122,692.243C308.625,691.858 309.528,690.009 310.079,688.714C310.798,687.022 311.319,685.309 311.646,683.498C311.983,681.63 311.883,679.822 311.941,677.942C312.003,675.918 312.589,674.043 312.947,672.072C313.642,668.244 313.167,664.36 312.264,660.607ZM288.434,615.478C287.003,614.391 285.431,613.5 283.748,612.865C282.093,612.241 280.359,611.969 278.593,611.952C277.853,611.945 277.061,611.92 276.347,612.145C275.683,612.354 275.06,612.693 274.391,612.907C274.063,613.012 273.977,613.476 274.294,613.657C274.812,613.953 275.21,614.365 275.663,614.737C276.24,615.21 276.88,615.525 277.527,615.887C278.765,616.58 279.993,617.275 281.242,617.948C282.31,618.524 283.917,619.386 284.608,619.911C285.788,620.808 287.03,622.329 288.595,622.524C288.721,622.566 288.85,622.601 288.989,622.617C289.155,622.637 289.863,622.537 289.801,622.526C290.127,622.588 290.476,622.486 290.648,622.181C290.887,621.758 291.208,621.597 291.352,621.074C291.404,620.883 291.419,620.694 291.414,620.504C291.874,618.463 289.896,616.588 288.434,615.478ZM306.835,624.012C306.765,623.754 306.667,623.509 306.512,623.292C306.28,622.968 305.935,622.653 305.525,622.577C305.421,622.526 305.309,622.488 305.182,622.473C304.949,622.445 304.67,622.529 304.501,622.51C304.385,622.496 304.237,622.609 304.218,622.725C304.19,622.892 304.03,623.005 303.961,623.169C303.911,623.287 303.887,623.4 303.877,623.516C303.688,624.043 303.833,624.621 304.109,625.161C304.448,625.821 305.325,626.043 305.971,625.771C306.649,625.484 307.031,624.736 306.835,624.012ZM299.852,614.839C299.355,613.827 298.71,612.955 297.828,612.242C296.123,610.865 294.286,609.792 292.275,608.929C290.373,608.113 288.362,607.527 286.328,607.142C284.255,606.75 282.153,606.905 280.091,606.475C279.717,606.397 279.496,606.884 279.829,607.096C281.41,608.105 282.784,609.375 284.366,610.386C285.967,611.41 287.694,612.267 289.35,613.2C290.925,614.087 292.496,614.998 293.946,616.082C294.873,616.775 295.663,617.309 296.689,617.827C297.2,618.085 297.579,618.318 298.184,618.37C298.565,618.403 298.948,618.359 299.323,618.447C299.746,618.545 300.165,618.25 300.169,617.802C300.178,616.685 300.38,615.915 299.852,614.839ZM266.349,603.954C265.939,603.57 265.493,603.238 265.025,602.932C264.471,602.569 264.055,602.07 263.458,601.761C262.246,601.135 260.76,600.945 259.431,600.722C256.627,600.252 253.803,599.875 250.957,600.067C248.227,600.25 245.627,600.855 242.999,601.578C240.543,602.253 238.001,603.172 235.811,604.479C235.47,604.682 235.647,605.142 236.001,605.177C238.455,605.425 240.988,605.065 243.432,604.78C245.982,604.481 248.625,604.407 251.191,604.503C253.69,604.596 256.14,604.98 258.595,605.424C259.963,605.672 261.536,606.099 262.925,605.84C263.481,605.736 263.964,605.486 264.506,605.33C265.108,605.156 265.682,605.01 266.249,604.728C266.529,604.588 266.569,604.161 266.349,603.954ZM215.379,608.362C214.199,608.721 212.901,608.627 211.733,609.02C210.553,609.416 209.388,610.035 208.325,610.676C206.157,611.985 204.471,613.729 202.876,615.678C202.759,615.822 202.909,616.071 203.089,615.954C205.242,614.564 207.899,614.177 210.271,613.258C211.405,612.819 212.712,612.367 213.636,611.546C214.45,610.823 215.086,609.921 215.824,609.126C216.123,608.803 215.833,608.224 215.379,608.362ZM199.347,618.039C197.602,618.873 196.008,619.854 194.592,621.189C193.958,621.786 193.367,622.452 192.855,623.159C192.27,623.967 191.939,624.915 191.349,625.714C191.244,625.855 191.449,626.05 191.589,625.954C192.359,625.429 193.272,625.165 194.079,624.7C194.9,624.226 195.687,623.617 196.393,622.99C197.831,621.711 198.922,620.179 199.764,618.456C199.901,618.176 199.626,617.906 199.347,618.039ZM186.219,631.021C184.09,632.998 182.671,635.231 181.62,637.938C181.132,639.197 180.852,640.496 180.704,641.836C180.547,643.251 180.869,644.541 181.071,645.921C181.151,646.463 181.89,646.251 181.946,645.802C182.107,644.504 182.769,643.174 183.256,641.971C183.75,640.748 184.286,639.541 184.805,638.329C185.283,637.213 185.899,636.111 186.239,634.944C186.579,633.776 186.788,632.512 186.899,631.302C186.932,630.938 186.452,630.805 186.219,631.021ZM174.866,682.92C174.799,681.74 174.31,680.767 173.862,679.703C173.756,679.45 173.32,679.278 173.177,679.613C172.677,680.78 172.064,681.82 172.089,683.139C172.117,684.619 172.946,685.328 173.626,686.521C173.825,686.87 174.487,686.746 174.434,686.302C174.3,685.184 174.933,684.084 174.866,682.92ZM178.271,695.737C177.3,694.209 176.242,692.932 174.713,691.938C174.454,691.769 174.059,691.988 174.079,692.302C174.204,694.321 174.721,696.135 175.846,697.837C176.691,699.113 178.383,701.202 180.137,700.8C180.371,700.746 180.499,700.523 180.516,700.302C180.632,698.817 179.022,696.92 178.271,695.737ZM231.678,746.999C229.564,745.996 227.765,744.692 225.512,743.943C223.232,743.186 220.865,743.16 218.566,742.565C218.307,742.498 218.112,742.902 218.376,743.015C220.594,743.963 222.295,745.81 224.52,746.807C226.87,747.861 228.972,747.955 231.501,747.654C231.805,747.618 232.031,747.166 231.678,746.999ZM217.069,742.554C215.804,742.113 214.688,741.296 213.433,740.811C212.268,740.362 211.059,740.028 209.886,739.599C208.707,739.167 207.552,738.641 206.392,738.161C205.164,737.652 203.822,737.161 202.755,736.367C202.288,736.02 201.75,736.764 202.144,737.159C203.196,738.212 204.03,739.407 205.172,740.381C206.285,741.331 207.493,742.021 208.829,742.61C210.157,743.195 211.576,743.672 213.032,743.773C214.446,743.871 215.722,743.352 217.069,743.051C217.334,742.992 217.294,742.632 217.069,742.554ZM198.763,733.939C197.836,732.891 196.863,731.992 195.773,731.112C194.75,730.286 193.74,729.471 192.585,728.83C192.054,728.536 191.509,728.287 190.929,728.106C190.245,727.893 190.153,728.02 189.501,728.103C189.351,728.122 189.252,728.258 189.328,728.403C189.473,728.675 189.491,728.938 189.661,729.199C189.925,729.601 190.376,729.966 190.712,730.312C191.49,731.113 192.254,731.928 193.069,732.691C194.679,734.198 196.205,735.509 198.426,735.953C198.711,736.01 199.067,735.974 199.268,735.73C199.832,735.045 199.24,734.478 198.763,733.939ZM180.395,721.072C179.767,719.976 179.293,718.76 178.537,717.744C177.789,716.738 176.886,715.844 176.076,714.888C174.34,712.84 172.614,710.875 170.698,708.991C168.709,707.034 168.546,703.967 167.551,701.468C167.103,700.342 166.638,699.221 166.095,698.137C165.505,696.96 164.726,695.901 164.122,694.731C164.054,694.601 163.867,694.671 163.86,694.802C163.718,697.578 163.892,699.949 165.029,702.531C166.186,705.156 168.661,706.918 169.623,709.617C170.542,712.191 171.847,714.385 173.563,716.507C174.431,717.58 175.305,718.76 176.354,719.664C177.361,720.534 178.611,721.069 179.77,721.697C180.168,721.913 180.627,721.476 180.395,721.072ZM164.249,687.16C164.113,685.826 164.026,684.492 163.916,683.157C163.81,681.863 163.736,680.548 163.411,679.285C163.073,677.975 162.492,676.668 162.434,675.302C162.411,674.744 161.595,674.745 161.567,675.302C161.492,676.77 160.698,678.1 160.277,679.484C159.878,680.798 159.732,682.217 159.704,683.586C159.654,686.126 159.838,689.44 162.354,690.783C162.977,691.115 163.56,690.788 163.812,690.19C164.159,689.363 164.362,688.269 164.249,687.16ZM166.362,661.151C166.302,660.122 166.076,658.763 165.216,658.087C165.1,657.996 164.981,657.974 164.847,658.039C163.899,658.5 163.25,659.73 162.843,660.656C162.276,661.945 161.931,663.299 161.59,664.661C161.263,665.966 160.868,667.335 160.892,668.692C160.918,670.16 161.609,671.205 162.167,672.498C162.283,672.767 162.708,672.733 162.835,672.498C163.453,671.345 164.345,670.477 164.819,669.223C165.312,667.92 165.522,666.501 165.836,665.147C166.137,663.849 166.442,662.491 166.362,661.151ZM239.6,593.941C238.898,593.674 238.393,593.363 237.616,593.292C236.888,593.226 236.11,593.369 235.388,593.48C233.754,593.733 232.148,594.06 230.501,594.248C229.186,594.397 229.116,596.419 230.501,596.357C232.166,596.283 233.845,596.227 235.506,596.097C236.232,596.04 237.02,595.988 237.72,595.783C238.523,595.547 239.016,595.081 239.69,594.626C239.97,594.437 239.905,594.057 239.6,593.941ZM225.078,595.02C222.745,594.106 220.723,593.884 218.282,594.545C217.226,594.831 216.213,595.247 215.286,595.823C214.214,596.489 213.374,597.325 212.376,598.09C212.169,598.249 212.275,598.62 212.566,598.54C213.614,598.25 214.702,598.172 215.771,597.972C216.803,597.778 217.824,597.573 218.849,597.339C219.878,597.104 220.926,596.95 221.945,596.677C223.012,596.391 224.028,595.928 225.078,595.585C225.368,595.49 225.343,595.124 225.078,595.02ZM207.501,599.881C205.388,600.095 203.965,600.883 202.4,602.299C201.668,602.961 200.963,603.68 200.377,604.478C199.723,605.369 199.232,606.446 198.401,607.203C198.273,607.319 198.436,607.483 198.572,607.424C199.651,606.957 200.868,606.931 201.966,606.545C202.903,606.214 203.806,605.741 204.625,605.182C206.407,603.968 207.603,602.605 207.907,600.415C207.941,600.174 207.805,599.85 207.501,599.881ZM192.919,611.009C190.016,611.612 187.835,613.176 185.884,615.373C183.917,617.588 182.836,620.208 181.328,622.702C181.205,622.906 181.475,623.082 181.641,622.943C183.8,621.142 186.186,619.683 188.254,617.744C190.282,615.84 191.966,613.926 193.264,611.456C193.391,611.214 193.182,610.954 192.919,611.009ZM175.391,629.407C172.168,630.515 170.356,633.373 169.148,636.383C168.552,637.866 168.115,639.439 167.845,641.013C167.57,642.619 167.573,644.21 167.368,645.802C167.287,646.428 168.281,646.66 168.547,646.122C169.213,644.776 169.947,643.551 170.504,642.135C171.05,640.749 171.529,639.339 172.067,637.949C173.141,635.18 174.746,632.638 175.896,629.911C176.017,629.625 175.665,629.313 175.391,629.407ZM319.422,655.499C319.34,654.232 319.128,652.968 318.94,651.714C318.532,648.992 317.639,646.416 317.006,643.747C316.384,641.122 316.027,638.545 314.976,636.028C314.44,634.744 313.693,633.507 312.829,632.418C311.83,631.157 310.707,630.511 309.279,629.827C308.895,629.643 308.279,629.958 308.47,630.449C308.958,631.705 309.323,632.902 310.027,634.068C310.746,635.257 311.497,636.441 312.248,637.61C313.635,639.771 315.028,642.205 315.662,644.707C316.289,647.183 316.302,649.812 316.68,652.337C317.085,655.042 317.617,657.444 318.828,659.903C318.925,660.099 319.18,659.978 319.2,659.802C319.363,658.357 319.517,656.961 319.422,655.499ZM320.774,665.643C320.591,665.397 320.198,665.469 320.184,665.802C320.137,666.903 319.804,667.964 319.679,669.062C319.535,670.316 319.537,671.582 319.509,672.843C319.483,674.033 319.528,675.244 319.763,676.415C319.974,677.464 320.559,678.343 320.82,679.352C320.866,679.532 321.134,679.53 321.181,679.352C321.455,678.34 322.13,677.446 322.43,676.415C322.807,675.123 322.92,673.753 322.939,672.414C322.976,669.772 322.335,667.744 320.774,665.643ZM322.783,686.869C322.602,685.835 322.155,684.484 321.255,683.867C321.067,683.739 320.8,683.801 320.644,683.946C319.958,684.583 319.537,685.722 319.148,686.567C318.629,687.697 318.28,688.952 318.003,690.162C317.45,692.591 317.576,694.843 317.696,697.302C317.709,697.58 318.125,697.748 318.264,697.456C319.4,695.062 321.459,693.339 322.341,690.766C322.773,689.504 323.014,688.192 322.783,686.869ZM317.317,700.215C317.229,699.957 316.863,699.88 316.717,700.137C316.2,701.043 315.321,701.722 314.535,702.394C313.647,703.152 312.883,704.114 312.141,705.023C310.787,706.682 309.3,708.614 309.032,710.802C308.995,711.099 309.361,711.344 309.625,711.255C311.901,710.487 314.218,708.938 315.759,707.09C317.49,705.015 318.207,702.83 317.317,700.215ZM285.71,720.012C284.991,720.593 283.987,720.988 283.177,721.428C282.416,721.841 281.712,722.389 281.011,722.898C280.321,723.4 279.596,723.928 278.974,724.515C278.268,725.182 277.637,725.938 276.776,726.418C276.348,726.656 276.643,727.427 277.119,727.232C278.021,726.862 279.025,726.772 279.975,726.573C281.042,726.35 282.133,725.839 283.041,725.244C284.932,724.004 285.834,722.545 286.396,720.411C286.508,719.987 286.014,719.767 285.71,720.012ZM271.395,728.918C270.62,729.167 269.763,729.149 268.957,729.258C268.138,729.369 267.338,729.597 266.558,729.869C265.05,730.395 263.686,731.195 262.252,731.877C261.867,732.061 261.976,732.681 262.37,732.777C264.094,733.198 265.865,733.339 267.579,732.77C268.412,732.494 269.235,732.132 269.913,731.568C270.629,730.972 271.12,730.226 271.782,729.584C272.062,729.313 271.777,728.796 271.395,728.918ZM291.028,727.802C290.988,727.496 290.817,727.308 290.501,727.275C288.473,727.067 286.517,728.938 285.106,730.146C283.683,731.364 281.596,732.769 281.128,734.7C281.076,734.911 281.194,735.107 281.398,735.175C283.461,735.865 285.816,734.257 287.397,733.115C288.975,731.974 291.317,730.015 291.028,727.802ZM278.001,736.834C275.417,736.695 273.075,737.27 270.695,738.24C269.578,738.696 268.439,739.19 267.409,739.822C266.675,740.272 265.528,740.854 265.286,741.743C265.265,741.819 265.286,741.904 265.343,741.96C265.986,742.591 267.293,742.516 268.129,742.478C269.479,742.418 270.848,742.135 272.137,741.733C274.666,740.945 276.792,739.674 278.405,737.539C278.636,737.234 278.316,736.851 278.001,736.834ZM363.84,559.896C363.95,559.607 363.569,559.343 363.323,559.499C362.903,559.766 362.656,560.193 362.688,560.697C362.722,561.216 362.912,561.83 363.435,562.04C363.534,562.08 363.663,562.013 363.713,561.927C363.897,561.607 363.847,561.167 363.812,560.815C363.784,560.529 363.735,560.168 363.84,559.896ZM268.875,561.084C267.738,558.931 268.033,556.365 267.456,554.045C266.878,551.718 266.327,549.407 265.419,547.187C265.259,546.797 264.729,546.757 264.582,547.187C263.687,549.814 263.434,552.65 263.912,555.398C264.359,557.965 266.216,560.197 268.282,561.677C268.658,561.946 269.061,561.436 268.875,561.084ZM287.288,590.389C287.178,589.953 286.758,589.498 286.356,589.125C285.523,588.351 284.488,587.565 283.976,586.525C283.701,585.966 282.778,586.356 282.97,586.949C283.336,588.082 283.594,589.162 284.419,590.075C284.832,590.533 285.349,590.986 285.94,591.192C286.281,591.311 286.88,591.379 287.184,591.116C287.437,590.897 287.36,590.673 287.288,590.389ZM292.791,578.512C292.625,578.373 292.409,578.043 292.124,577.868C291.679,577.596 291.178,577.469 290.701,577.258C289.702,576.815 288.928,576.23 288.259,575.359C287.593,574.49 286.117,575.263 286.742,576.246C287.457,577.373 288.381,578.557 289.549,579.243C290.094,579.563 290.839,579.843 291.477,579.796C291.753,579.776 292.118,579.709 292.355,579.557C292.489,579.477 292.597,579.37 292.677,579.235C292.722,578.995 292.761,578.948 292.791,579.093C292.951,578.959 292.949,578.646 292.791,578.512ZM284.585,567.981C284.124,567.092 283.558,566.257 283.02,565.416C282.608,564.771 281.97,563.972 281.772,563.228C281.706,562.983 281.388,562.966 281.258,563.161C280.167,564.789 280.642,566.88 281.294,568.613C281.708,569.712 282.263,570.822 282.96,571.77C283.624,572.67 284.489,573.26 285.26,574.043C285.484,574.27 285.811,574.081 285.84,573.802C286.068,571.621 285.594,569.93 284.585,567.981ZM345.18,555.802C345.116,554.925 343.898,554.932 343.821,555.802C343.637,557.888 343.107,559.895 342.637,561.935C342.418,562.883 342.261,563.825 342.105,564.785C341.95,565.732 341.929,566.786 341.594,567.69C341.432,568.127 342.009,568.338 342.299,568.101C343.116,567.433 343.912,566.903 344.479,565.986C345.108,564.968 345.468,563.916 345.607,562.728C345.883,560.382 345.35,558.133 345.18,555.802ZM342.86,543.354C342.318,542.356 341.607,541.387 340.624,540.788C340.302,540.591 339.059,540.111 338.788,540.678C338.112,542.092 339.015,544.193 339.51,545.553C340.23,547.529 341.437,548.96 342.752,550.551C342.927,550.763 343.272,550.631 343.34,550.396C344.045,547.963 344.106,545.642 342.86,543.354ZM315.049,545.256C315.062,544.592 314.938,543.828 314.729,543.198C314.524,542.581 314.212,541.986 313.75,541.525C313.255,541.029 312.772,540.972 312.153,540.749C311.93,540.668 311.611,540.799 311.505,541.013C311.284,541.457 311.017,541.796 310.924,542.3C310.794,543.01 310.995,543.749 311.262,544.4C311.496,544.973 311.789,545.535 312.149,546.042C312.478,546.505 313.036,546.97 313.21,547.521C313.474,548.361 314.901,548.265 314.821,547.302C314.766,546.64 315.037,545.92 315.049,545.256ZM315.948,550.594C315.808,549.708 315.304,549.312 314.875,548.584C314.695,548.278 314.316,548.332 314.126,548.584C313.794,549.022 313.304,549.235 312.978,549.694C312.56,550.28 312.318,550.997 312.11,551.68C311.745,552.883 311.457,554.065 311.309,555.302C311.262,555.695 311.665,555.966 312.001,555.994C313.707,556.134 315.042,554.78 315.643,553.272C316.002,552.371 316.099,551.55 315.948,550.594ZM312.091,514.475C309.923,513.662 307.744,513.281 305.442,513.646C303.485,513.956 301.187,514.804 300.116,516.578C299.923,516.897 300.183,517.206 300.501,517.248C302.372,517.495 304.431,516.959 306.282,516.691C308.282,516.401 310.212,515.869 312.091,515.13C312.408,515.006 312.417,514.597 312.091,514.475ZM272.001,513.416C269.672,513.629 267.014,514.573 266.571,517.184C266.517,517.501 266.767,517.839 267.119,517.732C269.211,517.098 270.684,515.487 272.274,514.076C272.514,513.863 272.333,513.385 272.001,513.416ZM275.11,524.234C272.991,524.325 271.302,526.299 270.041,527.837C268.881,529.253 267.372,530.342 265.875,531.383C264.362,532.436 262.907,533.444 261.829,534.971C261.26,535.775 260.807,536.732 260.561,537.688C260.258,538.862 260.505,540.069 260.32,541.253C260.289,541.45 260.549,541.596 260.661,541.397C261.208,540.437 262.127,539.826 262.85,539.021C263.478,538.322 264.045,537.544 264.597,536.784C265.602,535.401 266.409,533.843 267.629,532.629C268.906,531.359 270.389,530.547 272.081,529.992C273.924,529.386 276.105,528.365 276.791,526.441C277.165,525.394 276.184,524.187 275.11,524.234ZM257.294,547.095C254.61,549.444 253.388,552.67 252.919,556.127C252.457,559.531 252.742,563.08 254.737,565.956C254.9,566.19 255.314,566.125 255.305,565.802C255.27,564.451 255.583,563.072 255.732,561.73C255.923,560.016 256.174,558.307 256.42,556.6C256.661,554.915 256.991,553.253 257.152,551.556C257.288,550.111 257.364,548.77 257.782,547.38C257.872,547.084 257.502,546.912 257.294,547.095ZM262.875,583.584C262.781,583.445 262.73,583.285 262.681,583.12C262.72,582.387 262.133,581.456 261.868,580.864C261.414,579.851 260.958,578.847 260.45,577.86C259.525,576.063 258.196,574.455 256.749,573.054C256.513,572.825 256.182,573.01 256.148,573.302C255.895,575.563 256.299,577.859 257.302,579.892C257.831,580.966 258.497,581.957 259.312,582.835C259.836,583.399 260.726,584.269 261.584,584.221C261.877,584.284 262.164,584.278 262.501,584.236C262.797,584.199 263.08,583.887 262.875,583.584ZM246.576,573.931C245.613,572.912 244.596,571.996 243.77,570.853C243.11,569.941 241.663,570.729 242.231,571.752C242.957,573.059 243.66,574.467 244.684,575.566C245.447,576.385 246.898,577.539 248.106,577.187C248.264,577.141 248.412,576.977 248.399,576.802C248.322,575.754 247.267,574.663 246.576,573.931ZM242.511,567.988C242.437,567.223 242.251,566.469 242.048,565.729C241.654,564.296 241.206,562.825 240.476,561.525C240.272,561.161 239.732,561.173 239.525,561.525C238.678,562.962 238.678,564.739 239.022,566.34C239.196,567.147 239.489,567.982 239.907,568.693C240.398,569.531 241.038,569.94 241.777,570.526C242,570.703 242.287,570.587 242.317,570.302C242.401,569.503 242.589,568.804 242.511,567.988ZM325.729,612.837C325.221,613.085 324.547,612.991 323.977,613.145C323.213,613.351 322.447,613.55 321.682,613.752C320.548,614.051 319.121,614.205 318.244,615.046C318.159,615.127 318.104,615.285 318.15,615.399C318.787,616.955 321.053,617.129 322.498,616.941C323.531,616.806 324.484,616.453 325.297,615.795C326.136,615.115 326.255,614.433 326.52,613.446C326.649,612.967 326.14,612.636 325.729,612.837ZM316.959,597.184C315.844,596.958 315.024,597.268 313.945,597.541C312.674,597.863 311.376,597.891 310.071,597.918C308.865,597.943 307.66,598.015 306.455,598.052C305.626,598.078 304.319,598.402 303.557,598.099C303.339,598.013 303.235,598.309 303.351,598.452C303.729,598.913 303.858,599.365 304.331,599.759C304.774,600.128 305.274,600.382 305.815,600.574C307.116,601.035 308.54,601.08 309.899,600.901C311.278,600.719 312.578,600.244 313.915,599.887C315.164,599.554 316.402,599.425 317.28,598.401C317.609,598.017 317.536,597.301 316.959,597.184ZM360.661,585.463C359.521,586.477 358.263,587.34 357.158,588.381C355.984,589.488 354.821,590.606 353.631,591.696C352.493,592.74 351.272,593.723 350.213,594.848C349.686,595.408 349.24,595.999 348.776,596.61C348.281,597.264 348.048,597.911 347.657,598.601C347.484,598.905 347.769,599.276 348.106,599.187C348.929,598.97 349.682,598.885 350.5,598.57C351.22,598.294 351.922,598.007 352.594,597.623C354.14,596.738 355.571,595.596 356.906,594.421C358.191,593.289 359.342,591.981 360.224,590.507C361.041,589.141 361.372,587.386 361.481,585.802C361.512,585.359 360.949,585.206 360.661,585.463ZM353.896,557.187C353.759,555.093 353.317,553.074 352.889,551.026C352.436,548.86 352.054,546.658 351.894,544.449C351.736,542.273 351.953,539.558 350.512,537.792C349.669,536.759 348.132,537.681 348.071,538.802C348.005,540.021 348.6,541.094 349.146,542.149C349.634,543.094 350.092,544.058 350.46,545.064C351.199,547.081 351.513,549.272 351.548,551.411C351.581,553.48 351.46,555.54 351.55,557.61C351.591,558.569 351.621,559.554 351.774,560.502C351.987,561.813 352.633,562.988 352.778,564.302C352.809,564.582 353.211,564.595 353.223,564.302C353.276,563.007 353.805,561.796 353.932,560.502C354.04,559.405 353.969,558.285 353.896,557.187ZM353.227,565.74C353.15,565.546 352.826,565.491 352.774,565.74C352.324,567.906 351.488,569.965 350.868,572.083C350.569,573.104 350.238,574.113 349.953,575.137C349.7,576.049 349.78,577.365 349.298,578.184C349.16,578.418 349.473,578.646 349.666,578.468C350.43,577.765 351.416,577.448 352.106,576.594C352.925,575.582 353.44,574.332 353.787,573.087C354.468,570.646 354.141,568.068 353.227,565.74ZM347.235,583.537C346.211,584.357 344.969,584.806 343.936,585.633C342.812,586.532 341.813,587.591 340.769,588.583C339.776,589.526 338.735,590.41 337.721,591.329C336.582,592.361 335.263,593.588 333.829,594.181C333.081,594.491 333.384,595.72 334.172,595.424C335.596,594.889 337.056,594.55 338.461,593.934C339.934,593.288 341.206,592.44 342.473,591.453C343.653,590.534 344.819,589.49 345.743,588.308C346.8,586.957 347.082,585.483 347.824,583.992C348.021,583.596 347.565,583.273 347.235,583.537ZM323.357,560.783C322.55,561.075 321.695,560.929 320.87,561.206C319.907,561.53 319.092,562.119 318.357,562.813C317.008,564.089 316.21,565.915 314.769,567.07C314.469,567.311 314.851,567.756 315.166,567.586C316.862,566.668 318.929,566.707 320.67,565.81C321.511,565.377 322.211,564.847 322.804,564.11C323.455,563.302 323.456,562.435 323.966,561.575C324.192,561.193 323.811,560.618 323.357,560.783ZM312.351,567.76C310.919,567.985 309.347,567.724 307.89,567.677C306.181,567.622 304.64,567.577 302.979,567.144C301.303,566.707 299.752,566.092 298.133,565.512C296.638,564.976 295.248,564.376 294.141,563.162C294.003,563.01 293.76,563.17 293.808,563.355C294.87,567.441 297.906,570.354 301.912,571.612C305.922,572.872 310.903,572.848 312.986,568.586C313.215,568.119 312.841,567.683 312.351,567.76ZM297.818,530.196C297.149,531.137 296.25,531.863 295.67,532.876C295.135,533.812 294.752,534.908 294.469,535.943C293.851,538.198 294.017,540.428 293.661,542.709C293.606,543.068 294.112,543.369 294.304,542.98C295.281,541.008 296.274,539.182 296.869,537.049C297.175,535.954 297.453,534.831 297.648,533.709C297.842,532.584 297.774,531.43 298.204,530.359C298.299,530.122 297.947,530.016 297.818,530.196ZM321.092,531.711C320.011,530.81 319.119,529.698 317.999,528.814C316.94,527.98 315.806,527.329 314.553,526.833C311.879,525.775 309.232,525.841 306.817,527.489C306.539,527.679 306.616,528.183 307.001,528.166C309.421,528.058 311.999,528.598 314.257,529.497C315.344,529.93 316.429,530.367 317.523,530.781C318.652,531.209 319.859,531.477 320.966,531.927C321.085,531.975 321.188,531.791 321.092,531.711ZM334.943,564.073C334.894,562.844 334.594,561.004 333.741,560.062C333.597,559.903 333.308,559.945 333.207,560.131C332.648,561.169 332.386,562.551 331.978,563.672C331.473,565.061 330.979,566.449 330.497,567.849C330.042,569.171 329.603,570.499 329.146,571.82C328.693,573.129 328.172,574.606 327.339,575.708C327.228,575.854 327.449,576.076 327.595,575.964C328.762,575.077 329.948,574.355 330.992,573.309C332.24,572.06 333.246,570.672 333.942,569.044C334.637,567.417 335.015,565.851 334.943,564.073ZM321.317,579.989C320.042,580.908 318.14,581.218 316.659,581.712C315.151,582.216 313.769,582.84 312.341,583.529C312.016,583.686 312.245,584.209 312.585,584.108C314.334,583.585 316.25,583.861 318.031,583.391C319.761,582.934 320.915,582.005 321.814,580.486C321.989,580.191 321.622,579.769 321.317,579.989ZM303.072,586.043C299.915,585.558 296.666,586.004 293.501,585.603C293.295,585.577 293.243,585.882 293.4,585.974C296.387,587.737 299.954,588.15 303.137,586.535C303.331,586.437 303.302,586.078 303.072,586.043ZM365.458,550.302C365.27,548.557 365.394,546.947 364.921,545.211C364.536,543.798 363.924,541.888 362.642,541.06C362.508,540.973 362.341,541.04 362.258,541.161C361.333,542.508 361.668,544.705 362.047,546.211C362.501,548.018 363.443,549.278 364.677,550.626C364.929,550.9 365.501,550.701 365.458,550.302ZM346.907,511.19C346.783,510.705 346.695,510.208 346.525,509.737C346.33,509.196 345.872,508.688 345.483,508.272C345.113,507.875 344.662,507.561 344.203,507.273C343.727,506.975 343.115,506.847 342.666,506.519C342.37,506.303 342.101,506.706 342.217,506.968C342.441,507.472 342.451,508.055 342.685,508.571C342.938,509.128 343.247,509.641 343.661,510.094C344.069,510.54 344.514,510.945 345.056,511.206C345.487,511.413 345.942,511.534 346.388,511.709C346.702,511.832 346.98,511.475 346.907,511.19ZM341.976,513.165C341.277,511.802 340.068,510.683 338.827,509.815C336.38,508.105 333.415,508.071 330.844,506.716C330.059,506.302 329.45,507.388 330.158,507.889C332.211,509.344 333.879,511.328 335.717,513.04C336.607,513.868 337.421,514.742 338.266,515.613C339.163,516.538 340.28,516.93 341.294,517.657C341.525,517.823 341.815,517.638 341.896,517.411C342.41,515.977 342.723,514.622 341.976,513.165ZM324.672,505.009C323.967,504.507 323.202,504.161 322.495,503.638C321.833,503.148 321.275,502.59 320.555,502.17C319.058,501.296 317.426,500.669 315.722,500.339C313.899,499.986 312.131,500.073 310.305,500.348C308.408,500.633 306.422,501.194 304.501,501.092C304.242,501.078 304.243,501.422 304.444,501.506C306.176,502.229 307.837,502.796 309.657,503.254C311.426,503.699 313.241,503.984 314.989,504.508C316.545,504.974 318.009,505.653 319.625,505.917C320.385,506.041 321.294,506.035 322.062,505.958C322.861,505.878 323.834,505.903 324.591,505.63C324.877,505.527 324.915,505.182 324.672,505.009ZM331.314,498.619C329.415,494.419 324.806,492.912 320.531,492.253C318.254,491.902 316.003,491.83 313.707,492.014C311.523,492.19 309.486,492.828 307.423,493.52C307.127,493.619 307.153,494.121 307.501,494.095C309.455,493.95 311.413,494.118 313.37,494.116C315.477,494.114 317.628,494.255 319.71,494.591C323.682,495.231 327.424,496.996 330.817,499.116C331.152,499.326 331.453,498.926 331.314,498.619ZM300.731,493.408C299.42,492.426 298.052,491.433 296.478,490.947C294.718,490.404 292.754,490.267 290.912,490.253C287.298,490.227 284.109,491.118 281.205,493.297C280.722,493.659 280.973,494.61 281.656,494.367C283.199,493.821 284.693,494.052 286.28,494.181C288.071,494.327 289.856,494.443 291.643,494.649C293.388,494.851 295.179,495.187 296.932,495.026C297.371,494.986 297.749,494.813 298.159,494.739C298.403,494.694 298.768,494.626 298.851,494.6C299.376,494.437 300.012,494.389 300.622,494.243C301.042,494.143 301.023,493.626 300.731,493.408ZM278.219,494.428C277.141,493.912 276.009,493.361 274.79,493.386C273.241,493.419 271.838,493.968 270.424,494.553C267.677,495.691 265.218,497.198 262.93,499.094C260.924,500.757 259.45,502.8 257.949,504.909C257.191,505.971 256.446,507.067 255.599,508.059C254.768,509.032 253.754,509.779 252.885,510.687C252.783,510.792 252.859,510.959 253.001,510.967C255.116,511.073 257.29,509.088 258.7,507.721C260.488,505.986 262.052,503.928 264.105,502.487C266.295,500.95 268.878,499.784 271.332,498.74C272.575,498.211 273.903,497.868 275.12,497.287C276.285,496.732 277.135,495.848 278.219,495.177C278.477,495.018 278.525,494.574 278.219,494.428ZM356.082,508.505C356.045,508.048 355.793,507.575 355.542,507.202C354.977,506.361 354.237,505.681 353.403,505.114C352.665,504.613 351.72,505.806 352.437,506.366C353.225,506.981 353.798,507.698 354.298,508.559C354.531,508.961 355.198,510.01 355.783,509.51C356.017,509.31 356.106,508.798 356.082,508.505ZM349.249,502.734C348.876,501.635 348.719,500.537 348.147,499.512C347.58,498.496 346.777,497.607 345.865,496.886C344.991,496.195 344.096,495.639 343.083,495.177C341.947,494.658 340.739,494.488 339.56,494.088C339.315,494.005 339.179,494.365 339.388,494.495C341.207,495.62 342.615,497.645 344.021,499.244C344.673,499.985 345.351,500.687 346.117,501.31C346.968,502.003 347.966,502.41 348.87,503.025C349.053,503.15 349.32,502.942 349.249,502.734ZM334.395,492.072C333.932,491.403 333.63,490.687 333.014,490.131C332.174,489.373 331.034,489.025 329.973,488.702C328.924,488.382 327.801,488.185 326.7,488.175C325.611,488.165 324.572,488.559 323.501,488.498C323.183,488.48 323.107,488.912 323.347,489.066C324.27,489.658 324.94,490.596 325.875,491.22C326.729,491.79 327.697,492.221 328.663,492.556C329.638,492.895 330.664,493.279 331.711,493.276C332.587,493.274 333.292,492.914 334.122,492.743C334.398,492.686 334.557,492.306 334.395,492.072ZM311.385,486.078C310.449,484.092 307.419,483.816 305.501,483.767C303.039,483.705 300.792,484.5 298.435,485.065C298.157,485.132 298.231,485.536 298.501,485.549C300.927,485.658 303.105,486.905 305.476,487.414C307.254,487.795 310.031,488.278 311.315,486.617C311.449,486.445 311.479,486.277 311.385,486.078ZM293.684,483.989C292.867,483.438 292.022,482.923 291.024,482.793C289.945,482.651 288.7,482.859 287.64,483.064C285.354,483.507 283.527,484.618 281.407,485.463C280.987,485.631 281.144,486.217 281.594,486.141C282.769,485.945 283.864,486.085 285.04,486.031C286.032,485.985 287.028,485.924 288.019,485.866C288.999,485.808 290.056,485.797 291.024,485.627C291.975,485.46 292.806,484.995 293.684,484.616C293.955,484.5 293.884,484.124 293.684,483.989ZM276.075,486.031C273.437,485.311 271.168,485.895 268.702,486.981C265.998,488.171 264.028,490.386 261.436,491.691C261.303,491.757 261.396,491.968 261.535,491.927C264.182,491.151 266.912,491.015 269.532,490.048C270.753,489.597 272.008,489.148 273.179,488.579C273.711,488.32 274.252,488.029 274.694,487.628C275.151,487.214 275.648,486.927 276.142,486.545C276.324,486.405 276.33,486.101 276.075,486.031ZM260.001,492.092C258.976,492.103 257.941,491.965 256.926,492.053C255.797,492.152 254.812,492.736 253.871,493.327C252.941,493.911 252.087,494.578 251.419,495.454C250.766,496.308 250.504,497.371 249.869,498.226C249.777,498.35 249.955,498.513 250.077,498.434C250.914,497.894 252.006,497.784 252.922,497.41C253.824,497.041 254.634,496.558 255.468,496.059C256.297,495.563 257.183,495.155 257.896,494.489C258.635,493.798 259.236,493.038 260.107,492.485C260.278,492.375 260.216,492.089 260.001,492.092ZM246.317,501.489C244.498,502.346 243.626,503.65 242.751,505.404C241.962,506.985 241.124,508.705 239.979,510.063C239.49,510.643 239.96,511.416 240.695,511.292C242.703,510.951 243.902,509.251 244.818,507.563C245.317,506.644 245.835,505.708 246.213,504.731C246.565,503.821 246.603,502.84 246.851,501.899C246.937,501.573 246.596,501.358 246.317,501.489ZM382.179,547.418C381.721,545.585 381.071,543.718 380.179,542.05C379.278,540.364 378.141,538.848 377.142,537.22C377.047,537.065 376.786,537.163 376.842,537.346C377.346,538.975 377.632,540.633 378.067,542.278C378.529,544.026 379.075,545.747 379.566,547.489C380.057,549.231 380.409,550.959 380.61,552.758C380.697,553.535 380.837,554.302 380.919,555.08C380.999,555.832 380.959,556.676 381.173,557.393C381.242,557.624 381.566,557.742 381.741,557.543C382.667,556.488 382.971,554.51 383.026,553.15C383.101,551.267 382.632,549.231 382.179,547.418ZM371.872,526.503C370.544,524.423 369.058,522.242 367.175,520.628C367.021,520.497 366.749,520.576 366.754,520.802C366.811,523.206 368.036,525.511 369.252,527.529C370.546,529.678 371.902,531.83 373.777,533.526C373.98,533.71 374.311,533.584 374.317,533.302C374.374,530.802 373.177,528.549 371.872,526.503ZM381.351,572.706C381.29,572.458 380.918,572.332 380.744,572.546C379.548,574.01 378.74,576.102 378.286,577.925C378.006,579.049 377.888,580.286 377.302,581.301C376.741,582.274 375.914,583.06 375.113,583.827C373.639,585.236 372.347,586.984 371.202,588.668C369.982,590.462 369.178,592.492 367.95,594.273C367.912,594.328 367.997,594.392 368.042,594.344C369.576,592.702 371.506,591.487 372.984,589.784C374.374,588.182 375.73,586.4 376.487,584.403C376.896,583.324 377.309,582.173 377.95,581.207C378.551,580.3 379.383,579.549 380.011,578.653C381.125,577.058 381.822,574.64 381.351,572.706ZM366.335,595.637C365.133,596.684 363.742,597.406 362.546,598.484C361.292,599.613 360.242,600.907 359.172,602.209C358.169,603.431 357.133,604.63 356.085,605.813C355.058,606.971 354.352,608.246 353.515,609.519C353.257,609.911 353.69,610.516 354.15,610.345C355.649,609.786 356.906,609.245 358.137,608.163C359.377,607.073 360.474,605.836 361.554,604.59C362.644,603.334 363.732,602.024 364.555,600.575C365.411,599.068 365.852,597.406 366.703,595.921C366.84,595.682 366.532,595.465 366.335,595.637ZM343.904,621.952C343.117,622.167 342.304,622.176 341.545,622.497C340.761,622.83 340.061,623.217 339.373,623.722C338.73,624.194 338.094,624.716 337.557,625.307C337.015,625.903 336.799,626.58 336.339,627.208C336.253,627.325 336.369,627.492 336.501,627.49C337.318,627.475 337.971,627.639 338.79,627.426C339.616,627.21 340.448,626.793 341.161,626.33C341.905,625.847 342.587,625.259 343.14,624.563C343.647,623.927 343.889,623.172 344.314,622.486C344.483,622.213 344.204,621.87 343.904,621.952ZM332.84,628.463C330.246,626.007 326.196,628.169 323.409,629.261C322.476,629.627 322.29,631.058 323.409,631.351C325.181,631.814 326.82,631.821 328.638,631.506C330.482,631.186 331.968,630.735 332.915,629.045C333.018,628.863 332.996,628.61 332.84,628.463ZM154.766,624.374C154.406,624.074 153.949,624.015 153.501,623.963C153.199,623.928 153.065,624.352 153.26,624.543C153.576,624.85 153.842,625.216 154.257,625.395C154.523,625.51 155.015,625.76 155.228,625.423C155.442,625.084 155.005,624.575 154.766,624.374ZM194.706,590.731C194.168,590.849 193.673,591.278 193.401,591.76C193.068,592.347 193.052,592.911 193.175,593.558C193.328,594.369 194.451,594.392 194.839,593.776C195.276,593.082 195.665,592.277 195.62,591.428C195.595,590.943 195.18,590.626 194.706,590.731ZM160.968,579.94C160.034,578.461 158.751,577.481 157.091,576.975C156.872,576.908 156.669,577.089 156.661,577.302C156.556,580.038 157.786,584.102 160.848,584.856C161.088,584.915 161.375,584.819 161.496,584.592C162.265,583.157 161.785,581.234 160.968,579.94ZM171.519,578.912C171.435,577.533 170.831,576.396 170.024,575.301C168.543,573.292 166.543,571.692 164.554,570.211C164.453,570.137 164.35,570.292 164.426,570.377C166.177,572.34 167.31,574.926 167.772,577.499C167.98,578.659 168.061,579.849 168.609,580.913C169.016,581.704 169.334,581.984 170.166,581.6C170.255,581.559 170.3,581.544 170.319,581.544C170.355,581.511 170.406,581.466 170.48,581.404C170.736,581.187 170.937,580.995 171.105,580.692C171.419,580.123 171.558,579.562 171.519,578.912ZM170.319,581.544C170.133,581.716 170.384,581.544 170.319,581.544ZM164.233,569.167C163.749,568.254 163.731,567.224 163.401,566.263C163.044,565.224 162.516,564.418 161.656,563.687C160.864,563.014 159.925,562.486 158.915,562.23C158.148,562.035 156.934,561.896 156.27,562.408C156.089,562.548 156.026,562.699 156.06,562.924C156.164,563.623 156.784,564.248 157.231,564.773C157.817,565.461 158.441,566.128 159.1,566.747C159.76,567.368 160.421,567.901 161.245,568.276C162.11,568.67 163.047,568.898 163.81,569.493C164.042,569.674 164.386,569.454 164.233,569.167ZM157.593,590.231C155.333,588.593 152.21,589.077 150.187,587.008C149.297,586.098 148.637,585.056 147.671,584.204C146.56,583.225 145.476,582.49 144.683,581.196C144.562,580.998 144.221,581.124 144.297,581.359C144.707,582.621 145.074,584.083 145.786,585.212C146.612,586.523 147.758,587.177 149.115,587.82C150.506,588.48 151.677,589.352 152.805,590.4C153.914,591.43 154.992,592.405 156.478,592.874C158.143,593.401 158.844,591.137 157.593,590.231ZM143.177,570.525C143.066,569.525 142.937,568.541 142.936,567.533C142.934,566.528 142.74,565.345 143.152,564.391C143.229,564.214 143.033,564.036 142.876,564.178C141.088,565.796 140.453,567.77 140.425,570.184C140.398,572.514 141.002,574.944 142.735,576.568C142.994,576.81 143.334,576.615 143.376,576.302C143.638,574.336 143.396,572.494 143.177,570.525ZM209.687,578.487C209.473,576.905 208.611,573.673 206.509,573.811C206.4,573.773 206.288,573.748 206.159,573.726C205.822,573.668 205.354,573.88 205.403,574.302C205.41,574.364 205.415,574.425 205.42,574.486C204.66,575.728 205.158,577.816 205.227,579.115C205.28,580.13 205.217,581.167 205.422,582.166C205.525,582.667 205.68,583.097 205.935,583.535C206.127,583.864 206.341,584.098 206.402,584.468C206.482,584.96 207.127,585.024 207.44,584.742C208.331,583.937 209.144,583.553 209.567,582.317C209.979,581.112 209.855,579.725 209.687,578.487ZM199.345,580.737C198.831,580.822 198.417,581.367 198.093,581.745C197.42,582.528 197.295,583.46 197.178,584.454C197.018,585.805 197.007,588.597 199.089,588.235C200.858,587.928 201.483,585.286 201.524,583.789C201.55,582.833 200.685,580.518 199.345,580.737ZM173.001,611.275C171.773,611.199 170.796,611.166 169.76,611.948C169.181,612.384 168.69,612.957 168.039,613.293C167.256,613.697 166.257,613.815 165.402,613.907C162.671,614.2 160.281,614.272 158.027,615.997C157.499,616.402 157.465,617.326 158.226,617.516C161.149,618.25 163.396,617.04 165.834,615.502C166.427,615.128 167.006,614.753 167.651,614.469C168.51,614.091 169.329,614.089 170.243,614.018C171.716,613.903 172.452,613.237 173.373,612.175C173.679,611.823 173.469,611.304 173.001,611.275ZM178.375,561.748C177.72,560.792 176.998,560.055 176.036,559.415C175.128,558.811 174.038,558.602 173.022,558.223C172.933,558.19 172.883,558.326 172.959,558.373C174.575,559.373 175.023,561.967 175.542,563.674C175.808,564.55 176.061,565.537 176.544,566.323C177.013,567.087 177.682,567.737 178.177,568.492C178.364,568.777 178.746,568.703 178.862,568.402C179.231,567.445 179.678,566.351 179.668,565.312C179.656,564.07 179.063,562.754 178.375,561.748ZM172.191,558.112C171.801,557.624 171.57,556.853 171.251,556.303C170.892,555.686 170.469,555.213 169.945,554.731C168.951,553.817 167.946,552.884 166.815,552.139C164.516,550.624 162.273,549.862 159.501,550.033C159.192,550.052 159.141,550.459 159.429,550.562C161.981,551.48 163.62,553.621 165.449,555.493C166.304,556.368 167.231,557.327 168.277,557.977C169.525,558.752 170.651,558.503 172.001,558.572C172.257,558.585 172.325,558.279 172.191,558.112ZM150.082,549.509C149.001,549.311 147.85,548.989 146.747,549.041C145.484,549.1 144.077,549.557 142.914,550.03C141.753,550.501 140.692,551.067 139.778,551.937C138.78,552.886 138.45,554.025 137.869,555.226C137.798,555.372 137.985,555.546 138.108,555.41C138.908,554.531 140.21,554.076 141.279,553.615C142.265,553.19 143.28,552.834 144.308,552.525C145.334,552.217 146.449,552.074 147.438,551.67C148.393,551.28 149.294,550.631 150.154,550.066C150.354,549.934 150.357,549.559 150.082,549.509ZM143.291,597.512C141.186,594.992 137.258,595.315 135.108,592.695C134.998,592.561 134.777,592.735 134.869,592.879C136.59,595.589 139.362,599.584 143.11,598.198C143.412,598.086 143.497,597.76 143.291,597.512ZM134.294,591.721C133.838,590.212 132.571,588.814 131.717,587.504C130.753,586.025 129.629,584.675 128.642,583.22C128.533,583.058 128.317,583.165 128.341,583.346C128.625,585.373 128.781,587.224 129.862,589.028C130.701,590.429 132.209,592.118 134.001,592.107C134.194,592.106 134.352,591.913 134.294,591.721ZM126.477,570.447C126.233,567.923 125.755,564.777 126.704,562.359C126.781,562.161 126.487,562.002 126.351,562.153C124.344,564.394 123.791,567.341 124.011,570.273C124.236,573.273 124.7,576.228 126.76,578.543C126.962,578.769 127.337,578.584 127.34,578.302C127.368,575.624 126.735,573.106 126.477,570.447ZM198.316,569.407C198.247,568.183 198.108,566.896 197.62,565.759C197.395,565.233 197.13,564.701 196.858,564.197C196.54,563.606 196.005,563.272 195.662,562.708C195.557,562.534 195.242,562.647 195.32,562.852C195.482,563.281 195.407,563.79 195.427,564.235C195.454,564.826 195.565,565.398 195.561,565.993C195.553,567.066 195.656,568.14 195.648,569.215C195.633,571.248 195.636,573.275 195.614,575.302C195.61,575.63 196.044,575.823 196.274,575.576C197.793,573.943 198.442,571.598 198.316,569.407ZM191.8,549.466C191.33,548.355 190.704,547.318 189.921,546.396C189.165,545.505 188.184,545.048 187.148,544.55C186.865,544.413 186.536,544.769 186.794,545.01C187.536,545.704 187.846,546.75 188.282,547.661C188.765,548.672 189.15,549.742 189.502,550.807C190.142,552.746 190.772,554.656 191.717,556.468C191.862,556.745 192.219,556.629 192.317,556.39C193.243,554.134 192.719,551.64 191.8,549.466ZM183.233,542.667C181.78,540.352 179.825,538.68 177.583,537.161C177.425,537.053 177.26,537.287 177.385,537.418C179.202,539.331 180.756,541.41 182.865,543.035C183.084,543.204 183.368,542.882 183.233,542.667ZM169.178,535.499C166.13,533.178 157.529,531.013 156.116,536.197C156.017,536.56 156.398,536.781 156.702,536.646C160.669,534.888 165.071,537.297 169.094,536.141C169.41,536.051 169.409,535.675 169.178,535.499ZM129.082,601.72C128.575,601.228 128.067,600.736 127.559,600.245C127.482,600.171 127.369,600.284 127.442,600.36C127.934,600.869 128.425,601.377 128.918,601.885C129.022,601.994 129.192,601.825 129.082,601.72ZM136.501,534.275C135.14,534.448 133.824,534.561 132.493,534.904C130.856,535.326 129.507,536.092 128.156,537.104C126.904,538.042 125.86,539.205 124.964,540.481C124.116,541.691 123.803,542.891 123.274,544.24C123.188,544.462 123.514,544.632 123.666,544.468C124.52,543.545 125.831,542.848 126.888,542.151C128.067,541.373 129.272,540.638 130.448,539.856C131.654,539.053 132.789,538.252 133.907,537.333C134.823,536.581 135.718,535.823 136.767,535.258C137.2,535.024 137.033,534.208 136.501,534.275ZM118.294,549.448C115.878,550.571 114.301,552.813 113.175,555.154C112.625,556.298 112.148,557.523 111.955,558.782C111.855,559.438 111.775,560.102 111.864,560.763C111.956,561.443 112.221,562.123 112.278,562.802C112.298,563.044 112.642,563.115 112.715,562.862C113.039,561.739 113.988,560.68 114.519,559.638C115.069,558.559 115.572,557.455 116.128,556.377C117.21,554.283 118.453,552.256 118.896,549.911C118.965,549.546 118.626,549.294 118.294,549.448ZM113.665,575.905C113.331,574.734 113.158,573.539 112.892,572.354C112.616,571.121 112.152,569.931 111.817,568.715C111.745,568.454 111.349,568.381 111.217,568.637C109.911,571.177 109.898,573.564 110.663,576.289C111.406,578.932 112.783,581.173 114.835,582.968C114.968,583.085 115.264,583.022 115.235,582.802C114.927,580.455 114.32,578.196 113.665,575.905ZM209.104,560.969C208.491,559.21 207.265,558.098 206.006,556.797C205.455,556.228 204.408,556.985 204.883,557.663C206.41,559.841 205.565,563.296 207.694,565.109C207.83,565.225 208.057,565.293 208.219,565.177C209.553,564.224 209.608,562.415 209.104,560.969ZM205.083,553.008C204.928,552.137 204.523,551.254 203.991,550.548C203.589,550.013 203.065,549.483 202.395,549.308C201.897,549.179 201.251,549.311 201.212,549.926C201.177,550.479 201.6,551.148 201.808,551.641C202.135,552.417 202.439,553.216 202.856,553.947C203.13,554.428 204.392,556.532 205.014,555.263C205.314,554.65 205.198,553.655 205.083,553.008ZM157.34,634.209C156.755,631.853 153.544,631.184 151.501,630.951C151.272,630.925 151.103,631.196 151.161,631.396C151.572,632.787 152.397,633.68 153.685,634.37C154.798,634.967 156.032,635.351 157.178,634.606C157.312,634.519 157.378,634.366 157.34,634.209ZM135.345,618.601C133.784,615.606 130.427,613.713 127.613,612.11C127.403,611.99 127.226,612.222 127.308,612.415C128.638,615.526 131.845,617.652 134.799,619.146C135.157,619.327 135.533,618.963 135.345,618.601ZM101.689,570.858C101.744,570.298 101.853,569.74 101.828,569.177C101.799,568.547 101.582,567.928 101.504,567.302C101.458,566.929 100.951,566.563 100.644,566.946C100.201,567.5 99.631,568.033 99.317,568.675C98.961,569.404 98.879,570.252 98.814,571.048C98.749,571.853 98.808,572.71 99.059,573.485C99.34,574.349 99.941,574.898 100.393,575.657C100.866,576.451 101.972,575.757 101.608,574.948C101.361,574.4 101.532,573.36 101.565,572.768C101.601,572.133 101.627,571.491 101.689,570.858ZM104.761,587.231C104.597,586.652 104.712,586.014 104.583,585.42C104.427,584.701 104.163,583.976 103.9,583.292C103.411,582.021 102.876,580.877 101.782,580.021C101.556,579.844 101.201,579.88 101.116,580.197C100.712,581.707 101.051,583.151 101.667,584.556C101.949,585.201 102.329,585.927 102.81,586.453C103.259,586.944 103.847,587.146 104.365,587.535C104.56,587.682 104.82,587.44 104.761,587.231ZM120.113,517.396C118.129,517.12 116.13,518.556 114.744,519.811C113.071,521.325 111.965,523.29 110.616,525.078C110.31,525.483 110.974,525.981 111.315,525.617C112.809,524.024 114.737,523.006 116.531,521.786C117.949,520.821 119.799,519.597 120.407,517.915C120.478,517.72 120.327,517.425 120.113,517.396ZM105.898,529.43C103.486,529.975 101.301,531.699 99.775,533.582C98.956,534.593 98.208,535.639 97.574,536.777C96.908,537.972 96.636,539.322 96.014,540.519C95.678,541.166 96.579,541.683 96.986,541.086C97.68,540.069 98.755,539.253 99.547,538.3C100.34,537.346 101.12,536.381 101.92,535.433C103.419,533.657 104.942,531.854 106.335,529.998C106.552,529.708 106.194,529.363 105.898,529.43ZM92.873,557.93C92.676,557.724 92.326,557.732 92.127,557.93C90.866,559.188 90.4,560.611 90.29,562.384C90.188,564.031 90.651,565.674 90.461,567.302C90.4,567.828 91.246,568.045 91.466,567.575C92.224,565.946 93.364,564.646 93.851,562.866C94.343,561.07 94.196,559.314 92.873,557.93ZM92.809,576.843C92.759,575.709 92.772,574.491 92.483,573.386C92.223,572.388 91.696,571.558 91.294,570.631C91.193,570.399 90.813,570.418 90.707,570.631C90.21,571.624 89.674,572.484 89.446,573.593C89.185,574.861 89.355,576.229 89.529,577.497C89.862,579.927 91.072,581.869 92.338,583.897C92.429,584.042 92.709,583.999 92.688,583.802C92.433,581.514 92.911,579.156 92.809,576.843ZM102.009,602.162C101.204,599.632 99.201,597.517 97.801,595.297C97.048,594.104 96.423,592.836 95.708,591.62C95.033,590.472 94.325,589.355 93.763,588.149C93.641,587.887 93.29,588.002 93.206,588.221C92.062,591.231 93.163,594.231 94.795,596.826C96.281,599.189 98.474,602.158 101.36,602.811C101.735,602.896 102.137,602.563 102.009,602.162ZM129.115,625.788C127.48,624.563 125.268,623.922 123.857,622.446C123.465,622.036 122.759,622.568 123.065,623.057C124.113,624.728 124.829,626.339 126.349,627.673C127.158,628.383 129.612,630.327 130.792,629.18C131.824,628.175 129.78,626.286 129.115,625.788ZM122.036,615.837C121.386,614.9 120.679,614.041 119.825,613.286C118.876,612.448 118.025,612.115 116.903,611.614C116.273,611.333 115.57,611.794 115.732,612.514C115.957,613.512 116.015,614.407 116.436,615.366C116.872,616.361 117.34,617.323 117.874,618.27C118.846,619.991 119.875,622.108 122.022,622.488C122.516,622.576 123.024,622.431 123.289,621.973C124.492,619.889 123.264,617.604 122.036,615.837ZM150.539,649.088C149.459,648.464 147.972,648.333 146.754,648.216C145.487,648.095 144.261,648.14 143,647.931C141.65,647.707 140.262,647.368 139.065,646.691C138.94,646.62 138.802,646.79 138.909,646.894C140.663,648.579 142.628,649.575 144.696,650.783C145.816,651.438 147.102,651.928 148.321,652.365C149.357,652.735 150.891,652.944 151.626,651.903C152.357,650.867 151.48,649.632 150.539,649.088ZM135.7,644.604C134.377,643.482 133.136,642.333 131.705,641.329C130.192,640.269 128.787,639.676 127.066,639.065C126.843,638.986 126.632,639.325 126.826,639.477C128.289,640.612 129.425,642.163 130.905,643.327C132.297,644.424 133.714,645.053 135.501,645.084C135.731,645.088 135.889,644.764 135.7,644.604ZM121.156,632.059C119.792,630.603 118.191,629.424 116.749,628.054C116.457,627.776 116.01,628.126 116.197,628.48C117.14,630.266 117.93,632.107 119.212,633.69C120.232,634.95 121.705,636.85 123.501,636.818C123.768,636.813 124.032,636.585 124.016,636.302C123.924,634.614 122.23,633.206 121.156,632.059ZM112.749,623.734C112.517,622.702 112.411,621.577 112.053,620.581C111.713,619.635 111.193,618.724 110.71,617.846C110.221,616.958 109.727,616.097 109.098,615.3C108.363,614.368 107.592,613.833 106.691,613.112C106.455,612.923 106.126,613.152 106.268,613.438C106.747,614.407 107.071,615.514 107.534,616.507C107.954,617.407 108.435,618.274 108.88,619.162C109.298,619.995 109.688,620.883 110.23,621.642C110.835,622.487 111.605,623.231 112.318,623.985C112.503,624.18 112.803,623.975 112.749,623.734ZM157.446,508.542C156.722,507.297 155.43,507.265 154.13,507.403C153.273,507.493 152.457,507.728 151.591,507.769C150.659,507.814 149.746,507.658 148.82,507.613C147.074,507.529 145.353,507.805 143.654,508.182C142.419,508.455 141.179,508.9 140.444,509.977C140.137,510.426 140.562,510.893 141.001,510.947C142.092,511.082 143.139,510.948 144.222,510.732C145.806,510.417 147.395,510.194 148.957,509.774C150.656,509.317 151.981,509.043 153.736,509.356C154.975,509.576 155.949,509.755 157.137,509.3C157.444,509.182 157.626,508.853 157.446,508.542ZM155.349,514.954C154.609,514.156 153.207,514.352 152.2,514.394C150.794,514.452 149.404,514.71 148.001,514.81C147.368,514.856 147.367,515.749 148.001,515.795C149.404,515.895 150.794,516.153 152.2,516.211C153.215,516.253 154.605,516.454 155.349,515.651C155.534,515.45 155.535,515.156 155.349,514.954ZM146.575,515.031C145.746,514.864 144.976,514.49 144.127,514.349C143.153,514.186 142.24,514.245 141.268,514.386C139.32,514.67 138.03,515.369 136.853,516.924C136.504,517.384 136.977,518.068 137.501,518.052C138.301,518.029 139.074,518.169 139.885,518.119C140.778,518.064 141.668,517.946 142.552,517.808C144.335,517.53 145.452,516.712 146.7,515.501C146.844,515.361 146.785,515.073 146.575,515.031ZM199.913,535.562C199.097,534.853 198.212,534.219 197.295,533.646C196.276,533.009 195.164,532.667 194.131,532.08C193.92,531.96 193.621,532.213 193.778,532.433C194.342,533.224 194.745,534.087 195.35,534.852C196.034,535.716 196.797,536.532 197.567,537.319C199.038,538.823 200.461,540.127 202.305,541.136C202.554,541.272 202.898,541.105 202.887,540.802C202.809,538.569 201.553,536.988 199.913,535.562ZM184.641,526.294C184.087,526.161 183.668,526.999 184.234,527.258C185.726,527.939 187.013,528.952 188.39,529.838C189.486,530.544 190.732,531.393 192.094,531.141C192.243,531.114 192.353,530.947 192.352,530.802C192.343,527.451 186.981,526.855 184.641,526.294ZM182.675,525.628C181.139,524.344 179.819,523.084 177.898,522.383C177.016,522.062 176.135,521.794 175.203,521.665C174.106,521.514 173.092,521.807 172.001,521.752C171.352,521.719 171.293,522.639 171.854,522.834C172.806,523.163 173.564,523.919 174.477,524.343C175.322,524.735 176.199,525.053 177.077,525.36C178.868,525.986 180.632,525.969 182.501,526.049C182.703,526.057 182.839,525.766 182.675,525.628ZM166.666,521.019C165.246,520.155 163.966,519.251 162.252,519.084C160.612,518.923 159.31,519.207 158.21,520.455C157.811,520.907 157.875,521.885 158.614,521.986C159.153,522.059 159.637,522.361 160.191,522.442C160.926,522.55 161.685,522.631 162.43,522.617C163.884,522.587 165.234,522.086 166.588,521.619C166.852,521.528 166.917,521.172 166.666,521.019ZM193.895,520.072C193.663,519.592 193.568,519.107 193.299,518.648C192.915,517.991 192.284,517.51 191.63,517.153C190.393,516.476 188.625,515.796 187.309,516.619C186.837,516.913 186.457,517.599 186.679,518.167C187.215,519.542 188.628,520.276 189.924,520.835C191.351,521.45 192.401,521.17 193.622,520.743C193.916,520.641 194.03,520.35 193.895,520.072ZM212.848,521.295C211.668,520.046 210.983,518.479 209.705,517.31C208.532,516.238 207.317,515.187 205.862,514.514C204.801,514.024 203.703,513.687 202.687,513.1C201.642,512.497 200.749,511.667 199.742,511.008C198.659,510.299 197.407,509.806 196.185,509.38C195.132,509.012 193.894,508.594 192.759,508.68C192.404,508.707 191.865,508.823 191.559,509.016C191.266,509.2 191.196,509.487 190.929,509.681C190.827,509.756 190.848,509.951 191.001,509.943C191.26,509.929 191.342,510.167 191.559,510.322C191.881,510.55 192.321,510.719 192.69,510.856C193.671,511.221 194.656,511.575 195.631,511.955C196.747,512.39 197.833,512.871 198.979,513.213C200.096,513.546 201.243,513.732 202.298,514.255C203.292,514.746 204.003,515.428 204.781,516.208C205.833,517.262 206.956,518.241 208.041,519.26C209.284,520.427 210.79,521.184 211.774,522.612C212.507,523.674 212.995,525.053 214.301,525.526C214.772,525.696 215.244,525.257 215.251,524.802C215.272,523.281 213.787,522.288 212.848,521.295ZM228.873,565.838C228.8,564.505 228.536,562.896 227.116,562.384C226.934,562.319 226.722,562.429 226.626,562.584C225.917,563.732 226.242,565.211 226.292,566.484C226.321,567.206 226.246,567.947 226.309,568.665C226.384,569.525 226.714,570.147 227.026,570.933C227.212,571.403 227.785,571.393 227.975,570.933C228.307,570.131 228.679,569.55 228.799,568.665C228.923,567.758 228.924,566.749 228.873,565.838ZM233.131,582.58C232.796,582.333 232.733,581.898 232.501,581.548C232.267,581.196 231.972,580.897 231.717,580.56C231.115,579.765 230.563,578.907 230.137,578.004C229.722,577.126 229.547,576.183 229.209,575.281C228.88,574.405 228.355,573.839 227.824,573.113C227.672,572.905 227.314,572.837 227.177,573.113C226.663,574.15 226.3,574.972 226.492,576.185C226.677,577.355 227.201,578.552 227.756,579.591C228.279,580.569 228.984,581.49 229.876,582.158C230.338,582.505 230.835,582.834 231.394,582.989C231.939,583.141 232.415,582.932 232.932,583.051C233.23,583.12 233.361,582.75 233.131,582.58ZM235.835,524.519C233.897,525.617 232.736,527.528 231.587,529.367C230.324,531.391 229.49,533.625 228.339,535.708C228.219,535.925 228.52,536.085 228.662,535.897C230.064,534.048 231.631,532.335 232.949,530.421C234.178,528.637 235.583,526.955 236.317,524.89C236.416,524.61 236.07,524.386 235.835,524.519ZM225.798,543.184C224.855,544.644 223.944,545.941 223.378,547.606C222.818,549.254 222.961,550.7 223.252,552.371C223.296,552.624 223.695,552.61 223.749,552.371C224.09,550.856 224.858,549.405 225.315,547.914C225.781,546.391 226.012,544.937 226.227,543.365C226.261,543.112 225.952,542.946 225.798,543.184ZM221.252,559.554C220.575,560.342 219.841,560.955 219.4,561.92C218.861,563.1 218.715,564.389 218.622,565.674C218.463,567.873 218.929,570.626 220.298,572.421C220.437,572.603 220.72,572.549 220.735,572.302C220.866,570.209 221.147,568.132 221.366,566.035C221.475,564.985 221.682,563.941 221.765,562.889C221.843,561.906 221.581,560.841 221.84,559.896C221.928,559.573 221.488,559.279 221.252,559.554ZM149.888,607.118C148.616,604.737 146.051,603.345 143.466,604.568C142.252,605.142 141.592,606.924 141.999,608.174C142.339,609.222 142.921,610.007 143.858,610.611C144.172,610.813 144.502,610.98 144.822,611.17C144.808,612.745 145.781,613.786 147.346,614.31C148.629,614.739 150.143,613.812 150.468,612.537C150.933,610.714 150.782,608.793 149.888,607.118ZM145.373,631.825C144.321,628.954 139.065,625.912 136.732,628.935C136.62,629.081 136.522,629.229 136.439,629.379C136.092,629.675 135.855,630.112 135.841,630.66C135.779,633.095 137.749,635.862 139.856,636.975C141.461,637.823 143.373,637.689 144.556,636.212C145.527,635 145.914,633.303 145.373,631.825ZM109.081,552.388C108.478,554.142 107.089,555.739 105.086,555.704C103.347,555.673 101.771,554.338 101.448,552.624C101.265,551.655 101.422,550.428 101.906,549.438C101.679,549.179 101.52,548.85 101.431,548.514C100.874,547.587 100.93,546.517 101.386,545.476C102.095,543.86 104.19,542.917 105.881,543.445C107.156,543.843 108.083,544.825 108.639,546.01C109.546,547.946 109.783,550.344 109.081,552.388ZM110.652,603.966C107.922,603.91 106.1,600.569 107.021,598.15C106.968,598.109 106.915,598.068 106.862,598.027C106.591,597.756 106.373,597.374 106.27,597.012C106.189,596.726 106.135,596.4 106.144,596.104C106.235,593.267 109.621,592.072 111.832,593.467C113.185,594.321 114.067,595.656 114.507,597.182C115.289,599.894 114.014,604.036 110.652,603.966ZM198.936,523.155C199.326,522.75 198.971,523.065 198.936,523.155ZM208.178,530.507C207.906,532.146 206.04,532.776 204.637,532.518C202.318,532.093 199.503,530.028 198.557,527.601C198.502,527.523 198.445,527.447 198.396,527.363C198.438,527.401 198.472,527.432 198.502,527.458C198.485,527.41 198.471,527.362 198.455,527.314C198.378,527.221 198.275,527.101 198.143,526.951C197.619,526.055 197.684,526.148 197.846,526.367C197.208,525.421 197.569,524.256 198.476,523.653C198.513,523.605 198.55,523.557 198.587,523.51C198.742,523.354 198.855,523.24 198.936,523.155C198.919,523.201 198.982,523.19 199.267,522.997C200.372,522.252 201.443,522.146 202.74,522.359C203.751,522.525 204.701,522.965 205.531,523.558C207.914,525.26 208.646,527.686 208.178,530.507ZM179.172,517.496C176.999,516.727 175.261,515.24 173.267,514.135C173.008,513.992 172.744,513.859 172.481,513.724C172.411,513.689 172.34,513.658 172.27,513.625C172.25,513.618 172.227,513.609 172.197,513.598C171.989,513.529 171.769,513.479 171.565,513.401C171.528,513.387 171.499,513.376 171.471,513.365C171.463,513.363 171.458,513.363 171.449,513.361C171.346,513.346 171.26,513.339 171.194,513.337C171.035,513.373 170.876,513.412 170.715,513.443C170.172,513.55 169.708,513.575 169.254,513.516C167.762,513.597 166.544,512.373 166.611,510.885C166.552,510.204 166.709,509.587 167.016,509.052C166.914,508.408 167.253,507.581 167.847,507.314C168.381,507.073 168.812,507.013 169.303,507.045C169.524,507.021 169.744,507.014 169.965,507.018C170.226,506.958 170.49,506.915 170.753,506.895C172.269,506.781 173.685,507.282 175.006,507.99C175.027,508.001 175.048,508.014 175.069,508.025C175.416,508.136 175.761,508.253 176.102,508.384C178.659,509.366 181.07,510.805 182.398,513.3C183.489,515.352 181.653,518.374 179.172,517.496ZM130.646,525.747C128.787,527.215 126.666,528.277 124.543,529.303C123.699,529.711 122.877,530.163 122.03,530.562C121.216,530.945 120.585,531.194 119.668,531.098C119.445,531.074 118.231,530.922 119.588,531.044C118.555,530.951 117.56,530.383 117.294,529.297C117.124,528.606 117.209,527.904 117.487,527.284C117.53,526.939 117.675,526.593 117.953,526.281C118.241,525.958 118.686,525.327 119.127,524.782C119.63,524.163 120.141,523.556 120.675,522.963C121.871,521.63 123.154,520.386 124.608,519.335C126.939,517.65 130.619,517.151 132.372,519.972C133.716,522.136 132.403,524.357 130.646,525.747ZM165.867,598.995C165.15,597.389 162.856,597.074 161.475,597.844C160.523,598.374 159.565,599.001 159.039,599.984C158.868,600.305 158.745,600.656 158.676,601.016C158.507,601.17 158.347,601.332 158.201,601.499C157.168,602.68 156.729,604.303 156.927,605.853C157.132,607.452 158.063,608.577 159.759,608.685C162.1,608.834 164.218,607.356 165.452,605.462C166.724,603.51 166.795,601.078 165.867,598.995ZM187.165,584.605C187.088,584.905 186.711,586.175 186.967,585.228C186.905,585.458 186.838,585.687 186.769,585.915C186.565,586.594 186.312,587.245 186.021,587.894C185.443,589.183 184.683,590.352 183.788,591.444C182.069,593.543 179.182,595.32 176.54,593.684C175.663,593.141 175.072,591.969 175.423,590.94C176.094,588.974 177.317,587.37 178.747,585.934C178.734,585.843 178.726,585.753 178.729,585.662C178.775,584.224 179.206,582.662 180.639,581.729C181.989,580.85 183.624,580.598 185.164,581.082C186.666,581.554 187.557,583.066 187.165,584.605ZM329.896,598.065C328.983,598.154 328.115,598.252 327.351,598.799C326.785,599.203 326.336,599.686 326.055,600.249C325.674,600.381 325.307,600.557 324.967,600.78C323.19,601.942 322.133,603.741 322.004,605.854C321.939,606.926 322.893,608.327 324.013,608.494C326.075,608.801 328.114,608.505 329.84,607.258C330.689,606.645 331.407,605.915 331.942,605.008C332.194,604.581 332.321,604.089 332.544,603.655C332.474,603.804 332.599,603.673 332.712,603.482C332.915,603.141 333.074,602.736 333.158,602.348C333.582,600.397 332.214,597.84 329.896,598.065ZM339.194,529.925C338.294,532.731 335.154,533.511 332.944,531.649C331.337,530.294 330.533,528.344 329.63,526.511C329.028,525.288 329.893,524.119 330.96,524.018C330.793,522.9 331.402,521.945 332.287,521.272C334.573,519.534 337.357,521.802 338.413,523.808C339.363,525.612 339.83,527.946 339.194,529.925ZM255.566,526.338C255.539,525.794 255.453,525.22 255.277,524.702C254.752,523.154 253.641,522.205 252.203,521.996L252.383,521.996C251.719,521.844 251.081,521.845 250.479,522.082C249.276,522.418 248.378,523.795 248.875,524.996C248.888,525.068 248.905,525.139 248.925,525.21C248.821,525.338 248.721,525.471 248.63,525.609C247.812,526.854 247.7,528.274 247.996,529.708C248.231,530.849 249.471,531.697 250.596,531.688C251.886,531.677 253.165,531.299 254.112,530.39C254.45,530.065 254.734,529.679 254.957,529.267C255.388,528.469 255.248,528.119 255.496,527.302C255.516,527.151 255.536,526.999 255.557,526.848C255.569,526.677 255.575,526.509 255.566,526.338ZM255.457,527.592C255.476,527.457 255.49,527.357 255.501,527.284C255.499,527.291 255.498,527.296 255.496,527.302C255.483,527.399 255.47,527.495 255.457,527.592ZM255.501,527.284C255.503,527.276 255.504,527.27 255.507,527.263C255.527,527.112 255.524,527.121 255.501,527.284ZM242.007,549.513C241.531,551.927 240.071,554.767 237.158,554.354C233.558,553.843 232.99,549.975 233.969,547.103C234.449,545.693 235.093,544.255 235.877,542.986C236.231,542.412 236.628,541.843 237.105,541.365C237.742,540.726 237.79,540.811 238.379,540.373C238.679,540.149 239,540.078 239.308,540.112C239.659,540.061 240.018,540.081 240.443,540.16C241.33,540.326 242.166,541.216 242.362,542.079C242.89,544.411 242.46,547.212 242.007,549.513ZM273.048,581.664C270.915,582.855 268.265,581.986 266.74,580.211C265.563,578.842 264.548,575.955 266.344,574.979C266.234,574.385 266.33,573.756 266.726,573.172C268.869,570.007 272.933,571.747 274.618,574.375C276.152,576.767 275.621,580.227 273.048,581.664ZM284.007,550.273C283.742,552.672 281.972,556.62 278.881,555.712C276.377,554.976 276.153,551.568 275.976,549.445C275.844,547.861 275.637,545.969 275.897,544.281C275.89,543.604 275.778,542.421 276.339,541.52C276.834,540.724 277.594,540.14 278.508,539.923C280.382,539.48 281.706,540.689 282.538,542.206C283.825,544.552 284.298,547.632 284.007,550.273ZM292.319,504.9C290.978,504.688 289.719,504.621 288.475,505.265C287.38,505.831 287.014,506.617 286.536,507.558C284.676,508.258 283.328,510.336 282.595,512.066C281.761,514.037 283.12,515.792 285.228,515.491C287.17,515.214 289.031,513.888 290.534,512.705C292.046,511.514 293.603,509.95 294.091,508.021C294.399,506.805 293.699,505.118 292.319,504.9ZM357.896,519.544C356.249,518.489 353.817,518.187 352.287,519.625C351.639,520.234 351.328,520.984 351.285,521.75C351.183,522.031 351.154,522.359 351.233,522.73C351.701,524.945 352.915,527.215 354.445,528.873C356.484,531.082 359.778,531.158 361.022,528.093C362.11,525.411 360.262,521.059 357.896,519.544ZM375.801,565.569C375.696,565.2 375.571,564.838 375.436,564.479C375.368,564.299 375.295,564.12 375.222,563.942C374.994,563.384 374.86,562.391 375.063,563.943C374.828,562.152 373.527,560.921 371.635,561.332C370.422,561.595 369.403,562.468 368.779,563.564C368.495,563.793 368.283,564.112 368.2,564.521C367.839,566.287 367.474,568.046 367.8,569.849C368.205,572.094 369.992,573.734 372.353,573.261C374.676,572.797 376.104,570.847 376.223,568.549C376.274,567.561 376.07,566.516 375.801,565.569ZM345.968,607.211C343.562,606.445 340.757,607.42 338.945,609.248C336.923,609.759 335.056,611.194 333.959,612.843C332.988,614.301 334.059,615.907 335.431,616.462C340.1,618.351 346.568,615.374 347.784,610.409C348.128,609.004 347.34,607.647 345.968,607.211ZM260.303,739.228C258.924,741.682 256.428,742.947 253.702,743.243C252.477,743.376 251.33,743.288 250.113,743.119C249.702,743.061 249.302,743.004 248.904,742.884C248.623,742.799 248.285,742.708 248.036,742.548C247.905,742.477 247.791,742.39 247.691,742.288C246.721,741.829 246.803,740.766 247.321,740.021C247.314,740.026 247.306,740.032 247.298,740.038C247.459,739.788 247.646,739.592 247.854,739.435C247.864,738.795 248.165,738.144 248.748,737.765C249.362,737.366 249.938,736.655 250.76,736.156C251.652,735.615 252.737,735.256 253.735,734.951C255.879,734.296 258.216,734.33 259.889,736.007C260.73,736.851 260.885,738.197 260.303,739.228ZM275.266,649.421C274.778,651.919 273.766,654.458 271.586,655.892C270.224,656.788 268.643,655.825 268.147,654.493C267.486,652.72 267.201,650.644 268.073,648.903C268.146,648.756 268.235,648.635 268.331,648.529C268.225,648.383 268.135,648.225 268.068,648.054C267.802,647.375 267.452,646.848 267.416,646.066C267.384,645.401 267.485,644.716 267.703,644.086C268.21,642.616 269.285,641.337 270.629,640.56C271.936,639.805 273.925,640.193 274.642,641.612C275.014,642.347 275.169,642.927 275.306,643.712C275.447,644.522 275.252,643.434 275.415,644.217C275.499,644.623 275.543,645.047 275.575,645.462C275.679,646.782 275.519,648.126 275.266,649.421ZM184.62,667.466C183.753,670.227 181.965,673.307 178.699,673.346C175.427,673.385 174.69,670.186 175.092,667.573C175.327,666.041 175.78,664.182 176.791,662.877C177.385,661.074 178.518,659.456 180.036,658.555C181.059,657.948 182.639,658.071 183.451,658.996C185.53,661.364 185.529,664.571 184.62,667.466ZM200,712.462C198.181,715.251 194.417,715.537 192.285,712.96C190.648,710.983 189.645,707.385 191.101,705.032C191.153,703.768 191.405,702.535 191.728,701.615C192.135,700.457 193.041,699.737 194.285,699.668C200.255,699.341 202.804,708.164 200,712.462ZM241.427,708.031C241.342,708.021 241.26,708.015 241.177,708.006C239.822,707.368 237.952,707.685 236.547,707.783C234.719,707.91 232.835,708.079 231.103,708.712C229.756,709.205 228.803,710.804 229.696,712.17C232.77,716.872 240.605,716.328 243.633,711.876C244.845,710.095 243.169,708.246 241.427,708.031ZM302.932,704.34C302.344,704.323 301.777,704.382 301.223,704.497C300.94,704.4 300.616,704.363 300.258,704.415C298.251,704.708 296.488,706.572 295.153,708.033C293.81,709.505 292.213,711.35 291.856,713.382C291.608,714.798 292.448,716.162 293.993,716.187C296.461,716.226 298.699,714.83 300.547,713.332C302.313,711.9 304,710.111 305.091,708.103C306.01,706.413 304.856,704.396 302.932,704.34ZM262.26,616.036C261.064,615.667 259.725,615.354 258.387,615.189C257.075,613.968 255.247,613.739 253.454,614.402C251.363,615.175 249.987,616.828 249.15,618.835C248.859,619.534 249.223,620.424 249.704,620.932C251.102,622.408 253.607,622.938 255.457,623.577C257.841,624.401 260.338,625.132 262.87,625.298C265.387,625.464 267.605,623.685 267.505,621.008C267.4,618.197 264.614,616.763 262.26,616.036ZM210.618,626.171C208.172,627.023 206.093,629.021 205.283,631.466C204.407,632.228 203.669,633.142 203.388,634.28C202.876,636.363 204.231,638.502 206.218,639.173C207.96,639.762 209.817,639.192 211.305,638.214C213.976,636.457 216.525,633.547 216.592,630.181C216.659,626.857 213.597,625.134 210.618,626.171ZM302.274,644.985C301.539,647.887 297.977,649.48 295.301,648.151C293.004,647.01 291.673,644.11 291.206,641.707C290.859,639.92 290.833,637.708 291.818,636.112C291.788,636.041 291.747,635.848 291.73,635.51C291.724,635.395 291.735,635.421 291.75,635.491C291.598,634.149 292.579,633.205 293.906,633.333C294.121,633.333 294.336,633.354 294.582,633.396C294.06,633.307 294.356,633.333 294.827,633.404C295.818,633.552 296.569,634.163 297.263,634.851C298.252,635.831 299.134,636.96 299.966,638.071C301.39,639.973 302.902,642.506 302.274,644.985ZM278.601,689.34C278.619,691.923 276.142,693.198 274.028,693.906C272.153,694.534 268.63,695.827 267.074,694.153C266.499,693.533 266.193,692.644 266.454,691.808C266.462,691.785 266.472,691.762 266.48,691.739C266.478,691.474 266.529,691.203 266.643,690.942C267.544,688.898 269.837,686 272.284,685.174C274.962,684.27 278.581,686.336 278.601,689.34ZM212.591,682.383C212.096,684.181 210.155,684.758 208.58,684.015C206.076,682.834 204.554,680.105 203.83,677.546C203.083,674.909 202.971,671.409 205.194,669.414C206.092,668.608 207.141,668.54 208.22,669.023C210.316,669.962 211.003,672.268 211.059,674.385C211.087,675.437 210.904,676.498 210.727,677.531C210.653,677.959 210.572,678.611 210.583,679.03C212.02,679.423 213.018,680.834 212.591,682.383ZM386.214,556.341C386.112,549.478 384.503,542.411 381.581,536.197C380.093,533.034 378.632,529.895 377.323,526.651C376.05,523.497 374.805,520.318 373.15,517.339C370.253,512.125 366.618,507.292 362.603,502.891C346.497,485.237 321.968,472.598 297.609,474.974C290.358,475.681 283.275,477.666 276.327,479.777C270.172,481.647 263.992,483.492 258.177,486.279C252.778,488.867 247.69,492.121 243.398,496.319C239.075,500.548 235.756,505.717 232.604,510.844C225.756,521.983 220.3,534.11 217.538,546.931C216.187,553.201 215.551,559.619 215.854,566.033C216,569.107 216.368,572.159 216.997,575.172C217.556,577.853 218.007,581.048 220.215,582.905C220.844,583.434 221,584.318 220.802,585.097C221.585,584.933 222.368,584.783 223.153,584.644C222.502,584.007 221.949,583.265 221.467,582.495C220.842,581.497 220.141,580.266 220.014,579.083C219.958,578.565 219.926,577.875 220.047,577.359C220.155,576.903 220.468,576.536 220.677,576.113C220.808,575.847 221.182,575.893 221.324,576.113C221.544,576.453 221.839,576.632 222.077,576.95C222.332,577.29 222.542,577.768 222.761,578.139C223.252,578.968 223.557,579.907 224.034,580.752C224.549,581.664 225.712,582.991 225.901,584.219C233.93,583.147 242.015,583.933 249.965,585.324C257.631,586.666 265.33,588.346 272.827,590.444C279.786,592.392 286.687,594.935 292.925,598.622C295.984,600.431 298.893,602.537 301.518,604.934C304.248,607.428 306.598,610.328 308.974,613.152C313.829,618.92 318.479,624.944 322.127,631.562C323.061,633.256 323.91,634.978 324.676,636.726C327.253,636.562 329.769,635.943 332.167,634.975C337.789,632.704 342.651,628.781 347.053,624.693C351.665,620.409 355.94,615.731 360.081,610.995C369.163,600.61 377.367,589.191 382.325,576.222C384.756,569.862 386.315,563.178 386.214,556.341ZM321.92,643.003C319.552,636.355 315.825,630.255 311.655,624.593C309.545,621.728 307.291,618.971 304.994,616.254C302.744,613.591 300.521,610.866 297.942,608.51C287.721,599.168 273.759,595.629 260.614,592.658C252.856,590.903 245.026,589.212 237.06,588.807C233.229,588.612 229.335,588.674 225.545,589.316C221.941,589.926 218.365,590.862 214.877,591.948C208.116,594.053 201.671,597.019 195.742,600.898C192.755,602.851 189.936,605.032 187.292,607.429C184.593,609.876 182.664,612.989 179.708,615.171C179.191,615.552 178.538,615.605 177.928,615.444C177.47,615.908 177.022,616.387 176.59,616.89C174.739,619.045 173.064,621.315 171.549,623.719C165.768,632.894 161.921,643.219 159.87,653.847C159.413,656.216 159.042,658.598 158.737,660.988C158.937,661.319 159.055,661.712 159.055,662.158C159.055,662.747 158.808,663.315 158.415,663.746C158.084,666.846 157.851,669.958 157.679,673.072C157.368,678.685 156.79,684.414 157.451,690.023C157.834,690.236 158.153,690.568 158.293,690.971C158.583,691.806 158.509,692.793 158.657,693.67C158.807,694.556 159.02,695.433 159.267,696.297C159.765,698.04 160.471,699.72 160.974,701.455C161.028,701.638 161.051,701.813 161.049,701.978C161.68,703.828 162.353,705.664 163.1,707.471C164.6,711.1 166.46,714.551 168.719,717.762C171.039,721.059 173.487,724.399 176.416,727.187C179.144,729.784 182.611,731.413 185.639,733.612C188.738,735.863 191.872,738.06 195.119,740.095C201.843,744.308 208.977,747.962 216.525,750.45C222.883,752.546 229.437,753.619 236.119,753.837C248.638,754.244 261.351,751.997 272.918,747.163C278.563,744.803 283.988,741.752 288.768,737.919C291.14,736.017 293.387,733.94 295.445,731.703C297.793,729.151 299.725,726.289 301.899,723.597C304.326,720.593 307.322,718.455 310.414,716.196C313.332,714.066 315.72,711.521 317.627,708.448C321.135,702.799 322.092,696.234 323.638,689.882C324.548,686.144 325.718,682.459 326.329,678.653C326.971,674.654 326.597,670.542 326.23,666.532C325.506,658.64 324.593,650.507 321.92,643.003ZM161.925,633.953C164.048,628.917 166.56,624.037 169.681,619.543C171.18,617.385 172.798,615.286 174.639,613.408C175.249,612.786 175.887,612.154 176.554,611.544C176.738,611.305 176.96,611.087 177.212,610.901C178.584,609.888 179.669,608.45 180.752,607.15C181.932,605.735 183.171,604.432 184.551,603.209C193.647,595.147 204.945,589.182 216.808,586.041C214.474,583.986 213.589,580.94 212.896,578.008C208.404,558.984 212.918,539.248 221.343,521.625C220.714,521.038 220.314,520.201 220.282,519.291C220.281,519.276 220.282,519.268 220.281,519.255C220.281,519.254 220.281,519.253 220.28,519.252C220.261,519.193 220.248,519.151 220.238,519.115C220.226,519.095 220.215,519.079 220.2,519.055C220.035,518.781 219.856,518.516 219.689,518.243C219.713,518.272 219.74,518.303 219.771,518.34C219.74,518.304 219.711,518.267 219.681,518.23C219.617,518.128 219.453,517.95 219.56,518.085C219.534,518.055 219.51,518.024 219.483,517.995C218.894,517.355 218.297,516.734 217.648,516.152C217.345,515.88 217.036,515.614 216.722,515.354C216.506,515.174 216.29,514.994 216.068,514.822C216.054,514.812 215.959,514.743 215.895,514.696C214.287,513.545 212.571,512.526 210.852,511.551C209.317,510.681 207.756,509.857 206.17,509.084C205.458,508.738 204.74,508.404 204.016,508.083C203.921,508.041 203.826,508 203.731,507.96L203.73,507.959C203.396,507.835 203.065,507.698 202.732,507.571C197.077,505.421 191.424,503.208 185.552,501.712C179.936,500.28 174.108,499.679 168.328,499.41C157.161,498.892 145.956,500.139 135.36,503.796C125.591,507.167 116.486,512.656 108.765,519.515C101.932,525.585 96.241,532.816 92.286,541.075C88.24,549.526 86.307,558.866 86.2,568.211C86.08,578.769 88.331,589.175 92.409,598.897C96.546,608.762 102.416,617.892 108.82,626.424C114.787,634.375 121.804,641.793 129.699,647.854C137.137,653.563 145.947,658.453 155.383,659.666C156.482,650.857 158.445,642.209 161.925,633.953ZM389.287,566.847C387.905,573.934 385.113,580.744 381.812,587.141C375.211,599.937 365.769,611.12 355.903,621.508C347.945,629.888 338.111,639.102 326.07,640.193C327.608,644.36 328.702,648.674 329.368,653.14C330.031,657.574 330.414,662.059 330.684,666.532C330.945,670.859 331.264,675.078 330.592,679.384C329.976,683.335 328.728,687.148 327.758,691.018C326.898,694.451 326.222,697.932 325.24,701.333C323.228,708.294 319.451,714.541 313.646,718.967C310.562,721.319 307.46,723.339 304.971,726.372C302.695,729.145 300.701,732.118 298.252,734.752C289.441,744.227 277.257,750.459 264.941,754.009C252.549,757.579 239.306,758.634 226.541,756.712C218.553,755.51 210.886,752.679 203.667,749.111C199.967,747.283 196.376,745.237 192.892,743.025C189.524,740.887 186.374,738.49 183.136,736.17C179.972,733.902 176.463,732.081 173.72,729.268C170.854,726.33 168.384,722.952 166.046,719.589C162.524,714.522 160.143,708.909 158.173,703.124C158.061,703.023 157.958,702.904 157.868,702.764C156.769,701.047 156.075,698.873 155.58,696.907C155.326,695.895 155.029,694.734 154.923,693.584C154.892,693.501 154.864,693.414 154.844,693.318C153.301,685.859 153.996,678.075 154.422,670.532C154.537,668.483 154.685,666.439 154.872,664.4C152.933,664.252 150.994,663.971 149.11,663.522C138.43,660.98 128.972,654.549 120.858,647.363C112.7,640.138 105.767,631.674 99.623,622.699C93.304,613.468 87.88,603.52 84.523,592.812C81.202,582.219 80.029,570.87 81.418,559.841C82.67,549.9 85.942,540.314 91.279,531.811C96.607,523.323 103.711,516.152 111.782,510.258C121.163,503.407 131.858,498.484 143.222,496.022C154.972,493.477 167.076,493.415 178.958,495.012C185.421,495.882 191.575,497.697 197.69,499.927C201.797,501.425 205.911,502.911 209.831,504.856C213.41,506.632 216.84,508.671 220.135,510.931C221.7,512.005 223.492,513.308 224.798,514.898C227.39,510.179 230.231,505.649 233.214,501.371C236.997,495.946 241.372,491.295 246.792,487.478C252.054,483.772 257.94,481.025 263.974,478.833C270.828,476.342 277.934,474.228 285.017,472.503C292.384,470.71 299.967,469.628 307.558,470.166C332.935,471.966 356.757,486.778 371.687,507.047C373.501,509.51 375.204,512.071 376.712,514.734C378.575,518.026 379.955,521.564 381.286,525.096C383.864,531.935 387.406,538.334 388.955,545.531C390.478,552.605 390.673,559.734 389.287,566.847ZM219.689,518.243C219.627,518.169 219.585,518.118 219.56,518.085C219.6,518.133 219.641,518.181 219.681,518.23C219.682,518.231 219.683,518.233 219.683,518.234C219.685,518.237 219.687,518.24 219.689,518.243Z" style="fill:rgb(105,77,72);fill-rule:nonzero;"/>
    </g>
</svg>
