<?xml version="1.0" encoding="UTF-8" standalone="no"?>
<!DOCTYPE svg PUBLIC "-//W3C//DTD SVG 1.1//EN" "http://www.w3.org/Graphics/SVG/1.1/DTD/svg11.dtd">
<svg width="100%" height="100%" viewBox="0 0 272 272" version="1.1" xmlns="http://www.w3.org/2000/svg" xmlns:xlink="http://www.w3.org/1999/xlink" xml:space="preserve" xmlns:serif="http://www.serif.com/" style="fill-rule:evenodd;clip-rule:evenodd;stroke-linecap:round;stroke-linejoin:round;stroke-miterlimit:2;">
    <g transform="matrix(1,0,0,1,-1372.2,-1684.31)">
        <path d="M1541.54,1832.86C1540.41,1834.77 1539.35,1837.19 1539.39,1839.46C1533.66,1845.34 1528.27,1852.22 1520.47,1855.7C1516.67,1857.4 1512.45,1857.41 1508.38,1857.49C1507.88,1857.5 1500.35,1856.84 1499.9,1857.43C1499.9,1857.43 1498.94,1857.18 1498.92,1857.22C1498.49,1857.08 1498.06,1857.18 1497.61,1857.52C1494.38,1856.52 1490.9,1857.14 1487.76,1856.04C1484.64,1854.95 1481.81,1852.65 1479.29,1850.62C1473.09,1845.67 1470.48,1841.34 1470.51,1833.29C1470.59,1816.52 1472.45,1800.16 1486.63,1789.15C1513.94,1767.95 1556.9,1800.5 1541.54,1832.86ZM1639.85,1823.92C1639.63,1820.05 1638.15,1816.48 1637.7,1812.69C1637.55,1811.37 1637.6,1803.65 1637.44,1801.89C1636.85,1795.49 1635.62,1788.75 1633.17,1782.79C1631.22,1778.05 1630.82,1773.21 1628.97,1768.38C1627.7,1765.06 1624.55,1756.3 1620.57,1755.33C1618.82,1747.8 1612.7,1740.17 1608.59,1733.79C1605.03,1728.23 1600.16,1717.64 1593.17,1715.74C1590.99,1706.58 1570.89,1700.34 1563.18,1698.92C1561.01,1694.53 1550.13,1693.68 1545.85,1692.91C1539.35,1691.73 1532.83,1690.8 1526.26,1690.1C1519.27,1689.36 1512.25,1688.72 1505.25,1688.09C1499.89,1687.6 1460.68,1693.65 1454.14,1699.72C1448.78,1698.44 1436.66,1708.21 1432.37,1711.01C1425.66,1715.38 1416.52,1721.14 1413.63,1729.07C1410.02,1730.81 1407.28,1735.94 1405.07,1738.8C1403.04,1741.43 1400.83,1744.36 1399.88,1747.6C1399.71,1747.64 1399.54,1747.69 1399.37,1747.77C1398.84,1748 1398.05,1749.32 1397.6,1749.43C1393.83,1754.28 1389.33,1757.27 1386.31,1762.89C1382.55,1769.89 1379.57,1777.51 1378.2,1785.35C1377.17,1791.28 1377.84,1797.33 1377.1,1803.18C1376.61,1807.11 1370.64,1842.21 1391.67,1876.97C1393.89,1880.63 1395.16,1883.18 1396.3,1887.19C1397.43,1891.14 1398.98,1894.43 1401.5,1897.71C1404.2,1901.22 1414.08,1912.71 1419.22,1912.1C1422.15,1917.17 1428.19,1920.33 1432.53,1924.13C1437.29,1928.29 1441.98,1932.47 1447.29,1935.95C1457.33,1942.53 1468.85,1946.06 1480.89,1946.11C1484.31,1949.55 1492.03,1951.06 1496.68,1951.49C1500.74,1951.86 1513.18,1951.98 1515.35,1948.46C1525.77,1948.77 1536.36,1947.15 1546.03,1943.21C1551.95,1940.8 1569.79,1937.06 1571.39,1929.41C1583.7,1922.83 1594.04,1916.86 1603.29,1906.39C1609.21,1899.68 1623.61,1886.69 1618.69,1876.4C1633.28,1864.63 1640.92,1842.14 1639.85,1823.92Z" style="fill:rgb(255,233,179);fill-rule:nonzero;"/>
        <path d="M1541.54,1832.86C1540.41,1834.77 1539.35,1837.19 1539.39,1839.46C1533.66,1845.34 1528.27,1852.22 1520.47,1855.7C1516.67,1857.4 1512.45,1857.41 1508.38,1857.49C1507.88,1857.5 1500.35,1856.84 1499.9,1857.43C1499.9,1857.43 1498.94,1857.18 1498.92,1857.22C1498.49,1857.08 1498.06,1857.18 1497.61,1857.52C1494.38,1856.52 1490.9,1857.14 1487.76,1856.04C1484.64,1854.95 1481.81,1852.65 1479.29,1850.62C1473.09,1845.67 1470.48,1841.34 1470.51,1833.29C1470.59,1816.52 1472.45,1800.16 1486.63,1789.15C1513.94,1767.95 1556.9,1800.5 1541.54,1832.86ZM1639.85,1823.92C1639.63,1820.05 1638.15,1816.48 1637.7,1812.69C1637.55,1811.37 1637.6,1803.65 1637.44,1801.89C1636.85,1795.49 1635.62,1788.75 1633.17,1782.79C1631.22,1778.05 1630.82,1773.21 1628.97,1768.38C1627.7,1765.06 1624.55,1756.3 1620.57,1755.33C1618.82,1747.8 1612.7,1740.17 1608.59,1733.79C1605.03,1728.23 1600.16,1717.64 1593.17,1715.74C1590.99,1706.58 1570.89,1700.34 1563.18,1698.92C1561.01,1694.53 1550.13,1693.68 1545.85,1692.91C1539.35,1691.73 1532.83,1690.8 1526.26,1690.1C1519.27,1689.36 1512.25,1688.72 1505.25,1688.09C1499.89,1687.6 1460.68,1693.65 1454.14,1699.72C1448.78,1698.44 1436.66,1708.21 1432.37,1711.01C1425.66,1715.38 1416.52,1721.14 1413.63,1729.07C1410.02,1730.81 1407.28,1735.94 1405.07,1738.8C1403.04,1741.43 1400.83,1744.36 1399.88,1747.6C1399.71,1747.64 1399.54,1747.69 1399.37,1747.77C1398.84,1748 1398.05,1749.32 1397.6,1749.43C1393.83,1754.28 1389.33,1757.27 1386.31,1762.89C1382.55,1769.89 1379.57,1777.51 1378.2,1785.35C1377.17,1791.28 1377.84,1797.33 1377.1,1803.18C1376.61,1807.11 1370.64,1842.21 1391.67,1876.97C1393.89,1880.63 1395.16,1883.18 1396.3,1887.19C1397.43,1891.14 1398.98,1894.43 1401.5,1897.71C1404.2,1901.22 1414.08,1912.71 1419.22,1912.1C1422.15,1917.17 1428.19,1920.33 1432.53,1924.13C1437.29,1928.29 1441.98,1932.47 1447.29,1935.95C1457.33,1942.53 1468.85,1946.06 1480.89,1946.11C1484.31,1949.55 1492.03,1951.06 1496.68,1951.49C1500.74,1951.86 1513.18,1951.98 1515.35,1948.46C1525.77,1948.77 1536.36,1947.15 1546.03,1943.21C1551.95,1940.8 1569.79,1937.06 1571.39,1929.41C1583.7,1922.83 1594.04,1916.86 1603.29,1906.39C1609.21,1899.68 1623.61,1886.69 1618.69,1876.4C1633.28,1864.63 1640.92,1842.14 1639.85,1823.92Z" style="fill:none;stroke:white;stroke-width:7.5px;"/>
        <path d="M1396.14,1814.58C1394.97,1814.89 1393.66,1814.86 1392.46,1814.91C1391.04,1814.97 1389.62,1814.89 1388.21,1814.76C1386.92,1814.65 1385.64,1814.49 1384.36,1814.39C1383.9,1814.36 1382.79,1814.4 1382.37,1813.99C1382.36,1813.99 1382.35,1813.99 1382.34,1814C1382.03,1814.06 1381.9,1813.69 1382.14,1813.52C1382.16,1813.5 1382.18,1813.48 1382.2,1813.47C1382.21,1813.45 1382.23,1813.42 1382.25,1813.39C1382.39,1813.18 1382.48,1813.06 1382.71,1812.95C1383.07,1812.79 1383.59,1812.74 1383.98,1812.72C1385.2,1812.63 1386.49,1812.82 1387.69,1812.98C1390.5,1813.34 1393.25,1813.88 1396.07,1814.1C1396.34,1814.12 1396.41,1814.5 1396.14,1814.58ZM1587.04,1876.27C1586.85,1875.83 1587.52,1875.5 1587.82,1875.82C1590.82,1878.94 1593.78,1882.07 1596.89,1885.07C1598.47,1886.6 1600.1,1888.06 1601.73,1889.52C1602.49,1890.21 1603.29,1890.91 1603.96,1891.67C1604.28,1892.03 1604.63,1892.39 1604.91,1892.78C1605.19,1893.17 1605.37,1893.6 1605.67,1893.97C1605.85,1894.19 1605.63,1894.52 1605.36,1894.37C1604.86,1894.09 1604.3,1893.98 1603.79,1893.69C1603.34,1893.43 1602.87,1893.16 1602.45,1892.86C1601.57,1892.25 1600.71,1891.58 1599.89,1890.9C1598.2,1889.5 1596.51,1888.08 1594.9,1886.58C1591.76,1883.65 1588.72,1880.28 1587.04,1876.27ZM1426.2,1841.14C1424.32,1841.37 1422.44,1841.54 1420.55,1841.64C1418.61,1841.73 1416.68,1841.68 1414.74,1841.79C1414.54,1841.8 1414.5,1841.48 1414.69,1841.44C1416.6,1841.11 1418.46,1840.62 1420.36,1840.26C1422.16,1839.92 1423.96,1839.64 1425.76,1839.4C1429.49,1838.89 1433.17,1838.16 1436.94,1838.39C1437.14,1838.4 1437.27,1838.71 1437.05,1838.81C1433.59,1840.31 1429.91,1840.68 1426.2,1841.14ZM1430.14,1822.89C1427.22,1824.24 1423.75,1823.91 1420.62,1824.3C1416.87,1824.77 1413.13,1825.31 1409.34,1825.28C1408.35,1825.28 1408.35,1823.74 1409.34,1823.75C1413,1823.78 1416.62,1823.28 1420.24,1822.84C1421.95,1822.63 1423.66,1822.4 1425.39,1822.44C1426.94,1822.47 1428.49,1822.64 1430.04,1822.51C1430.24,1822.49 1430.33,1822.81 1430.14,1822.89ZM1438.59,1853.27C1435.2,1855.07 1431.9,1857.09 1428.55,1858.97C1426.87,1859.92 1425.18,1860.81 1423.38,1861.51C1421.59,1862.21 1419.67,1862.7 1417.8,1863.15C1417.5,1863.22 1417.38,1862.78 1417.67,1862.68C1419.68,1862 1421.39,1860.92 1423.18,1859.8C1424.8,1858.8 1426.41,1857.78 1428.04,1856.81C1429.71,1855.82 1431.4,1854.81 1433.18,1854.04C1434.9,1853.29 1436.58,1852.9 1438.44,1852.71C1438.74,1852.68 1438.84,1853.14 1438.59,1853.27ZM1449.42,1854.57C1446.5,1856.28 1443.59,1857.98 1440.65,1859.64C1437.78,1861.26 1434.8,1862.65 1431.96,1864.32C1431.69,1864.49 1431.47,1864.08 1431.72,1863.9C1434.51,1861.89 1437.14,1859.69 1439.99,1857.75C1442.73,1855.89 1445.56,1854.15 1448.42,1852.49C1451.28,1850.82 1454.17,1849.2 1457.09,1847.64C1458.6,1846.83 1460.12,1846.03 1461.64,1845.25C1462.84,1844.63 1464.31,1843.58 1465.69,1844.19C1465.89,1844.27 1465.96,1844.55 1465.92,1844.75C1465.57,1846.21 1463.64,1846.79 1462.46,1847.4C1460.99,1848.15 1459.53,1848.92 1458.08,1849.71C1455.16,1851.28 1452.28,1852.91 1449.42,1854.57ZM1529.62,1899.87C1529.98,1901 1528.21,1901.48 1527.85,1900.36C1527.08,1897.95 1526.5,1895.49 1525.84,1893.06C1525.5,1891.81 1525.14,1890.58 1524.73,1889.35C1524.53,1888.79 1524.38,1888.22 1524.23,1887.64C1524.07,1887.03 1524.08,1886.4 1523.93,1885.8C1523.83,1885.42 1524.3,1885.28 1524.51,1885.55C1524.87,1886.02 1525.31,1886.37 1525.61,1886.89C1525.89,1887.36 1526.15,1887.88 1526.35,1888.4C1526.85,1889.63 1527.18,1890.96 1527.53,1892.24C1528.23,1894.78 1528.82,1897.35 1529.62,1899.87ZM1533.16,1899.67C1533.37,1900.34 1532.33,1900.62 1532.11,1899.96C1530.82,1895.99 1530.17,1891.82 1528.86,1887.86C1528.79,1887.65 1529.08,1887.57 1529.19,1887.72C1531.67,1891.22 1531.89,1895.67 1533.16,1899.67ZM1524.2,1941.82L1523.59,1939.72C1523.57,1939.66 1523.66,1939.64 1523.68,1939.7C1523.88,1940.4 1524.07,1941.1 1524.27,1941.8C1524.28,1941.85 1524.21,1941.87 1524.2,1941.82ZM1520.53,1925.28C1521.06,1927.29 1521.54,1929.22 1521.51,1931.31C1521.5,1931.58 1521.13,1931.69 1521,1931.45C1519.98,1929.63 1519.51,1927.71 1518.98,1925.7C1518.43,1923.63 1517.84,1921.56 1517.16,1919.53C1516.83,1918.54 1518.38,1918.12 1518.71,1919.1C1519.39,1921.13 1519.98,1923.2 1520.53,1925.28ZM1540.74,1915.57C1541.57,1919.3 1542.44,1923.02 1543.03,1926.79C1543.3,1928.5 1543.53,1930.21 1543.7,1931.94C1543.87,1933.68 1544.3,1935.7 1543.82,1937.42C1543.71,1937.83 1543.18,1937.77 1543.04,1937.42C1542.41,1935.75 1542.56,1933.7 1542.4,1931.94C1542.24,1930.14 1542.06,1928.35 1541.86,1926.56C1541.44,1922.78 1541.03,1919.01 1540.44,1915.25C1540.14,1913.39 1539.69,1911.54 1539.02,1909.78C1538.37,1908.05 1537.97,1906.31 1537.61,1904.5C1536.86,1900.81 1536.12,1897.13 1535.47,1893.42C1535.29,1892.42 1536.82,1891.99 1537,1893C1537.67,1896.77 1538.41,1900.52 1539.17,1904.27C1539.53,1906.08 1539.84,1907.82 1539.9,1909.66C1539.97,1911.65 1540.3,1913.63 1540.74,1915.57ZM1453.07,1888.55C1451.65,1891.14 1450.38,1893.85 1448.86,1896.39C1448.23,1897.45 1446.56,1896.48 1447.21,1895.43C1448.77,1892.94 1449.86,1889.48 1452.7,1888.18C1452.94,1888.07 1453.21,1888.3 1453.07,1888.55ZM1465.31,1859.96C1462.38,1862.35 1459.51,1864.84 1456.63,1867.31C1455.95,1867.9 1454.95,1866.91 1455.64,1866.32C1458.61,1863.77 1461.57,1861.2 1464.61,1858.74C1466.04,1857.58 1467.48,1856.45 1468.95,1855.35C1469.74,1854.76 1470.53,1854.16 1471.32,1853.58C1472.06,1853.03 1472.78,1852.37 1473.67,1852.12C1474.32,1851.93 1474.63,1852.7 1474.27,1853.15C1473.71,1853.88 1472.8,1854.32 1472.05,1854.83C1471.29,1855.35 1470.54,1855.88 1469.8,1856.44C1468.28,1857.58 1466.79,1858.76 1465.31,1859.96ZM1448.27,1874.15C1446.99,1876.26 1445.61,1878.15 1444.04,1880.06C1442.38,1882.05 1440.79,1884.1 1439.27,1886.2C1438.55,1887.2 1436.88,1886.23 1437.6,1885.23C1439.15,1883.1 1440.77,1881.02 1442.45,1879C1443.29,1877.99 1444.13,1876.96 1445.08,1876.05C1445.96,1875.21 1446.94,1874.51 1447.9,1873.78C1448.12,1873.61 1448.41,1873.93 1448.27,1874.15ZM1431.26,1897.11C1431.34,1900 1429.23,1902.46 1427.76,1904.75C1426.36,1906.92 1424.57,1909.69 1424.75,1912.41C1424.76,1912.5 1424.62,1912.57 1424.56,1912.49C1422.68,1910.17 1424.4,1907.09 1425.7,1904.92C1427.3,1902.25 1429.31,1899.74 1430.66,1896.95C1430.81,1896.65 1431.25,1896.82 1431.26,1897.11ZM1497.68,1864.52C1497.78,1865.36 1497.74,1866.23 1497.67,1867.06C1497.53,1868.86 1497.28,1870.65 1496.98,1872.43C1496.38,1875.89 1495.56,1879.3 1494.67,1882.7C1494.32,1884.03 1492.25,1883.46 1492.61,1882.13C1493.48,1878.84 1494.28,1875.53 1494.88,1872.19C1495.2,1870.39 1495.46,1868.58 1495.59,1866.76C1495.65,1865.98 1495.68,1865.17 1495.8,1864.4C1495.91,1863.65 1496.3,1862.99 1496.41,1862.25C1496.45,1862 1496.79,1862.06 1496.86,1862.25C1497.13,1863.03 1497.58,1863.68 1497.68,1864.52ZM1492.3,1896.77C1493.16,1900.8 1491.96,1905.11 1490.84,1908.98C1489.65,1913.08 1488.16,1917.18 1486.55,1921.14C1486.49,1921.29 1486.3,1921.23 1486.32,1921.08C1486.89,1916.97 1488.29,1912.95 1489.4,1908.97C1490.52,1904.94 1491.08,1900.84 1491.97,1896.77C1492.01,1896.61 1492.26,1896.61 1492.3,1896.77ZM1476.24,1901.48C1475.69,1904.08 1475.36,1906.72 1474.92,1909.34C1474.48,1911.95 1473.84,1914.3 1472.23,1916.42C1472.08,1916.62 1471.76,1916.51 1471.82,1916.25C1473.03,1911.25 1473.85,1906.15 1475.03,1901.14C1475.22,1900.35 1476.41,1900.69 1476.24,1901.48ZM1486.78,1890.89C1486.52,1892.54 1486.1,1894.26 1486.02,1895.91C1486.01,1896.11 1485.69,1896.18 1485.66,1895.96C1485.36,1894.28 1485.05,1892.75 1485.11,1891.03C1485.18,1889.31 1485.42,1887.62 1485.7,1885.93C1485.99,1884.19 1486.32,1882.45 1486.71,1880.73C1487.06,1879.19 1487.47,1877.33 1488.31,1875.98C1488.43,1875.79 1488.73,1875.82 1488.79,1876.04C1489.18,1877.49 1488.93,1879.26 1488.71,1880.72C1488.46,1882.4 1488.06,1884.06 1487.72,1885.73C1487.37,1887.44 1487.05,1889.17 1486.78,1890.89ZM1424.38,1790.17C1423.13,1790.37 1421.99,1790.42 1420.75,1790.15C1419.47,1789.87 1418.21,1789.43 1416.97,1789C1414.35,1788.09 1411.78,1787.06 1409.13,1786.28C1408.16,1785.99 1408.58,1784.47 1409.55,1784.76C1412.09,1785.51 1414.55,1786.48 1417.05,1787.35C1418.3,1787.78 1419.55,1788.17 1420.83,1788.53C1422.07,1788.88 1423.19,1789.38 1424.38,1789.86C1424.51,1789.91 1424.56,1790.14 1424.38,1790.17ZM1400.34,1782.66C1397.54,1782.59 1394.86,1782.02 1392.16,1781.26C1389.59,1780.54 1387.11,1779.74 1384.99,1778.07C1384.92,1778.01 1385.01,1777.92 1385.08,1777.95C1389.93,1780.2 1395.31,1780.82 1400.38,1782.38C1400.53,1782.43 1400.5,1782.66 1400.34,1782.66ZM1434.45,1798.26C1436.9,1799.02 1439.42,1799.51 1441.94,1800C1444.18,1800.43 1446.62,1800.74 1448.47,1802.18C1448.61,1802.29 1448.48,1802.5 1448.34,1802.5C1445.99,1802.64 1443.63,1801.93 1441.34,1801.48C1438.88,1801 1436.42,1800.52 1434.03,1799.78C1433.06,1799.48 1433.48,1797.96 1434.45,1798.26ZM1412.64,1802.97C1415.8,1803.38 1418.93,1804.23 1421.97,1805.16C1425.04,1806.09 1428.2,1806.67 1431.27,1807.6C1431.38,1807.63 1431.4,1807.81 1431.27,1807.83C1428.22,1808.37 1425.09,1807.17 1422.23,1806.24C1419.03,1805.19 1415.92,1803.97 1412.58,1803.45C1412.3,1803.41 1412.37,1802.94 1412.64,1802.97ZM1434.3,1780.01C1434.4,1780.09 1434.35,1780.29 1434.21,1780.24C1432.72,1779.66 1431.23,1779.1 1429.79,1778.42C1428.22,1777.68 1426.71,1776.79 1425.17,1776C1422.05,1774.4 1418.85,1772.96 1415.5,1771.94C1414.83,1771.74 1415.11,1770.71 1415.78,1770.89C1419.08,1771.81 1422.25,1773.12 1425.34,1774.59C1426.96,1775.37 1428.59,1776.16 1430.15,1777.08C1431.61,1777.94 1432.95,1778.99 1434.3,1780.01ZM1453.71,1783.26C1457.31,1785.17 1460.81,1787.24 1464.21,1789.48C1465.94,1790.61 1467.66,1791.76 1469.35,1792.93C1470.83,1793.96 1472.51,1794.93 1473.5,1796.46C1473.66,1796.7 1473.4,1796.97 1473.15,1796.92C1471.31,1796.52 1469.74,1795.2 1468.21,1794.14C1466.57,1792.99 1464.94,1791.83 1463.28,1790.7C1459.97,1788.44 1456.65,1786.18 1453.17,1784.18C1452.57,1783.84 1453.1,1782.93 1453.71,1783.26ZM1445.04,1779.72C1442.74,1779.5 1440.54,1778.13 1438.55,1777.06C1436.3,1775.86 1434.09,1774.61 1431.83,1773.45C1431.12,1773.09 1431.74,1772.02 1432.45,1772.38C1434.66,1773.51 1436.82,1774.73 1439.01,1775.9C1441.04,1777 1443.39,1777.89 1445.18,1779.37C1445.32,1779.48 1445.21,1779.74 1445.04,1779.72ZM1419.12,1810.27C1415.3,1809.65 1411.49,1808.97 1407.67,1808.34C1406.84,1808.2 1407.2,1806.97 1408.01,1807.09C1411.84,1807.68 1415.69,1808.22 1419.51,1808.88C1423.29,1809.54 1426.94,1810.61 1430.65,1811.56C1430.73,1811.58 1430.69,1811.68 1430.62,1811.67C1426.79,1811.15 1422.94,1810.89 1419.12,1810.27ZM1398.35,1804.91C1398.46,1805.01 1398.34,1805.21 1398.2,1805.16C1395.05,1804.13 1391.77,1803.5 1388.61,1802.47C1386.46,1801.76 1382.22,1800.6 1381.95,1797.82C1381.94,1797.74 1382.06,1797.69 1382.11,1797.75C1384.09,1799.97 1387.19,1800.9 1389.95,1801.72C1392.74,1802.54 1396.02,1803.04 1398.35,1804.91ZM1453.57,1719.02C1453.48,1718.88 1453.63,1718.67 1453.79,1718.73C1455.62,1719.36 1457.01,1721.22 1458.09,1722.73C1459.32,1724.44 1460.48,1726.2 1461.74,1727.88C1463.08,1729.67 1464.44,1731.44 1465.63,1733.32C1466.63,1734.92 1467.66,1736.8 1468.05,1738.66C1468.11,1738.91 1467.78,1739.06 1467.64,1738.83C1465.5,1735.37 1462.97,1732.21 1460.53,1728.96C1459.3,1727.32 1458.21,1725.6 1457.06,1723.9C1455.95,1722.26 1454.59,1720.71 1453.57,1719.02ZM1475.47,1779.09C1475.62,1779.24 1475.43,1779.47 1475.24,1779.38C1469.29,1776.37 1466.53,1769.86 1461.66,1765.6C1461.41,1765.38 1461.77,1765.04 1462.02,1765.24C1466.99,1769.33 1470.96,1774.52 1475.47,1779.09ZM1454.47,1757.1C1452.77,1754.93 1451.1,1752.73 1449.42,1750.54C1448.76,1749.69 1450.21,1748.86 1450.86,1749.7C1452.57,1751.93 1454.26,1754.17 1455.99,1756.39C1457.63,1758.49 1458.91,1760.77 1460.41,1762.98C1460.47,1763.06 1460.35,1763.14 1460.28,1763.08C1459.26,1762.13 1458.17,1761.24 1457.17,1760.28C1456.17,1759.32 1455.32,1758.2 1454.47,1757.1ZM1469.31,1735.79C1468.94,1734.94 1470.18,1734.19 1470.57,1735.05C1471.77,1737.74 1473.08,1740.37 1474.44,1742.99C1475.11,1744.28 1475.82,1745.57 1476.47,1746.88C1477.1,1748.14 1477.53,1749.43 1478.01,1750.74C1480.01,1756.15 1484.21,1760.74 1485.16,1766.56C1485.2,1766.81 1484.88,1766.98 1484.73,1766.74C1481.78,1761.83 1480.66,1755.95 1477.39,1751.2C1476.55,1749.99 1475.67,1748.85 1474.96,1747.55C1474.28,1746.33 1473.66,1745.06 1473.03,1743.81C1471.71,1741.17 1470.46,1738.5 1469.31,1735.79ZM1485.6,1774.09C1486.4,1775.41 1487.14,1776.77 1487.8,1778.17C1488.4,1779.45 1488.79,1780.51 1488.83,1781.92C1488.84,1782.23 1488.44,1782.28 1488.29,1782.06C1486.63,1779.84 1485.65,1777.1 1484.29,1774.66C1482.91,1772.19 1481.59,1769.65 1480.03,1767.28C1479.95,1767.16 1480.13,1767.03 1480.22,1767.13C1482.19,1769.34 1484.06,1771.56 1485.6,1774.09ZM1477.3,1760.32C1478.08,1761.65 1478.5,1762.98 1478.84,1764.46C1478.89,1764.65 1478.63,1764.85 1478.48,1764.67C1477.57,1763.51 1476.64,1762.43 1475.85,1761.17C1475.01,1759.83 1474.15,1758.49 1473.32,1757.15C1472.5,1755.82 1471.75,1754.45 1471.04,1753.06C1470.35,1751.71 1469.77,1750.26 1468.87,1749.03C1467.98,1747.83 1466.86,1746.83 1465.99,1745.62C1465.06,1744.33 1464.21,1743.01 1463.36,1741.68C1461.66,1739.02 1460.01,1736.33 1458.6,1733.51C1458.03,1732.39 1459.71,1731.41 1460.28,1732.53C1461.71,1735.34 1463.36,1738.03 1465.07,1740.68C1465.92,1742 1466.8,1743.31 1467.59,1744.68C1468.37,1746 1468.77,1747.48 1469.46,1748.84C1470.83,1751.56 1472.96,1753.87 1474.7,1756.34C1475.61,1757.63 1476.5,1758.96 1477.3,1760.32ZM1452.44,1741.83C1451.89,1740.94 1453.28,1740.14 1453.83,1741.01C1455.58,1743.77 1457.45,1746.44 1459.32,1749.12C1460.24,1750.44 1461.22,1751.74 1462.07,1753.11C1462.89,1754.42 1463.33,1755.82 1463.8,1757.27C1463.85,1757.43 1463.63,1757.56 1463.52,1757.44C1462.47,1756.33 1461.39,1755.29 1460.52,1754.02C1459.61,1752.69 1458.75,1751.32 1457.85,1749.98C1456.02,1747.28 1454.16,1744.6 1452.44,1741.83ZM1466.24,1775.72C1466.12,1775.61 1466.28,1775.4 1466.41,1775.5C1467.51,1776.3 1468.71,1776.94 1469.84,1777.7C1470.75,1778.31 1472.09,1778.94 1472.59,1779.97C1472.68,1780.17 1472.57,1780.4 1472.34,1780.41C1471.16,1780.45 1470.11,1779.45 1469.27,1778.74C1468.19,1777.81 1467.29,1776.69 1466.24,1775.72ZM1457.26,1768.81C1455.18,1766.78 1453.1,1764.75 1450.87,1762.89C1450.2,1762.34 1451.15,1761.42 1451.81,1761.95C1454.03,1763.74 1456.1,1765.69 1458.17,1767.64C1459.17,1768.6 1460.21,1769.52 1461.21,1770.49C1462.25,1771.49 1463.1,1772.62 1464.04,1773.71C1464.15,1773.84 1464.02,1774.03 1463.86,1773.95C1462.65,1773.3 1461.49,1772.66 1460.43,1771.78C1459.31,1770.86 1458.3,1769.81 1457.26,1768.81ZM1446.05,1757.81C1446.16,1757.92 1446.05,1758.12 1445.9,1758.07C1441.39,1756.85 1439.16,1751.88 1436.51,1748.45C1436.04,1747.84 1436.86,1746.98 1437.37,1747.59C1438.8,1749.32 1440.16,1751.11 1441.59,1752.85C1442.29,1753.7 1443.03,1754.5 1443.81,1755.29C1444.61,1756.09 1445.29,1756.97 1446.05,1757.81ZM1519.74,1732.42C1520.05,1728.87 1520.72,1725.32 1521.35,1721.82C1521.69,1719.95 1521.98,1718.07 1522.17,1716.18C1522.33,1714.6 1522.41,1712.9 1522.83,1711.36C1522.87,1711.19 1523.13,1711.15 1523.22,1711.31C1524.81,1714.26 1523.82,1718.35 1523.21,1721.44C1522.48,1725.11 1521.37,1728.69 1520.93,1732.42C1520.84,1733.16 1519.68,1733.19 1519.74,1732.42ZM1510.43,1725.52C1510.43,1723.3 1510.58,1721.09 1510.75,1718.88C1510.91,1716.71 1511.32,1714.69 1511.75,1712.57C1511.78,1712.38 1512.09,1712.38 1512.12,1712.57C1512.54,1714.71 1512.67,1716.7 1512.52,1718.88C1512.36,1721.09 1512.22,1723.3 1512.23,1725.52C1512.24,1726.68 1510.44,1726.68 1510.43,1725.52ZM1510.54,1756.77C1509.81,1753.89 1509.49,1750.75 1509.47,1747.78C1509.44,1744.69 1509.81,1741.72 1510.27,1738.68C1510.3,1738.51 1510.57,1738.51 1510.6,1738.68C1510.8,1740.08 1511.01,1741.51 1510.94,1742.94C1510.86,1744.43 1510.75,1745.92 1510.66,1747.41C1510.46,1750.57 1510.22,1753.53 1510.93,1756.66C1510.99,1756.92 1510.6,1757.03 1510.54,1756.77ZM1512.48,1777.61C1512.47,1777.74 1512.38,1777.93 1512.39,1777.98C1512.41,1778.12 1512.24,1778.25 1512.12,1778.13C1512.01,1778.02 1511.81,1778 1511.68,1777.88C1511.5,1777.72 1511.4,1777.42 1511.3,1777.21C1511.03,1776.63 1510.86,1776.03 1510.75,1775.41C1510.49,1773.93 1510.38,1772.43 1510.31,1770.94C1510.18,1767.93 1510.39,1764.75 1510.91,1761.78C1510.93,1761.66 1511.14,1761.66 1511.16,1761.78C1511.65,1764.62 1511.62,1767.65 1511.7,1770.52C1511.74,1772.07 1511.8,1773.63 1512.06,1775.17C1512.17,1775.77 1512.26,1776.37 1512.37,1776.97C1512.41,1777.17 1512.5,1777.4 1512.48,1777.61ZM1523.77,1747.79C1524.42,1745.49 1525.05,1743.19 1525.63,1740.87C1526.21,1738.54 1527.06,1736.39 1527.89,1734.15C1527.98,1733.9 1528.39,1733.92 1528.39,1734.22C1528.33,1736.62 1528.2,1738.89 1527.63,1741.23C1527.06,1743.55 1526.45,1745.86 1525.81,1748.16C1525.16,1750.54 1524.47,1752.9 1523.77,1755.25C1523.42,1756.4 1523.11,1757.58 1522.68,1758.71C1522.27,1759.79 1521.6,1760.6 1521.05,1761.58C1520.99,1761.7 1520.8,1761.65 1520.8,1761.52C1520.84,1760.39 1520.69,1759.35 1520.91,1758.22C1521.13,1757.03 1521.5,1755.87 1521.82,1754.72C1522.46,1752.41 1523.12,1750.1 1523.77,1747.79ZM1498.87,1777.82C1497.88,1775.77 1496.97,1773.37 1497.35,1771.07C1497.38,1770.91 1497.63,1770.89 1497.7,1771.02C1498.77,1773.04 1499.17,1775.46 1499.23,1777.72C1499.24,1777.91 1498.95,1778 1498.87,1777.82ZM1501.28,1741.27C1501.07,1737.93 1501.09,1734.57 1501.12,1731.22C1501.13,1730.04 1502.95,1730.04 1502.95,1731.22C1502.97,1734.52 1503.05,1737.81 1503.24,1741.1C1503.33,1742.74 1503.48,1744.37 1503.57,1746.02C1503.67,1747.58 1503.52,1749.15 1503.65,1750.72C1503.66,1750.86 1503.47,1750.86 1503.43,1750.75C1502.83,1749.29 1502.15,1747.8 1501.85,1746.25C1501.53,1744.6 1501.39,1742.94 1501.28,1741.27ZM1536.41,1727.2C1536.89,1725.33 1537.34,1723.45 1537.87,1721.59C1538.35,1719.87 1538.86,1718.03 1539.71,1716.45C1539.79,1716.3 1540,1716.41 1539.97,1716.56C1539.6,1718.37 1539.03,1720.18 1538.57,1721.97C1538.11,1723.79 1537.69,1725.61 1537.26,1727.44C1537.13,1727.99 1536.27,1727.75 1536.41,1727.2ZM1529.56,1749.55C1529.94,1747.76 1530.38,1745.96 1530.95,1744.22C1531.45,1742.7 1532.06,1741.01 1533.06,1739.75C1533.21,1739.57 1533.46,1739.74 1533.48,1739.92C1533.61,1741.54 1533.14,1743.35 1532.74,1744.91C1532.3,1746.63 1531.85,1748.34 1531.51,1750.09C1531.27,1751.36 1529.28,1750.83 1529.56,1749.55ZM1493.94,1727.02C1493.82,1723.97 1493.32,1720.98 1493.36,1717.92C1493.4,1714.91 1493.69,1712.13 1494.65,1709.27C1494.72,1709.06 1495.02,1709.1 1495.03,1709.32C1495.1,1710.85 1495.21,1712.35 1495.2,1713.87C1495.18,1715.29 1495.12,1716.7 1495.1,1718.11C1495.03,1721.1 1494.64,1724.04 1494.54,1727.02C1494.52,1727.41 1493.95,1727.41 1493.94,1727.02ZM1494.78,1730.25C1494.96,1731.43 1495.23,1732.58 1495.37,1733.76C1495.51,1735.05 1495.57,1736.34 1495.69,1737.63C1495.93,1740.21 1496.31,1742.79 1496.69,1745.36C1496.88,1746.61 1494.97,1747.15 1494.78,1745.88C1494.37,1743.25 1493.96,1740.62 1493.69,1737.97C1493.41,1735.27 1493.39,1732.84 1494.29,1730.25C1494.37,1730.04 1494.74,1729.98 1494.78,1730.25ZM1500.55,1769.39C1499.46,1766.38 1498.7,1763.24 1498.22,1760.08C1498.18,1759.84 1498.49,1759.67 1498.63,1759.91C1500.2,1762.5 1501.11,1765.42 1502.07,1768.28C1502.58,1769.78 1503.1,1771.27 1503.74,1772.73C1504.31,1774.05 1504.97,1775.33 1505.32,1776.74C1505.37,1776.97 1505.11,1777.23 1504.89,1777.07C1502.51,1775.35 1501.5,1772.04 1500.55,1769.39ZM1487.5,1723.11C1487.31,1721.75 1489.39,1721.17 1489.58,1722.53C1490.36,1728.23 1490.59,1733.99 1491.34,1739.69C1491.71,1742.5 1492.61,1745.22 1493.35,1747.95C1494.04,1750.52 1494.59,1752.92 1494.11,1755.57C1494.08,1755.74 1493.8,1755.73 1493.76,1755.57C1493.13,1752.98 1492.52,1750.36 1491.79,1747.8C1491.05,1745.18 1490.27,1742.57 1489.66,1739.92C1488.39,1734.39 1488.28,1728.71 1487.5,1723.11ZM1604.3,1759.95C1606.03,1758.19 1607.82,1756.71 1610.22,1756.02C1610.62,1755.91 1610.92,1756.42 1610.62,1756.71C1607.1,1760.16 1603.64,1763.58 1599.1,1765.71C1598.71,1765.89 1598.38,1765.35 1598.76,1765.13C1601.04,1763.81 1602.49,1761.8 1604.3,1759.95ZM1593.04,1770.41C1590.24,1772.09 1587.64,1774.11 1584.98,1775.99C1583.58,1776.97 1582.25,1778.02 1580.89,1779.04C1579.92,1779.77 1578.59,1780.98 1577.33,1781.03C1577.12,1781.04 1576.99,1780.82 1577.03,1780.64C1577.33,1779.32 1578.98,1778.14 1579.97,1777.35C1581.28,1776.29 1582.62,1775.27 1583.98,1774.28C1586.65,1772.35 1589.63,1770.72 1592.87,1770C1593.12,1769.95 1593.27,1770.28 1593.04,1770.41ZM1560.14,1775.23C1559.38,1776.14 1558.36,1776.85 1557.43,1777.58C1556.69,1778.15 1555.81,1779.1 1554.83,1779.14C1554.73,1779.15 1554.64,1779.07 1554.62,1778.98C1554.28,1777.89 1555.53,1776.9 1556.32,1776.37C1557.39,1775.66 1558.65,1775.16 1559.85,1774.73C1560.16,1774.62 1560.32,1775.02 1560.14,1775.23ZM1574.75,1742.13C1576.76,1740.07 1578.73,1737.94 1580.87,1736.01C1581.95,1735.05 1583.03,1734.09 1584.14,1733.16C1585.18,1732.29 1586.36,1731.59 1587.44,1730.77C1587.58,1730.66 1587.78,1730.87 1587.68,1731.01C1586.93,1732.14 1586.21,1733.3 1585.26,1734.28C1584.26,1735.32 1583.13,1736.25 1582.02,1737.16C1579.75,1738.99 1577.28,1740.54 1575.12,1742.51C1574.87,1742.73 1574.51,1742.38 1574.75,1742.13ZM1550.53,1766.59C1550.9,1764.57 1552.39,1762.8 1553.67,1761.26C1555.07,1759.58 1556.64,1758.02 1558.23,1756.51C1559.87,1754.96 1561.56,1753.43 1563.35,1752.05C1564.97,1750.8 1566.69,1749.36 1568.5,1748.39C1568.77,1748.25 1569,1748.58 1568.82,1748.81C1567.46,1750.43 1565.67,1751.84 1564.11,1753.27C1562.52,1754.73 1560.86,1756.1 1559.3,1757.58C1557.7,1759.09 1556.18,1760.67 1554.72,1762.32C1553.43,1763.78 1552.26,1765.53 1550.69,1766.71C1550.61,1766.77 1550.52,1766.67 1550.53,1766.59ZM1564.38,1769.41C1567.19,1767.71 1569.66,1765.56 1572.37,1763.72C1573.76,1762.78 1575.24,1761.97 1576.49,1760.84C1577.71,1759.76 1578.7,1758.51 1579.78,1757.31C1581.91,1754.93 1584.57,1753.14 1587.11,1751.25C1589.4,1749.56 1591.69,1747.33 1594.36,1746.26C1594.56,1746.18 1594.74,1746.41 1594.69,1746.59C1593.89,1749.45 1590.84,1751.46 1588.59,1753.1C1586.01,1754.97 1583.4,1756.81 1580.7,1758.5C1579.22,1759.44 1577.77,1760.36 1576.53,1761.61C1575.38,1762.76 1574.48,1764.12 1573.4,1765.33C1571.2,1767.82 1568.48,1769.87 1565.68,1771.63C1564.28,1772.51 1562.97,1770.27 1564.38,1769.41ZM1561.09,1816.86C1563.28,1816.15 1565.85,1816.71 1568.12,1816.66C1570.57,1816.61 1573.01,1816.37 1575.44,1816.06C1577.99,1815.73 1580.51,1815.29 1583.03,1814.85C1584.18,1814.64 1585.33,1814.52 1586.49,1814.46C1587.55,1814.4 1588.63,1814.24 1589.69,1814.39C1589.89,1814.42 1589.92,1814.73 1589.75,1814.82C1588.69,1815.34 1587.47,1815.61 1586.33,1815.94C1585.18,1816.28 1583.99,1816.52 1582.8,1816.73C1580.35,1817.16 1577.91,1817.57 1575.44,1817.89C1572.96,1818.21 1570.45,1818.41 1567.94,1818.41C1565.72,1818.41 1562.92,1818.56 1561.05,1817.15C1560.94,1817.07 1560.95,1816.91 1561.09,1816.86ZM1605.37,1803.62C1607.03,1803.42 1608.67,1803.57 1610.33,1803.69C1610.47,1803.7 1610.52,1803.91 1610.36,1803.94C1608.69,1804.34 1607.1,1805.02 1605.43,1805.47C1603.79,1805.92 1602.13,1806.33 1600.48,1806.74C1597.09,1807.59 1593.71,1808.4 1590.23,1808.79C1588.87,1808.93 1588.88,1806.79 1590.23,1806.65C1593.7,1806.28 1597.08,1805.42 1600.46,1804.6C1602.08,1804.2 1603.71,1803.83 1605.37,1803.62ZM1563.02,1811.73C1565.77,1811.35 1568.47,1810.7 1571.17,1810.08C1573.94,1809.45 1576.65,1808.82 1579.5,1809.27C1579.76,1809.31 1579.72,1809.69 1579.5,1809.76C1576.73,1810.64 1573.89,1811.17 1571.06,1811.82C1568.47,1812.41 1565.88,1812.98 1563.24,1813.33C1560.78,1813.65 1558.32,1813.87 1555.86,1814.17C1554.72,1814.3 1553.58,1814.45 1552.45,1814.65C1551.49,1814.82 1550.52,1815.16 1549.54,1814.99C1549.19,1814.93 1549.09,1814.44 1549.33,1814.22C1550.06,1813.53 1551.1,1813.39 1552.05,1813.2C1553.24,1812.96 1554.44,1812.78 1555.65,1812.62C1558.1,1812.29 1560.57,1812.07 1563.02,1811.73ZM1609.05,1789.44C1610.91,1789.16 1612.59,1788.5 1614.38,1787.95C1616.12,1787.41 1617.89,1786.94 1619.67,1786.51C1621.43,1786.09 1623.22,1785.71 1625.02,1785.56C1626.41,1785.45 1628.39,1785.15 1629.24,1786.54C1629.32,1786.67 1629.3,1786.87 1629.18,1786.97C1628.05,1787.98 1626.26,1787.56 1624.86,1787.67C1623.06,1787.8 1621.28,1788.12 1619.5,1788.49C1617.72,1788.87 1615.94,1789.35 1614.13,1789.6C1612.48,1789.82 1610.79,1789.9 1609.13,1790.01C1608.8,1790.03 1608.73,1789.48 1609.05,1789.44ZM1584.97,1794.55C1586.64,1794.01 1588.3,1793.4 1590.01,1793C1591.71,1792.6 1593.41,1792.25 1595.1,1791.8C1598.22,1790.97 1601.42,1791 1604.57,1790.41C1604.81,1790.36 1604.95,1790.67 1604.74,1790.8C1602.02,1792.58 1598.88,1792.51 1595.75,1792.61C1593.83,1792.67 1592.04,1793.26 1590.26,1793.93C1588.62,1794.55 1586.94,1795.1 1585.29,1795.69C1584.57,1795.94 1584.25,1794.78 1584.97,1794.55ZM1567.98,1800.74C1569.77,1799.97 1571.62,1799.32 1573.47,1798.75C1575.43,1798.14 1577.45,1797.72 1579.39,1797.06C1579.54,1797.01 1579.66,1797.23 1579.54,1797.33C1577.99,1798.66 1576.28,1799.38 1574.28,1799.82C1572.21,1800.27 1570.11,1800.34 1568.06,1800.91C1567.96,1800.94 1567.89,1800.78 1567.98,1800.74ZM1579.16,1802.52C1583.55,1801.52 1587.93,1800.44 1592.3,1799.34C1594.52,1798.79 1596.72,1798.19 1598.96,1797.74C1601.06,1797.33 1603.09,1797.16 1605.23,1797.05C1605.39,1797.04 1605.47,1797.29 1605.32,1797.36C1603.32,1798.27 1601.41,1799.09 1599.31,1799.73C1597.19,1800.38 1595.02,1800.87 1592.87,1801.41C1588.5,1802.49 1584.11,1803.54 1579.71,1804.51C1578.41,1804.8 1577.86,1802.82 1579.16,1802.52ZM1617.83,1834.81C1620.58,1835.96 1623.32,1837.07 1626.16,1837.96C1627.55,1838.4 1628.94,1838.8 1630.34,1839.21C1631.16,1839.45 1633.07,1840.05 1632.61,1841.25C1632.17,1842.44 1630.18,1841.97 1629.28,1841.74C1627.81,1841.37 1626.37,1840.88 1624.96,1840.32C1622.26,1839.25 1619.6,1838.08 1616.95,1836.9C1615.77,1836.38 1616.65,1834.32 1617.83,1834.81ZM1594.63,1829.2C1597.25,1829.63 1599.86,1830.08 1602.46,1830.62C1603.77,1830.89 1605.08,1831.15 1606.35,1831.59C1607.46,1831.98 1608.47,1832.56 1609.52,1833.07C1609.66,1833.14 1609.6,1833.4 1609.43,1833.38C1608.21,1833.24 1606.98,1833.22 1605.77,1833.01C1604.51,1832.79 1603.27,1832.47 1602.03,1832.18C1599.44,1831.6 1596.84,1831.1 1594.23,1830.63C1593.29,1830.46 1593.7,1829.05 1594.63,1829.2ZM1585.04,1856.49C1585.17,1856.68 1584.96,1856.89 1584.77,1856.85C1582.31,1856.27 1579.98,1854.95 1577.65,1853.99C1575.65,1853.17 1572.69,1852.35 1571.46,1850.41C1571.38,1850.28 1571.49,1850.13 1571.63,1850.12C1572.82,1849.99 1574.11,1850.45 1575.21,1850.86C1576.45,1851.32 1577.68,1851.83 1578.89,1852.36C1581.09,1853.33 1583.66,1854.42 1585.04,1856.49ZM1597.56,1854.38C1597.69,1854.49 1597.59,1854.7 1597.43,1854.7C1595.38,1854.72 1593.4,1854.1 1591.51,1853.37C1589.49,1852.59 1587.47,1851.83 1585.42,1851.13C1584.02,1850.65 1584.64,1848.4 1586.04,1848.9C1588.14,1849.66 1590.21,1850.47 1592.27,1851.32C1594.16,1852.09 1596.03,1853 1597.56,1854.38ZM1570.83,1845.52C1568.86,1844.59 1566.91,1843.62 1564.8,1843.06C1563.7,1842.78 1564.17,1841.07 1565.27,1841.36C1569.24,1842.42 1572.96,1844.58 1576.53,1846.55C1576.7,1846.65 1576.61,1846.89 1576.43,1846.9C1574.36,1847.04 1572.68,1846.4 1570.83,1845.52ZM1628.73,1847.08C1627.38,1847.31 1626.02,1846.97 1624.71,1846.67C1623.22,1846.32 1621.75,1845.95 1620.28,1845.53C1619.1,1845.19 1619.63,1843.32 1620.78,1843.7C1622.17,1844.16 1623.57,1844.58 1624.98,1844.97C1626.28,1845.33 1627.69,1845.6 1628.82,1846.39C1629.06,1846.56 1629.08,1847.01 1628.73,1847.08ZM1607.06,1840.23C1608.27,1840.81 1609.32,1841.6 1610.44,1842.33C1610.64,1842.46 1610.51,1842.8 1610.27,1842.72C1609.01,1842.31 1607.69,1842.13 1606.41,1841.78C1605.15,1841.43 1603.91,1841 1602.66,1840.6C1600.12,1839.78 1597.57,1839 1595.08,1838.03C1593.95,1837.59 1594.45,1835.76 1595.58,1836.2C1598.12,1837.2 1600.74,1838 1603.33,1838.84C1604.6,1839.25 1605.86,1839.66 1607.06,1840.23ZM1571.03,1831.57C1569.71,1831.4 1569.7,1829.29 1571.03,1829.47C1573.64,1829.8 1576.23,1830.27 1578.79,1830.86C1581.02,1831.37 1584.02,1831.79 1585.6,1833.64C1585.71,1833.77 1585.69,1834.01 1585.5,1834.05C1583.22,1834.49 1580.75,1833.46 1578.57,1832.95C1576.08,1832.37 1573.56,1831.89 1571.03,1831.57ZM1603.48,1846.81C1607.29,1848.48 1611.01,1850.35 1614.83,1851.99C1616.82,1852.85 1618.83,1853.66 1620.89,1854.33C1622.66,1854.92 1624.65,1855.18 1625.9,1856.64C1626.06,1856.83 1626.05,1857.11 1625.82,1857.25C1624.94,1857.75 1624.19,1857.85 1623.16,1857.7C1622.09,1857.55 1621.04,1857.19 1620.02,1856.85C1617.96,1856.18 1615.95,1855.37 1613.96,1854.51C1609.99,1852.78 1606.13,1850.8 1602.18,1849.02C1600.67,1848.34 1601.98,1846.15 1603.48,1846.81ZM1567.18,1835.53C1569.11,1836.55 1571.28,1836.9 1573.39,1837.39C1575.42,1837.87 1577.43,1838.41 1579.46,1838.91C1583.5,1839.91 1587.32,1840.98 1590.66,1843.59C1590.8,1843.7 1590.64,1843.94 1590.48,1843.89C1588.47,1843.26 1586.4,1842.86 1584.36,1842.35C1582.33,1841.84 1580.31,1841.28 1578.28,1840.75C1576.24,1840.23 1574.2,1839.69 1572.28,1838.83C1570.42,1837.99 1568.76,1836.84 1567.08,1835.7C1566.99,1835.63 1567.07,1835.48 1567.18,1835.53ZM1564.95,1864.59C1565.06,1864.81 1564.83,1865.06 1564.6,1864.93C1563.97,1864.59 1563.3,1864.36 1562.71,1863.94C1562.11,1863.53 1561.55,1863.07 1560.97,1862.63C1559.99,1861.88 1559.03,1861.1 1558.26,1860.11C1557.4,1859.01 1556.9,1857.73 1556.15,1856.57C1555.36,1855.37 1554.4,1854.29 1553.33,1853.32C1551.34,1851.52 1549.16,1849.96 1547.16,1848.17C1546.2,1847.3 1545.27,1846.39 1544.4,1845.44C1543.65,1844.62 1542.87,1843.66 1542.82,1842.51C1542.82,1842.33 1543.03,1842.14 1543.22,1842.22C1544.3,1842.65 1545.06,1843.61 1545.86,1844.42C1546.77,1845.35 1547.75,1846.2 1548.71,1847.08C1550.61,1848.8 1552.45,1850.55 1553.97,1852.63C1554.79,1853.75 1555.48,1854.96 1556.27,1856.11C1557.1,1857.31 1558.24,1858.33 1559.34,1859.28C1560.39,1860.18 1561.5,1860.98 1562.61,1861.81C1563.69,1862.62 1564.35,1863.38 1564.95,1864.59ZM1581.57,1896.66C1581.35,1896.34 1581.86,1896.06 1582.09,1896.36C1584.1,1898.98 1586.14,1901.58 1588.44,1903.95C1589.58,1905.13 1590.76,1906.25 1591.98,1907.34C1592.46,1907.77 1594.29,1909.25 1593.41,1910.02C1592.99,1910.38 1592.18,1910.19 1591.75,1910C1591.04,1909.69 1590.41,1909.14 1589.85,1908.63C1588.66,1907.52 1587.64,1906.22 1586.72,1904.89C1584.89,1902.22 1583.39,1899.34 1581.57,1896.66ZM1571.26,1884.59C1570.47,1883.65 1571.84,1882.28 1572.61,1883.24C1575.18,1886.42 1579.33,1889.45 1579.76,1893.81C1579.79,1894.15 1579.3,1894.24 1579.15,1893.98C1577.04,1890.43 1573.88,1887.73 1571.26,1884.59ZM1564.29,1872.98C1564.98,1873.9 1565.81,1874.96 1566.23,1876.03C1566.31,1876.24 1566.06,1876.49 1565.85,1876.41C1564.82,1876 1563.84,1875.14 1563,1874.42C1562.04,1873.6 1561.22,1872.61 1560.37,1871.68C1558.63,1869.75 1556.87,1867.84 1554.97,1866.08C1553.95,1865.13 1555.48,1863.6 1556.5,1864.55C1558.39,1866.33 1560.14,1868.25 1561.87,1870.18C1562.69,1871.1 1563.55,1872 1564.29,1872.98ZM1580.33,1911.52C1580.32,1911.52 1580.32,1911.5 1580.33,1911.5C1580.34,1911.5 1580.34,1911.52 1580.33,1911.52ZM1563.21,1885.46C1565.63,1888.33 1567.76,1891.49 1569.86,1894.6C1571.94,1897.68 1573.8,1900.8 1575.21,1904.23C1575.35,1904.57 1574.86,1904.69 1574.68,1904.46C1570.17,1898.56 1566.51,1892.07 1562.12,1886.08C1560.06,1883.26 1557.56,1880.82 1555.52,1877.98C1553.32,1874.92 1551.27,1871.8 1548.74,1869.01C1547.89,1868.07 1549.28,1866.68 1550.13,1867.62C1552.63,1870.37 1554.92,1873.41 1556.82,1876.61C1557.77,1878.21 1558.53,1879.94 1559.68,1881.42C1560.77,1882.84 1562.06,1884.09 1563.21,1885.46ZM1572.81,1918.03C1572.86,1918.21 1572.72,1918.41 1572.53,1918.4C1571.05,1918.34 1570.23,1917.32 1569.39,1916.19C1568.42,1914.88 1567.93,1913.38 1567.25,1911.92C1567.15,1911.71 1567.42,1911.46 1567.58,1911.66C1568.51,1912.78 1569.57,1913.79 1570.54,1914.88C1571.44,1915.89 1572.44,1916.7 1572.81,1918.03ZM1565.59,1907.84C1565.66,1908.1 1565.33,1908.3 1565.14,1908.1C1562.85,1905.77 1561.33,1902.75 1559.76,1899.91C1558.12,1896.94 1556.61,1893.91 1555.17,1890.84C1554.81,1890.09 1555.91,1889.42 1556.3,1890.18C1557.86,1893.18 1559.59,1896.09 1561.28,1899.02C1562.9,1901.83 1564.78,1904.66 1565.59,1907.84ZM1548.12,1875.73C1549.25,1877.44 1551.12,1879.92 1550.88,1882.11C1550.86,1882.27 1550.67,1882.45 1550.51,1882.32C1549.73,1881.73 1549.16,1880.74 1548.67,1879.91C1548.05,1878.89 1547.49,1877.85 1546.85,1876.86C1545.55,1874.83 1544.08,1872.88 1542.26,1871.28C1541.48,1870.59 1542.62,1869.47 1543.4,1870.14C1545.25,1871.74 1546.77,1873.71 1548.12,1875.73ZM1568.12,1794.06C1565.01,1795.59 1557.98,1798.99 1554.5,1798.48C1549.49,1797.75 1552.64,1795.08 1555.89,1792.93C1558.84,1790.98 1566.46,1786.07 1569.99,1786.51C1576.74,1787.35 1570.63,1792.82 1568.12,1794.06ZM1540.73,1766.51C1539.8,1758.78 1549.17,1760.49 1543.14,1767.15C1542.43,1767.93 1540.95,1767.55 1540.73,1766.51ZM1539.89,1768.73C1544.14,1770.82 1535.58,1785.8 1531.98,1783.15C1529,1780.96 1537.1,1767.35 1539.89,1768.73ZM1485.44,1758.48C1484.67,1755.78 1482.16,1747.37 1488.23,1751.35C1491.42,1753.44 1492.05,1763.87 1492.96,1767.18C1493.78,1770.16 1496.93,1779.76 1490.89,1774.47C1487.21,1771.25 1486.7,1762.85 1485.44,1758.48ZM1474.52,1786.13C1476.06,1786.13 1476.06,1788.53 1474.52,1788.53C1472.97,1788.53 1472.97,1786.13 1474.52,1786.13ZM1456.72,1778.08C1451.2,1772.94 1455.16,1771.94 1460.24,1775.24C1468.34,1780.48 1462.11,1783.1 1456.72,1778.08ZM1453.16,1821.97C1444.33,1820.13 1435.09,1821.14 1426.3,1819.15C1419.35,1817.58 1419.66,1813.63 1426.74,1814.29C1435.84,1815.15 1445.17,1814.88 1454.13,1816.82C1461.8,1818.49 1461.21,1823.65 1453.16,1821.97ZM1457.21,1861.34C1455.35,1862.76 1447.94,1867.86 1445.57,1866.26C1442.42,1864.14 1448.78,1861.31 1450.31,1860.18C1452.7,1858.42 1456.37,1853.09 1459.49,1853.17C1465.08,1853.31 1458.6,1860.27 1457.21,1861.34ZM1536.18,1877.76C1533.54,1876.89 1531.53,1871.92 1530.29,1869.71C1528.85,1867.12 1523.4,1859.51 1528.72,1859.43C1532.5,1861.13 1535.59,1868.38 1537.38,1871.71C1538.96,1874.66 1540.83,1879.31 1536.18,1877.76ZM1505.58,1880.06C1505.29,1882.74 1504.67,1896.75 1500.88,1888.2C1499.35,1884.76 1500.09,1872.57 1501.7,1869.21C1501.7,1869.2 1501.71,1869.17 1501.71,1869.13C1501.71,1869.16 1501.71,1869.18 1501.7,1869.21C1502.18,1868.22 1502.5,1864.16 1504.9,1866.56C1508.84,1869.06 1505.97,1876.51 1505.58,1880.06ZM1566.32,1855.01C1564.56,1855.19 1562.36,1853.77 1560.87,1853.07C1558.83,1852.12 1553.49,1849.88 1552.76,1847.49C1551.58,1843.65 1556.18,1846.16 1557.84,1846.9C1561.33,1848.44 1565.75,1849.86 1568.9,1851.98C1571.84,1853.96 1567.43,1854.9 1566.32,1855.01ZM1619.92,1869.03C1619.53,1869.57 1618.88,1870.2 1618.15,1870.86C1617.22,1870.21 1615.89,1869.67 1615.5,1869.48C1613.57,1868.52 1611.56,1868.01 1609.54,1867.33C1608.42,1866.95 1607.21,1866.64 1606.22,1865.97C1605.19,1865.28 1604.35,1864.4 1603.25,1863.8C1601.05,1862.61 1598.59,1861.71 1596.26,1860.82C1593.89,1859.92 1591.48,1859.33 1589.06,1858.61C1588.94,1858.58 1588.88,1858.74 1588.98,1858.8C1590.92,1860.03 1592.77,1861.31 1594.84,1862.31C1596.88,1863.28 1598.96,1864.16 1601.04,1865.06C1601.96,1865.46 1602.9,1865.8 1603.9,1865.99C1605.25,1866.23 1606.48,1866.33 1607.72,1867.01C1609.68,1868.07 1611.48,1869.43 1613.39,1870.6C1614.3,1871.16 1615.26,1871.64 1616.2,1872.16C1616.29,1872.21 1616.38,1872.26 1616.47,1872.32C1614.95,1873.64 1613.48,1874.99 1613.14,1876.04C1605.02,1873.23 1597.13,1869.75 1589.19,1866.48C1585.07,1864.78 1581.14,1862.14 1577.03,1860.58C1573.56,1859.27 1571.56,1859.05 1574.48,1863.01C1578.83,1868.91 1590.14,1872.21 1596.69,1875.05C1601.88,1877.29 1607.57,1879.66 1612.96,1881.46C1612.26,1884.59 1610.88,1887.33 1609.17,1889.87C1608.9,1888.91 1608.55,1888.13 1607.84,1887.28C1606.84,1886.11 1605.6,1885.14 1604.34,1884.26C1601.97,1882.61 1599.36,1881.16 1596.78,1879.86C1596.21,1879.57 1595.62,1880.27 1596.09,1880.75C1598.13,1882.88 1600.7,1884.62 1603.02,1886.44C1604.21,1887.36 1605.37,1888.31 1606.51,1889.3C1606.98,1889.71 1607.48,1890.1 1607.99,1890.47C1608.14,1890.59 1608.3,1890.77 1608.45,1890.89C1606.58,1893.48 1604.39,1895.89 1602.25,1898.31C1600.93,1897.32 1599.66,1896.27 1598.53,1895.05C1596.78,1893.17 1595.29,1891.05 1593.89,1888.91C1591.18,1884.77 1588.8,1880.1 1584.89,1876.95C1584.42,1876.58 1583.65,1877.05 1584,1877.63C1586.72,1882.11 1589.23,1886.68 1592.33,1890.92C1593.92,1893.09 1595.61,1895.19 1597.66,1896.96C1598.76,1897.91 1600,1898.81 1601.38,1899.3C1600.56,1900.24 1599.76,1901.18 1599,1902.13C1593.45,1896.39 1590.19,1888.7 1585.86,1882.08C1583.41,1878.33 1580.55,1874.89 1577.85,1871.32C1576.35,1869.34 1573.27,1862.48 1570.75,1861.49C1565.42,1859.4 1570.99,1868.78 1571.83,1870.01C1574.22,1873.47 1577.02,1876.63 1579.57,1879.97C1585.67,1888 1589.7,1898.28 1597.12,1905.25C1591.28,1915.28 1579.3,1918.8 1570.49,1925.4C1566.79,1918.77 1563.24,1921.11 1566.83,1927.6C1565.82,1928.74 1564.71,1929.66 1563.53,1930.44C1563.01,1929.34 1562.57,1928.18 1562,1927.1C1561.32,1925.78 1560.7,1924.42 1560.09,1923.06C1558.85,1920.31 1557.67,1917.49 1556.2,1914.85C1555.88,1914.26 1554.91,1914.66 1555.11,1915.31C1556.03,1918.31 1557,1921.33 1558.21,1924.22C1558.81,1925.63 1559.47,1926.99 1560.23,1928.32C1560.88,1929.45 1561.64,1930.25 1562.52,1931.07C1561.64,1931.58 1560.72,1932.03 1559.78,1932.44C1559.61,1931.5 1559.28,1930.56 1558.98,1929.67C1558.33,1927.69 1557.52,1925.77 1556.68,1923.87C1554.94,1919.95 1553.02,1916.21 1552.03,1912C1551.89,1911.39 1550.88,1911.51 1550.92,1912.15C1551.18,1916.4 1552.62,1920.45 1554.24,1924.35C1555.04,1926.29 1555.95,1928.17 1556.73,1930.12C1557.11,1931.08 1557.4,1932.07 1557.76,1933.03C1557.79,1933.09 1557.81,1933.15 1557.84,1933.21C1556.67,1933.65 1555.48,1934.06 1554.27,1934.48C1549.89,1921.31 1548.02,1906.44 1545.57,1892.73C1548.97,1898.71 1552.3,1904.79 1555.99,1910.59C1557.3,1912.64 1562.75,1923.93 1565.18,1920.13C1567.35,1916.75 1558.3,1906.24 1556.65,1903.62C1554.98,1900.96 1547.29,1885.14 1543.95,1885.6C1543.67,1884.51 1542.81,1884.22 1541.8,1884.59C1540.32,1885.13 1540.98,1890.71 1541.03,1891.47C1541.43,1896.86 1543.07,1902.34 1544.26,1907.59C1546.33,1916.72 1546.51,1927.48 1550.74,1935.89C1546.57,1937.72 1542.51,1939.25 1538.45,1940.51C1538.06,1938.88 1537.92,1937.26 1537.91,1935.53C1537.91,1933.34 1538.13,1931.14 1538.08,1928.95C1538.02,1926.43 1537.85,1923.9 1537.6,1921.39C1537.36,1918.97 1537.04,1916.67 1536.08,1914.43C1536,1914.24 1535.74,1914.38 1535.77,1914.56C1536.54,1919.58 1537.14,1924.72 1537.12,1929.81C1537.12,1932.02 1536.94,1934.22 1537.02,1936.42C1537.06,1937.76 1537.2,1939.39 1537.78,1940.71C1536.09,1941.22 1534.41,1941.68 1532.71,1942.09C1533.3,1938.22 1533.44,1934.31 1533.52,1930.39C1533.61,1925.9 1533.49,1921.42 1531.96,1917.15C1531.88,1916.91 1531.49,1916.93 1531.5,1917.21C1531.6,1921.66 1531.84,1926.12 1531.83,1930.58C1531.82,1934.49 1531.56,1938.38 1532.03,1942.26C1531,1942.5 1529.97,1942.72 1528.94,1942.93C1528.81,1941.82 1528.24,1940.63 1527.91,1939.63C1527.45,1938.23 1527.07,1936.79 1526.74,1935.35C1526.09,1932.42 1525.71,1929.45 1525.39,1926.47C1524.78,1920.63 1524.38,1914.79 1523.52,1908.98C1523.44,1908.42 1522.46,1908.54 1522.53,1909.11C1523.28,1915.16 1523.29,1921.28 1524.01,1927.33C1524.35,1930.26 1524.81,1933.18 1525.49,1936.05C1525.83,1937.49 1526.23,1938.92 1526.71,1940.31C1527.01,1941.2 1527.37,1942.3 1527.97,1943.12C1525.22,1943.64 1522.42,1944.04 1519.53,1944.33C1519.44,1943.92 1519.33,1943.5 1519.16,1943.1C1518.82,1942.26 1518.42,1941.45 1518.08,1940.62C1517.44,1939.02 1516.86,1937.41 1516.35,1935.77C1515.31,1932.51 1514.51,1929.17 1513.74,1925.84C1512.1,1918.68 1510.3,1911.55 1509.26,1904.27C1508.94,1902.06 1508.66,1899.84 1508.47,1897.6C1508.28,1895.41 1507.74,1893.29 1507.52,1891.11C1507.51,1891 1507.36,1891 1507.35,1891.11C1507.16,1893.11 1506.78,1895.01 1506.87,1897.03C1506.96,1898.95 1507.16,1900.87 1507.38,1902.77C1507.83,1906.63 1508.53,1910.45 1509.34,1914.24C1510.11,1917.87 1511,1921.48 1511.81,1925.11C1512.58,1928.51 1513.37,1931.9 1514.37,1935.24C1514.94,1937.16 1515.58,1939.07 1516.35,1940.92C1516.7,1941.77 1517.06,1942.62 1517.47,1943.44C1517.67,1943.83 1517.89,1944.16 1518.13,1944.46C1517.01,1944.56 1515.88,1944.64 1514.74,1944.71C1509.89,1940.77 1510.6,1927.6 1509.43,1921.86C1508.72,1918.38 1506.62,1897.57 1502.77,1896.61C1500.75,1896.11 1493.83,1913.18 1492.06,1916.06C1487.51,1923.44 1479.97,1932.29 1479.6,1941.37C1478.89,1941.39 1478.18,1941.4 1477.47,1941.39C1477.54,1941.04 1477.61,1940.69 1477.64,1940.33C1477.71,1939.55 1477.79,1938.77 1477.91,1937.99C1478.18,1936.37 1478.57,1934.78 1478.99,1933.19C1479.84,1929.98 1480.9,1926.83 1481.65,1923.6C1482.49,1919.97 1483.01,1916.26 1483.68,1912.6C1484.36,1908.82 1485.08,1904.86 1484.85,1901.01C1484.84,1900.77 1484.51,1900.72 1484.43,1900.95C1483.12,1904.66 1482.74,1908.72 1482.26,1912.6C1481.79,1916.37 1481.24,1920.18 1480.35,1923.87C1479.57,1927.12 1478.51,1930.29 1477.7,1933.53C1477.32,1935.06 1477.01,1936.6 1476.8,1938.16C1476.7,1938.97 1476.56,1939.82 1476.6,1940.64C1476.61,1940.89 1476.64,1941.13 1476.69,1941.38C1473.18,1941.28 1469.71,1940.79 1466.33,1939.96C1467.54,1938.44 1467.96,1936.6 1468.53,1934.76C1469.18,1932.69 1469.81,1930.61 1470.4,1928.52C1470.67,1927.54 1469.16,1927.13 1468.88,1928.1C1468.3,1930.13 1467.68,1932.14 1467.04,1934.15C1466.45,1936.04 1465.67,1937.84 1465.83,1939.83C1462.75,1939.04 1459.76,1937.97 1456.85,1936.67C1457.57,1934.59 1458.47,1932.6 1459.42,1930.62C1460.67,1928.04 1461.62,1925.45 1462.47,1922.72C1463.45,1919.6 1464.36,1916.47 1465.21,1913.31C1465.99,1910.39 1466.54,1907.41 1467.45,1904.52C1467.98,1902.84 1468.58,1901.21 1469.28,1899.6C1469.95,1898.1 1470.66,1896.67 1471.05,1895.07C1471.1,1894.87 1470.83,1894.67 1470.68,1894.85C1468.9,1897.08 1468.34,1900.01 1467.48,1902.67C1466.53,1905.59 1465.61,1908.53 1464.72,1911.47C1462.84,1917.62 1461.48,1923.98 1458.76,1929.84C1457.81,1931.88 1456.59,1934.07 1456.12,1936.33C1454.24,1935.45 1452.4,1934.47 1450.61,1933.4C1450.89,1932.89 1451.13,1932.34 1451.38,1931.84C1451.94,1930.72 1452.5,1929.6 1453.07,1928.49C1454.25,1926.18 1455.4,1923.86 1456.55,1921.54C1457.67,1919.27 1458.76,1917 1459.79,1914.69C1460.27,1913.62 1460.76,1912.54 1461.15,1911.42C1461.58,1910.2 1461.78,1908.93 1462.05,1907.67C1462.1,1907.43 1461.76,1907.26 1461.64,1907.5C1461.1,1908.58 1460.45,1909.61 1459.94,1910.71C1459.42,1911.84 1458.97,1913 1458.47,1914.14C1457.44,1916.51 1456.33,1918.86 1455.2,1921.19C1454.1,1923.47 1452.98,1925.74 1451.92,1928.04C1451.39,1929.18 1450.87,1930.32 1450.37,1931.47C1450.18,1931.92 1449.95,1932.4 1449.77,1932.89C1449.21,1932.54 1448.65,1932.19 1448.1,1931.82C1446.11,1930.5 1444.22,1929.06 1442.38,1927.56C1442.72,1926.67 1443.04,1925.76 1443.42,1924.89C1444.1,1923.32 1444.8,1921.76 1445.57,1920.24C1447.17,1917.1 1448.97,1914.07 1450.69,1911C1452.35,1908.04 1453.86,1905 1455.63,1902.11C1457.38,1899.25 1459.26,1896.47 1460.97,1893.59C1461.92,1892.01 1462.86,1890.39 1463.63,1888.71C1464.42,1886.99 1464.85,1885.26 1465.17,1883.4C1465.23,1883.05 1464.71,1882.75 1464.54,1883.14C1461.77,1889.24 1458.13,1894.84 1454.61,1900.53C1452.82,1903.42 1451.33,1906.44 1449.74,1909.44C1448.09,1912.54 1446.38,1915.61 1444.85,1918.78C1444.01,1920.53 1443.17,1922.31 1442.53,1924.14C1442.22,1925.04 1441.89,1926 1441.66,1926.97C1439.26,1925 1436.94,1922.95 1434.55,1920.94C1436.14,1918.84 1437.5,1916.49 1438.53,1914.12C1439.08,1912.87 1439.62,1911.61 1440.15,1910.35C1440.7,1909.02 1441.25,1907.66 1442.16,1906.53C1442.27,1906.39 1442.13,1906.15 1441.95,1906.27C1439.64,1907.85 1438.65,1910.63 1437.59,1913.09C1436.97,1914.52 1436.25,1915.91 1435.48,1917.28C1434.91,1918.29 1434.33,1919.31 1433.87,1920.38C1432.97,1919.64 1432.03,1918.93 1431.06,1918.22C1431.61,1914.95 1432.16,1911.71 1433.4,1908.62C1434.67,1905.46 1436.4,1902.51 1438.15,1899.6C1441.78,1893.59 1445.42,1887.66 1449.87,1882.21C1452.39,1879.12 1455.23,1876.32 1457.79,1873.27C1457.94,1873.09 1457.75,1872.79 1457.53,1872.93C1454.43,1874.78 1452.06,1877.37 1449.75,1880.13C1447.36,1882.98 1445.17,1885.98 1443.14,1889.09C1441.21,1892.06 1439.44,1895.11 1437.61,1898.14C1435.82,1901.12 1434.03,1904.12 1432.67,1907.33C1431.25,1910.68 1430.12,1914.38 1430.77,1918.01C1427.47,1915.6 1423.98,1913.21 1421.55,1910.09C1421.75,1909.41 1421.71,1908.63 1421.31,1907.9C1426.05,1900.18 1429.67,1891.78 1434.71,1884.25C1436.8,1881.14 1445.67,1872.87 1443.83,1868.63C1441.48,1863.21 1406.77,1880.56 1401.87,1883.17C1401.82,1881.79 1400.99,1880.27 1399.89,1878.76C1401.49,1878.41 1403.09,1877.98 1404.67,1877.64C1407.3,1877.07 1409.89,1876.43 1412.44,1875.58C1414.72,1874.83 1416.98,1874.01 1419.15,1872.97C1421.24,1871.97 1423.5,1870.82 1425.08,1869.05C1425.2,1868.92 1425.08,1868.65 1424.89,1868.72C1422.74,1869.55 1420.74,1870.8 1418.64,1871.77C1416.4,1872.81 1414.12,1873.75 1411.79,1874.56C1409.37,1875.4 1406.87,1875.99 1404.37,1876.55C1402.67,1876.93 1400.83,1877.21 1399.11,1877.73C1397.45,1875.64 1395.46,1873.6 1394.46,1871.93C1394.19,1871.49 1393.93,1871.04 1393.67,1870.6C1396.29,1871.49 1399.42,1870.61 1401.95,1869.86C1403.44,1869.41 1404.91,1868.9 1406.36,1868.34C1407.81,1867.78 1409.16,1867.02 1410.6,1866.42C1410.85,1866.32 1410.76,1865.95 1410.48,1866.01C1409.09,1866.3 1407.69,1866.56 1406.35,1867.02C1404.88,1867.53 1403.43,1868.09 1401.96,1868.58C1400.56,1869.05 1399.14,1869.43 1397.68,1869.71C1396.3,1869.98 1394.89,1870.08 1393.5,1870.31C1392.56,1868.67 1391.67,1867 1390.83,1865.31C1392.91,1865.79 1395.23,1865.3 1397.21,1864.67C1399.93,1863.82 1402.6,1862.63 1404.94,1860.99C1405.13,1860.86 1405.02,1860.55 1404.79,1860.61C1402.26,1861.28 1399.81,1862.24 1397.33,1863.06C1395.97,1863.51 1394.61,1863.93 1393.22,1864.27C1392.37,1864.48 1391.43,1864.7 1390.53,1864.69C1389.34,1862.25 1388.26,1859.76 1387.3,1857.23C1387.18,1856.9 1387.06,1856.56 1386.94,1856.23C1389.51,1856.81 1392.34,1856.72 1394.9,1856.64C1398.31,1856.54 1401.71,1856.1 1405.08,1855.51C1408.49,1854.92 1411.86,1854.12 1415.22,1853.29C1418.53,1852.48 1421.81,1851.71 1424.97,1850.43C1425.09,1850.39 1425.09,1850.18 1424.94,1850.19C1421.69,1850.43 1418.59,1851.28 1415.43,1852.05C1412.13,1852.85 1408.81,1853.61 1405.47,1854.27C1402.1,1854.94 1398.68,1855.45 1395.24,1855.71C1393.63,1855.83 1392.02,1855.89 1390.4,1855.86C1389.18,1855.83 1387.96,1855.72 1386.73,1855.67C1385.4,1851.91 1384.32,1848.09 1383.47,1844.22C1387.42,1844.77 1391.53,1843.93 1395.49,1843.77C1400.1,1843.58 1405.02,1844.15 1409.37,1842.33C1409.49,1842.28 1409.49,1842.09 1409.34,1842.09C1404.73,1842.14 1400.1,1842.27 1395.49,1842.49C1391.42,1842.68 1387.39,1843.32 1383.32,1843.55C1382.83,1841.28 1382.42,1839 1382.06,1836.7C1382.62,1836.58 1383.17,1836.45 1383.72,1836.33C1385.37,1835.96 1387.02,1835.61 1388.68,1835.28C1391.97,1834.62 1395.28,1834 1398.6,1833.47C1405.32,1832.39 1412.09,1831.67 1418.89,1831.24C1422.73,1831 1426.6,1831.1 1430.4,1830.44C1430.62,1830.4 1430.63,1830.03 1430.4,1829.99C1427.01,1829.41 1423.62,1829.64 1420.21,1829.84C1416.77,1830.05 1413.33,1830.38 1409.91,1830.8C1403.2,1831.62 1396.54,1832.78 1389.93,1834.21C1388.1,1834.61 1386.28,1835.03 1384.46,1835.47C1383.64,1835.67 1382.8,1835.85 1381.97,1836.06C1381.65,1833.9 1381.39,1831.73 1381.17,1829.56C1381.77,1829.37 1382.37,1829.2 1382.98,1829.06C1384.67,1828.68 1386.39,1828.42 1388.11,1828.17C1389.84,1827.92 1391.56,1827.7 1393.28,1827.41C1395.08,1827.12 1396.62,1826.59 1398.29,1825.89C1398.5,1825.8 1398.42,1825.5 1398.19,1825.54C1396.48,1825.87 1394.7,1826.02 1392.97,1826.3C1391.14,1826.6 1389.3,1826.82 1387.47,1827.09C1385.69,1827.34 1383.93,1827.66 1382.2,1828.11C1381.82,1828.21 1381.44,1828.31 1381.06,1828.42C1380.93,1826.95 1380.82,1825.48 1380.72,1824C1387.35,1823.85 1393.85,1821.8 1400.37,1820.77C1403.77,1820.24 1414.58,1819.89 1415.53,1815.35C1416.35,1811.36 1405.53,1809.6 1403,1809C1395.71,1807.27 1388.55,1804.06 1381.23,1802.74C1381.78,1799.47 1382,1796.32 1382.2,1793.2C1382.83,1793.58 1383.55,1793.85 1384.24,1794.1C1385.64,1794.58 1387.09,1794.95 1388.52,1795.34C1391.89,1796.28 1394.77,1798.43 1398.22,1799.1C1398.31,1799.12 1398.38,1798.99 1398.28,1798.94C1395.22,1797.59 1392.49,1795.63 1389.25,1794.66C1386.88,1793.95 1384.5,1793.47 1382.24,1792.49C1382.38,1790.35 1382.52,1788.22 1382.76,1786.09C1383.97,1786.98 1385.72,1787.38 1387.03,1787.68C1389.71,1788.28 1392.32,1788.94 1394.95,1789.75C1401.17,1791.66 1407.4,1793.56 1413.66,1795.34C1415.39,1795.82 1417.12,1796.35 1418.87,1796.74C1420.57,1797.12 1422.3,1797.28 1424.04,1797.44C1424.31,1797.47 1424.33,1797.08 1424.1,1797C1416.54,1794.38 1408.76,1792.41 1401.09,1790.11C1397.44,1789.01 1393.8,1787.7 1390.07,1786.86C1388.62,1786.54 1387.16,1786.26 1385.71,1785.9C1384.73,1785.65 1383.82,1785.27 1382.9,1784.9C1383.3,1781.84 1383.94,1778.75 1385.12,1775.58C1385.91,1773.44 1386.77,1771.4 1387.71,1769.44C1391.86,1771.62 1396.38,1772.89 1400.77,1774.52C1406.03,1776.47 1411.17,1778.76 1416.4,1780.78C1421.63,1782.8 1426.85,1784.77 1432.18,1786.51C1436.9,1788.05 1441.31,1790.32 1446.02,1791.9C1448.27,1792.65 1450.51,1793.41 1452.73,1794.26C1454.9,1795.1 1457.15,1795.91 1458.99,1797.36C1459.2,1797.53 1459.45,1797.28 1459.28,1797.07C1456.61,1793.83 1452.73,1792.27 1448.85,1790.99C1444.24,1789.48 1439.26,1789.07 1434.82,1787.09C1432.25,1785.95 1429.8,1784.6 1427.26,1783.4C1424.74,1782.22 1422.17,1781.13 1419.58,1780.12C1414.3,1778.05 1409.05,1775.87 1403.72,1773.95C1398.53,1772.1 1393.15,1770.78 1387.98,1768.89C1389.07,1766.68 1390.28,1764.58 1391.64,1762.6C1393.66,1763.15 1395.71,1763.63 1397.68,1764.37C1400.43,1765.4 1402.99,1766.86 1405.72,1767.91C1405.8,1767.94 1405.88,1767.81 1405.81,1767.75C1403.59,1765.94 1400.68,1764.81 1398.01,1763.83C1396.14,1763.15 1394.09,1762.4 1392.04,1762.01C1393.32,1760.21 1394.74,1758.5 1396.32,1756.88C1397.45,1757.88 1399.04,1758.49 1400.35,1759.02C1402.59,1759.93 1404.9,1760.63 1407.15,1761.49C1409.68,1762.46 1412.05,1763.81 1414.46,1765.04C1415.83,1765.74 1417.18,1766.46 1418.55,1767.15C1419.93,1767.86 1421.35,1768.34 1422.78,1768.92C1423.02,1769.01 1423.12,1768.67 1422.94,1768.54C1421.71,1767.64 1420.56,1766.76 1419.2,1766.04C1417.84,1765.33 1416.46,1764.66 1415.08,1763.98C1412.78,1762.83 1410.5,1761.58 1408.1,1760.68C1405.94,1759.86 1403.73,1759.24 1401.56,1758.48C1399.91,1757.89 1398.4,1757.11 1396.86,1756.34C1398.02,1755.2 1399.26,1754.11 1400.6,1753.06C1404.31,1757.59 1412.79,1759.26 1418.08,1761.12C1426.95,1764.22 1436.07,1766.71 1444.78,1770.22C1445.25,1770.9 1447,1771.33 1447.81,1771.28C1447.93,1771.41 1448.06,1771.53 1448.17,1771.66C1451.57,1774.59 1451.91,1768.67 1450.89,1766.63C1448.58,1762.07 1442.78,1758.13 1439.32,1754.38C1432.78,1747.29 1426.32,1734.62 1417.35,1730.46C1417.29,1730.26 1417.21,1730.05 1417.09,1729.86C1417.67,1728.9 1418.31,1727.98 1418.99,1727.09C1419.52,1728.22 1420.43,1729.17 1421.27,1730.06C1422.48,1731.33 1423.75,1732.54 1424.98,1733.79C1427.34,1736.18 1429.63,1738.75 1431.1,1741.8C1431.17,1741.94 1431.42,1741.88 1431.4,1741.72C1430.96,1738.45 1428.63,1735.89 1426.4,1733.62C1425.17,1732.36 1423.88,1731.16 1422.64,1729.91C1421.55,1728.81 1420.57,1727.57 1419.41,1726.56C1420.62,1725.06 1421.96,1723.67 1423.39,1722.37C1425.96,1726.85 1429.15,1731.03 1432.24,1735.15C1433.81,1737.26 1435.34,1739.39 1436.87,1741.53C1438.27,1743.49 1439.75,1745.4 1441.61,1746.95C1441.79,1747.09 1442.03,1746.86 1441.86,1746.69C1440.08,1744.85 1438.82,1742.58 1437.54,1740.37C1436.24,1738.11 1434.72,1736.04 1433.19,1733.93C1430.22,1729.86 1427.4,1725.56 1424.05,1721.78C1425.17,1720.8 1426.33,1719.87 1427.53,1718.97C1428.85,1721.11 1430.28,1723.13 1431.81,1725.14C1433.22,1727 1434.77,1728.78 1436.06,1730.73C1438.26,1734.03 1439.91,1737.63 1443.13,1740.11C1443.33,1740.26 1443.55,1739.94 1443.39,1739.77C1440.66,1736.79 1439.06,1732.91 1436.76,1729.61C1434.1,1725.77 1430.98,1722.2 1428,1718.62C1429.79,1717.29 1431.64,1716.04 1433.46,1714.83C1433.48,1714.82 1433.5,1714.81 1433.51,1714.8C1434.37,1716.48 1435.77,1717.9 1436.95,1719.34C1438.36,1721.06 1439.7,1722.84 1440.99,1724.65C1442.22,1726.38 1443.43,1728.13 1444.62,1729.9C1445.74,1731.54 1447.02,1733.32 1448.53,1734.63C1448.64,1734.72 1448.83,1734.63 1448.78,1734.48C1448.22,1732.59 1447.14,1730.7 1446.07,1729.05C1444.84,1727.17 1443.59,1725.31 1442.27,1723.49C1441.02,1721.76 1439.72,1720.07 1438.36,1718.42C1437.15,1716.96 1435.85,1715.32 1434.16,1714.38C1436.66,1712.74 1439.21,1711.13 1441.82,1709.67C1442.48,1711.95 1444.75,1713.78 1446.2,1715.52C1448.15,1717.86 1449.23,1720.93 1451.82,1722.71C1452.02,1722.85 1452.23,1722.59 1452.13,1722.41C1450.7,1719.8 1449.45,1717.1 1447.57,1714.78C1446.64,1713.63 1445.6,1712.58 1444.62,1711.48C1443.95,1710.73 1443.3,1709.96 1442.63,1709.22C1443.13,1708.94 1443.63,1708.67 1444.14,1708.4C1445.94,1707.46 1448.06,1706.78 1450.1,1706.02C1451.9,1708.59 1453.48,1711.31 1455.34,1713.83C1457.86,1717.25 1460.34,1720.71 1462.93,1724.08C1463.01,1724.18 1463.21,1724.13 1463.15,1723.99C1461.64,1719.9 1458.8,1716.58 1456.24,1713.12C1454.42,1710.66 1452.82,1708.01 1450.75,1705.78C1452.26,1705.19 1453.72,1704.54 1454.94,1703.67C1460.13,1711.75 1464.64,1720.26 1469.87,1728.29C1472.65,1732.57 1479.09,1744.89 1484.57,1745.94C1487.55,1749.99 1486.07,1738.03 1486.05,1737.69C1485.78,1731.58 1486.39,1725.56 1486.75,1719.48C1487.08,1713.81 1486.77,1708.06 1487.35,1702.42C1487.67,1699.24 1488.77,1696.1 1488.73,1692.9C1488.9,1692.88 1489.07,1692.85 1489.23,1692.83C1488.73,1694.98 1488.8,1697.34 1488.47,1699.48C1487.9,1703.18 1486.7,1707.22 1487.99,1710.89C1488.09,1711.17 1488.45,1711.1 1488.49,1710.82C1488.96,1707.16 1489.64,1703.53 1490.11,1699.87C1490.41,1697.49 1490.4,1695.07 1490.62,1692.67C1492.71,1692.47 1494.81,1692.45 1496.92,1692.55C1496.68,1693.28 1496.48,1694.03 1496.28,1694.77C1495.74,1696.72 1495.24,1698.68 1494.7,1700.64C1494.32,1701.97 1496.4,1702.54 1496.78,1701.21C1497.31,1699.32 1497.8,1697.42 1498.32,1695.53C1498.57,1694.63 1498.87,1693.74 1499.09,1692.83C1499.11,1692.78 1499.12,1692.74 1499.13,1692.69C1500.32,1692.79 1501.51,1692.92 1502.7,1693.06C1501.9,1698.02 1501.42,1703.02 1501.17,1708.04C1501.03,1710.84 1500.95,1713.64 1500.91,1716.45C1500.89,1717.8 1500.88,1719.16 1500.87,1720.51C1500.86,1721.22 1500.82,1721.95 1500.86,1722.66C1500.9,1723.4 1501.19,1724.01 1501.44,1724.7C1501.54,1724.99 1501.93,1725 1502.03,1724.7C1502.25,1724.08 1502.53,1723.52 1502.59,1722.85C1502.64,1722.15 1502.6,1721.42 1502.6,1720.71C1502.6,1719.35 1502.61,1718 1502.62,1716.64C1502.66,1713.9 1502.72,1711.16 1502.85,1708.42C1503.08,1703.35 1503.53,1698.28 1504.27,1693.26C1506.66,1693.57 1509.04,1693.93 1511.4,1694.24C1511.66,1694.27 1511.93,1694.31 1512.19,1694.34C1511.96,1695.58 1511.9,1696.92 1511.79,1698.13C1511.64,1699.86 1511.55,1701.59 1511.55,1703.32C1511.55,1704.59 1513.5,1704.59 1513.52,1703.32C1513.55,1701.65 1513.65,1699.98 1513.82,1698.32C1513.94,1697.09 1514.22,1695.84 1514.35,1694.59C1517.6,1694.96 1520.96,1695.25 1524.37,1695.55C1524.34,1696.09 1524.31,1696.63 1524.27,1697.16C1524.15,1698.78 1523.97,1700.36 1523.65,1701.96C1523.49,1702.72 1524.63,1703.05 1524.82,1702.28C1525.22,1700.67 1525.59,1699.02 1525.86,1697.38C1525.95,1696.87 1526.06,1696.3 1526.16,1695.72C1529.13,1695.99 1532.11,1696.29 1535.08,1696.67C1535.05,1696.99 1535.04,1697.31 1535,1697.61C1534.87,1698.91 1534.61,1700.19 1534.32,1701.47C1533.78,1703.89 1533.22,1706.3 1532.79,1708.74C1531.85,1714.01 1530.96,1719.26 1529.4,1724.39C1529.08,1725.46 1530.73,1725.91 1531.07,1724.85C1532.7,1719.66 1533.76,1714.27 1534.93,1708.96C1535.47,1706.48 1536.17,1704.05 1536.69,1701.56C1536.95,1700.31 1537.17,1699.05 1537.3,1697.78C1537.32,1697.53 1537.35,1697.26 1537.36,1696.98C1539.14,1697.23 1540.91,1697.52 1542.66,1697.86C1542.5,1698.74 1542.31,1699.62 1542.13,1700.49C1541.77,1702.23 1541.43,1703.96 1541.23,1705.72C1541.08,1707 1543.08,1706.99 1543.24,1705.72C1543.45,1703.96 1543.84,1702.23 1544.21,1700.49C1544.36,1699.8 1544.56,1699.04 1544.72,1698.28C1547.28,1698.84 1549.78,1699.5 1552.2,1700.33C1552.19,1700.5 1552.18,1700.67 1552.16,1700.84C1552.01,1702.77 1551.72,1704.7 1551.4,1706.61C1550.77,1710.49 1549.32,1714.1 1548.05,1717.8C1545.53,1725.19 1543.23,1732.67 1540.2,1739.87C1538.48,1743.97 1537.08,1748.18 1535.24,1752.24C1534.63,1753.58 1536.62,1754.75 1537.23,1753.4C1538.86,1749.8 1540.45,1746.09 1541.64,1742.31C1542.84,1738.53 1543.71,1734.66 1544.95,1730.88C1546.19,1727.11 1547.5,1723.36 1548.72,1719.59C1549.97,1715.75 1550.72,1711.78 1551.58,1707.84C1552.04,1705.73 1552.43,1703.61 1552.88,1701.49C1552.95,1701.2 1553.01,1700.91 1553.06,1700.62C1554.94,1701.3 1556.76,1702.06 1558.52,1702.95C1552.53,1711.63 1551.71,1724.58 1548.82,1734.55C1547.18,1740.19 1540.68,1763.31 1554.01,1756.29C1558.06,1754.16 1593.28,1720.5 1592.55,1719.83C1593.56,1720.76 1594.53,1721.75 1595.38,1722.85C1596.06,1723.72 1596.72,1724.61 1597.36,1725.5C1596.46,1725.73 1595.58,1725.99 1594.7,1726.35C1593.51,1726.83 1592.48,1727.49 1591.34,1728.07C1591.16,1728.16 1591.29,1728.45 1591.48,1728.39C1592.74,1728.04 1594.02,1727.89 1595.27,1727.45C1596.2,1727.11 1597.03,1726.7 1597.83,1726.17C1598.42,1727.01 1598.99,1727.85 1599.54,1728.71C1597.72,1730.25 1595.86,1731.76 1593.97,1733.23C1591.6,1735.07 1589.21,1736.86 1587,1738.89C1584.8,1740.92 1582.7,1743.05 1580.5,1745.08C1578.34,1747.07 1576.04,1748.89 1573.85,1750.84C1573.67,1751.01 1573.86,1751.35 1574.1,1751.26C1576.84,1750.29 1579.16,1748.27 1581.26,1746.33C1583.5,1744.25 1585.62,1742.06 1587.84,1739.97C1591.73,1736.33 1596.39,1733.3 1599.91,1729.28C1601.63,1731.99 1603.2,1734.78 1604.69,1737.6C1602.16,1739.4 1599.81,1741.51 1597.29,1743.28C1597,1743.48 1597.25,1743.94 1597.57,1743.76C1600.12,1742.4 1603.26,1741.2 1605.53,1739.2C1607.28,1742.57 1608.96,1745.99 1610.69,1749.38C1609.85,1749.82 1609.05,1750.32 1608.27,1750.87C1607.83,1751.19 1608.08,1752.03 1608.67,1751.82C1609.59,1751.48 1610.52,1751.18 1611.43,1750.83C1612.6,1753.1 1613.81,1755.36 1615.08,1757.56C1609.69,1761.89 1604.97,1766.94 1599.62,1771.3C1597.04,1773.4 1582.28,1781.88 1582.21,1785.33C1582.14,1788.94 1596.87,1784.65 1599.6,1784.17C1607.99,1782.7 1616.78,1783.15 1625.04,1781.16C1625.93,1782.22 1627.71,1782.03 1628.56,1782.97C1629.91,1784.47 1630.38,1788.15 1630.82,1790.48C1629.75,1790.7 1628.68,1790.93 1627.61,1791.16C1625.5,1791.61 1623.4,1792.16 1621.3,1792.67C1617.09,1793.69 1612.95,1794.98 1608.72,1795.92C1608.2,1796.04 1608.42,1796.81 1608.94,1796.71C1613.16,1795.93 1617.42,1795.44 1621.65,1794.67C1623.72,1794.29 1625.79,1793.94 1627.86,1793.53C1628.89,1793.33 1629.91,1793.1 1630.94,1792.89C1631.06,1792.86 1631.19,1792.84 1631.32,1792.81C1631.79,1794.99 1632.19,1797.22 1632.46,1799.46C1631.8,1799.31 1631.01,1799.45 1630.36,1799.51C1629.16,1799.62 1627.95,1799.8 1626.76,1799.99C1624.18,1800.4 1621.63,1800.92 1619.03,1801.17C1617.96,1801.28 1617.95,1802.97 1619.03,1802.86C1621.54,1802.61 1624.01,1802.15 1626.5,1801.73C1627.72,1801.53 1628.95,1801.34 1630.18,1801.22C1630.91,1801.15 1631.87,1801.22 1632.62,1800.95C1632.83,1803.12 1632.89,1805.3 1632.76,1807.46C1632.22,1807.5 1631.68,1807.53 1631.14,1807.55C1628.4,1807.67 1625.69,1807.84 1622.97,1808.18C1617.04,1808.9 1611.14,1809.91 1605.26,1810.92C1603.95,1811.15 1604.5,1813.13 1605.8,1812.91C1611.83,1811.87 1617.87,1810.84 1623.94,1810.13C1626.63,1809.82 1629.31,1809.73 1632.01,1809.59C1632.19,1809.58 1632.38,1809.57 1632.57,1809.56C1632.53,1809.88 1632.48,1810.2 1632.43,1810.51C1624.28,1812.8 1615.91,1814.24 1607.75,1816.69C1604.15,1817.77 1600.58,1818.53 1596.92,1819.32C1595.65,1819.6 1590.1,1821.69 1594.43,1822.31C1595.95,1824.83 1599.24,1825.06 1601.75,1825.79C1606.1,1827.06 1610.24,1828.72 1614.5,1830.26C1620.25,1832.35 1627.19,1836.42 1633.37,1836.63C1633.35,1837.13 1633.31,1837.62 1633.27,1838.12C1632.57,1846.52 1629.19,1853.56 1625.04,1860.75C1624.12,1862.35 1623.2,1863.96 1622.22,1865.54C1621.22,1865.21 1620.2,1864.93 1619.2,1864.56C1617.91,1864.09 1616.78,1863.49 1615.73,1862.61C1614.86,1861.89 1614.03,1861.22 1613.04,1860.67C1611.05,1859.57 1608.98,1858.54 1606.87,1857.66C1604.71,1856.76 1602.42,1856.44 1600.2,1855.75C1599.91,1855.66 1599.71,1856.11 1599.99,1856.25C1602.09,1857.29 1603.85,1858.85 1605.88,1860C1607.91,1861.15 1610.03,1862.29 1612.18,1863.2C1613.24,1863.64 1614.3,1863.9 1615.43,1864.13C1616.63,1864.36 1617.74,1864.89 1618.82,1865.45C1619.69,1865.9 1620.55,1866.38 1621.44,1866.79C1620.95,1867.55 1620.45,1868.3 1619.92,1869.03ZM1507.92,1944.76C1505.98,1945.18 1504.13,1945.51 1502.33,1945.74C1502.37,1945.56 1502.41,1945.38 1502.45,1945.21C1502.81,1943.47 1502.97,1941.7 1503.04,1939.92C1503.17,1936.3 1502.68,1932.64 1503.18,1929.04C1503.23,1928.66 1502.7,1928.48 1502.58,1928.87C1501.61,1932.22 1501.26,1935.68 1500.94,1939.13C1500.77,1940.87 1500.7,1942.62 1500.54,1944.36C1500.49,1944.87 1500.4,1945.41 1500.32,1945.95C1498.36,1946.12 1496.44,1946.15 1494.53,1946.02C1494.84,1944.89 1494.91,1943.59 1495.07,1942.51C1495.33,1940.79 1495.66,1939.07 1496,1937.36C1496.33,1935.65 1496.74,1933.91 1496.9,1932.18C1497.04,1930.54 1497.27,1928.81 1497.17,1927.15C1497.15,1926.89 1496.77,1926.73 1496.63,1927.01C1495.91,1928.46 1495.42,1930.05 1494.89,1931.58C1494.27,1933.33 1493.94,1935.24 1493.65,1937.07C1493.36,1938.84 1493.14,1940.61 1493.05,1942.4C1492.99,1943.43 1492.93,1944.76 1493.18,1945.9C1491.5,1945.72 1489.81,1945.4 1488.08,1944.94C1488.15,1944.77 1488.23,1944.61 1488.29,1944.44C1488.58,1943.7 1488.86,1942.95 1489.12,1942.2C1489.7,1940.53 1490.17,1938.81 1490.57,1937.09C1491.34,1933.87 1491.84,1930.35 1491.17,1927.07C1491.11,1926.77 1490.67,1926.81 1490.59,1927.07C1489.63,1930.2 1488.94,1933.43 1488.18,1936.61C1487.8,1938.22 1487.37,1939.82 1486.99,1941.43C1486.8,1942.2 1486.63,1942.98 1486.45,1943.76C1486.4,1943.98 1486.36,1944.2 1486.34,1944.42C1485.3,1944.09 1484.25,1943.7 1483.17,1943.25C1482.28,1938.18 1488.25,1930.01 1490.71,1926.07C1494.69,1919.68 1499.05,1913.48 1502,1906.51C1504.08,1918.82 1505.8,1932.53 1509.51,1944.41C1508.97,1944.52 1508.44,1944.65 1507.92,1944.76ZM1418.19,1904.92C1416.63,1903.72 1414.98,1902.46 1413.35,1901.12C1414.04,1900.54 1414.7,1899.94 1415.38,1899.33C1417.15,1897.74 1418.86,1896.09 1420.54,1894.39C1422.18,1892.72 1423.69,1890.96 1425.19,1889.16C1426.68,1887.37 1428.22,1885.55 1429.42,1883.55C1429.62,1883.22 1429.21,1882.76 1428.87,1883C1427.03,1884.31 1425.37,1885.9 1423.73,1887.44C1421.98,1889.07 1420.26,1890.73 1418.63,1892.48C1417.04,1894.17 1415.46,1895.88 1413.92,1897.61C1413.24,1898.37 1412.55,1899.11 1411.89,1899.88C1410.78,1898.91 1409.69,1897.9 1408.67,1896.83C1408.77,1896.85 1408.87,1896.86 1408.96,1896.83C1409.27,1896.76 1409.56,1896.63 1409.84,1896.5C1410.51,1896.19 1411.12,1895.79 1411.72,1895.38C1413.2,1894.39 1414.56,1893.22 1415.88,1892.04C1418.34,1889.83 1420.67,1887.27 1421.57,1884.03C1421.66,1883.72 1421.28,1883.54 1421.05,1883.73C1419.95,1884.65 1418.79,1885.51 1417.75,1886.52C1416.5,1887.73 1415.28,1888.98 1414.06,1890.22C1412.91,1891.38 1411.71,1892.49 1410.51,1893.61C1410,1894.08 1409.46,1894.53 1408.95,1895.02C1408.72,1895.23 1408.48,1895.43 1408.28,1895.67C1408.19,1895.78 1408.12,1896 1408.05,1896.17C1407.51,1895.58 1406.98,1894.98 1406.49,1894.35C1407.94,1893.68 1409.33,1892.62 1410.61,1891.7C1414.3,1889.04 1418.03,1886.35 1421.29,1883.16C1422.42,1882.04 1423.73,1880.7 1424.55,1879.31C1424.71,1879.04 1424.39,1878.71 1424.11,1878.87C1417.79,1882.73 1412.1,1887.6 1406.5,1892.42C1406.21,1892.67 1405.9,1892.92 1405.62,1893.19C1404.3,1891.34 1403.23,1889.34 1402.56,1887.17C1414.24,1881.97 1425.83,1877.42 1437.86,1872.96C1430.4,1883.24 1424.21,1893.73 1418.19,1904.92ZM1380.23,1819.96C1380.79,1817.17 1380.59,1813.59 1380.63,1810.27C1382.11,1810.79 1383.69,1811.01 1385.23,1811.23C1386.82,1811.47 1388.47,1811.65 1390.07,1811.62C1390.41,1811.62 1390.42,1811.19 1390.14,1811.07C1388.59,1810.43 1386.94,1809.9 1385.31,1809.49C1383.81,1809.12 1382.22,1808.78 1380.66,1808.89C1380.69,1808.15 1380.74,1807.42 1380.83,1806.74C1388.52,1810.17 1396.08,1812.49 1404.21,1814.58C1396.22,1816.13 1388.3,1819.06 1380.25,1820.09C1380.25,1820.04 1380.24,1820 1380.23,1819.96ZM1403.79,1747.95C1405.49,1750 1407.83,1751.38 1410.16,1752.62C1412.73,1753.97 1415.42,1754.98 1418.17,1755.92C1418.53,1756.04 1418.86,1755.51 1418.55,1755.26C1416.41,1753.5 1414.04,1752.13 1411.59,1750.85C1409.2,1749.6 1406.93,1748.14 1404.57,1746.86C1405.28,1745.89 1405.99,1744.99 1406.27,1744.57C1406.84,1743.73 1407.45,1742.81 1408.1,1741.88C1408.6,1742.41 1409.15,1742.9 1409.61,1743.3C1411,1744.53 1412.55,1745.58 1414.08,1746.62C1417.09,1748.67 1420.35,1750.7 1422.84,1753.37C1423.11,1753.65 1423.52,1753.29 1423.36,1752.97C1422.56,1751.38 1421.51,1749.86 1420.15,1748.68C1418.75,1747.45 1417.21,1746.4 1415.66,1745.36C1414.14,1744.34 1412.61,1743.35 1411.12,1742.28C1410.39,1741.75 1409.67,1741.2 1408.97,1740.63C1409.35,1740.1 1409.74,1739.57 1410.14,1739.06C1411.48,1741.11 1413.55,1742.64 1415.47,1744.15C1416.67,1745.09 1417.95,1745.87 1419.17,1746.76C1420.46,1747.71 1421.64,1748.73 1422.89,1749.72C1423.11,1749.9 1423.44,1749.68 1423.3,1749.4C1422.65,1748.15 1421.63,1746.91 1420.7,1745.84C1419.64,1744.64 1418.59,1743.51 1417.35,1742.5C1415.36,1740.86 1413.36,1739.13 1411.19,1737.75C1412.43,1736.26 1413.76,1734.92 1415.15,1733.94C1415.33,1733.81 1415.51,1733.69 1415.68,1733.57C1423.69,1743.41 1431.26,1753.78 1439.99,1763.02C1429.26,1759.55 1418.09,1756.82 1407.72,1752.34C1406.31,1751.74 1404.95,1751.05 1403.56,1750.42C1403.6,1750.44 1403.65,1750.46 1403.72,1750.49C1403.28,1750.29 1403.11,1750.22 1402.74,1749.99C1402.75,1749.59 1403.21,1748.81 1403.79,1747.95ZM1461.17,1700.86C1462.24,1700.52 1463.31,1700.26 1464.37,1700.06C1466.08,1703.73 1467.85,1707.36 1469.49,1711.06C1471.14,1714.79 1473.25,1718.73 1476.27,1721.55C1476.51,1721.77 1476.93,1721.48 1476.74,1721.18C1475.59,1719.43 1474.54,1717.66 1473.64,1715.76C1472.7,1713.81 1471.89,1711.79 1471,1709.81C1469.48,1706.44 1468.09,1702.74 1465.74,1699.83C1467.46,1699.58 1469.17,1699.45 1470.89,1699.36C1470.89,1699.38 1470.9,1699.4 1470.9,1699.42C1470.98,1700.2 1471.22,1700.96 1471.45,1701.7C1471.99,1703.49 1472.59,1705.27 1473.08,1707.07C1473.97,1710.28 1474.81,1713.35 1476.84,1716.05C1477.05,1717.14 1477.26,1718.23 1477.46,1719.33C1477.95,1722 1478.28,1724.64 1478.58,1727.33C1478.62,1727.72 1479.14,1727.72 1479.18,1727.33C1479.42,1724.8 1479.13,1722.22 1479.11,1719.69C1479.08,1716.8 1478.84,1713.9 1478.7,1711.02C1478.57,1708.2 1478.24,1705.39 1478.17,1702.56C1478.14,1701.39 1478.18,1700.21 1478.18,1699.04C1479.77,1698.92 1481.37,1698.74 1482.96,1698.43C1481.6,1710.23 1480.67,1723.54 1481.38,1735.38C1473,1724.86 1467.36,1711.82 1458.34,1701.96C1459.27,1701.56 1460.2,1701.17 1461.17,1700.86ZM1475.74,1699.17C1475.56,1700.2 1475.49,1701.25 1475.45,1702.29C1475.35,1705.13 1475.53,1707.97 1475.92,1710.79C1476.03,1711.58 1476.16,1712.37 1476.3,1713.16C1475.67,1710.96 1475.38,1708.61 1474.78,1706.43C1474.34,1704.8 1473.77,1703.2 1473.19,1701.61C1472.9,1700.83 1472.51,1700.08 1472.2,1699.31C1473.38,1699.26 1474.56,1699.23 1475.74,1699.17ZM1562.67,1702.56C1564.29,1703.56 1565.97,1704.42 1567.68,1705.23C1566.99,1706.2 1566.36,1707.13 1565.81,1708.2C1565.22,1709.34 1564.69,1710.5 1564.15,1711.66C1563.04,1714.06 1561.98,1716.47 1560.95,1718.91C1559.94,1721.33 1558.98,1723.78 1558.11,1726.25C1557.22,1728.79 1556.23,1731.3 1555.45,1733.87C1555.37,1734.13 1555.77,1734.31 1555.9,1734.06C1557.05,1731.7 1558.05,1729.27 1559.23,1726.93C1560.44,1724.53 1561.59,1722.09 1562.72,1719.66C1563.82,1717.28 1564.91,1714.91 1565.99,1712.52C1566.52,1711.33 1567.06,1710.15 1567.56,1708.94C1568.01,1707.85 1568.31,1706.79 1568.6,1705.67C1571.43,1706.97 1574.31,1708.17 1577.09,1709.57C1576.37,1710.08 1575.7,1710.67 1575.05,1711.27C1573.45,1712.78 1571.98,1714.43 1570.55,1716.1C1567.61,1719.53 1564.75,1723.39 1560.98,1725.95C1560.75,1726.1 1560.95,1726.45 1561.2,1726.32C1565.13,1724.29 1568.31,1720.82 1571.21,1717.56C1572.7,1715.89 1574.14,1714.18 1575.61,1712.49C1576.23,1711.78 1576.85,1711.08 1577.52,1710.42C1577.65,1710.28 1577.78,1710.14 1577.9,1709.98C1579.74,1710.95 1581.54,1712.02 1583.23,1713.29C1583.36,1713.4 1583.49,1713.5 1583.61,1713.6C1583.6,1713.61 1583.6,1713.61 1583.59,1713.62C1582.02,1714.34 1580.79,1715.59 1579.53,1716.74C1578.21,1717.95 1576.95,1719.23 1575.69,1720.51C1573.08,1723.15 1570.47,1725.8 1567.94,1728.53C1565.46,1731.21 1562.95,1733.88 1560.37,1736.47C1557.81,1739.05 1555.16,1741.48 1552.41,1743.86C1552.07,1744.15 1552.51,1744.73 1552.88,1744.48C1555.87,1742.44 1558.76,1740.19 1561.56,1737.92C1564.46,1735.58 1567.28,1733.13 1570.03,1730.61C1572.76,1728.11 1575.34,1725.4 1577.86,1722.68C1579.08,1721.36 1580.31,1720.04 1581.45,1718.66C1582.58,1717.29 1583.78,1715.96 1584.46,1714.31C1585.57,1715.28 1586.62,1716.34 1587.46,1717.54C1583.26,1724.67 1574.48,1731.75 1568.21,1737.13C1562.77,1741.79 1557.2,1748.68 1550.93,1752.14C1549.88,1743.93 1553.6,1735.52 1555.34,1727.62C1556.97,1720.2 1557.22,1708.13 1562.67,1702.56ZM1618.62,1760.8C1619.37,1762.36 1620.13,1763.91 1620.86,1765.48C1620.11,1765.5 1619.37,1765.6 1618.65,1765.73C1617.61,1765.92 1616.58,1766.27 1615.55,1766.41C1615,1766.49 1615.06,1767.35 1615.55,1767.46C1617.4,1767.9 1619.54,1767.31 1621.32,1766.49C1621.53,1766.94 1621.73,1767.39 1621.93,1767.84C1620.16,1768.07 1618.34,1768.72 1616.76,1769.25C1614.42,1770.04 1612.02,1771.18 1610.08,1772.73C1609.85,1772.91 1610.1,1773.34 1610.37,1773.23C1612.67,1772.27 1614.96,1771.42 1617.33,1770.66C1618.51,1770.27 1619.72,1769.94 1620.92,1769.6C1621.51,1769.43 1622.12,1769.28 1622.71,1769.08C1623.47,1770.69 1624.01,1773.61 1624.28,1774.8C1621.75,1776.33 1618.4,1776.51 1615.52,1776.88C1608.33,1777.78 1601.31,1778.82 1594.21,1780.34C1602.15,1774.64 1609.06,1766.65 1617.29,1761.55C1617.72,1761.28 1618.18,1761.05 1618.62,1760.8ZM1634.05,1822.78C1633.8,1822.62 1633.56,1822.44 1633.28,1822.33C1632.77,1822.12 1632.24,1821.94 1631.73,1821.76C1630.62,1821.38 1629.45,1821.1 1628.29,1820.91C1627.22,1820.72 1626.14,1820.65 1625.07,1820.53C1623.94,1820.41 1622.82,1820.14 1621.69,1820.03C1621.38,1819.99 1621.26,1820.48 1621.53,1820.62C1622.55,1821.14 1623.64,1821.51 1624.67,1821.98C1625.71,1822.45 1626.74,1822.95 1627.83,1823.29C1628.88,1823.6 1629.98,1823.83 1631.07,1823.94C1631.66,1823.99 1632.28,1824 1632.87,1823.99C1633.34,1823.99 1633.72,1823.81 1634.16,1823.73C1634.24,1824.55 1634.3,1825.36 1634.31,1826.14C1634.24,1825.94 1634.09,1825.76 1633.87,1825.69C1632.2,1825.17 1630.4,1825.09 1628.68,1824.84C1626.92,1824.58 1625.25,1824.23 1623.55,1823.74C1623.31,1823.67 1623.18,1824 1623.38,1824.13C1624.9,1825.12 1626.69,1825.91 1628.42,1826.44C1630.16,1826.98 1632.07,1827.34 1633.87,1827C1634.11,1826.95 1634.25,1826.81 1634.31,1826.63C1634.31,1827.47 1634.24,1828.27 1634.1,1828.96C1634,1829.42 1633.87,1829.91 1633.75,1830.4C1624.02,1830.54 1613.31,1823.71 1603.91,1821.64C1613.41,1819.7 1622.59,1815.81 1632.34,1815.35C1632.58,1815.65 1633.57,1819.13 1634.05,1822.78ZM1639.85,1823.92C1639.63,1820.05 1638.15,1816.48 1637.7,1812.69C1637.55,1811.37 1637.6,1803.65 1637.44,1801.89C1636.85,1795.49 1635.62,1788.75 1633.17,1782.79C1631.22,1778.05 1630.82,1773.21 1628.97,1768.38C1627.7,1765.06 1624.55,1756.3 1620.57,1755.33C1618.82,1747.8 1612.7,1740.17 1608.59,1733.79C1605.03,1728.23 1600.16,1717.64 1593.17,1715.74C1590.99,1706.58 1570.89,1700.34 1563.18,1698.92C1561.02,1694.53 1550.13,1693.68 1545.85,1692.91C1539.35,1691.73 1532.83,1690.8 1526.26,1690.1C1519.27,1689.36 1512.25,1688.72 1505.25,1688.09C1499.89,1687.6 1460.68,1693.65 1454.14,1699.72C1448.78,1698.44 1436.66,1708.21 1432.37,1711.01C1425.66,1715.38 1416.52,1721.14 1413.63,1729.07C1410.02,1730.81 1407.28,1735.94 1405.07,1738.8C1403.04,1741.43 1400.83,1744.36 1399.88,1747.6C1399.71,1747.64 1399.54,1747.69 1399.37,1747.77C1398.84,1748 1398.05,1749.32 1397.6,1749.43C1393.83,1754.28 1389.33,1757.27 1386.31,1762.89C1382.55,1769.89 1379.57,1777.51 1378.2,1785.35C1377.17,1791.28 1377.84,1797.33 1377.1,1803.18C1376.61,1807.11 1370.64,1842.21 1391.67,1876.97C1393.89,1880.63 1395.16,1883.18 1396.3,1887.19C1397.43,1891.14 1398.98,1894.43 1401.5,1897.71C1404.2,1901.22 1414.08,1912.71 1419.22,1912.1C1422.15,1917.17 1428.19,1920.33 1432.53,1924.13C1437.29,1928.29 1441.98,1932.47 1447.29,1935.95C1457.33,1942.53 1468.85,1946.06 1480.89,1946.11C1484.31,1949.55 1492.03,1951.06 1496.68,1951.49C1500.74,1951.86 1513.18,1951.98 1515.35,1948.46C1525.77,1948.77 1536.36,1947.15 1546.03,1943.21C1551.95,1940.8 1569.79,1937.06 1571.39,1929.41C1583.7,1922.83 1594.04,1916.86 1603.29,1906.39C1609.21,1899.68 1623.61,1886.69 1618.69,1876.4C1633.29,1864.63 1640.92,1842.14 1639.85,1823.92ZM1520.47,1855.7C1516.67,1857.4 1512.45,1857.41 1508.38,1857.49C1507.88,1857.5 1500.35,1856.84 1499.9,1857.43C1499.9,1857.43 1498.94,1857.18 1498.92,1857.22C1498.49,1857.08 1498.06,1857.18 1497.61,1857.52C1494.38,1856.52 1490.9,1857.14 1487.76,1856.04C1484.64,1854.95 1481.81,1852.65 1479.29,1850.62C1473.09,1845.67 1470.48,1841.34 1470.52,1833.29C1470.59,1816.52 1472.45,1800.16 1486.63,1789.15C1513.94,1767.95 1556.9,1800.5 1541.54,1832.86C1540.41,1834.77 1539.35,1837.19 1539.39,1839.46C1533.66,1845.34 1528.27,1852.22 1520.47,1855.7ZM1545.43,1861.82C1545.56,1861.95 1545.73,1861.79 1545.66,1861.64C1545.06,1860.23 1544.62,1858.87 1543.78,1857.57C1542.96,1856.28 1542.02,1855.04 1541.05,1853.85C1540.1,1852.69 1539.1,1851.56 1538.05,1850.48C1537.52,1849.95 1536.98,1849.42 1536.38,1848.99C1537.47,1848.04 1538.48,1847.03 1539.4,1845.93C1540.56,1848.09 1542.68,1849.76 1544.16,1851.66C1545.82,1853.78 1547.15,1855.85 1549.61,1857.12C1549.86,1857.26 1550.08,1856.95 1549.91,1856.74C1549.08,1855.73 1548.49,1854.51 1547.81,1853.39C1547.14,1852.3 1546.39,1851.24 1545.59,1850.23C1544.09,1848.32 1542.21,1846.38 1540.24,1844.89C1541.73,1842.9 1542.92,1840.61 1543.7,1837.91C1544.4,1838.25 1545.07,1838.71 1545.76,1839.07C1546.72,1839.56 1547.66,1840.07 1548.58,1840.61C1550.15,1841.54 1552.06,1842.65 1553.93,1842.69C1554.09,1842.7 1554.17,1842.5 1554.06,1842.39C1553.42,1841.75 1552.59,1841.15 1551.86,1840.62C1550.96,1839.97 1550.01,1839.41 1549.05,1838.87C1548.19,1838.39 1547.32,1837.9 1546.41,1837.52C1545.54,1837.16 1544.81,1837.07 1543.92,1837.06C1544,1836.75 1544.08,1836.44 1544.14,1836.12C1545.11,1835.75 1545.89,1834.86 1546.51,1833.63C1546.81,1833.94 1547.12,1834.23 1547.53,1834.48C1548.47,1835.07 1549.48,1835.56 1550.5,1836.01C1552.5,1836.89 1554.49,1837.59 1556.58,1838.21C1556.77,1838.27 1556.93,1838.01 1556.78,1837.87C1555.23,1836.44 1553.4,1835.67 1551.48,1834.87C1550.46,1834.45 1549.42,1834.02 1548.42,1833.53C1547.95,1833.3 1547.4,1833.1 1546.86,1832.87C1547.38,1831.63 1547.77,1830.13 1548.06,1828.53C1548.61,1829.03 1549.38,1829.37 1549.99,1829.67C1551.35,1830.32 1552.83,1830.78 1554.26,1831.24C1557.19,1832.2 1560.17,1833.05 1563.18,1833.72C1563.37,1833.77 1563.56,1833.51 1563.38,1833.36C1561.12,1831.39 1558.14,1830.58 1555.33,1829.7C1553.89,1829.25 1552.45,1828.82 1551.03,1828.3C1550.18,1827.99 1549.2,1827.45 1548.26,1827.33C1548.44,1826.14 1548.57,1824.9 1548.66,1823.7C1549.34,1824.1 1550.17,1824.35 1550.86,1824.56C1552.24,1825 1553.66,1825.26 1555.04,1825.7C1557.77,1826.58 1560.35,1828.01 1563.23,1828.33C1563.45,1828.36 1563.51,1828.03 1563.34,1827.93C1560.91,1826.48 1558.24,1825.33 1555.53,1824.48C1554.21,1824.07 1552.84,1823.76 1551.48,1823.53C1550.58,1823.37 1549.64,1823.11 1548.71,1823C1548.81,1821.54 1548.85,1820.13 1548.86,1818.88C1550.64,1820.19 1553.34,1820.37 1555.4,1820.63C1558.77,1821.05 1561.99,1821.96 1565.32,1822.58C1567.2,1822.92 1569.05,1823.38 1570.89,1823.87C1572.72,1824.36 1574.42,1825.24 1576.19,1825.88C1577.96,1826.53 1579.79,1827.03 1581.59,1827.61C1582.47,1827.9 1583.35,1828.24 1584.26,1828.45C1585.16,1828.67 1586.01,1828.61 1586.93,1828.61C1587.09,1828.61 1587.21,1828.39 1587.07,1828.28C1586.43,1827.77 1585.84,1827.19 1585.09,1826.84C1584.3,1826.48 1583.45,1826.24 1582.62,1825.99C1580.82,1825.43 1579.01,1824.88 1577.18,1824.44C1575.33,1824 1573.43,1823.9 1571.58,1823.48C1569.73,1823.06 1567.9,1822.51 1566.11,1821.88C1562.97,1820.77 1559.87,1819.88 1556.56,1819.47C1553.97,1819.15 1551.41,1818.8 1548.86,1818.27C1548.86,1816.81 1548.82,1815.59 1548.77,1814.8C1548.7,1813.75 1548.6,1812.71 1548.46,1811.67C1548.6,1811.64 1548.75,1811.62 1548.88,1811.59C1549.87,1811.41 1550.86,1811.2 1551.84,1810.99C1553.88,1810.54 1555.93,1810.14 1557.99,1809.75C1560.03,1809.36 1562.09,1808.99 1564.13,1808.58C1566.04,1808.2 1568.21,1807.96 1569.92,1806.97C1570.09,1806.88 1570,1806.66 1569.83,1806.64C1567.9,1806.44 1565.86,1807.02 1563.97,1807.37C1561.87,1807.75 1559.77,1808.17 1557.66,1808.58C1555.67,1808.97 1553.67,1809.37 1551.68,1809.81C1550.7,1810.03 1549.72,1810.28 1548.76,1810.56C1548.62,1810.6 1548.47,1810.64 1548.31,1810.69C1548.09,1809.24 1547.78,1807.82 1547.4,1806.42C1549.81,1806.37 1552.34,1805.81 1554.64,1805.29C1557.35,1804.68 1560.04,1803.93 1562.4,1802.44C1562.53,1802.36 1562.45,1802.13 1562.3,1802.18C1559.72,1803.08 1557.05,1803.78 1554.37,1804.32C1552.99,1804.59 1551.6,1804.88 1550.21,1805.13C1549.2,1805.32 1548.19,1805.48 1547.21,1805.76C1546.17,1802.27 1544.61,1798.98 1542.37,1796.06C1543.68,1795.37 1544.82,1794.3 1546.05,1793.5C1548.15,1792.14 1550.41,1791.01 1552.52,1789.67C1554.62,1788.33 1556.68,1786.94 1558.61,1785.37C1560.66,1783.69 1562.47,1781.8 1564.72,1780.37C1565.76,1779.71 1566.93,1779.25 1568.02,1778.68C1569.19,1778.07 1570.33,1777.42 1571.46,1776.76C1573.7,1775.46 1575.92,1774.12 1578.15,1772.79C1582.59,1770.13 1586.98,1767.42 1591.35,1764.65C1593.64,1763.2 1596,1761.87 1598.29,1760.43C1600.54,1759.01 1602.85,1757.65 1604.41,1755.44C1604.7,1755.04 1604.16,1754.69 1603.81,1754.84C1601.63,1755.77 1599.72,1757.14 1597.7,1758.36C1595.62,1759.61 1593.53,1760.81 1591.47,1762.07C1587.2,1764.68 1583,1767.4 1578.72,1769.98C1574.35,1772.61 1569.86,1775.1 1565.9,1778.33C1563.94,1779.92 1561.88,1781.33 1559.77,1782.72C1557.73,1784.06 1555.76,1785.51 1553.72,1786.87C1551.33,1788.47 1548.86,1789.96 1546.34,1791.36C1544.56,1792.34 1543.01,1793.66 1541.29,1794.73C1540.88,1794.26 1540.46,1793.8 1540.01,1793.36C1539.61,1792.96 1539.2,1792.56 1538.77,1792.16C1539.55,1792.22 1540.34,1791.65 1540.95,1791.21C1542.07,1790.39 1543.09,1789.45 1544.2,1788.62C1546.41,1786.98 1549.08,1785.25 1550.28,1782.66C1550.38,1782.44 1550.14,1782.09 1549.89,1782.27C1547.72,1783.88 1545.39,1785.24 1543.26,1786.9C1542.23,1787.69 1541.29,1788.54 1540.36,1789.45C1539.65,1790.16 1538.73,1790.78 1538.19,1791.63C1537.49,1791.01 1536.77,1790.4 1536.01,1789.8C1536.92,1789.05 1537.42,1787.94 1538.07,1786.94C1538.94,1785.59 1539.91,1784.32 1540.86,1783.04C1542.91,1780.27 1545.06,1777.59 1547.51,1775.16C1548.75,1773.92 1550,1772.66 1551.45,1771.64C1552.78,1770.72 1554.15,1769.91 1555.39,1768.86C1557.88,1766.79 1560.31,1764.65 1562.75,1762.53C1563.73,1761.68 1562.29,1760.24 1561.32,1761.1C1558.86,1763.28 1556.3,1765.36 1553.91,1767.61C1552.68,1768.77 1551.73,1770.12 1550.62,1771.38C1549.47,1772.69 1548.17,1773.84 1546.91,1775.04C1544.49,1777.36 1541.98,1779.66 1539.78,1782.2C1538.77,1783.38 1537.84,1784.65 1536.95,1785.92C1536.25,1786.92 1535.42,1787.95 1535.18,1789.15C1532.07,1786.76 1528.52,1784.55 1524.77,1782.73C1525.62,1780.61 1526.61,1778.54 1527.52,1776.43C1528.29,1774.61 1528.9,1772.72 1529.58,1770.87C1530.46,1768.5 1531.33,1766.15 1531.6,1763.62C1531.62,1763.42 1531.33,1763.4 1531.27,1763.57C1530.39,1766.13 1529.22,1768.58 1528.1,1771.04C1527.27,1772.86 1526.61,1774.74 1525.76,1776.55C1525,1778.19 1524.23,1779.84 1523.59,1781.53C1523.52,1781.7 1523.45,1781.89 1523.39,1782.08C1522.29,1781.58 1521.17,1781.11 1520.05,1780.69C1520.9,1779.52 1521.34,1778.05 1521.82,1776.68C1522.43,1774.95 1523,1773.19 1523.58,1771.45C1524.15,1769.7 1524.73,1767.95 1525.34,1766.21C1525.97,1764.41 1526.71,1762.54 1527.08,1760.66C1527.1,1760.53 1526.93,1760.38 1526.83,1760.51C1524.62,1763.34 1523.62,1767.23 1522.54,1770.59C1521.95,1772.4 1521.38,1774.21 1520.77,1776.02C1520.28,1777.47 1519.62,1778.93 1519.43,1780.46C1518.78,1780.22 1518.12,1779.99 1517.46,1779.78C1517.47,1779.76 1517.47,1779.75 1517.48,1779.74C1517.61,1779.27 1517.69,1778.79 1517.78,1778.32C1518.04,1777 1518.42,1775.7 1518.81,1774.41C1519.5,1772.15 1520.39,1769.62 1520.23,1767.22C1520.22,1767.04 1519.96,1766.94 1519.86,1767.12C1518.6,1769.51 1517.68,1772 1516.97,1774.61C1516.62,1775.92 1516.19,1777.31 1516.09,1778.67C1516.08,1778.88 1516.07,1779.12 1516.09,1779.36C1515.6,1779.21 1515.1,1779.08 1514.6,1778.96C1515.1,1776.74 1515.37,1774.44 1515.73,1772.21C1516.19,1769.34 1516.64,1766.46 1517.09,1763.58C1517.96,1758.03 1519.08,1752.44 1519.28,1746.82C1519.29,1746.65 1519.04,1746.62 1518.99,1746.78C1517.32,1752.23 1516.68,1758 1515.8,1763.62C1515.36,1766.44 1514.92,1769.25 1514.47,1772.07C1514.12,1774.24 1513.66,1776.46 1513.41,1778.67C1511.82,1778.31 1510.24,1778.05 1508.69,1777.9C1508.7,1777.88 1508.72,1777.86 1508.74,1777.83C1509.17,1777.09 1509.02,1776.38 1508.88,1775.58C1508.72,1774.69 1508.56,1773.8 1508.38,1772.91C1508.03,1771.13 1507.67,1769.35 1507.31,1767.56C1506.6,1763.98 1505.93,1760.38 1505.34,1756.77C1505.14,1755.58 1503.35,1756.09 1503.53,1757.27C1504.08,1760.83 1504.69,1764.37 1505.27,1767.93C1505.55,1769.66 1505.84,1771.4 1506.12,1773.13C1506.27,1774.03 1506.43,1774.92 1506.59,1775.81C1506.71,1776.53 1506.78,1777.25 1507.26,1777.8C1505.73,1777.72 1504.22,1777.74 1502.76,1777.91C1496.97,1778.55 1491.42,1780.78 1486.51,1784.06C1485.96,1783.19 1485.25,1782.39 1484.64,1781.6C1483.73,1780.42 1482.76,1779.3 1481.74,1778.23C1480.66,1777.1 1479.55,1776 1478.63,1774.72C1477.8,1773.56 1477.21,1772.26 1476.45,1771.06C1474.95,1768.69 1473.13,1766.49 1471.37,1764.33C1470.5,1763.27 1469.64,1762.19 1468.65,1761.25C1467.57,1760.24 1466.37,1759.37 1465.26,1758.39C1465.09,1758.24 1464.86,1758.47 1465.01,1758.64C1466.03,1759.76 1466.79,1761.02 1467.68,1762.22C1468.52,1763.37 1469.44,1764.46 1470.31,1765.59C1471.98,1767.77 1473.5,1770.09 1475.29,1772.17C1476.19,1773.2 1477.21,1774.09 1478.08,1775.15C1479.07,1776.36 1479.9,1777.68 1480.75,1778.99C1481.56,1780.23 1482.42,1781.44 1483.3,1782.63C1483.89,1783.42 1484.43,1784.29 1485.04,1785.09C1479.6,1789.07 1475.03,1794.34 1471.92,1800.12C1471.05,1799.39 1469.09,1798.71 1468.75,1798.54C1466.61,1797.46 1464.5,1796.28 1462.5,1794.96C1460.57,1793.68 1458.69,1792.39 1456.65,1791.27C1452,1788.73 1447.1,1786.71 1442.7,1783.7C1441.94,1783.18 1441.24,1784.41 1441.98,1784.93C1445.82,1787.65 1450.06,1789.72 1454.19,1791.96C1458.31,1794.2 1462.32,1796.65 1466.43,1798.92C1467.38,1799.44 1468.35,1799.95 1469.33,1800.42C1469.76,1800.62 1470.61,1801.16 1471.31,1801.29L1471.31,1801.3C1471,1801.91 1470.71,1802.53 1470.44,1803.15C1470.43,1803.11 1470.4,1803.06 1470.35,1803.03C1467.75,1801.54 1464.57,1801.12 1461.72,1800.34C1458.61,1799.5 1455.53,1798.57 1452.46,1797.58C1449.39,1796.6 1446.33,1795.58 1443.28,1794.53C1441.79,1794.01 1440.3,1793.47 1438.79,1792.99C1437.32,1792.52 1435.81,1792.25 1434.34,1791.76C1433.88,1791.61 1433.72,1792.3 1434.14,1792.47C1435.59,1793.06 1436.94,1793.87 1438.39,1794.44C1439.87,1795.01 1441.35,1795.56 1442.85,1796.09C1445.89,1797.17 1448.94,1798.21 1452.02,1799.18C1455.09,1800.15 1458.18,1801.06 1461.29,1801.89C1464.14,1802.65 1467.25,1803.76 1470.24,1803.43C1470.28,1803.43 1470.31,1803.41 1470.35,1803.39C1470.12,1803.93 1469.9,1804.48 1469.69,1805.03C1469.38,1804.93 1469.08,1804.86 1468.88,1804.81C1467.51,1804.48 1466.13,1804.2 1464.74,1803.96C1461.98,1803.47 1459.21,1803.08 1456.44,1802.72C1455.56,1802.6 1455.34,1804.16 1456.23,1804.29C1459.04,1804.68 1461.87,1805.08 1464.65,1805.67C1465.97,1805.94 1467.27,1806.27 1468.57,1806.61C1468.71,1806.65 1468.89,1806.7 1469.09,1806.75C1468.77,1807.75 1468.48,1808.77 1468.23,1809.79C1466.59,1809.76 1464.93,1809.82 1463.31,1809.8C1460.74,1809.75 1458.17,1809.68 1455.6,1809.56C1450.47,1809.34 1445.35,1809 1440.24,1808.49C1439.68,1808.43 1439.69,1809.29 1440.24,1809.35C1445.35,1809.93 1450.47,1810.35 1455.6,1810.6C1458.1,1810.73 1460.61,1810.82 1463.11,1810.88C1464.7,1810.91 1466.33,1811.02 1467.95,1811.02C1467.73,1812.02 1467.54,1813.02 1467.38,1814.02C1467.16,1814.05 1466.94,1814.08 1466.72,1814.09C1465.59,1814.18 1464.46,1814.23 1463.33,1814.24C1460.99,1814.25 1458.65,1814.12 1456.31,1813.94C1454.04,1813.77 1451.78,1813.54 1449.51,1813.31C1447.22,1813.08 1444.93,1813.18 1442.64,1813.12C1442.24,1813.1 1442.26,1813.68 1442.64,1813.72C1444.95,1813.97 1447.2,1814.54 1449.51,1814.81C1451.84,1815.08 1454.17,1815.36 1456.5,1815.58C1458.77,1815.79 1461.05,1815.9 1463.33,1815.88C1464.53,1815.86 1465.72,1815.81 1466.91,1815.71C1466.99,1815.71 1467.06,1815.7 1467.14,1815.69C1466.76,1818.61 1466.57,1821.57 1466.47,1824.57C1466.45,1824.93 1466.44,1825.29 1466.42,1825.65C1465.05,1825.14 1463.52,1824.88 1462.14,1824.63C1460.1,1824.27 1458.03,1824.07 1455.96,1823.93C1451.68,1823.63 1447.36,1823.63 1443.11,1823C1442.31,1822.88 1441.96,1824.1 1442.77,1824.23C1446.86,1824.89 1451,1825 1455.13,1825.3C1457.24,1825.46 1459.35,1825.66 1461.44,1826.01C1463.13,1826.3 1464.72,1826.85 1466.35,1827.3C1466.31,1828.2 1466.26,1829.1 1466.23,1829.99C1466.18,1829.99 1466.13,1829.98 1466.09,1829.98C1465.03,1829.94 1463.97,1829.89 1462.91,1829.82C1460.7,1829.69 1458.49,1829.5 1456.27,1829.35C1451.83,1829.05 1447.38,1828.93 1442.94,1829.43C1441.94,1829.54 1441.93,1831.12 1442.94,1831C1447.38,1830.5 1451.83,1830.62 1456.27,1830.92C1458.43,1831.06 1460.58,1831.24 1462.73,1831.37C1463.78,1831.44 1464.84,1831.49 1465.9,1831.53C1465.99,1831.54 1466.09,1831.54 1466.19,1831.55C1466.17,1832.89 1466.18,1834.22 1466.27,1835.53C1465.94,1835.64 1465.61,1835.78 1465.26,1835.87C1464.42,1836.11 1463.55,1836.26 1462.68,1836.37C1460.86,1836.6 1459.03,1836.65 1457.21,1836.78C1455.27,1836.91 1453.36,1837.21 1451.44,1837.5C1450.2,1837.68 1448.96,1837.82 1447.72,1837.99C1446.4,1838.17 1445.17,1838.39 1443.84,1838.22C1443.73,1838.21 1443.72,1838.38 1443.81,1838.41C1444.97,1838.74 1446.16,1839.07 1447.36,1839.21C1448.61,1839.35 1449.86,1839.19 1451.09,1839.04C1453.22,1838.77 1455.32,1838.47 1457.46,1838.38C1459.33,1838.29 1461.2,1838.19 1463.06,1837.94C1463.87,1837.83 1465.36,1837.73 1466.44,1837.28C1466.52,1837.91 1466.62,1838.54 1466.75,1839.16C1466.37,1839.31 1465.99,1839.51 1465.62,1839.66C1465.47,1839.72 1465.32,1839.78 1465.17,1839.84C1465.59,1839.54 1465.97,1839.19 1466.29,1838.76C1466.46,1838.54 1466.18,1838.3 1465.96,1838.33C1463.84,1838.7 1461.79,1839.41 1459.69,1839.87C1457.4,1840.37 1455.1,1840.77 1452.83,1841.33C1447.39,1842.7 1442.07,1844.51 1436.69,1846.12C1435.55,1846.46 1436.04,1848.25 1437.19,1847.91C1442.74,1846.24 1448.24,1844.35 1453.88,1842.97C1456.17,1842.41 1458.49,1842.03 1460.79,1841.51C1460.79,1841.5 1460.8,1841.5 1460.8,1841.5C1459.11,1842.14 1457.42,1842.82 1455.83,1843.66C1453.87,1844.7 1452.01,1845.93 1450.1,1847.06C1449.11,1847.66 1448.07,1848.19 1447.08,1848.79C1446.01,1849.42 1444.98,1850.03 1443.79,1850.43C1443.56,1850.51 1443.65,1850.84 1443.89,1850.8C1446.09,1850.38 1448.08,1849.78 1450.08,1848.76C1452.16,1847.71 1454.14,1846.47 1456.22,1845.41C1458.38,1844.29 1460.66,1843.44 1462.94,1842.59C1464.05,1842.17 1465.16,1841.76 1466.26,1841.31C1466.55,1841.19 1466.88,1841.08 1467.19,1840.95C1467.66,1842.56 1468.34,1844.14 1469.3,1845.68C1471.29,1848.89 1473.79,1852.09 1476.79,1854.57C1475.76,1854.84 1474.82,1855.83 1474.04,1856.45C1472.9,1857.39 1471.78,1858.36 1470.68,1859.35C1468.45,1861.36 1466.28,1863.44 1463.91,1865.29C1463.02,1865.99 1464.28,1867.23 1465.16,1866.54C1467.48,1864.71 1469.6,1862.67 1471.78,1860.69C1472.86,1859.7 1473.95,1858.72 1475.11,1857.84C1476.05,1857.12 1477.39,1856.55 1477.94,1855.47C1478.11,1855.59 1478.29,1855.72 1478.47,1855.84C1478.15,1856.23 1477.88,1856.66 1477.6,1857.02C1476.71,1858.19 1475.77,1859.34 1474.82,1860.47C1472.98,1862.65 1471.06,1864.76 1469.16,1866.88C1465.36,1871.14 1461.57,1875.42 1458.4,1880.18C1457.79,1881.1 1459.26,1881.94 1459.87,1881.04C1463.11,1876.3 1467,1872.07 1470.86,1867.84C1472.74,1865.78 1474.6,1863.7 1476.38,1861.55C1477.25,1860.51 1478.09,1859.45 1478.91,1858.38C1479.25,1857.93 1479.72,1857.41 1480.07,1856.85C1480.24,1856.95 1480.41,1857.04 1480.58,1857.13C1479.56,1857.86 1478.75,1858.99 1478.08,1860.02C1477.23,1861.34 1476.39,1862.66 1475.55,1863.98C1473.85,1866.63 1472.16,1869.29 1470.59,1872.02C1469.95,1873.12 1471.64,1874.1 1472.29,1873.01C1473.9,1870.3 1475.63,1867.67 1477.37,1865.04C1478.2,1863.79 1479.03,1862.54 1479.82,1861.25C1480.5,1860.14 1481.19,1858.84 1481.33,1857.51C1481.63,1857.65 1481.92,1857.79 1482.22,1857.91C1481.87,1858.7 1481.53,1859.49 1481.18,1860.28C1480.55,1861.75 1479.94,1863.23 1479.34,1864.71C1478.11,1867.78 1476.98,1870.89 1475.78,1873.96C1473.39,1880.03 1469.77,1885.45 1466.83,1891.25C1466.05,1892.8 1465.27,1894.39 1464.69,1896.03C1464.09,1897.75 1463.66,1899.52 1463.15,1901.26C1463.09,1901.47 1463.41,1901.62 1463.51,1901.41C1464.17,1899.97 1464.97,1898.64 1465.79,1897.29C1466.63,1895.92 1467.34,1894.48 1468.1,1893.07C1469.63,1890.22 1471.14,1887.37 1472.52,1884.45C1475.28,1878.63 1477.88,1872.71 1480.34,1866.76C1481.06,1865.01 1481.8,1863.26 1482.57,1861.53C1482.94,1860.72 1483.32,1859.91 1483.71,1859.11C1483.8,1858.92 1483.9,1858.74 1483.99,1858.56C1484.38,1858.69 1484.84,1858.84 1485.33,1859C1485.12,1859.82 1484.96,1860.65 1484.77,1861.48C1484.43,1862.97 1484.06,1864.45 1483.67,1865.93C1482.89,1868.86 1481.97,1871.76 1481.25,1874.71C1480.66,1877.11 1480.21,1879.54 1479.59,1881.93C1478.98,1884.29 1478.22,1886.62 1477.48,1888.94C1477.4,1889.2 1477.74,1889.38 1477.92,1889.2C1479.68,1887.48 1480.49,1885.17 1481.11,1882.85C1481.79,1880.31 1482.27,1877.72 1482.89,1875.16C1483.62,1872.15 1484.47,1869.16 1485.21,1866.15C1485.73,1864.02 1486.41,1861.64 1486.49,1859.35C1487.51,1859.66 1488.63,1859.97 1489.79,1860.25C1489.77,1860.74 1489.74,1861.22 1489.68,1861.67C1489.46,1863.29 1489.16,1864.89 1488.97,1866.51C1488.85,1867.49 1490.39,1867.49 1490.5,1866.51C1490.7,1864.78 1491.03,1863.06 1491.25,1861.33C1491.28,1861.09 1491.31,1860.85 1491.34,1860.61C1494.55,1861.28 1497.68,1861.57 1499,1860.61C1502.06,1862.1 1505.46,1862.5 1508.89,1862.19C1508.81,1864.74 1508.38,1867.25 1507.94,1869.8C1507.57,1871.9 1507.4,1874.01 1507.17,1876.13C1506.84,1879.12 1506.51,1881.92 1507.17,1884.88C1507.23,1885.14 1507.64,1885.15 1507.7,1884.88C1508.76,1879.74 1508.85,1874.48 1509.74,1869.31C1510.09,1867.3 1510.45,1865.29 1510.48,1863.24C1510.48,1862.87 1510.48,1862.45 1510.44,1862.01C1511.38,1861.87 1512.31,1861.68 1513.24,1861.46C1513.14,1865 1513.26,1868.55 1513.19,1872.09C1513.1,1876.29 1513,1880.49 1513.2,1884.69C1513.41,1888.84 1513.81,1892.98 1514.25,1897.11C1514.47,1899.18 1514.7,1901.26 1514.92,1903.33C1515.13,1905.33 1515.32,1907.24 1515.94,1909.17C1516.01,1909.4 1516.31,1909.33 1516.34,1909.11C1516.61,1907.02 1516.38,1905.02 1516.15,1902.94C1515.92,1900.87 1515.68,1898.8 1515.45,1896.72C1514.99,1892.59 1514.57,1888.46 1514.35,1884.31C1514.14,1880.11 1514.24,1875.9 1514.3,1871.7C1514.34,1868.26 1514.49,1864.7 1513.91,1861.29C1514.61,1861.1 1515.31,1860.89 1516,1860.67C1515.44,1863.38 1515.69,1866.1 1516.05,1868.83C1516.44,1871.74 1516.99,1874.63 1517.37,1877.54C1517.78,1880.62 1518.21,1883.67 1518.76,1886.72C1519.06,1888.38 1519.35,1890.04 1519.63,1891.7C1519.9,1893.36 1520.37,1894.94 1520.79,1896.55C1520.83,1896.72 1521.08,1896.68 1521.08,1896.51C1521.14,1894.9 1521.16,1893.36 1520.92,1891.75C1520.69,1890.21 1520.4,1888.68 1520.13,1887.15C1519.56,1884.01 1519.03,1880.87 1518.57,1877.71C1517.82,1872.64 1516.77,1867.67 1516.37,1862.58C1516.66,1863.22 1517.17,1863.87 1517.38,1864.18C1518.28,1865.53 1519.24,1866.83 1520.02,1868.26C1521.71,1871.36 1522.75,1874.75 1524.36,1877.89C1524.69,1878.51 1525.61,1877.96 1525.3,1877.34C1523.73,1874.16 1522.79,1870.72 1521.28,1867.52C1520.59,1866.05 1519.66,1864.73 1518.79,1863.36C1518.4,1862.74 1517.58,1860.52 1516.54,1861.08C1516.43,1861.14 1516.34,1861.22 1516.28,1861.31C1516.27,1861.07 1516.25,1860.83 1516.24,1860.59C1517.66,1860.12 1519.06,1859.57 1520.39,1858.97C1521.27,1860.15 1521.97,1861.53 1522.58,1862.76C1523.55,1864.71 1524.33,1866.74 1525.22,1868.72C1526.23,1870.95 1527.32,1873.16 1528.41,1875.35C1529.56,1877.67 1530.7,1880.05 1532.51,1881.94C1532.62,1882.06 1532.88,1881.94 1532.81,1881.77C1530.83,1877 1528.16,1872.52 1525.96,1867.86C1524.53,1864.81 1523.28,1861.2 1520.82,1858.78C1523.04,1857.77 1525.1,1856.65 1526.9,1855.54C1527.69,1855.06 1528.47,1854.58 1529.24,1854.09C1530.82,1855.64 1532.29,1857.16 1533.56,1858.98C1534.16,1859.85 1534.8,1860.7 1535.46,1861.54C1536.11,1862.38 1536.93,1863.09 1537.63,1863.91C1537.74,1864.04 1537.92,1863.88 1537.85,1863.74C1537.35,1862.75 1537.05,1861.68 1536.54,1860.7C1535.97,1859.63 1535.34,1858.61 1534.61,1857.63C1533.44,1856.07 1532.14,1854.36 1530.42,1853.34C1532.02,1852.31 1533.55,1851.26 1534.98,1850.14C1535.52,1850.81 1536.16,1851.4 1536.75,1852.02C1537.75,1853.07 1538.69,1854.17 1539.6,1855.3C1540.5,1856.44 1541.37,1857.59 1542.29,1858.72C1543.24,1859.89 1544.35,1860.78 1545.43,1861.82Z" style="fill:rgb(105,77,72);fill-rule:nonzero;"/>
    </g>
</svg>
