<?xml version="1.0" encoding="UTF-8" standalone="no"?>
<!DOCTYPE svg PUBLIC "-//W3C//DTD SVG 1.1//EN" "http://www.w3.org/Graphics/SVG/1.1/DTD/svg11.dtd">
<svg width="100%" height="100%" viewBox="0 0 262 260" version="1.1" xmlns="http://www.w3.org/2000/svg" xmlns:xlink="http://www.w3.org/1999/xlink" xml:space="preserve" xmlns:serif="http://www.serif.com/" style="fill-rule:evenodd;clip-rule:evenodd;stroke-linecap:round;stroke-linejoin:round;stroke-miterlimit:2;">
    <g transform="matrix(1,0,0,1,-1676.63,-1687.94)">
        <path d="M1932.47,1838.81C1932.46,1838.87 1932.46,1838.88 1932.47,1838.81Z" style="fill:rgb(255,233,179);fill-rule:nonzero;"/>
        <path d="M1932.47,1838.81C1932.46,1838.87 1932.46,1838.88 1932.47,1838.81Z" style="fill:none;stroke:white;stroke-width:7.5px;"/>
        <path d="M1843.33,1821.65C1842.81,1826.19 1841.56,1830.66 1840.11,1834.99C1839.02,1838.27 1838.17,1841.67 1835.67,1843.97C1834.09,1845.42 1832.11,1846.5 1830.32,1847.65C1828.24,1848.97 1826.16,1850.29 1824.13,1851.68C1822.41,1852.87 1820.75,1854.15 1818.9,1855.14C1817.5,1855.89 1816.03,1856.34 1814.49,1856.37C1812.39,1856.4 1810.3,1855.81 1808.24,1855.46C1805.85,1855.06 1803.46,1854.66 1801.12,1854.05C1798.92,1853.47 1796.73,1852.91 1794.52,1852.4C1792.47,1851.93 1790.34,1851.48 1788.42,1850.62C1784.73,1848.99 1782,1845.64 1779.32,1842.74C1776.59,1839.8 1773.77,1836.88 1771.72,1833.4C1770.77,1831.8 1770,1830.1 1769.53,1828.29C1769.27,1827.28 1769.15,1826.25 1769.11,1825.22C1769.35,1824.8 1769.51,1824.35 1769.46,1823.89C1769.41,1823.51 1769.29,1823.18 1769.1,1822.91C1769.1,1822.63 1769.11,1822.34 1769.12,1822.06C1769.19,1819.6 1769.46,1817.15 1769.33,1814.69C1769.23,1812.8 1768.64,1801.99 1769.44,1800.69C1769.5,1800.58 1771.41,1798.56 1773.31,1796.56C1773.31,1796.57 1773.32,1796.57 1773.33,1796.57C1773.54,1796.72 1773.74,1796.43 1773.61,1796.24C1775.36,1794.39 1777.01,1792.65 1777.08,1792.55C1777.09,1792.53 1777.11,1792.51 1777.13,1792.49C1777.28,1792.31 1777.43,1792.12 1777.58,1791.94C1778.24,1791.15 1778.9,1790.35 1779.56,1789.56C1782.13,1786.51 1784.82,1783.36 1788.32,1781.34C1792,1779.23 1796.13,1778.2 1800.36,1778.14C1804.68,1778.07 1808.79,1779 1812.97,1779.98C1816.49,1780.81 1820.06,1781.48 1823.51,1782.6C1826.56,1783.58 1829.51,1785.02 1832.01,1787.21C1835.01,1789.86 1837.31,1793.19 1839.1,1796.75C1842.89,1804.29 1844.27,1813.3 1843.33,1821.65ZM1934.6,1823.67C1934.49,1819.18 1933.84,1814.73 1932.41,1810.48C1930.88,1805.93 1931.28,1803.81 1931.2,1798.87C1931.09,1792.29 1929.16,1779.33 1924.2,1774.29C1924.21,1761.83 1911.97,1746.17 1904.47,1736.9C1900.35,1731.81 1895.76,1727.1 1890.6,1723.07C1887.32,1720.51 1879.61,1713.68 1874.95,1714.45C1866.99,1704.91 1852.91,1703.17 1842.35,1697.43C1834.75,1693.3 1826.63,1692.34 1818.1,1692.03C1813.92,1691.88 1803.92,1690.82 1800.16,1693.46C1794.33,1689.59 1781.21,1695.83 1775.31,1697.12C1773.53,1697.51 1771.77,1697.93 1770.03,1698.37C1769.79,1698.3 1769.55,1698.38 1769.36,1698.54C1762.05,1700.45 1755.04,1702.94 1748.18,1706.65C1731.36,1715.74 1712.54,1729.35 1704.09,1746.64C1700.7,1754.18 1690.72,1760.53 1691.16,1769.73C1689.43,1771.41 1688.32,1778.98 1687.49,1781.33C1685.12,1788.11 1683.63,1795.11 1682.68,1802.22C1680.97,1815.08 1677.72,1834.32 1684.5,1846.21C1683.58,1849.73 1686.04,1855.02 1687.01,1858.29C1688.67,1863.95 1690.55,1869.7 1693.35,1874.91C1697.8,1883.16 1704.41,1891.82 1710.44,1899.07C1716.6,1906.49 1724.25,1910.6 1731.39,1916.61C1736.85,1921.2 1739.75,1927.02 1746.39,1930.61C1766.6,1941.55 1786.64,1943.53 1809.43,1943.51C1815.62,1943.51 1821.51,1943.24 1827.7,1942.45C1834.12,1941.62 1854.02,1940.48 1855.69,1932.27C1868.74,1926.49 1879.42,1916.68 1890.11,1907.32C1899.91,1898.74 1921.66,1865.74 1923.13,1862.94C1926.58,1856.36 1932.39,1839.71 1932.51,1838.37C1932.97,1833.29 1934.72,1829.04 1934.6,1823.67Z" style="fill:rgb(255,233,179);fill-rule:nonzero;"/>
        <path d="M1843.33,1821.65C1842.81,1826.19 1841.56,1830.66 1840.11,1834.99C1839.02,1838.27 1838.17,1841.67 1835.67,1843.97C1834.09,1845.42 1832.11,1846.5 1830.32,1847.65C1828.24,1848.97 1826.16,1850.29 1824.13,1851.68C1822.41,1852.87 1820.75,1854.15 1818.9,1855.14C1817.5,1855.89 1816.03,1856.34 1814.49,1856.37C1812.39,1856.4 1810.3,1855.81 1808.24,1855.46C1805.85,1855.06 1803.46,1854.66 1801.12,1854.05C1798.92,1853.47 1796.73,1852.91 1794.52,1852.4C1792.47,1851.93 1790.34,1851.48 1788.42,1850.62C1784.73,1848.99 1782,1845.64 1779.32,1842.74C1776.59,1839.8 1773.77,1836.88 1771.72,1833.4C1770.77,1831.8 1770,1830.1 1769.53,1828.29C1769.27,1827.28 1769.15,1826.25 1769.11,1825.22C1769.35,1824.8 1769.51,1824.35 1769.46,1823.89C1769.41,1823.51 1769.29,1823.18 1769.1,1822.91C1769.1,1822.63 1769.11,1822.34 1769.12,1822.06C1769.19,1819.6 1769.46,1817.15 1769.33,1814.69C1769.23,1812.8 1768.64,1801.99 1769.44,1800.69C1769.5,1800.58 1771.41,1798.56 1773.31,1796.56C1773.31,1796.57 1773.32,1796.57 1773.33,1796.57C1773.54,1796.72 1773.74,1796.43 1773.61,1796.24C1775.36,1794.39 1777.01,1792.65 1777.08,1792.55C1777.09,1792.53 1777.11,1792.51 1777.13,1792.49C1777.28,1792.31 1777.43,1792.12 1777.58,1791.94C1778.24,1791.15 1778.9,1790.35 1779.56,1789.56C1782.13,1786.51 1784.82,1783.36 1788.32,1781.34C1792,1779.23 1796.13,1778.2 1800.36,1778.14C1804.68,1778.07 1808.79,1779 1812.97,1779.98C1816.49,1780.81 1820.06,1781.48 1823.51,1782.6C1826.56,1783.58 1829.51,1785.02 1832.01,1787.21C1835.01,1789.86 1837.31,1793.19 1839.1,1796.75C1842.89,1804.29 1844.27,1813.3 1843.33,1821.65ZM1934.6,1823.67C1934.49,1819.18 1933.84,1814.73 1932.41,1810.48C1930.88,1805.93 1931.28,1803.81 1931.2,1798.87C1931.09,1792.29 1929.16,1779.33 1924.2,1774.29C1924.21,1761.83 1911.97,1746.17 1904.47,1736.9C1900.35,1731.81 1895.76,1727.1 1890.6,1723.07C1887.32,1720.51 1879.61,1713.68 1874.95,1714.45C1866.99,1704.91 1852.91,1703.17 1842.35,1697.43C1834.75,1693.3 1826.63,1692.34 1818.1,1692.03C1813.92,1691.88 1803.92,1690.82 1800.16,1693.46C1794.33,1689.59 1781.21,1695.83 1775.31,1697.12C1773.53,1697.51 1771.77,1697.93 1770.03,1698.37C1769.79,1698.3 1769.55,1698.38 1769.36,1698.54C1762.05,1700.45 1755.04,1702.94 1748.18,1706.65C1731.36,1715.74 1712.54,1729.35 1704.09,1746.64C1700.7,1754.18 1690.72,1760.53 1691.16,1769.73C1689.43,1771.41 1688.32,1778.98 1687.49,1781.33C1685.12,1788.11 1683.63,1795.11 1682.68,1802.22C1680.97,1815.08 1677.72,1834.32 1684.5,1846.21C1683.58,1849.73 1686.04,1855.02 1687.01,1858.29C1688.67,1863.95 1690.55,1869.7 1693.35,1874.91C1697.8,1883.16 1704.41,1891.82 1710.44,1899.07C1716.6,1906.49 1724.25,1910.6 1731.39,1916.61C1736.85,1921.2 1739.75,1927.02 1746.39,1930.61C1766.6,1941.55 1786.64,1943.53 1809.43,1943.51C1815.62,1943.51 1821.51,1943.24 1827.7,1942.45C1834.12,1941.62 1854.02,1940.48 1855.69,1932.27C1868.74,1926.49 1879.42,1916.68 1890.11,1907.32C1899.91,1898.74 1921.66,1865.74 1923.13,1862.94C1926.58,1856.36 1932.39,1839.71 1932.51,1838.37C1932.97,1833.29 1934.72,1829.04 1934.6,1823.67Z" style="fill:none;stroke:white;stroke-width:7.5px;"/>
        <path d="M1916.91,1794.65C1919.92,1795.18 1922.88,1796.05 1925.89,1796.53C1926.11,1796.57 1926.03,1796.86 1925.85,1796.88C1922.63,1797.22 1919.8,1796.07 1916.77,1795.16C1916.45,1795.06 1916.59,1794.59 1916.91,1794.65ZM1709.05,1838.26C1707.33,1838.98 1705.53,1839.59 1703.68,1839.86C1701.86,1840.12 1700.04,1840.22 1698.21,1840.32C1694.67,1840.53 1691.05,1841.26 1687.63,1839.94C1687.55,1839.91 1687.58,1839.79 1687.66,1839.81C1689.49,1840.24 1691.42,1839.87 1693.25,1839.59C1694.84,1839.35 1696.43,1839.16 1698.04,1839.02C1699.86,1838.87 1701.68,1838.73 1703.5,1838.57C1705.32,1838.41 1707.11,1838.32 1708.89,1837.88C1709.11,1837.82 1709.27,1838.16 1709.05,1838.26ZM1742.05,1826.57C1738.57,1828.98 1733.7,1829.65 1729.6,1828.94C1729.41,1828.91 1729.46,1828.6 1729.64,1828.61C1731.77,1828.66 1733.97,1827.96 1736.01,1827.44C1737.99,1826.94 1739.89,1826.3 1741.94,1826.15C1742.18,1826.14 1742.22,1826.46 1742.05,1826.57ZM1723.19,1830.84C1719.73,1832.53 1715.85,1832.43 1712.13,1833.06C1711.24,1833.21 1710.87,1831.83 1711.76,1831.7C1715.48,1831.15 1719.29,1831.18 1722.96,1830.29C1723.28,1830.21 1723.51,1830.68 1723.19,1830.84ZM1757.68,1821.48C1755.52,1822.09 1753.37,1822.54 1751.14,1822.82C1746.49,1823.4 1741.8,1823.47 1737.14,1823.85C1735.38,1823.99 1735.4,1821.25 1737.14,1821.11C1741.74,1820.74 1746.36,1820.66 1750.94,1820.1C1753.23,1819.82 1755.5,1819.39 1757.78,1819C1759.77,1818.67 1761.95,1818.31 1763.92,1818.88C1764.16,1818.95 1764.25,1819.33 1764,1819.45C1762,1820.36 1759.79,1820.88 1757.68,1821.48ZM1737.96,1816.05C1734.79,1815.87 1731.62,1815.74 1728.44,1815.71C1727.11,1815.7 1727.11,1813.64 1728.44,1813.65C1731.68,1813.66 1734.92,1813.76 1738.16,1813.93C1741.19,1814.08 1744.33,1814.14 1747.14,1815.4C1747.31,1815.48 1747.25,1815.73 1747.1,1815.78C1744.13,1816.62 1740.99,1816.23 1737.96,1816.05ZM1734.21,1777.96C1734.99,1778.5 1735.8,1778.99 1736.58,1779.52C1736.66,1779.57 1736.59,1779.69 1736.5,1779.65C1735.67,1779.22 1734.87,1778.7 1734.07,1778.2C1733.92,1778.1 1734.06,1777.86 1734.21,1777.96ZM1741.41,1785.34C1744.58,1785.99 1747.6,1786.77 1750.6,1788.03C1752.05,1788.64 1753.5,1789.27 1754.93,1789.92C1756.25,1790.51 1757.55,1791.11 1758.39,1792.33C1758.53,1792.53 1758.34,1792.75 1758.14,1792.77C1756.7,1792.9 1755.41,1792.26 1754.13,1791.67C1752.72,1791.01 1751.31,1790.35 1749.88,1789.72C1747.01,1788.46 1744.19,1786.99 1741.27,1785.82C1740.97,1785.71 1741.08,1785.27 1741.41,1785.34ZM1737.44,1785.17C1732.71,1785.1 1728.36,1783.16 1723.91,1781.79C1723.79,1781.75 1723.81,1781.57 1723.94,1781.57C1728.68,1781.44 1733.29,1782.76 1737.54,1784.82C1737.71,1784.9 1737.62,1785.17 1737.44,1785.17ZM1721.6,1781.58C1718.88,1782.64 1716.08,1781.39 1713.48,1780.52C1712.29,1780.12 1712.82,1778.23 1714,1778.64C1716.53,1779.52 1719.13,1780.14 1721.6,1781.18C1721.79,1781.26 1721.8,1781.5 1721.6,1781.58ZM1733.48,1792.12C1730.62,1791.12 1727.6,1789.8 1724.54,1789.57C1724.42,1789.56 1724.42,1789.39 1724.54,1789.39C1727.94,1789.33 1731.16,1789.66 1734.44,1790.62C1737.75,1791.58 1740.97,1792.79 1744.23,1793.88C1749.21,1795.55 1754.59,1795.47 1759.58,1797.18C1760.25,1797.42 1765.26,1799.28 1764.03,1800.52C1763.44,1801.11 1761.9,1800.12 1761.35,1799.85C1760.18,1799.3 1758.94,1798.86 1757.71,1798.47C1755.16,1797.68 1752.54,1797.06 1749.93,1796.47C1747.4,1795.89 1744.8,1795.57 1742.28,1794.96C1739.28,1794.23 1736.4,1793.13 1733.48,1792.12ZM1719.44,1788.72C1714.45,1788.14 1709.58,1786.89 1704.6,1786.16C1700.09,1785.5 1695.22,1785.53 1690.92,1783.87C1690.81,1783.83 1690.85,1783.66 1690.97,1783.69C1695.53,1784.7 1700.17,1784.68 1704.79,1785.27C1709.76,1785.91 1714.67,1787.06 1719.48,1788.44C1719.63,1788.49 1719.6,1788.74 1719.44,1788.72ZM1764.42,1803.59C1764.54,1803.74 1764.58,1803.9 1764.49,1804.08C1763.94,1805.15 1762.43,1805.04 1761.41,1805.02C1760.1,1805 1758.79,1804.89 1757.49,1804.75C1754.8,1804.45 1752.13,1804 1749.44,1803.75C1748.08,1803.62 1748.07,1801.48 1749.44,1801.61C1752.07,1801.87 1754.69,1802.31 1757.31,1802.61C1758.67,1802.77 1760.04,1802.89 1761.41,1802.92C1762.38,1802.94 1763.75,1802.72 1764.42,1803.59ZM1732.66,1802.7C1730.57,1802.42 1728.5,1802.02 1726.41,1801.71C1725.32,1801.55 1725.78,1799.89 1726.87,1800.05C1728.84,1800.34 1730.8,1800.72 1732.77,1800.99C1734.66,1801.25 1736.56,1801.37 1738.39,1801.9C1738.54,1801.94 1738.58,1802.17 1738.44,1802.24C1736.63,1803.16 1734.6,1802.97 1732.66,1802.7ZM1866.81,1764.36C1867.35,1763.8 1867.95,1763.28 1868.52,1762.75C1869.05,1762.26 1869.57,1761.86 1870.28,1761.69C1870.48,1761.64 1870.59,1761.87 1870.47,1762.02C1869.6,1763.09 1868.44,1764.4 1867.12,1764.89C1866.81,1765 1866.6,1764.57 1866.81,1764.36ZM1823,1777.62C1822.21,1775.95 1822.75,1773.79 1823.1,1772.07C1823.52,1770.02 1824.11,1768.02 1824.75,1766.03C1826.03,1762.02 1827.25,1757.96 1828.71,1754.02C1828.8,1753.77 1829.15,1753.81 1829.17,1754.08C1829.47,1758.16 1827.88,1762.18 1826.65,1765.99C1826.01,1767.98 1825.37,1769.98 1824.87,1772.01C1824.43,1773.8 1824.4,1776 1823.47,1777.62C1823.38,1777.78 1823.09,1777.81 1823,1777.62ZM1801.92,1773.07C1800.98,1770.71 1801.5,1767.97 1801.72,1765.5C1801.95,1762.96 1802.24,1760.42 1802.57,1757.89C1803.24,1752.74 1803.88,1747.58 1803.92,1742.38C1803.93,1741.46 1805.34,1741.47 1805.35,1742.38C1805.39,1747.57 1804.85,1752.74 1804.3,1757.89C1804.03,1760.49 1803.72,1763.09 1803.49,1765.69C1803.28,1768.14 1803.5,1770.78 1802.55,1773.07C1802.43,1773.37 1802.05,1773.38 1801.92,1773.07ZM1804.71,1729.85C1803.87,1727.3 1803.74,1724.69 1803.74,1722.03C1803.75,1719.27 1803.93,1716.52 1804.21,1713.78C1804.76,1708.44 1805.8,1703.2 1806.96,1697.96C1806.98,1697.87 1807.13,1697.89 1807.12,1697.98C1806.44,1703.24 1805.69,1708.5 1805.23,1713.78C1805,1716.46 1804.87,1719.16 1804.9,1721.85C1804.93,1724.5 1805.18,1727.13 1805.17,1729.78C1805.17,1730.06 1804.79,1730.09 1804.71,1729.85ZM1809.3,1727.08C1809.3,1724.13 1809.77,1721.21 1810.22,1718.3C1810.43,1716.85 1810.64,1715.4 1810.94,1713.97C1811.22,1712.64 1811.46,1711.2 1811.91,1709.92C1811.97,1709.75 1812.24,1709.67 1812.34,1709.87C1813.57,1712.33 1813.28,1715.46 1812.91,1718.09C1812.48,1721.08 1811.98,1724.05 1811.98,1727.08C1811.98,1728.81 1809.29,1728.81 1809.3,1727.08ZM1822.86,1743.01C1823.78,1738.48 1823.9,1733.26 1826.63,1729.36C1826.75,1729.18 1827.1,1729.22 1827.08,1729.48C1826.66,1734.19 1825.72,1738.91 1824.81,1743.55C1824.56,1744.83 1822.6,1744.29 1822.86,1743.01ZM1815.54,1754.38C1815.43,1750.55 1815.04,1746.79 1815.4,1742.96C1815.57,1741.13 1815.81,1739.29 1816.23,1737.51C1816.66,1735.68 1817.38,1734.03 1818.22,1732.35C1818.33,1732.12 1818.69,1732.24 1818.69,1732.48C1818.69,1734.27 1818.71,1736.03 1818.53,1737.82C1818.35,1739.66 1818.09,1741.49 1817.85,1743.33C1817.39,1747 1816.65,1750.68 1816.53,1754.38C1816.51,1755.02 1815.56,1755.02 1815.54,1754.38ZM1746.58,1770.74C1746.73,1770.9 1746.53,1771.19 1746.34,1771.05C1743.34,1768.88 1740.47,1766.64 1737.73,1764.15C1735.06,1761.72 1732.52,1759.15 1729.82,1756.77C1727.7,1754.91 1725.33,1753.38 1723.11,1751.66C1721.09,1750.1 1719.1,1748.43 1718.18,1746C1718.15,1745.94 1718.24,1745.89 1718.29,1745.94C1720.13,1747.87 1722.27,1749.59 1724.46,1751.13C1726.63,1752.67 1728.93,1754.07 1730.96,1755.82C1736.42,1760.52 1741.58,1765.56 1746.58,1770.74ZM1744.24,1754.19C1740.23,1748.87 1736.22,1743.45 1731.14,1739.09C1730.3,1738.37 1731.51,1737.18 1732.34,1737.88C1735.21,1740.3 1737.74,1743.06 1740.13,1745.95C1744.41,1751.12 1748.18,1756.69 1752.48,1761.85C1754.65,1764.45 1757.1,1766.82 1759.16,1769.49C1760.14,1770.76 1761.05,1772.08 1762.04,1773.34C1762.99,1774.55 1763.93,1775.69 1764.7,1777.03C1764.82,1777.24 1764.61,1777.57 1764.36,1777.47C1761.11,1776.21 1759.39,1772.55 1757.29,1769.97C1755.1,1767.28 1752.6,1764.83 1750.39,1762.14C1748.26,1759.55 1746.25,1756.87 1744.24,1754.19ZM1752.25,1748.27C1752.03,1748.02 1752.38,1747.66 1752.63,1747.9C1754.48,1749.65 1756.41,1751.33 1757.96,1753.38C1758.73,1754.4 1759.51,1755.46 1760.14,1756.58C1760.72,1757.61 1760.94,1758.63 1761.08,1759.78C1761.12,1760.05 1760.75,1760.07 1760.63,1759.9C1757.76,1756.1 1755.43,1751.86 1752.25,1748.27ZM1757.05,1721.84C1756.43,1721.02 1757.85,1719.94 1758.48,1720.74C1760.61,1723.44 1762.19,1726.48 1763.62,1729.59C1765.02,1732.61 1766.54,1735.59 1767.7,1738.71C1767.81,1738.99 1767.43,1739.13 1767.25,1738.97C1764.67,1736.84 1763.37,1733.69 1761.98,1730.73C1760.54,1727.66 1759.12,1724.57 1757.05,1721.84ZM1773.31,1730.12C1773.27,1729.95 1773.51,1729.89 1773.57,1730.05C1774.09,1731.65 1774.9,1732.96 1775.68,1734.43C1776.41,1735.82 1777.06,1737.25 1777.69,1738.69C1778.85,1741.35 1780.48,1744.27 1780.01,1747.26C1779.98,1747.46 1779.67,1747.53 1779.54,1747.38C1778.52,1746.24 1777.97,1745.02 1777.44,1743.6C1776.88,1742.1 1776.3,1740.61 1775.73,1739.12C1775.16,1737.65 1774.61,1736.17 1774.26,1734.64C1773.92,1733.14 1773.68,1731.62 1773.31,1730.12ZM1763.44,1703.11C1763.39,1703 1763.57,1702.94 1763.63,1703.03C1766.08,1706.54 1767.56,1710.58 1768.93,1714.61C1769.63,1716.69 1770.3,1718.78 1771.04,1720.84C1771.39,1721.82 1771.8,1722.78 1772.14,1723.76C1772.48,1724.76 1772.53,1725.72 1772.77,1726.72C1772.83,1726.94 1772.53,1727.15 1772.37,1726.96C1771.68,1726.15 1771.02,1725.59 1770.52,1724.62C1770.03,1723.67 1769.68,1722.66 1769.33,1721.65C1768.62,1719.64 1768.01,1717.6 1767.43,1715.55C1766.25,1711.36 1765.1,1707.14 1763.44,1703.11ZM1782.2,1737.95C1782.16,1737.74 1782.44,1737.5 1782.61,1737.71C1786.22,1742.24 1786.3,1748.41 1788.06,1753.72C1788.16,1754.01 1787.72,1754.12 1787.61,1753.84C1785.62,1748.63 1783.25,1743.45 1782.2,1737.95ZM1755.13,1741.12C1754.37,1739.97 1756.2,1738.92 1756.95,1740.05C1759.87,1744.38 1763.02,1748.55 1766.39,1752.54C1767.82,1754.24 1769,1756.04 1770.12,1757.95C1771.15,1759.7 1772.23,1761.35 1772.87,1763.29C1772.95,1763.53 1772.69,1763.81 1772.45,1763.72C1770.42,1762.96 1769.39,1761.14 1768.34,1759.36C1767.19,1757.42 1766.01,1755.59 1764.55,1753.86C1761.15,1749.82 1758.02,1745.54 1755.13,1741.12ZM1773.91,1857.9C1771.93,1860.22 1769.84,1862.45 1767.74,1864.66C1765.5,1867.03 1763.35,1869.54 1760.88,1871.68C1759.58,1872.82 1758.08,1873.74 1756.78,1874.87C1755.53,1875.96 1754.51,1877.31 1753.46,1878.59C1751.28,1881.23 1748.95,1883.74 1746.68,1886.32C1746.03,1887.06 1744.92,1885.96 1745.6,1885.23C1748.2,1882.44 1750.84,1879.72 1753.66,1877.16C1754.99,1875.95 1756.14,1874.76 1757.15,1873.27C1758.07,1871.91 1759.04,1870.54 1760.12,1869.3C1762.2,1866.91 1764.37,1864.6 1766.52,1862.27C1768.57,1860.07 1770.67,1857.92 1772.63,1855.64C1773.61,1854.51 1774.55,1853.35 1775.43,1852.15C1776.19,1851.11 1776.79,1850.02 1778.16,1849.79C1778.33,1849.76 1778.47,1849.83 1778.53,1850C1779.05,1851.57 1777.9,1852.85 1777.02,1854.03C1776.03,1855.36 1774.98,1856.64 1773.91,1857.9ZM1739.19,1842.82C1738.1,1843.68 1736.92,1844.44 1735.71,1845.12C1735.12,1845.46 1734.53,1845.83 1733.9,1846.09C1733.59,1846.21 1733.26,1846.18 1732.97,1846.29C1732.87,1846.34 1732.79,1846.2 1732.84,1846.12C1733.03,1845.73 1733.09,1845.49 1733.44,1845.18C1733.91,1844.77 1734.44,1844.45 1734.98,1844.12C1736.2,1843.38 1737.51,1842.74 1738.85,1842.24C1739.16,1842.13 1739.46,1842.61 1739.19,1842.82ZM1740.66,1847.32C1742.76,1845.89 1744.76,1844.33 1746.86,1842.9C1748.91,1841.5 1751.06,1840.24 1753.55,1839.83C1753.93,1839.77 1754.18,1840.27 1753.82,1840.48C1751.71,1841.76 1749.57,1842.99 1747.52,1844.37C1745.46,1845.76 1743.49,1847.26 1741.42,1848.63C1740.61,1849.18 1739.85,1847.87 1740.66,1847.32ZM1731.01,1856.24C1728.17,1859.84 1724.25,1862.39 1720.73,1865.26C1717.06,1868.27 1713.87,1871.84 1709.91,1874.5C1709.78,1874.59 1709.63,1874.38 1709.74,1874.28C1713.24,1871.03 1716.54,1867.54 1720.24,1864.53C1723.74,1861.68 1727.32,1858.94 1730.68,1855.91C1730.9,1855.7 1731.19,1856.01 1731.01,1856.24ZM1746.91,1854.43C1749.66,1852.32 1752.38,1850.19 1755.19,1848.15C1755.66,1847.8 1756.16,1848.54 1755.79,1848.93C1753.38,1851.45 1750.66,1853.6 1747.95,1855.79C1746.97,1856.57 1745.93,1855.18 1746.91,1854.43ZM1745.25,1868.4C1742.7,1870.55 1739.95,1872.31 1737.17,1874.13C1737.11,1874.17 1737.04,1874.08 1737.09,1874.03C1739.51,1871.85 1741.84,1869.58 1744.28,1867.43C1746.72,1865.28 1748.99,1862.91 1751.53,1860.86C1751.89,1860.58 1752.53,1860.96 1752.22,1861.4C1750.35,1864.11 1747.76,1866.3 1745.25,1868.4ZM1891.33,1804.65C1893.89,1804.4 1896.35,1804.37 1898.91,1804.58C1901.31,1804.77 1903.81,1804.97 1906.09,1805.77C1906.33,1805.85 1906.27,1806.17 1906.03,1806.19C1903.6,1806.42 1901.13,1805.99 1898.72,1805.74C1896.25,1805.48 1893.8,1805.16 1891.33,1804.91C1891.16,1804.89 1891.16,1804.66 1891.33,1804.65ZM1907.83,1811.13C1905.17,1810.91 1902.53,1810.77 1899.86,1810.79C1897.48,1810.81 1895.11,1811.03 1892.73,1811.03C1890.31,1811.02 1887.87,1811.12 1885.51,1811.7C1884.7,1811.9 1884.35,1810.66 1885.16,1810.46C1887.46,1809.87 1889.85,1809.72 1892.22,1809.69C1894.68,1809.66 1897.09,1810.07 1899.55,1810.16C1902.31,1810.27 1905.07,1810.19 1907.83,1810.31C1910.52,1810.42 1913.32,1810.42 1915.97,1810.95C1916.09,1810.98 1916.09,1811.18 1915.97,1811.21C1913.32,1811.72 1910.49,1811.35 1907.83,1811.13ZM1873.03,1811.88C1873.17,1811.89 1873.17,1812.07 1873.03,1812.08C1870.83,1812.26 1868.62,1812.49 1866.41,1812.57C1864.46,1812.64 1862.51,1812.62 1860.56,1812.69C1857.35,1812.82 1853.97,1813.58 1850.81,1812.68C1850.68,1812.64 1850.73,1812.46 1850.86,1812.48C1854.15,1813.03 1857.57,1812.08 1860.86,1811.91C1864.89,1811.71 1869.01,1811.57 1873.03,1811.88ZM1895.83,1836.46C1891.48,1836.99 1887.26,1835.53 1882.97,1835.11C1880.8,1834.9 1878.67,1834.88 1876.52,1834.43C1874.47,1833.99 1872.43,1833.46 1870.43,1832.82C1869.49,1832.52 1869.9,1831.03 1870.84,1831.34C1872.89,1832.01 1874.98,1832.56 1877.09,1833.01C1879.15,1833.45 1881.15,1834.17 1883.22,1834.56C1887.4,1835.36 1891.78,1834.75 1895.88,1836.11C1896.08,1836.17 1896.03,1836.43 1895.83,1836.46ZM1928.53,1828.72C1927.29,1828.88 1926.12,1828.69 1924.88,1828.55C1923.72,1828.43 1922.55,1828.35 1921.38,1828.3C1918.96,1828.19 1916.55,1828.19 1914.13,1828.2C1913.33,1828.2 1913.34,1826.96 1914.13,1826.96C1916.66,1826.95 1919.2,1826.93 1921.73,1827.05C1923.99,1827.16 1926.66,1827.09 1928.65,1828.27C1928.88,1828.4 1928.76,1828.69 1928.53,1828.72ZM1903.33,1827.39C1900.62,1827.72 1897.99,1827.83 1895.25,1827.68C1892.55,1827.54 1889.84,1827.39 1887.13,1827.37C1886.24,1827.36 1886.24,1825.98 1887.13,1825.98C1889.84,1826.01 1892.55,1826.15 1895.25,1826.3C1897.98,1826.44 1900.63,1826.82 1903.33,1827.17C1903.48,1827.18 1903.48,1827.37 1903.33,1827.39ZM1867.53,1826.16C1867.03,1826.04 1867.25,1825.29 1867.74,1825.4C1871.19,1826.18 1874.76,1825.26 1878.16,1826.28C1878.27,1826.31 1878.25,1826.48 1878.13,1826.48C1874.61,1826.4 1871.01,1826.95 1867.53,1826.16ZM1886.83,1819.2C1886.04,1819.19 1886.04,1817.96 1886.83,1817.96C1892.3,1817.93 1897.76,1817.48 1903.06,1819.07C1903.18,1819.11 1903.16,1819.3 1903.03,1819.29C1900.36,1819.18 1897.68,1819.26 1895.01,1819.21C1892.29,1819.15 1889.56,1819.21 1886.83,1819.2ZM1861.41,1776.44C1862.87,1775.16 1864.47,1774.05 1865.94,1772.79C1866.16,1772.6 1866.55,1772.85 1866.37,1773.12C1865.3,1774.68 1864.06,1775.96 1862.6,1777.17C1861.12,1778.39 1859.47,1779.5 1858.11,1780.86C1858.02,1780.95 1857.87,1780.83 1857.94,1780.72C1858.9,1779.09 1859.98,1777.7 1861.41,1776.44ZM1843.49,1763.98C1843.71,1761.68 1845.64,1759.54 1847.07,1757.86C1848.77,1755.86 1850.62,1753.97 1852.45,1752.1C1852.68,1751.87 1852.97,1752.16 1852.86,1752.41C1851.89,1754.68 1850.14,1756.59 1848.52,1758.4C1847.67,1759.35 1846.81,1760.28 1846.01,1761.27C1845.27,1762.2 1844.57,1763.25 1843.73,1764.08C1843.65,1764.16 1843.48,1764.11 1843.49,1763.98ZM1854.46,1765.21C1855.52,1763.9 1856.64,1762.64 1857.79,1761.41C1858.87,1760.26 1860.06,1759.04 1861.49,1758.34C1861.75,1758.21 1862,1758.47 1861.88,1758.72C1861.2,1760.18 1860.01,1761.39 1858.93,1762.55C1857.78,1763.78 1856.66,1765.04 1855.6,1766.35C1854.96,1767.16 1853.82,1766.01 1854.46,1765.21ZM1856.91,1800.05C1860.61,1798.82 1864.29,1797.54 1867.81,1795.86C1868.07,1795.74 1868.31,1796.04 1868.11,1796.26C1865.58,1799.15 1861.69,1800.11 1858.15,1801.23C1854.42,1802.41 1850.68,1803.78 1847.31,1805.81C1847.15,1805.9 1847.03,1805.7 1847.13,1805.57C1849.53,1802.48 1853.3,1801.25 1856.91,1800.05ZM1856.88,1793.06C1857.99,1792.64 1859.05,1792.08 1860.11,1791.55C1861.07,1791.07 1862.06,1790.77 1863.05,1790.37C1863.35,1790.25 1863.58,1790.7 1863.36,1790.91C1862.48,1791.74 1861.69,1792.56 1860.67,1793.24C1859.65,1793.92 1858.53,1794.44 1857.39,1794.9C1856.26,1795.36 1855.73,1793.49 1856.88,1793.06ZM1859.09,1873.32C1859.26,1873.5 1859.04,1873.81 1858.82,1873.67C1856.12,1871.91 1854.11,1869.51 1852.1,1867.02C1850.06,1864.49 1847.94,1862.04 1845.84,1859.58C1845.64,1859.35 1845.9,1858.94 1846.18,1859.13C1848.78,1860.94 1850.73,1863.5 1852.72,1865.93C1854.78,1868.44 1856.88,1870.94 1859.09,1873.32ZM1882.82,1885.32C1883.84,1886.9 1884.84,1888.36 1885.2,1890.23C1885.22,1890.36 1885.08,1890.51 1884.95,1890.42C1883.46,1889.43 1882.68,1888.06 1881.77,1886.56C1880.76,1884.91 1879.74,1883.28 1878.55,1881.76C1878.02,1881.08 1878.94,1880.11 1879.52,1880.79C1880.72,1882.23 1881.8,1883.75 1882.82,1885.32ZM1867.23,1868.18C1868.76,1869.38 1870.17,1870.7 1871.51,1872.11C1872.63,1873.29 1874.08,1874.59 1874.71,1876.13C1874.77,1876.26 1874.61,1876.39 1874.48,1876.36C1872.87,1875.88 1871.64,1874.24 1870.62,1873C1869.38,1871.5 1868.23,1869.93 1866.84,1868.57C1866.57,1868.32 1866.96,1867.96 1867.23,1868.18ZM1848.96,1886.75C1848.54,1886.23 1849.26,1885.49 1849.71,1886C1852.46,1889.17 1853.89,1893.16 1856.15,1896.65C1857.39,1898.58 1858.98,1900.29 1860.41,1902.08C1861.68,1903.66 1863.02,1905.31 1863.29,1907.37C1863.31,1907.49 1863.14,1907.58 1863.05,1907.51C1861.35,1906.22 1860.14,1904.36 1858.8,1902.71C1857.47,1901.09 1856.08,1899.49 1854.95,1897.73C1852.68,1894.21 1851.63,1890.02 1848.96,1886.75ZM1844.6,1893.69C1844.91,1894.42 1843.65,1894.93 1843.34,1894.22C1842.01,1891.23 1840.85,1888.17 1839.87,1885.05C1838.9,1881.94 1838.26,1878.85 1838.36,1875.58C1838.36,1875.37 1838.65,1875.34 1838.71,1875.53C1840.62,1881.6 1842.17,1887.8 1844.6,1893.69ZM1886.17,1870.84C1886.11,1870.77 1886.2,1870.65 1886.28,1870.7C1889.64,1873.13 1892.34,1876.1 1894.76,1879.47C1896.01,1881.21 1897.16,1883.02 1898.31,1884.83C1898.85,1885.7 1899.4,1886.57 1899.95,1887.44C1900.42,1888.19 1901.18,1889.04 1901.12,1889.97C1901.1,1890.27 1900.82,1890.56 1900.5,1890.44C1899.64,1890.13 1899.21,1889.25 1898.75,1888.51C1898.2,1887.64 1897.66,1886.77 1897.11,1885.91C1896.03,1884.19 1894.94,1882.47 1893.83,1880.77C1891.56,1877.3 1889.13,1873.77 1886.17,1870.84ZM1871.46,1858.85C1870.92,1858.4 1871.68,1857.68 1872.21,1858.1C1874.4,1859.81 1876.67,1861.38 1878.84,1863.12C1880.95,1864.8 1882.94,1866.5 1884.23,1868.92C1884.28,1869.02 1884.18,1869.13 1884.08,1869.07C1881.77,1867.69 1879.81,1865.92 1877.76,1864.19C1875.65,1862.42 1873.55,1860.64 1871.46,1858.85ZM1840.04,1894.39C1840.7,1896.05 1840.94,1897.8 1841.07,1899.57C1841.08,1899.7 1840.87,1899.76 1840.82,1899.64C1837.87,1892.66 1833.75,1886.06 1831.66,1878.73C1831.44,1877.99 1832.57,1877.69 1832.81,1878.42C1834.05,1882.15 1835.95,1885.63 1837.69,1889.15C1838.53,1890.86 1839.33,1892.61 1840.04,1894.39ZM1784.34,1875.96C1785.58,1872.17 1787.86,1868.88 1789.4,1865.24C1789.51,1864.99 1789.94,1865.12 1789.91,1865.38C1789.7,1867.28 1789.21,1868.97 1788.38,1870.71C1787.49,1872.58 1786.56,1874.42 1785.93,1876.39C1785.61,1877.41 1784.01,1876.97 1784.34,1875.96ZM1772.44,1893.27C1771.29,1895.78 1770.72,1898.45 1770.3,1901.16C1769.89,1903.79 1769.5,1906.35 1768.81,1908.92C1768.76,1909.12 1768.47,1909.07 1768.46,1908.87C1768.13,1903.38 1769.02,1897.67 1771.44,1892.68C1771.77,1892 1772.75,1892.6 1772.44,1893.27ZM1773.95,1873.9C1772.16,1877.04 1771.13,1880.49 1769.48,1883.69C1769.11,1884.41 1768.01,1883.77 1768.4,1883.06C1770.03,1880.02 1770.76,1875.76 1773.62,1873.57C1773.82,1873.41 1774.06,1873.7 1773.95,1873.9ZM1764.89,1895.12C1763.4,1900.83 1762.27,1906.7 1761.43,1912.55C1761.38,1912.89 1760.8,1912.81 1760.84,1912.47C1761.46,1906.57 1760.93,1900.09 1764.6,1894.99C1764.7,1894.85 1764.94,1894.93 1764.89,1895.12ZM1815.36,1892.6C1814.93,1895.63 1814.62,1898.67 1814.24,1901.7C1813.89,1904.53 1813.56,1907.42 1812.02,1909.88C1811.9,1910.06 1811.65,1909.97 1811.63,1909.77C1811.37,1906.85 1811.99,1903.96 1812.43,1901.08C1812.88,1898.11 1813.25,1895.12 1813.71,1892.15C1813.89,1891.06 1815.51,1891.53 1815.36,1892.6ZM1809.61,1903.13C1809.81,1904.16 1809.74,1905.34 1809.74,1906.39C1809.74,1907.53 1809.69,1908.69 1809.58,1909.83C1809.36,1912.21 1809.18,1914.59 1808.93,1916.97C1808.8,1918.23 1806.81,1918.24 1806.94,1916.97C1807.2,1914.53 1807.37,1912.08 1807.61,1909.64C1807.81,1907.53 1808.17,1904.92 1809.28,1903.08C1809.36,1902.96 1809.58,1902.97 1809.61,1903.13ZM1800.09,1923.27C1800.03,1925.74 1799.89,1928.19 1799.79,1930.65C1799.69,1933.11 1799.69,1935.4 1798.9,1937.74C1798.81,1938 1798.46,1938 1798.38,1937.74C1797.59,1935.37 1797.78,1933.12 1797.94,1930.65C1798.11,1928.2 1798.28,1925.74 1798.38,1923.27C1798.43,1922.18 1800.12,1922.17 1800.09,1923.27ZM1800.23,1904.67C1800.13,1905.67 1800.02,1906.67 1799.91,1907.67C1799.9,1907.77 1799.75,1907.77 1799.76,1907.67C1799.86,1906.67 1799.95,1905.67 1800.04,1904.67C1800.06,1904.55 1800.24,1904.55 1800.23,1904.67ZM1804,1881.21C1803.25,1885.58 1802.73,1889.96 1801.54,1894.23C1801.49,1894.41 1801.17,1894.44 1801.14,1894.23C1800.83,1892.03 1800.79,1889.93 1801.11,1887.73C1801.45,1885.39 1801.86,1883.07 1802.28,1880.74C1802.48,1879.61 1804.19,1880.09 1804,1881.21ZM1774.74,1861.82C1773.48,1860.85 1773.57,1859.28 1774.49,1858.14C1776.1,1856.17 1777.77,1854.21 1779.46,1852.31C1780.37,1851.3 1782.46,1852.05 1782.3,1853.49C1781.95,1856.48 1780.1,1858.8 1778.36,1861.13C1777.49,1862.31 1776,1862.79 1774.74,1861.82ZM1825.44,1879.89C1823.89,1879.89 1823.89,1877.49 1825.44,1877.49C1826.98,1877.49 1826.98,1879.89 1825.44,1879.89ZM1824.42,1862.56C1824.4,1862.34 1824.52,1862.9 1824.42,1862.56ZM1822.54,1871.84C1822.11,1871.26 1821.82,1870.46 1821.49,1869.8C1821.07,1868.98 1820.64,1868.12 1820.4,1867.16C1819.95,1865.36 1819.68,1863.29 1820.82,1861.69C1821.32,1860.99 1822.12,1860.54 1823,1860.8C1823.01,1860.81 1823.03,1860.81 1823.04,1860.81C1823.82,1861.05 1824.18,1861.67 1824.38,1862.4C1824.4,1862.47 1824.41,1862.52 1824.42,1862.56C1824.43,1862.59 1824.44,1862.64 1824.45,1862.71C1824.47,1862.87 1824.61,1863.81 1824.55,1863.45C1824.64,1863.95 1824.83,1865.03 1824.98,1865.75C1825.2,1866.84 1825.29,1867.87 1825.36,1868.89C1825.43,1869.71 1825.52,1870.69 1825.28,1871.49C1824.88,1872.8 1823.29,1872.86 1822.54,1871.84ZM1866.98,1839.94C1865.66,1839.55 1864.6,1839.39 1863.39,1839.31C1861.79,1839.2 1860.19,1838.8 1858.63,1838.43C1857.17,1838.07 1855.62,1837.59 1854.36,1836.77C1853.76,1836.39 1853.12,1835.91 1852.63,1835.39C1852.39,1835.13 1852.14,1834.77 1851.97,1834.45C1851.83,1834.2 1851.75,1833.94 1851.73,1833.67C1851.17,1832.62 1852.42,1831.34 1853.49,1831.73L1853.53,1831.73C1853.77,1831.73 1853.99,1831.77 1854.21,1831.85C1854.5,1831.92 1854.77,1832.03 1855.05,1832.12C1855.66,1832.32 1856.3,1832.44 1856.92,1832.59C1858.23,1832.89 1859.54,1833.21 1860.85,1833.5C1863.64,1834.1 1866.49,1835.13 1868.65,1837.07C1869.94,1838.23 1868.58,1840.41 1866.98,1839.94ZM1878.24,1801.49C1879.78,1801.49 1879.78,1803.89 1878.24,1803.89C1876.69,1803.89 1876.69,1801.49 1878.24,1801.49ZM1867.44,1803.22C1868.43,1803.34 1869.42,1804.41 1868.71,1805.43C1868.04,1806.38 1866.8,1807.02 1865.81,1807.56C1864.6,1808.23 1863.27,1808.63 1861.94,1808.96C1860.08,1809.44 1855.76,1810.8 1854.87,1808.26C1854.02,1805.84 1858.92,1804.94 1860.41,1804.53C1861.65,1804.19 1862.92,1803.8 1864.16,1803.64C1865.12,1803.51 1866.44,1803.09 1867.44,1803.22ZM1828.18,1771.53C1828.92,1769.99 1829.98,1768.24 1831.74,1767.77C1833.39,1767.34 1834.58,1768.8 1834.31,1770.34C1834.23,1770.78 1834.09,1771.16 1833.89,1771.58C1833.83,1771.72 1833.8,1771.77 1833.83,1771.71C1833.72,1771.94 1833.63,1772.17 1833.52,1772.39C1833.2,1773.05 1832.86,1773.73 1832.46,1774.35C1831.61,1775.65 1830.55,1776.82 1829.38,1777.83C1828.27,1778.8 1826.06,1777.9 1826.67,1776.26C1827.25,1774.7 1827.45,1773.04 1828.18,1771.53ZM1795.65,1765.4C1795.42,1763.71 1795.07,1761.45 1795.75,1759.82C1796.24,1758.62 1797.64,1758.06 1798.68,1759.05C1799.95,1760.26 1800.4,1762.34 1800.66,1764.02C1800.82,1765.02 1800.96,1766.04 1800.9,1767.05C1800.84,1767.89 1800.54,1768.63 1800.59,1769.49C1800.69,1770.99 1798.35,1771.66 1797.69,1770.27C1797.3,1769.45 1796.72,1768.78 1796.34,1767.97C1795.96,1767.16 1795.78,1766.28 1795.65,1765.4ZM1929.05,1832.51C1928.78,1833.23 1928.42,1833.93 1928.1,1834.63C1920.6,1834.84 1913.24,1836.74 1905.86,1837.99C1899.48,1839.07 1884.89,1843.5 1885.08,1844.04C1886.23,1847.16 1890.8,1850.77 1892.93,1853.28C1898.82,1860.24 1904.68,1867.2 1911.17,1873.63C1910.43,1875.31 1909.83,1876.89 1909.2,1878.43C1908.75,1877.86 1908.27,1877.31 1907.86,1876.8C1906.8,1875.44 1905.71,1874.11 1904.58,1872.81C1902.34,1870.22 1899.96,1867.72 1897.46,1865.38C1894.97,1863.05 1892.29,1861.01 1889.52,1859.04C1888.04,1857.98 1886.47,1856.98 1885.14,1855.74C1883.89,1854.57 1882.5,1853.67 1881.02,1852.81C1877.69,1850.85 1874.14,1849.24 1870.52,1847.89C1869.66,1847.57 1869.3,1848.93 1870.14,1849.26C1873.32,1850.51 1876.39,1852.01 1879.36,1853.7C1880.77,1854.52 1882.16,1855.42 1883.62,1856.15C1884.36,1856.52 1885.14,1856.78 1885.84,1857.22C1886.65,1857.72 1887.43,1858.3 1888.18,1858.89C1890.84,1860.96 1893.33,1863.34 1895.74,1865.7C1898.12,1868.03 1900.45,1870.41 1902.62,1872.94C1903.85,1874.35 1905.04,1875.8 1906.18,1877.29C1906.77,1878.05 1907.34,1878.82 1907.92,1879.59C1908.09,1879.82 1908.26,1880.05 1908.43,1880.28C1907.53,1882.29 1906.49,1884.26 1904.91,1886.3C1901.07,1891.28 1896.41,1895.66 1891.73,1899.9C1891.46,1899.46 1891.18,1899.05 1890.97,1898.7C1890.24,1897.45 1889.45,1896.23 1888.69,1894.99C1888.18,1894.16 1886.88,1894.91 1887.38,1895.76C1888.12,1897.01 1888.89,1898.23 1889.62,1899.49C1889.89,1899.96 1890.13,1900.55 1890.4,1901.11C1889.69,1901.75 1888.98,1902.39 1888.28,1903.02C1886.99,1904.19 1885.69,1905.34 1884.4,1906.47C1884.15,1906.02 1883.89,1905.6 1883.69,1905.26C1882.6,1903.41 1881.32,1901.67 1880.06,1899.93C1877.17,1895.92 1874.96,1891.5 1872.1,1887.46C1870.11,1884.64 1867.9,1881.99 1865.38,1879.63C1864.79,1879.08 1863.91,1879.95 1864.49,1880.52C1868.79,1884.68 1872.03,1889.68 1874.98,1894.85C1875.94,1896.55 1876.91,1898.18 1878.04,1899.77C1879.22,1901.42 1880.43,1903.06 1881.53,1904.77C1882.11,1905.66 1882.67,1906.58 1883.12,1907.54C1883.13,1907.55 1883.13,1907.56 1883.14,1907.57C1881.2,1909.24 1879.25,1910.88 1877.29,1912.48C1876.8,1912.09 1876.31,1911.69 1875.86,1911.25C1874.67,1910.08 1873.59,1908.8 1872.59,1907.46C1870.61,1904.78 1868.92,1901.9 1867.25,1899.02C1865.64,1896.22 1864.06,1893.4 1862.21,1890.76C1859.76,1887.23 1857.28,1883.72 1854.84,1880.18C1853.56,1878.32 1852.29,1876.46 1851.19,1874.48C1850.07,1872.49 1849.01,1870.45 1847.66,1868.6C1847.55,1868.46 1847.31,1868.59 1847.41,1868.75C1849.68,1872.2 1850.74,1876.26 1852.86,1879.8C1855.12,1883.56 1857.67,1887.15 1860.19,1890.74C1864.1,1896.31 1866.94,1902.57 1870.97,1908.07C1872.05,1909.53 1873.2,1910.94 1874.48,1912.23C1874.93,1912.68 1875.4,1913.16 1875.9,1913.61C1874.56,1914.7 1873.2,1915.77 1871.83,1916.82C1871.43,1916.41 1870.95,1916.04 1870.6,1915.69C1869.56,1914.67 1868.55,1913.62 1867.44,1912.67C1866.89,1912.19 1866.08,1912.97 1866.63,1913.48C1867.7,1914.47 1868.69,1915.55 1869.65,1916.65C1869.93,1916.97 1870.25,1917.39 1870.6,1917.77C1867.42,1920.2 1864.19,1922.54 1860.86,1924.82C1860.34,1924.31 1859.84,1923.77 1859.37,1923.19C1857.98,1921.5 1856.79,1919.68 1855.59,1917.85C1852.89,1913.72 1850.49,1909.44 1847.99,1905.18C1847.89,1905.01 1847.61,1905.13 1847.66,1905.32C1849.02,1910.21 1852.15,1914.54 1854.9,1918.74C1856.09,1920.56 1857.35,1922.35 1858.77,1924.01C1859.16,1924.47 1859.57,1924.95 1860.01,1925.41C1859.13,1926 1858.25,1926.59 1857.36,1927.18C1857.05,1926.91 1856.68,1926.67 1856.4,1926.38C1855.73,1925.71 1855.17,1924.94 1854.65,1924.15C1853.64,1922.66 1852.65,1921.16 1851.72,1919.61C1849.06,1915.16 1846.14,1910.99 1844.45,1906.03C1844.23,1905.39 1843.2,1905.66 1843.42,1906.32C1844.29,1908.93 1845.45,1911.43 1846.8,1913.84C1848.08,1916.11 1849.59,1918.2 1850.96,1920.4C1852,1922.08 1852.74,1923.91 1853.84,1925.55C1854.27,1926.19 1855.03,1927.42 1855.92,1928.12C1855.44,1928.43 1854.97,1928.74 1854.49,1929.05C1853.98,1928.73 1853.35,1928.58 1852.76,1928.63C1846.66,1922.87 1843.04,1914.08 1839.61,1906.62C1838.69,1904.62 1829.56,1884.2 1827.72,1888.15C1822.82,1888.42 1822.2,1909.66 1821.51,1912.97C1819.77,1921.38 1815.29,1929.66 1815.91,1938.44C1814.65,1938.36 1813.39,1938.31 1812.13,1938.3C1812.47,1937.54 1812.64,1936.68 1812.75,1935.87C1812.98,1934.24 1813.07,1932.58 1813.11,1930.94C1813.18,1927.69 1812.94,1924.43 1812.88,1921.17C1812.86,1920.22 1811.41,1920.22 1811.4,1921.17C1811.35,1924.32 1811.31,1927.46 1811.13,1930.61C1811.04,1932.17 1810.93,1933.72 1810.72,1935.27C1810.58,1936.25 1810.4,1937.29 1810.45,1938.29C1808.23,1938.31 1806,1938.4 1803.77,1938.52C1804.1,1937.06 1804.54,1935.63 1804.95,1934.19C1805.4,1932.56 1805.86,1930.94 1806.14,1929.27C1806.32,1928.25 1806.73,1926.98 1806.56,1925.94C1806.55,1925.82 1806.38,1925.82 1806.32,1925.91C1805.68,1926.95 1805.26,1928.29 1804.8,1929.42C1804.1,1931.11 1803.49,1932.83 1803,1934.6C1802.64,1935.9 1802.22,1937.26 1802.02,1938.62C1797.93,1938.86 1793.84,1939.13 1789.73,1939.12C1789.7,1936.31 1790.43,1933.46 1790.83,1930.72C1791.07,1929.05 1791.2,1927.37 1791.29,1925.68C1791.39,1923.71 1791.35,1921.67 1791.63,1919.73C1791.66,1919.53 1791.38,1919.35 1791.27,1919.57C1790.43,1921.27 1789.99,1922.93 1789.76,1924.81C1789.53,1926.72 1789.44,1928.65 1789.15,1930.55C1788.71,1933.35 1787.99,1936.24 1788.09,1939.1C1786.35,1939.06 1784.6,1938.96 1782.86,1938.77C1782.84,1938.77 1782.81,1938.76 1782.79,1938.76C1782.68,1938.44 1782.56,1938.12 1782.48,1937.82C1782.22,1936.77 1782.08,1935.7 1782.01,1934.62C1781.88,1932.41 1781.99,1930.19 1782.23,1927.99C1782.68,1923.71 1783.82,1919.49 1783.46,1915.17C1783.45,1915.05 1783.25,1915 1783.22,1915.14C1782.79,1917.25 1782.32,1919.33 1781.98,1921.46C1781.6,1923.74 1781.19,1926.02 1780.9,1928.31C1780.62,1930.6 1780.44,1932.92 1780.68,1935.22C1780.78,1936.22 1780.93,1937.21 1781.19,1938.18C1781.22,1938.31 1781.25,1938.45 1781.29,1938.59C1778.6,1938.28 1775.9,1937.88 1773.24,1937.32C1773.56,1935.83 1773.64,1934.25 1773.77,1932.76C1773.93,1930.89 1774.08,1929.01 1774.28,1927.14C1774.68,1923.36 1775.12,1919.58 1775.76,1915.83C1776.86,1909.44 1777.71,1902.98 1779.21,1896.66C1780.02,1893.25 1780.87,1889.75 1782.03,1886.43C1782.1,1886.21 1781.78,1886.09 1781.67,1886.28C1778.17,1891.77 1777.2,1898.23 1776.19,1904.56C1775.09,1911.5 1773.59,1918.42 1772.79,1925.41C1772.54,1927.52 1772.31,1929.66 1772.23,1931.79C1772.17,1933.52 1772.1,1935.4 1772.41,1937.14C1770.95,1936.81 1769.5,1936.43 1768.07,1935.99C1768.32,1934.58 1768.27,1933.2 1768.23,1931.72C1768.2,1930.04 1768.22,1928.35 1768.26,1926.67C1768.35,1923.13 1768.52,1919.61 1768.47,1916.07C1768.46,1915.13 1767,1915.13 1767.01,1916.07C1767.02,1919.67 1766.81,1923.26 1766.69,1926.86C1766.6,1929.69 1766.23,1932.93 1767.13,1935.7C1766.47,1935.48 1765.81,1935.24 1765.16,1934.99C1762.98,1934.16 1761.14,1932.88 1759.28,1931.67C1759.82,1929.3 1760.03,1926.78 1760.31,1924.38C1760.62,1921.63 1760.68,1918.84 1760.64,1916.07C1760.64,1915.96 1760.46,1915.93 1760.44,1916.05C1759.97,1918.83 1759.13,1921.54 1758.68,1924.33C1758.34,1926.45 1757.93,1928.75 1758.13,1930.93C1757.18,1930.34 1756.21,1929.79 1755.18,1929.36C1758.09,1917.88 1758.87,1905.87 1761.78,1894.34C1762.93,1889.79 1764,1884.88 1766.12,1880.76C1767,1879.02 1774.11,1870.89 1770.58,1868.95C1769.14,1868.15 1757.38,1882.32 1755.53,1884.48C1747.77,1893.54 1739.08,1901.89 1731.97,1911.47C1729.46,1910.5 1727.12,1909.19 1724.92,1907.64C1725.55,1907.17 1726.14,1906.52 1726.56,1906.15C1727.83,1905 1729.15,1903.9 1730.47,1902.79C1732.01,1901.47 1733.49,1900.09 1734.98,1898.71C1736.68,1897.13 1738.11,1895.67 1739.12,1893.55C1739.33,1893.12 1738.99,1892.63 1738.49,1892.74C1736.06,1893.29 1734.44,1894.72 1732.7,1896.43C1731.13,1897.97 1729.56,1899.51 1727.93,1900.98C1726.58,1902.2 1725.17,1903.48 1724.14,1904.98C1723.82,1905.44 1723.52,1905.95 1723.37,1906.49C1721.46,1905 1719.66,1903.34 1717.96,1901.56C1722.31,1896.55 1727.23,1892.07 1732.56,1888.11C1735.04,1886.26 1737.65,1884.58 1740.11,1882.69C1742.38,1880.94 1744.85,1878.97 1746.05,1876.3C1746.15,1876.07 1745.85,1875.77 1745.67,1876C1743.71,1878.49 1741.5,1880.64 1738.97,1882.55C1736.53,1884.41 1733.94,1886.06 1731.51,1887.94C1728.94,1889.92 1726.45,1892.05 1724.06,1894.24C1721.77,1896.33 1719.33,1898.57 1717.61,1901.18C1715.69,1899.14 1713.9,1896.96 1712.2,1894.71C1714.74,1892.87 1717.25,1891.01 1719.67,1889.01C1722.33,1886.82 1725.12,1884.62 1727.39,1882.02C1727.57,1881.82 1727.3,1881.57 1727.1,1881.73C1724.42,1883.85 1721.94,1886.21 1719.31,1888.39C1716.88,1890.42 1714.48,1892.48 1712.12,1894.6C1710.63,1892.62 1709.22,1890.6 1707.87,1888.6C1708.8,1888.27 1709.64,1887.66 1710.43,1887.08C1711.64,1886.17 1712.78,1885.16 1713.93,1884.17C1716.7,1881.79 1719.49,1879.43 1722.31,1877.13C1725.08,1874.87 1727.94,1872.78 1730.8,1870.66C1733.34,1868.79 1736.16,1866.93 1737.96,1864.3C1738.13,1864.06 1737.77,1863.81 1737.56,1864C1736.4,1865.05 1735.27,1866.13 1734.13,1867.21C1732.92,1868.35 1731.53,1869.29 1730.18,1870.26C1727.49,1872.2 1724.82,1874.16 1722.24,1876.24C1719.44,1878.49 1716.71,1880.81 1714,1883.17C1712.89,1884.13 1711.81,1885.12 1710.67,1886.04C1709.69,1886.83 1708.63,1887.49 1707.6,1888.19C1706.42,1886.42 1705.28,1884.68 1704.18,1882.99C1704.83,1881.55 1703.32,1879.94 1702.42,1879.08C1711.98,1866.32 1721.09,1849.53 1734.66,1840.52C1737.3,1838.77 1754.51,1833.52 1751.38,1829.16C1748.92,1825.73 1732.58,1834.44 1730.25,1837C1715.83,1838.01 1702.02,1843.25 1687.7,1844.69C1686.16,1841.2 1685.38,1837.35 1685.03,1833.36C1686.84,1834.74 1689.39,1834.89 1691.6,1834.94C1694.36,1834.99 1697,1834.59 1699.7,1834.07C1699.88,1834.03 1699.88,1833.72 1699.7,1833.69C1694.82,1832.81 1689.68,1834.47 1684.96,1832.53C1684.72,1829.17 1684.78,1825.73 1684.95,1822.35C1687.33,1822.84 1689.87,1822.38 1692.29,1822.71C1696.04,1823.23 1699.76,1823.89 1703.53,1824.27C1707.48,1824.67 1711.43,1824.73 1715.4,1824.65C1719.25,1824.57 1723.23,1824.72 1727,1823.9C1727.22,1823.85 1727.22,1823.51 1727,1823.46C1723.33,1822.67 1719.52,1823.11 1715.8,1823.18C1711.9,1823.25 1707.99,1823.22 1704.11,1822.9C1700.4,1822.59 1696.7,1822.11 1693.01,1821.66C1690.36,1821.34 1687.65,1821.8 1684.99,1821.65C1685.16,1818.59 1685.41,1815.59 1685.62,1812.76C1685.66,1812.16 1685.71,1811.57 1685.76,1810.97C1687.59,1811.44 1689.47,1811.76 1691.33,1812.11C1693.9,1812.6 1696.46,1813.06 1699.04,1813.44C1703.8,1814.15 1708.7,1814.74 1713.48,1813.91C1713.64,1813.89 1713.6,1813.64 1713.44,1813.64C1708.46,1813.66 1703.49,1813.32 1698.55,1812.61C1696.09,1812.26 1693.63,1811.83 1691.18,1811.39C1689.38,1811.07 1687.6,1810.7 1685.8,1810.5C1685.93,1808.89 1686.08,1807.28 1686.26,1805.67C1687.85,1806.24 1689.61,1806.32 1691.28,1806.39C1693.82,1806.51 1696.37,1806.41 1698.91,1806.27C1705.16,1805.93 1711.4,1805.79 1717.64,1805.55C1717.82,1805.54 1717.88,1805.25 1717.69,1805.22C1714.46,1804.61 1711.28,1804.7 1708,1804.85C1705.15,1804.99 1702.29,1805.17 1699.43,1805.35C1695.07,1805.62 1690.64,1805.93 1686.32,1805.17C1686.59,1802.78 1686.93,1800.41 1687.33,1798.04C1689.15,1798.53 1691.08,1798.63 1692.95,1798.67C1695.56,1798.71 1698.16,1798.6 1700.77,1798.68C1703.7,1798.77 1706.62,1799.17 1709.53,1799.52C1711.08,1799.71 1712.62,1799.92 1714.17,1800.11C1715.51,1800.27 1717.28,1800.57 1718.58,1800.13C1718.71,1800.09 1718.74,1799.91 1718.62,1799.84C1717.54,1799.21 1715.97,1799.09 1714.74,1798.91C1713.2,1798.69 1711.66,1798.52 1710.11,1798.33C1707.16,1797.98 1704.18,1797.66 1701.21,1797.62C1696.61,1797.56 1691.99,1798.09 1687.4,1797.65C1687.94,1794.6 1688.6,1791.59 1689.43,1788.62C1690.29,1785.52 1691.34,1780.75 1692.89,1777.01C1694.44,1777.06 1695.95,1777.09 1697.52,1777.4C1699.29,1777.76 1701.12,1778.32 1702.94,1778.27C1703.17,1778.26 1703.18,1777.98 1702.99,1777.9C1701.05,1777.09 1698.97,1776.52 1696.9,1776.17C1695.84,1775.99 1694.48,1775.82 1693.3,1776.08C1693.78,1775.05 1694.29,1774.14 1694.87,1773.39C1702.02,1774.35 1709.64,1773.53 1716.9,1774.18C1724.08,1774.82 1731.07,1775.05 1738.27,1774.95C1738.12,1778.32 1749.03,1783.95 1751.67,1782.86C1756.48,1780.89 1743.58,1774.87 1741.97,1774.09C1745,1770.25 1735.86,1766.03 1733.93,1764.38C1729.39,1760.5 1725.22,1756.21 1720.72,1752.29C1716.73,1748.82 1715.21,1748.35 1715.16,1743.17C1715.14,1740.94 1715.37,1738.64 1716.12,1736.55C1719.03,1739.95 1723.16,1742.3 1726.54,1745.17C1730.07,1748.15 1732.77,1751.94 1736.2,1755.02C1736.26,1755.07 1736.33,1755 1736.28,1754.94C1733.29,1751.44 1730.47,1747.77 1726.93,1744.78C1725.23,1743.33 1723.44,1742 1721.66,1740.65C1719.81,1739.23 1718.04,1737.73 1716.22,1736.27C1716.62,1735.23 1717.15,1734.24 1717.85,1733.35C1718.94,1731.95 1720.19,1730.57 1721.57,1729.22C1722.02,1730.16 1722.89,1730.83 1723.74,1731.41C1724.94,1732.23 1726.15,1732.9 1727.44,1733.56C1727.62,1733.66 1727.82,1733.47 1727.72,1733.28C1727.08,1732.05 1726.17,1731.26 1725.01,1730.52C1724.04,1729.91 1723.02,1729.25 1721.91,1728.88C1724.57,1726.32 1727.65,1723.86 1730.88,1721.55C1731.93,1723.31 1733.48,1724.73 1734.9,1726.19C1736.69,1728.02 1738.47,1729.88 1739.89,1732.02C1742.84,1736.47 1746.33,1740.41 1749.69,1744.53C1749.74,1744.59 1749.83,1744.51 1749.8,1744.45C1747.16,1739.76 1743.68,1735.62 1740.64,1731.19C1739.29,1729.23 1737.62,1727.54 1735.91,1725.89C1734.35,1724.37 1732.85,1722.77 1731.23,1721.3C1733.78,1719.49 1736.42,1717.76 1739,1716.15C1739.22,1716.54 1739.52,1716.91 1739.77,1717.27C1740.32,1718.08 1740.88,1718.88 1741.45,1719.68C1742.6,1721.31 1743.78,1722.91 1744.93,1724.53C1746.05,1726.1 1747.14,1727.69 1748.15,1729.33C1748.66,1730.16 1749.16,1731 1749.62,1731.86C1750.13,1732.79 1750.78,1733.52 1751.4,1734.36C1751.51,1734.51 1751.73,1734.43 1751.69,1734.24C1751.51,1733.35 1751.38,1732.48 1750.98,1731.66C1750.56,1730.79 1750.04,1729.95 1749.54,1729.12C1748.49,1727.37 1747.34,1725.68 1746.16,1724.02C1745.01,1722.39 1743.82,1720.79 1742.65,1719.19C1742.06,1718.39 1741.48,1717.6 1740.92,1716.8C1740.64,1716.41 1740.37,1715.92 1740.04,1715.5C1742.66,1713.89 1745.2,1712.39 1747.52,1711.03C1748.18,1710.64 1748.9,1710.22 1749.67,1709.77C1749.85,1710.45 1750.27,1711.1 1750.66,1711.66C1751.43,1712.79 1752.26,1714.06 1753.54,1714.66C1753.68,1714.73 1753.91,1714.61 1753.84,1714.43C1753.37,1713.16 1752.51,1712.13 1751.71,1711.05C1751.34,1710.55 1750.95,1710.07 1750.54,1709.61C1750.48,1709.54 1750.4,1709.47 1750.32,1709.4C1755.74,1706.27 1763.18,1702.27 1769.52,1701.16C1769.64,1701.45 1769.76,1701.72 1769.85,1701.98C1770.21,1703.04 1770.48,1704.11 1770.73,1705.2C1771.21,1707.35 1771.65,1709.49 1772.3,1711.6C1773.83,1716.59 1775.99,1721.39 1777.65,1726.35C1777.9,1727.08 1779.07,1726.77 1778.83,1726.02C1777.17,1720.93 1775.3,1715.93 1773.81,1710.79C1773.19,1708.64 1772.79,1706.44 1772.31,1704.26C1772.07,1703.19 1771.86,1702.1 1771.57,1701.03C1771.56,1700.99 1771.55,1700.95 1771.54,1700.91C1772.44,1700.84 1773.31,1700.85 1774.13,1700.94C1776.9,1701.43 1778.72,1711.06 1779.34,1712.85C1781.23,1718.29 1783.29,1723.68 1785,1729.18C1785.76,1731.63 1792.46,1756.41 1796.6,1751.54C1800.66,1754.63 1800.64,1744.86 1800.67,1743.32C1800.78,1737.39 1801.12,1731.48 1801.32,1725.56C1801.64,1715.81 1800.39,1705.77 1801.79,1696.09C1804.45,1695.59 1808.15,1695.17 1812.24,1695.03C1812.16,1695.67 1812.12,1696.29 1812.06,1696.75C1811.78,1698.75 1811.61,1700.76 1811.59,1702.78C1811.58,1704.26 1813.88,1704.26 1813.88,1702.78C1813.88,1700.79 1814.04,1698.79 1814.32,1696.82C1814.39,1696.3 1814.56,1695.65 1814.68,1694.98C1816.76,1694.97 1818.92,1695.03 1821.06,1695.19C1821.42,1702.04 1820.17,1708.93 1819.27,1715.68C1819.13,1716.75 1821.02,1717.02 1821.17,1715.94C1822.13,1709.11 1823.12,1702.32 1823.59,1695.44C1826.42,1695.76 1829.18,1696.29 1831.68,1697.06C1831.64,1697.31 1831.62,1697.58 1831.58,1697.83C1831.45,1698.6 1831.34,1699.37 1831.21,1700.13C1830.92,1701.86 1830.61,1703.58 1830.25,1705.29C1829.54,1708.68 1828.79,1712.06 1828.13,1715.46C1827.93,1716.51 1829.53,1716.96 1829.74,1715.91C1830.44,1712.45 1831.22,1709.01 1831.97,1705.56C1832.32,1703.92 1832.7,1702.28 1833.04,1700.64C1833.22,1699.76 1833.4,1698.87 1833.55,1697.98C1833.57,1697.89 1833.58,1697.8 1833.6,1697.72C1834.87,1698.21 1836.04,1698.77 1837.11,1699.42C1836.77,1700.54 1836.79,1702.29 1836.72,1702.74C1836.39,1705.05 1835.68,1707.31 1834.99,1709.54C1834.29,1711.8 1833.66,1714.07 1833.12,1716.37C1831.61,1722.77 1830.61,1729.25 1829.86,1735.78C1829.79,1736.42 1830.45,1736.95 1831.04,1736.95C1831.74,1736.96 1832.13,1736.41 1832.21,1735.78C1832.98,1729.99 1833.99,1724.22 1835.27,1718.52C1835.82,1716.05 1836.43,1713.61 1837.17,1711.2C1837.86,1708.96 1838.59,1706.72 1839.03,1704.41C1839.23,1703.4 1839.41,1702.34 1839.42,1701.31C1839.43,1701.25 1839.43,1701.2 1839.42,1701.14C1840.49,1702.11 1841.35,1703.22 1841.94,1704.49C1846.87,1715.04 1838.51,1730.54 1836.37,1741.12C1835.68,1744.49 1831.89,1758.46 1834.89,1761.13C1837.96,1763.86 1844.3,1753.77 1846.08,1751.76C1855.95,1740.59 1865.44,1729.06 1874.86,1717.61C1876.76,1718.97 1878.63,1720.27 1880.46,1721.57C1880.15,1722.04 1879.88,1722.54 1879.58,1723C1878.74,1724.24 1877.8,1725.41 1876.85,1726.57C1874.93,1728.91 1873.15,1731.31 1871.37,1733.76C1867.4,1739.24 1862.84,1744.25 1858.39,1749.34C1857.74,1750.08 1858.82,1751.17 1859.48,1750.43C1864,1745.37 1868.62,1740.39 1872.69,1734.96C1874.55,1732.47 1876.38,1730 1878.36,1727.59C1879.33,1726.4 1880.3,1725.2 1881.16,1723.92C1881.43,1723.53 1881.73,1723.1 1881.98,1722.65C1884.19,1724.22 1886.33,1725.78 1888.43,1727.41C1886.91,1728.49 1885.58,1729.87 1884.2,1731.1C1883.24,1731.95 1882.32,1732.81 1881.46,1733.76C1880.62,1734.71 1879.95,1735.77 1879.2,1736.79C1877.43,1739.19 1875.13,1741.05 1873.08,1743.19C1871.1,1745.25 1869.34,1747.56 1867.51,1749.75C1866.66,1750.77 1868.12,1752.24 1868.96,1751.21C1870.75,1749.03 1872.65,1746.9 1874.32,1744.63C1876.1,1742.21 1877.58,1739.57 1879.75,1737.46C1881.62,1735.64 1883.72,1734.04 1885.71,1732.37C1887.14,1731.16 1888.71,1729.99 1889.72,1728.43C1891.65,1729.98 1893.52,1731.58 1895.34,1733.31C1894.69,1733.79 1894.14,1734.38 1893.54,1735.05C1892.59,1736.1 1891.65,1737.15 1890.72,1738.21C1888.81,1740.39 1887.2,1742.83 1885.2,1744.92C1883.23,1746.96 1880.88,1748.59 1878.85,1750.56C1876.72,1752.64 1874.68,1754.82 1872.57,1756.92C1871.59,1757.9 1873.12,1759.43 1874.1,1758.44C1876.14,1756.38 1878.23,1754.33 1880.16,1752.15C1881.14,1751.05 1882.15,1749.92 1883,1748.71C1883.82,1747.55 1884.63,1746.37 1885.59,1745.31C1887.49,1743.23 1889.75,1741.51 1891.76,1739.52C1892.76,1738.53 1893.75,1737.53 1894.74,1736.53C1895.43,1735.85 1896.06,1735.23 1896.56,1734.49C1898.29,1736.2 1899.97,1738.04 1901.59,1740.04C1901.37,1740.27 1901.16,1740.49 1900.96,1740.7C1899.9,1741.73 1898.89,1742.81 1897.83,1743.84C1895.74,1745.87 1893.55,1747.79 1891.33,1749.69C1889.1,1751.6 1886.69,1753.29 1884.5,1755.27C1882.29,1757.28 1880.1,1759.32 1877.97,1761.42C1876.98,1762.39 1878.51,1763.92 1879.5,1762.94C1881.62,1760.83 1883.79,1758.78 1885.99,1756.76C1888.15,1754.78 1890.11,1752.6 1892.27,1750.62C1894.41,1748.65 1896.59,1746.7 1898.81,1744.82C1899.94,1743.86 1901.1,1742.93 1902.21,1741.95C1902.37,1741.8 1902.55,1741.65 1902.73,1741.49C1902.78,1741.56 1902.84,1741.62 1902.89,1741.69C1904.4,1743.69 1905.84,1745.7 1907.19,1747.75C1906.2,1747.97 1905.28,1748.57 1904.41,1749.09C1903.2,1749.81 1902.02,1750.6 1900.88,1751.44C1898.56,1753.12 1896.33,1754.93 1894.09,1756.73C1892.14,1758.29 1890.16,1759.74 1888.11,1761.17C1886.09,1762.59 1884.33,1764.05 1882.84,1766.02C1882.75,1766.13 1882.92,1766.24 1883.01,1766.16C1883.94,1765.36 1885.08,1764.83 1886.15,1764.22C1887.26,1763.59 1888.42,1763.01 1889.56,1762.42C1891.73,1761.31 1893.83,1760.14 1895.77,1758.64C1897.95,1756.96 1900.13,1755.26 1902.39,1753.69C1903.51,1752.91 1904.64,1752.15 1905.79,1751.45C1906.73,1750.88 1907.69,1750.44 1908.47,1749.71C1910.1,1752.3 1911.6,1754.93 1912.96,1757.63C1912.91,1757.66 1912.86,1757.69 1912.81,1757.71C1911.3,1758.55 1909.81,1759.44 1908.33,1760.35C1905.42,1762.14 1902.55,1763.98 1899.63,1765.73C1893.51,1769.42 1887.64,1773.48 1881.71,1777.47C1878.37,1779.71 1875.01,1781.93 1871.59,1784.06C1870.43,1784.78 1871.5,1786.63 1872.67,1785.9C1878.69,1782.16 1884.51,1778.11 1890.4,1774.17C1896.15,1770.3 1902.03,1766.64 1907.87,1762.89C1909.49,1761.85 1911.12,1760.82 1912.78,1759.84C1913.1,1759.65 1913.43,1759.46 1913.76,1759.27C1915.36,1762.61 1916.73,1766.05 1917.87,1769.62C1916.78,1770.21 1915.65,1770.75 1914.52,1771.26C1911.82,1772.49 1909.05,1773.56 1906.39,1774.86C1900.53,1777.72 1895.13,1781.47 1889.46,1784.68C1886.19,1786.53 1882.85,1788.26 1879.35,1789.67C1878.12,1790.16 1878.66,1792.2 1879.91,1791.69C1886.17,1789.19 1891.95,1785.74 1897.71,1782.27C1900.56,1780.55 1903.41,1778.8 1906.33,1777.18C1908.94,1775.73 1911.71,1774.59 1914.44,1773.37C1915.79,1772.77 1917.13,1772.15 1918.43,1771.46C1918.79,1772.66 1919.11,1773.88 1919.41,1775.12C1912.74,1779.68 1906.53,1784.8 1899.76,1789.24C1896.87,1791.14 1892.27,1793.23 1890.44,1796.22C1890.03,1796.89 1894.21,1800.18 1895.47,1800.23C1899.76,1800.41 1903.92,1801.78 1908.03,1802.92C1913.84,1804.52 1921.8,1808.06 1927.86,1807.91C1928.32,1810.09 1928.83,1812.43 1929.26,1814.84C1927.55,1814.18 1925.52,1814.34 1923.73,1814.27C1923.6,1814.26 1923.58,1814.45 1923.7,1814.49C1925.55,1814.98 1927.52,1814.97 1929.37,1815.43C1929.65,1817.07 1929.9,1818.73 1930.06,1820.4C1929.08,1820.21 1928.04,1820.3 1927.03,1820.27C1925.49,1820.23 1923.95,1820.18 1922.42,1820.11C1919.34,1819.96 1916.28,1819.68 1913.23,1819.3C1912.7,1819.23 1912.57,1820.16 1913.1,1820.24C1916.13,1820.69 1919.17,1821.05 1922.23,1821.3C1923.76,1821.42 1925.29,1821.52 1926.83,1821.57C1927.93,1821.6 1929.08,1821.75 1930.16,1821.53C1930.44,1825.35 1930.24,1829.13 1929.05,1832.51ZM1925.61,1842.54C1925.29,1844.36 1924.86,1846.09 1924.35,1847.76C1923.94,1847.55 1923.6,1847.27 1923.17,1847.08C1922.71,1846.88 1922.26,1846.67 1921.8,1846.5C1920.83,1846.14 1919.84,1845.83 1918.85,1845.55C1916.86,1844.99 1914.88,1844.37 1913.01,1843.48C1912.15,1843.06 1911.53,1844.18 1912.27,1844.74C1914.05,1846.06 1915.96,1847.13 1918.01,1847.96C1919.01,1848.37 1920.07,1848.7 1921.14,1848.88C1921.68,1848.97 1922.22,1849 1922.77,1849.04C1923.2,1849.06 1923.56,1848.97 1923.96,1848.94C1923.36,1850.75 1922.65,1852.48 1921.88,1854.18C1921.13,1853.83 1920.37,1853.5 1919.64,1853.13C1918.07,1852.34 1916.58,1851.4 1915.09,1850.45C1912.22,1848.63 1909.33,1846.72 1906.18,1845.4C1905.63,1845.17 1905.28,1846.07 1905.78,1846.36C1908.86,1848.14 1911.61,1850.39 1914.57,1852.35C1916.03,1853.31 1917.54,1854.21 1919.12,1854.95C1919.65,1855.2 1920.37,1855.57 1921.11,1855.81C1920.3,1857.49 1919.42,1859.14 1918.51,1860.8C1918.43,1860.68 1918.36,1860.57 1918.29,1860.48C1917.9,1859.89 1917.38,1859.37 1916.84,1858.92C1915.47,1857.79 1914,1856.79 1912.48,1855.87C1909.5,1854.06 1906.32,1852.62 1903.32,1850.84C1902.7,1850.48 1902.22,1851.37 1902.77,1851.78C1905.47,1853.76 1908.37,1855.46 1911.21,1857.22C1912.63,1858.11 1914.06,1859 1915.39,1860.01C1915.98,1860.46 1916.55,1860.92 1917.13,1861.37C1917.36,1861.54 1917.58,1861.74 1917.81,1861.9C1917.83,1861.91 1917.85,1861.92 1917.87,1861.94C1916.52,1864.37 1915.11,1866.81 1913.73,1869.38C1905.21,1861.74 1898.23,1852.59 1890.1,1844.57C1902.03,1843.76 1914.13,1838.59 1926.13,1839.21C1925.93,1840.32 1925.81,1841.44 1925.61,1842.54ZM1849.31,1932.23C1847.34,1933.58 1845.11,1934.62 1842.72,1935.43C1842.15,1932.96 1841.12,1930.54 1840.2,1928.21C1839.07,1925.35 1838.02,1922.46 1837,1919.56C1836.75,1918.85 1835.74,1919.14 1835.88,1919.87C1836.45,1922.95 1837.3,1925.97 1838.23,1928.95C1838.96,1931.29 1839.81,1933.78 1841.02,1935.97C1839.36,1936.45 1837.65,1936.84 1835.91,1937.17C1835.88,1936.13 1835.72,1935.04 1835.63,1934.12C1835.45,1932.3 1835.26,1930.49 1835.02,1928.68C1834.58,1925.21 1833.85,1921.69 1832.64,1918.4C1832.49,1917.99 1831.77,1918.01 1831.81,1918.52C1832.09,1922.02 1832.27,1925.55 1832.67,1929.05C1832.86,1930.78 1833.11,1932.51 1833.38,1934.23C1833.53,1935.2 1833.69,1936.41 1834.02,1937.5C1831.75,1937.87 1829.46,1938.14 1827.24,1938.4C1827.77,1937.29 1828.05,1936.05 1828.27,1934.85C1828.61,1932.99 1828.83,1931.11 1828.95,1929.23C1829.18,1925.65 1829.07,1921.96 1828.31,1918.44C1828.24,1918.12 1827.77,1918.21 1827.75,1918.52C1827.35,1925.25 1827.09,1931.96 1825.68,1938.57C1823.98,1938.76 1822.33,1938.94 1820.76,1939.14C1819.42,1933.22 1822.23,1926.49 1823.78,1920.88C1826.43,1911.29 1826.59,1901.35 1828.75,1891.65C1834.88,1905.62 1840.41,1919.74 1849.58,1932.03C1849.5,1932.11 1849.41,1932.17 1849.31,1932.23ZM1751.96,1928.04C1749.57,1926.99 1747.6,1925.78 1745.83,1924.46C1745.88,1924.31 1745.93,1924.17 1745.97,1924.04C1746.17,1923.35 1746.39,1922.68 1746.64,1922.02C1747.25,1920.37 1748.01,1918.77 1748.77,1917.19C1749.56,1915.58 1750.3,1913.94 1750.97,1912.28C1751.54,1910.85 1752.14,1909.39 1752.34,1907.86C1752.44,1907.17 1751.58,1906.93 1751.31,1907.57C1749.94,1910.82 1748.04,1913.81 1746.56,1917C1745.84,1918.57 1745.14,1920.16 1744.72,1921.84C1744.6,1922.33 1744.49,1922.85 1744.45,1923.36C1743.13,1922.26 1741.91,1921.08 1740.7,1919.83C1741.18,1918.99 1741.56,1918.06 1741.96,1917.22C1742.71,1915.66 1743.42,1914.07 1744.1,1912.48C1745.39,1909.4 1746.56,1906.28 1746.77,1902.92C1746.8,1902.51 1746.21,1902.46 1746.09,1902.82C1745.1,1905.96 1743.77,1909 1742.52,1912.04C1741.89,1913.58 1741.24,1915.12 1740.7,1916.69C1740.44,1917.43 1740.12,1918.22 1739.92,1919.03C1738.43,1917.47 1736.91,1915.81 1735.17,1914.06C1735.17,1913.85 1735.13,1913.65 1735.07,1913.46C1742.82,1905.03 1750.65,1896.72 1758.62,1888.48C1755.86,1898.5 1754.05,1908.8 1752.82,1919.11C1752.47,1922.03 1752,1925.06 1751.96,1928.04ZM1694.64,1868.36C1694.8,1868.23 1694.95,1868.08 1695.08,1867.97C1695.66,1867.49 1696.22,1866.97 1696.78,1866.46C1698.04,1865.31 1699.37,1864.23 1700.69,1863.14C1703.28,1861.01 1706.13,1858.69 1707.86,1855.77C1708.17,1855.24 1707.49,1854.81 1707.07,1855.15C1704.33,1857.35 1701.54,1859.49 1698.86,1861.76C1697.61,1862.83 1696.37,1863.92 1695.27,1865.15C1694.81,1865.66 1694.34,1866.23 1693.99,1866.83C1693.35,1865.19 1692.77,1863.51 1692.24,1861.83C1695.34,1861.02 1697.89,1859.15 1700.47,1857.28C1703.17,1855.31 1705.89,1853.3 1708.38,1851.07C1708.74,1850.74 1708.36,1850.03 1707.89,1850.22C1704.84,1851.43 1702.22,1853.53 1699.61,1855.46C1697.09,1857.32 1694.51,1859.1 1691.96,1860.91C1691.37,1858.94 1690.84,1856.98 1690.35,1855.13C1691.44,1855.29 1692.34,1855.3 1693.48,1855.03C1695.04,1854.66 1696.52,1853.98 1697.96,1853.29C1700.71,1851.98 1703.22,1850.22 1705.84,1848.67C1706.32,1848.39 1705.9,1847.73 1705.41,1847.95C1702.79,1849.09 1700.2,1850.34 1697.61,1851.57C1696.23,1852.23 1694.84,1852.85 1693.43,1853.43C1692.84,1853.67 1692.24,1853.89 1691.65,1854.12C1691.16,1854.3 1690.73,1854.56 1690.23,1854.69C1690.02,1853.89 1689.81,1853.11 1689.61,1852.36C1689.27,1851.11 1688.96,1849.84 1688.67,1848.58C1700.96,1848.02 1714.2,1844.14 1726.25,1841.58C1716.83,1852.78 1708.3,1864.63 1699.66,1876.39C1697.6,1874.22 1695.98,1871.42 1694.64,1868.36ZM1695.53,1768.29C1695.89,1767.27 1696.3,1766.29 1696.76,1765.34C1696.97,1765.43 1697.2,1765.51 1697.42,1765.58C1698.63,1765.98 1699.89,1766.22 1701.13,1766.52C1702.9,1766.96 1704.66,1767.44 1706.45,1767.83C1708.33,1768.23 1710.24,1768.49 1712.13,1768.83C1712.48,1768.89 1712.77,1768.38 1712.39,1768.21C1710.73,1767.45 1709.07,1766.65 1707.34,1766.06C1705.61,1765.47 1703.85,1765.01 1702.07,1764.57C1700.78,1764.26 1699.47,1764.09 1698.14,1763.97C1697.93,1763.95 1697.72,1763.91 1697.5,1763.87C1698.41,1762.19 1699.44,1760.6 1700.55,1759.05C1700.87,1759.14 1701.2,1759.18 1701.52,1759.26C1702.33,1759.45 1703.13,1759.72 1703.92,1759.99C1705.76,1760.63 1707.56,1761.38 1709.34,1762.18C1711.16,1763 1712.94,1763.88 1714.78,1764.63C1716.39,1765.29 1718.23,1766.07 1719.95,1766.35C1720.18,1766.39 1720.44,1766.1 1720.21,1765.92C1718.83,1764.81 1717.16,1763.87 1715.64,1762.96C1713.81,1761.85 1711.86,1760.94 1709.9,1760.07C1708.07,1759.25 1706.17,1758.45 1704.21,1757.98C1703.4,1757.79 1702.58,1757.65 1701.75,1757.58C1701.72,1757.58 1701.68,1757.57 1701.65,1757.57C1702.69,1756.21 1703.77,1754.89 1704.86,1753.57C1705.12,1753.73 1705.41,1753.86 1705.65,1754.01C1706.82,1754.72 1708.03,1755.38 1709.21,1756.07C1711.46,1757.4 1713.79,1758.58 1716.32,1759.27C1716.75,1759.39 1716.98,1758.8 1716.62,1758.57C1715.55,1757.88 1714.58,1757.01 1713.55,1756.26C1712.21,1755.27 1710.76,1754.43 1709.26,1753.69C1708.18,1753.15 1707.07,1752.57 1705.88,1752.34C1706.99,1751 1708.1,1749.66 1709.17,1748.28C1718.33,1755.06 1725.67,1763.91 1734.63,1770.91C1727.78,1771.06 1720.98,1770.54 1714.15,1770.05C1707.9,1769.61 1701.1,1770.92 1695,1769.98C1695.17,1769.41 1695.33,1768.84 1695.53,1768.29ZM1782.61,1699.1C1782.61,1699.28 1782.61,1699.45 1782.62,1699.64C1782.68,1700.39 1782.81,1701.14 1782.95,1701.88C1783.3,1703.64 1783.76,1705.37 1784.23,1707.1C1785.16,1710.59 1786.45,1713.97 1787.02,1717.55C1787.06,1717.79 1787.46,1717.74 1787.45,1717.5C1787.2,1714.04 1786.5,1710.6 1785.62,1707.25C1785.18,1705.55 1784.69,1703.86 1784.31,1702.15C1784.14,1701.36 1783.97,1700.56 1783.82,1699.77C1783.77,1699.48 1783.69,1699.2 1783.62,1698.92C1783.7,1698.9 1783.79,1698.88 1783.88,1698.87C1785.18,1698.63 1786.43,1698.43 1787.66,1698.29C1787.61,1699.7 1787.69,1701.12 1787.74,1702.5C1787.83,1705.02 1788.04,1707.55 1788.32,1710.06C1788.59,1712.45 1788.88,1714.89 1789.39,1717.25C1789.92,1719.72 1790.24,1722.4 1791.15,1724.77C1791.27,1725.07 1791.71,1725.04 1791.72,1724.7C1791.84,1722.29 1791.38,1719.79 1791.18,1717.39C1790.98,1714.88 1790.67,1712.37 1790.38,1709.86C1790.1,1707.41 1789.87,1704.96 1789.64,1702.5C1789.51,1701.06 1789.45,1699.58 1789.31,1698.13C1790.34,1698.05 1791.35,1698.01 1792.36,1698.02C1792.32,1698.87 1792.29,1699.71 1792.28,1700.56C1792.25,1702.99 1792.31,1705.43 1792.46,1707.86C1792.63,1710.39 1792.92,1712.92 1793.26,1715.42C1793.57,1717.73 1793.77,1720.08 1794.14,1722.38C1794.2,1722.72 1794.72,1722.62 1794.73,1722.3C1794.83,1719.9 1794.78,1717.48 1794.79,1715.08C1794.79,1712.62 1794.86,1710.15 1794.78,1707.69C1794.7,1705.31 1794.55,1702.93 1794.38,1700.56C1794.32,1699.74 1794.25,1698.92 1794.18,1698.1C1795.43,1698.18 1796.69,1698.34 1797.99,1698.59C1796.24,1714.68 1798.81,1731.52 1796.12,1747.51C1791.96,1740.32 1790.31,1731.91 1787.54,1724.15C1784.65,1716.04 1781.3,1708.12 1778.77,1699.88C1780.05,1699.6 1781.34,1699.34 1782.61,1699.1ZM1847.13,1705.17C1848.12,1705.85 1849.31,1706.3 1850.58,1706.64C1850.62,1707.82 1850.26,1709.06 1850.01,1710.19C1849.61,1712 1849.12,1713.78 1848.65,1715.57C1847.86,1718.56 1846.99,1721.58 1846.29,1724.6C1846.2,1725 1846.72,1725.21 1846.94,1724.88C1847.7,1723.78 1848.27,1722.54 1848.79,1721.32C1849.53,1719.55 1850.29,1717.77 1850.88,1715.94C1851.46,1714.1 1851.91,1712.2 1852.16,1710.28C1852.3,1709.21 1852.36,1708.09 1852.18,1707.02C1854.21,1707.45 1856.32,1707.74 1858.12,1708.35C1855.46,1711.92 1853.25,1715.94 1851.23,1719.85C1848.89,1724.37 1846.91,1729.26 1845.78,1734.23C1845.71,1734.56 1846.17,1734.68 1846.29,1734.37C1848.17,1729.62 1850.41,1725.08 1852.79,1720.56C1854.88,1716.57 1857.35,1712.83 1859.67,1708.98C1861.19,1709.66 1862.57,1710.5 1863.86,1711.45C1862.89,1711.9 1862.04,1712.88 1861.41,1713.65C1860.5,1714.76 1859.7,1715.96 1858.99,1717.22C1858.26,1718.53 1857.6,1719.89 1856.92,1721.23C1856.25,1722.57 1855.47,1723.83 1854.77,1725.14C1854.6,1725.45 1855,1725.76 1855.26,1725.52C1857.29,1723.64 1858.61,1720.83 1859.97,1718.46C1860.68,1717.22 1861.4,1715.97 1862.25,1714.82C1862.67,1714.24 1863.14,1713.68 1863.62,1713.14C1863.96,1712.75 1864.33,1712.42 1864.63,1712.02C1866.58,1713.54 1868.35,1715.3 1870.13,1717.16C1866.99,1723.16 1860.89,1728.81 1856.53,1733.98C1850.72,1740.88 1844.59,1747.5 1838.77,1754.39C1838.94,1739.82 1844.74,1725.86 1846.75,1711.54C1846.98,1709.86 1847.44,1706.96 1847.13,1705.17ZM1924.4,1786.44C1923.41,1787 1922.09,1787.4 1921.02,1787.73C1919.85,1788.09 1918.67,1788.32 1917.46,1788.53C1915.05,1788.95 1912.53,1789.17 1910.18,1789.87C1909.93,1789.94 1909.96,1790.37 1910.24,1790.35C1912.87,1790.13 1915.53,1790.23 1918.13,1789.86C1919.43,1789.68 1920.72,1789.4 1921.93,1788.9C1923.09,1788.42 1923.76,1787.79 1924.52,1786.92C1924.86,1788.19 1925.16,1789.47 1925.4,1790.76C1923.93,1790.8 1922.42,1791.06 1920.97,1791.23C1919.06,1791.44 1917.15,1791.7 1915.25,1792.02C1912.28,1792.51 1908.98,1792.92 1906.57,1794.83C1906.47,1794.91 1906.6,1795.04 1906.7,1794.99C1907.84,1794.46 1909.31,1794.22 1910.54,1793.95C1912.28,1793.55 1914.03,1793.23 1915.8,1792.97C1917.65,1792.7 1919.5,1792.49 1921.36,1792.3C1922.76,1792.15 1924.21,1792.12 1925.61,1791.9C1926.14,1795.17 1926.29,1798.48 1925.64,1801.91C1915.89,1801.63 1906.69,1796.87 1896.98,1796.13C1905.35,1790.21 1913.76,1784.46 1922.29,1778.92C1922.98,1781.45 1923.74,1783.94 1924.4,1786.44ZM1934.6,1823.67C1934.49,1819.18 1933.84,1814.73 1932.41,1810.48C1930.88,1805.93 1931.28,1803.81 1931.2,1798.87C1931.09,1792.29 1929.16,1779.33 1924.2,1774.29C1924.21,1761.83 1911.97,1746.17 1904.47,1736.9C1900.35,1731.81 1895.76,1727.1 1890.6,1723.07C1887.32,1720.51 1879.61,1713.68 1874.95,1714.45C1866.99,1704.91 1852.91,1703.17 1842.35,1697.43C1834.75,1693.3 1826.63,1692.34 1818.1,1692.03C1813.92,1691.88 1803.92,1690.82 1800.16,1693.46C1794.33,1689.59 1781.21,1695.83 1775.31,1697.12C1773.53,1697.51 1771.77,1697.93 1770.03,1698.37C1769.79,1698.3 1769.55,1698.38 1769.36,1698.54C1762.05,1700.45 1755.04,1702.94 1748.18,1706.65C1731.36,1715.74 1712.54,1729.35 1704.09,1746.64C1700.7,1754.18 1690.72,1760.53 1691.16,1769.73C1689.43,1771.41 1688.32,1778.98 1687.49,1781.33C1685.12,1788.11 1683.63,1795.11 1682.68,1802.22C1680.97,1815.08 1677.72,1834.32 1684.5,1846.21C1683.58,1849.73 1686.04,1855.02 1687.01,1858.29C1688.67,1863.95 1690.55,1869.7 1693.35,1874.91C1697.8,1883.16 1704.41,1891.82 1710.44,1899.07C1716.6,1906.49 1724.25,1910.6 1731.39,1916.61C1736.85,1921.2 1739.75,1927.02 1746.39,1930.61C1766.6,1941.55 1786.64,1943.53 1809.43,1943.51C1815.62,1943.51 1821.51,1943.24 1827.7,1942.45C1834.12,1941.62 1854.02,1940.48 1855.69,1932.27C1868.74,1926.49 1879.42,1916.68 1890.11,1907.32C1899.91,1898.74 1921.66,1865.74 1923.13,1862.94C1926.58,1856.36 1932.39,1839.71 1932.51,1838.37C1932.97,1833.29 1934.72,1829.04 1934.6,1823.67ZM1932.47,1838.81C1932.46,1838.88 1932.46,1838.87 1932.47,1838.81ZM1840.11,1834.99C1839.02,1838.27 1838.17,1841.67 1835.67,1843.97C1834.09,1845.42 1832.11,1846.5 1830.32,1847.65C1828.24,1848.97 1826.16,1850.29 1824.13,1851.68C1822.41,1852.87 1820.75,1854.15 1818.9,1855.14C1817.5,1855.89 1816.03,1856.34 1814.49,1856.37C1812.39,1856.4 1810.3,1855.81 1808.24,1855.46C1805.85,1855.06 1803.46,1854.66 1801.12,1854.05C1798.92,1853.47 1796.73,1852.91 1794.52,1852.4C1792.47,1851.93 1790.34,1851.48 1788.42,1850.62C1784.73,1848.99 1782,1845.64 1779.32,1842.74C1776.59,1839.8 1773.77,1836.88 1771.72,1833.4C1770.77,1831.8 1770,1830.1 1769.53,1828.29C1769.27,1827.28 1769.15,1826.25 1769.11,1825.22C1769.35,1824.8 1769.51,1824.35 1769.46,1823.89C1769.41,1823.51 1769.29,1823.18 1769.1,1822.91C1769.1,1822.63 1769.11,1822.34 1769.12,1822.06C1769.19,1819.6 1769.46,1817.15 1769.33,1814.69C1769.23,1812.8 1768.64,1801.99 1769.44,1800.69C1769.5,1800.58 1771.41,1798.56 1773.31,1796.56C1773.31,1796.57 1773.32,1796.57 1773.33,1796.57C1773.54,1796.72 1773.74,1796.43 1773.61,1796.24C1775.36,1794.39 1777.01,1792.65 1777.08,1792.55C1777.09,1792.53 1777.11,1792.51 1777.13,1792.49C1777.28,1792.31 1777.43,1792.12 1777.58,1791.94C1778.24,1791.15 1778.9,1790.35 1779.56,1789.56C1782.13,1786.51 1784.82,1783.36 1788.32,1781.34C1792,1779.23 1796.13,1778.2 1800.36,1778.14C1804.68,1778.07 1808.79,1779 1812.97,1779.98C1816.49,1780.81 1820.06,1781.48 1823.51,1782.6C1826.56,1783.58 1829.51,1785.02 1832.01,1787.21C1835.01,1789.86 1837.31,1793.19 1839.1,1796.75C1842.89,1804.29 1844.27,1813.3 1843.33,1821.65C1842.81,1826.19 1841.56,1830.66 1840.11,1834.99ZM1859.22,1849.73C1857.31,1848.61 1855.35,1847.59 1853.35,1846.63C1851.44,1845.71 1849.5,1844.83 1847.57,1843.92C1846.62,1843.47 1845.67,1843.02 1844.72,1842.54C1844.1,1842.23 1843.3,1841.63 1842.57,1841.59C1843.07,1840.38 1843.49,1839.13 1843.91,1837.9C1844.02,1837.58 1844.13,1837.27 1844.24,1836.96C1846.91,1839.08 1850.09,1840.53 1853.18,1841.95C1854.88,1842.73 1856.59,1843.47 1858.28,1844.28C1860,1845.11 1861.66,1846.05 1863.37,1846.89C1863.5,1846.95 1863.64,1846.79 1863.53,1846.68C1860.97,1844.19 1857.33,1842.83 1854.08,1841.47C1850.72,1840.06 1847.42,1838.58 1844.36,1836.59C1845,1834.71 1845.6,1832.81 1846.12,1830.89C1846.39,1829.89 1846.63,1828.88 1846.85,1827.86C1849.09,1828.08 1851.32,1828.29 1853.55,1828.75C1856.14,1829.28 1858.71,1829.79 1861.33,1830.07C1861.44,1830.08 1861.46,1829.91 1861.36,1829.89C1858.59,1829.17 1855.86,1828.37 1853.04,1827.87C1851.09,1827.53 1849,1827.15 1846.98,1827.24C1847.24,1825.95 1847.46,1824.66 1847.64,1823.36C1848.1,1823.43 1848.57,1823.5 1849.03,1823.58C1850.16,1823.79 1851.29,1823.99 1852.43,1824.18C1854.58,1824.54 1856.75,1824.95 1858.93,1824.71C1859.07,1824.69 1859.13,1824.48 1858.97,1824.45C1856.75,1824 1854.48,1823.8 1852.24,1823.44C1851.16,1823.27 1850.09,1823.09 1849.01,1822.94C1848.58,1822.88 1848.15,1822.8 1847.72,1822.74C1847.85,1821.66 1847.96,1820.58 1848.02,1819.51C1848.68,1819.68 1849.39,1819.73 1849.98,1819.8C1851.14,1819.96 1852.31,1820.03 1853.47,1820.04C1856.14,1820.08 1858.79,1819.81 1861.44,1819.63C1867.2,1819.22 1873.04,1819.48 1878.77,1818.7C1878.88,1818.68 1878.88,1818.48 1878.77,1818.46C1875.9,1818.07 1873.03,1818.09 1870.15,1818.11C1867.35,1818.13 1864.55,1818.18 1861.76,1818.33C1859.23,1818.48 1856.7,1818.7 1854.16,1818.74C1852.93,1818.77 1851.69,1818.74 1850.47,1818.62C1849.73,1818.55 1848.89,1818.28 1848.09,1818.17C1848.29,1812.98 1847.71,1807.78 1846.21,1802.69C1846.1,1802.31 1845.98,1801.92 1845.85,1801.53C1846.31,1801.28 1846.76,1801.02 1847.2,1800.75C1848.15,1800.14 1848.82,1799.56 1849.57,1798.71C1849.76,1798.49 1849.58,1798.04 1849.25,1798.16C1848.13,1798.58 1847.16,1798.94 1846.15,1799.61C1845.88,1799.79 1845.64,1799.98 1845.4,1800.19C1844.97,1798.95 1844.49,1797.73 1843.95,1796.52C1846.48,1795.84 1848.75,1793.98 1850.68,1792.32C1853.02,1790.31 1855.29,1788.3 1857.78,1786.48C1863.35,1782.39 1869.34,1778.49 1873.88,1773.23C1874.12,1772.95 1873.8,1772.44 1873.46,1772.68C1867.87,1776.68 1862.46,1780.95 1856.95,1785.06C1854.54,1786.86 1852.31,1788.79 1850.06,1790.79C1847.99,1792.62 1845.86,1794.18 1843.55,1795.63C1842.9,1794.26 1842.19,1792.91 1841.4,1791.62C1841.82,1791.1 1842.17,1790.5 1842.58,1790.01C1843.36,1789.08 1844.23,1788.21 1845.1,1787.36C1846.92,1785.58 1848.88,1783.93 1850.67,1782.12C1852.85,1779.93 1854.84,1777.55 1856.99,1775.33C1858.13,1774.15 1859.29,1772.98 1860.37,1771.75C1861.48,1770.47 1862.4,1769.1 1863.36,1767.71C1863.54,1767.45 1863.16,1767.22 1862.95,1767.4C1861.57,1768.52 1860.15,1769.55 1858.85,1770.77C1857.65,1771.89 1856.51,1773.07 1855.37,1774.24C1853.18,1776.49 1851.15,1778.9 1848.97,1781.15C1847.15,1783.04 1845.2,1784.8 1843.44,1786.75C1842.64,1787.65 1841.89,1788.6 1841.26,1789.63C1841.08,1789.91 1840.89,1790.23 1840.74,1790.57C1839.88,1789.25 1838.94,1787.99 1837.91,1786.81C1839.22,1785.56 1840.39,1784.24 1841.55,1782.8C1842.95,1781.07 1844.34,1779.29 1845.42,1777.35C1845.56,1777.08 1845.25,1776.68 1844.97,1776.9C1841.83,1779.31 1839.27,1782.69 1837.35,1786.18C1836.29,1785.02 1835.14,1783.94 1833.9,1782.96C1835.99,1780.74 1837.85,1778.27 1839.87,1775.99C1841.73,1773.89 1843.55,1771.76 1845.51,1769.75C1848.68,1766.5 1852.7,1763.09 1853.1,1758.28C1853.12,1758.09 1852.82,1758.06 1852.77,1758.24C1852.15,1760.35 1850.34,1762.31 1848.98,1763.98C1847.44,1765.88 1845.72,1767.63 1844.05,1769.42C1842.14,1771.48 1840.41,1773.69 1838.67,1775.89C1836.92,1778.1 1835.01,1780.26 1833.4,1782.59C1832.81,1782.14 1832.19,1781.72 1831.56,1781.32C1828.43,1779.37 1824.89,1778.17 1821.33,1777.27C1820.13,1776.96 1818.92,1776.66 1817.7,1776.36C1818.14,1775.24 1818.58,1774.14 1818.91,1772.95C1819.38,1771.27 1819.76,1769.56 1820.12,1767.85C1820.83,1764.5 1821.56,1761.04 1821.07,1757.62C1821.03,1757.35 1820.68,1757.43 1820.6,1757.62C1819.28,1760.89 1818.88,1764.46 1818.23,1767.91C1817.91,1769.64 1817.58,1771.36 1817.31,1773.09C1817.15,1774.13 1817.08,1775.16 1817,1776.19C1815.84,1775.91 1814.68,1775.64 1813.52,1775.38C1813.53,1775.14 1813.53,1774.9 1813.55,1774.66C1813.66,1773.15 1814.04,1771.68 1814.4,1770.22C1815.07,1767.47 1815.85,1764.74 1815.62,1761.88C1815.6,1761.7 1815.3,1761.62 1815.27,1761.83C1814.7,1764.83 1813.36,1767.66 1812.66,1770.64C1812.39,1771.78 1811.97,1773.46 1811.95,1775.04C1811.17,1774.87 1810.38,1774.71 1809.6,1774.55C1810.1,1772.93 1809.53,1770.68 1809.43,1769.22C1809.21,1766.33 1809.58,1763.31 1809.81,1760.42C1810.04,1757.38 1810.41,1754.36 1810.69,1751.33C1810.83,1749.8 1810.97,1748.26 1811.05,1746.73C1811.13,1745.09 1810.91,1743.62 1810.58,1742.02C1810.53,1741.77 1810.14,1741.77 1810.09,1742.02C1809.79,1743.47 1809.47,1744.85 1809.36,1746.35C1809.25,1747.88 1809.16,1749.41 1809.01,1750.94C1808.74,1753.92 1808.37,1756.89 1808.12,1759.86C1807.88,1762.67 1807.53,1765.6 1807.66,1768.42C1807.72,1769.73 1807.96,1771.02 1808.05,1772.32C1808.1,1772.96 1808.07,1773.62 1808.09,1774.28C1803.34,1773.49 1798.47,1773.43 1793.86,1774.44C1793.76,1773.39 1793.37,1772.33 1793.1,1771.34C1792.73,1769.97 1792.38,1768.6 1791.99,1767.24C1791.21,1764.52 1790.32,1761.84 1789.46,1759.15C1789.41,1759.02 1789.21,1759.04 1789.22,1759.18C1789.26,1761.97 1789.6,1764.81 1790.21,1767.53C1790.52,1768.91 1790.9,1770.27 1791.29,1771.64C1791.58,1772.67 1791.79,1773.85 1792.27,1774.84C1791.58,1775.03 1790.9,1775.25 1790.23,1775.5C1790.25,1775.38 1790.26,1775.26 1790.24,1775.13C1790.02,1773.54 1789.24,1771.97 1788.61,1770.51C1787.88,1768.83 1787.17,1767.16 1786.55,1765.43C1785.31,1761.99 1784.29,1758.47 1783.06,1755.03C1782.65,1753.88 1780.8,1754.37 1781.22,1755.54C1782.44,1758.98 1783.46,1762.5 1784.68,1765.95C1785.25,1767.54 1785.89,1769.11 1786.57,1770.66C1787.29,1772.3 1787.83,1773.95 1788.43,1775.63C1788.51,1775.83 1788.62,1775.98 1788.75,1776.09C1787.9,1776.46 1787.07,1776.87 1786.26,1777.33C1786,1776.77 1785.67,1776.23 1785.41,1775.7C1784.77,1774.41 1784.07,1773.16 1783.41,1771.88C1782.07,1769.28 1780.99,1766.6 1779.87,1763.91C1777.69,1758.67 1774.98,1753.59 1772.21,1748.65C1771.79,1747.91 1770.67,1748.57 1771.07,1749.31C1773.8,1754.39 1776.06,1759.69 1778.71,1764.81C1780.05,1767.4 1781.37,1769.97 1782.5,1772.67C1783.01,1773.88 1783.49,1775.1 1784.05,1776.28C1784.33,1776.88 1784.58,1777.55 1784.91,1778.16C1784.7,1778.3 1784.49,1778.44 1784.28,1778.58C1783.48,1777.46 1782.55,1776.38 1781.73,1775.35C1780.51,1773.83 1779.24,1772.33 1777.94,1770.88C1777.2,1770.07 1776.05,1771.26 1776.74,1772.08C1778.01,1773.57 1779.12,1775.13 1780.24,1776.72C1780.98,1777.77 1781.68,1778.92 1782.47,1779.97C1781.51,1780.78 1780.6,1781.65 1779.72,1782.55C1779.21,1781.86 1778.69,1781.17 1778.15,1780.5C1776.92,1778.93 1775.64,1777.4 1774.35,1775.88C1771.75,1772.81 1769.06,1769.79 1766.61,1766.59C1766.01,1765.8 1764.66,1766.57 1765.27,1767.37C1767.68,1770.55 1770.3,1773.55 1772.87,1776.59C1774.19,1778.16 1775.5,1779.73 1776.73,1781.37C1777.3,1782.13 1777.86,1782.9 1778.4,1783.68C1778.43,1783.73 1778.47,1783.79 1778.51,1783.84C1777.5,1784.95 1776.54,1786.09 1775.59,1787.24C1775.37,1787.04 1775.14,1786.83 1774.91,1786.62C1773.82,1785.58 1772.76,1784.5 1771.69,1783.43C1770.85,1782.6 1769.56,1783.89 1770.39,1784.73C1771.5,1785.85 1772.6,1786.98 1773.73,1788.07C1773.95,1788.29 1774.17,1788.51 1774.4,1788.72C1774.21,1788.94 1774.02,1789.17 1773.84,1789.4C1773.6,1789.7 1773.27,1790.1 1772.87,1790.57C1771.46,1788.23 1769.05,1786.4 1767.08,1784.61C1764.7,1782.44 1762.33,1780.29 1760.06,1778.02C1757.8,1775.76 1755.27,1773.78 1753.04,1771.48C1751.25,1769.61 1749.81,1767.42 1747.48,1766.15C1747.16,1765.97 1746.93,1766.41 1747.2,1766.62C1749.33,1768.19 1750.34,1770.99 1752.07,1772.96C1754.19,1775.36 1756.72,1777.35 1758.94,1779.65C1761.13,1781.91 1763.48,1784.01 1765.82,1786.12C1767.82,1787.92 1769.71,1790.12 1771.99,1791.61C1771.59,1792.08 1771.15,1792.59 1770.7,1793.12C1769.33,1791.72 1767.91,1790.37 1766.44,1789.1C1765.23,1788.06 1764,1787.02 1762.7,1786.09C1761.47,1785.21 1760.01,1784.17 1758.49,1783.88C1758.29,1783.84 1758.15,1784.07 1758.29,1784.23C1759.33,1785.38 1760.83,1786.26 1762.05,1787.21C1763.36,1788.23 1764.63,1789.29 1765.87,1790.4C1767.21,1791.6 1768.56,1792.82 1769.95,1793.99C1769.73,1794.24 1769.51,1794.5 1769.29,1794.75C1769.23,1794.7 1769.18,1794.65 1769.12,1794.6C1768.98,1794.48 1768.11,1793.77 1768.45,1794.05C1768.79,1794.33 1767.88,1793.59 1767.72,1793.48C1767.29,1793.19 1766.84,1792.94 1766.4,1792.69C1765.64,1792.25 1764.91,1791.79 1764.19,1791.29C1764.1,1791.22 1763.72,1790.95 1763.56,1790.82C1763.53,1790.79 1763.51,1790.78 1763.5,1790.77C1763.55,1790.81 1763.77,1790.99 1763.49,1790.75C1762.82,1790.19 1762.02,1789.72 1761.11,1789.81C1761.11,1789.83 1761.12,1789.84 1761.12,1789.86C1760.44,1789.85 1759.74,1790.18 1759.27,1790.86C1757.42,1793.56 1761.11,1796.34 1763.06,1797.56C1763.54,1797.86 1764.03,1798.13 1764.54,1798.37C1764.91,1798.54 1765.33,1798.75 1765.73,1798.86C1764.92,1799.79 1764.97,1804.02 1765.17,1808.05L1765.16,1808.05C1764.41,1808.1 1763.67,1808.13 1762.92,1808.13C1761.32,1808.13 1759.72,1808.03 1758.13,1807.91C1755.07,1807.66 1752.02,1807.4 1748.96,1807.26C1745.59,1807.1 1742.27,1806.35 1738.91,1806.09C1735.43,1805.81 1731.94,1805.58 1728.44,1805.6C1727.19,1805.61 1727.18,1807.57 1728.44,1807.55C1731.94,1807.52 1735.43,1807.74 1738.91,1808C1742.33,1808.27 1745.73,1808.13 1749.16,1808.25C1752.29,1808.36 1755.37,1808.85 1758.48,1809.22C1760.02,1809.39 1761.55,1809.54 1763.09,1809.6C1763.65,1809.62 1764.47,1809.71 1765.25,1809.69C1765.36,1811.53 1765.48,1813.22 1765.53,1814.4C1764.51,1813.77 1763,1813.98 1761.88,1813.98C1760.23,1813.99 1758.58,1814.06 1756.94,1814.27C1755.66,1814.43 1755.65,1816.46 1756.94,1816.29C1758.58,1816.07 1760.23,1815.99 1761.88,1815.97C1763.02,1815.95 1764.53,1816.19 1765.56,1815.54C1765.56,1818.06 1765.22,1820.56 1765.06,1823.07C1764.76,1823.15 1764.46,1823.29 1764.17,1823.41C1763.59,1823.63 1762.87,1823.9 1762.19,1824.24C1760.55,1823.81 1758.86,1824.12 1757.21,1824.34C1756.38,1824.45 1755.56,1824.55 1754.74,1824.73C1754.28,1824.83 1753.79,1824.94 1753.36,1825.14C1753.03,1825.3 1752.76,1825.55 1752.42,1825.69C1752.33,1825.72 1752.32,1825.84 1752.42,1825.87C1752.87,1826.01 1753.23,1826.29 1753.7,1826.39C1754.11,1826.48 1754.57,1826.51 1754.99,1826.52C1755.86,1826.55 1756.72,1826.45 1757.58,1826.34C1758.47,1826.23 1759.37,1826.1 1760.24,1825.86C1760.22,1825.9 1760.2,1825.93 1760.18,1825.97C1759.77,1826.84 1759.79,1827.88 1760.52,1828.59C1761.77,1829.82 1763.72,1829.56 1765.26,1828.85C1765.3,1829.04 1765.33,1829.24 1765.38,1829.44C1765.58,1830.42 1765.87,1831.36 1766.23,1832.28C1765,1833.05 1763.73,1833.77 1762.51,1834.56C1762.24,1834.74 1762.5,1835.18 1762.77,1835C1763.96,1834.19 1765.2,1833.45 1766.37,1832.61C1766.96,1834.07 1767.73,1835.45 1768.59,1836.77C1767.14,1837.61 1765.83,1838.72 1764.34,1839.5C1763.45,1839.97 1764.24,1841.34 1765.14,1840.86C1766.64,1840.05 1768.06,1839.02 1769.33,1837.85C1770.03,1838.83 1770.77,1839.79 1771.53,1840.71C1771.68,1840.89 1771.84,1841.07 1771.99,1841.25C1770.43,1842.23 1769,1843.54 1767.7,1844.72C1765.72,1846.52 1763.87,1848.44 1761.85,1850.19C1761.17,1850.77 1762.16,1851.75 1762.83,1851.17C1764.72,1849.53 1766.47,1847.73 1768.3,1846.03C1769.26,1845.15 1770.24,1844.28 1771.28,1843.48C1771.81,1843.08 1772.37,1842.72 1772.94,1842.37C1773.87,1843.46 1774.82,1844.54 1775.8,1845.6C1775.13,1846.08 1774.58,1846.79 1774.03,1847.34C1773.04,1848.34 1772.07,1849.37 1771.12,1850.41C1769.25,1852.44 1767.51,1854.59 1765.54,1856.54C1761.66,1860.39 1757.23,1863.64 1753.38,1867.51C1752.65,1868.24 1753.78,1869.36 1754.5,1868.64C1758.38,1864.78 1762.82,1861.54 1766.72,1857.71C1768.69,1855.78 1770.46,1853.64 1772.31,1851.6C1773.21,1850.59 1774.13,1849.6 1775.07,1848.63C1775.64,1848.05 1776.39,1847.48 1776.92,1846.81C1778.04,1847.99 1779.18,1849.14 1780.34,1850.24C1781.96,1851.78 1783.75,1853.26 1785.76,1854.27C1785.97,1854.37 1786.18,1854.47 1786.4,1854.57C1785.85,1855.21 1785.38,1856 1784.96,1856.55C1784.05,1857.72 1783.17,1858.92 1782.3,1860.12C1780.45,1862.69 1778.66,1865.31 1776.93,1867.96C1776.36,1868.85 1777.76,1869.65 1778.34,1868.79C1780.08,1866.21 1781.88,1863.66 1783.74,1861.17C1784.62,1860 1785.52,1858.83 1786.41,1857.67C1786.93,1856.99 1787.78,1856.19 1788.28,1855.32C1788.71,1855.46 1789.14,1855.6 1789.57,1855.73C1789.27,1856.28 1789.01,1856.87 1788.72,1857.4C1788.15,1858.46 1787.54,1859.5 1786.9,1860.52C1785.58,1862.62 1784.16,1864.66 1782.93,1866.82C1781.64,1869.09 1780.55,1871.48 1779.43,1873.84C1778.27,1876.27 1777.29,1878.63 1776.58,1881.23C1776.52,1881.42 1776.78,1881.52 1776.88,1881.36C1779.86,1876.91 1781.73,1871.9 1784.29,1867.22C1785.45,1865.09 1786.79,1863.06 1788.02,1860.98C1788.66,1859.89 1789.29,1858.79 1789.82,1857.65C1790.06,1857.13 1790.33,1856.57 1790.49,1855.99C1791.15,1856.17 1791.81,1856.33 1792.46,1856.49C1793.32,1856.69 1794.17,1856.9 1795.02,1857.11C1794.52,1858.5 1794.35,1860.08 1794.07,1861.5C1793.71,1863.31 1793.37,1865.13 1793.02,1866.95C1792.69,1868.71 1792.35,1870.46 1791.96,1872.2C1791.57,1873.93 1791.04,1875.66 1790.76,1877.41C1790.18,1881.01 1789.35,1884.46 1787.97,1887.86C1786.6,1891.23 1785.55,1894.64 1784.76,1898.19C1784.34,1900.08 1783.99,1901.97 1783.74,1903.88C1783.62,1904.9 1783.5,1905.95 1783.56,1906.98C1783.63,1908.03 1783.87,1909.01 1783.87,1910.07C1783.87,1910.16 1783.99,1910.15 1784,1910.07C1784.14,1909.07 1784.48,1908.27 1784.77,1907.32C1785.04,1906.45 1785.22,1905.55 1785.38,1904.66C1785.69,1902.97 1786.03,1901.28 1786.39,1899.6C1787.13,1896.13 1788.09,1892.71 1788.67,1889.22C1789.27,1885.65 1790.21,1882.15 1791.59,1878.79C1792.91,1875.58 1793.7,1872.11 1794.36,1868.71C1794.74,1866.7 1795.11,1864.69 1795.5,1862.68C1795.7,1861.68 1795.9,1860.68 1796.11,1859.68C1796.26,1858.96 1796.47,1858.22 1796.57,1857.48C1797.81,1857.78 1799.04,1858.08 1800.28,1858.37C1800.25,1859.12 1800.21,1859.87 1800.15,1860.62C1800.02,1862.28 1799.82,1863.94 1799.57,1865.58C1799.05,1868.91 1798.33,1872.2 1797.54,1875.47C1795.97,1881.89 1794.01,1888.27 1792.88,1894.8C1792.25,1898.47 1791.92,1902.15 1791.94,1905.87C1791.94,1906.78 1793.31,1906.78 1793.34,1905.87C1793.77,1892.48 1798.77,1879.81 1800.86,1866.68C1801.15,1864.91 1801.38,1863.12 1801.53,1861.33C1801.61,1860.45 1801.66,1859.57 1801.7,1858.69C1802.3,1858.83 1802.91,1858.96 1803.51,1859.08C1803.5,1859.17 1803.49,1859.25 1803.48,1859.34C1803.38,1860.75 1803.37,1862.16 1803.38,1863.57C1803.39,1865.13 1803.37,1866.7 1803.5,1868.26C1803.56,1868.92 1803.58,1870.56 1804.22,1870.98C1804.31,1871.04 1804.43,1871.01 1804.5,1870.94C1805.03,1870.49 1804.95,1868.97 1804.99,1868.35C1805.06,1866.91 1805.01,1865.46 1805.01,1864.02C1805,1862.67 1804.99,1861.32 1804.97,1859.97L1804.97,1859.38C1805.66,1859.51 1806.36,1859.64 1807.05,1859.76C1808.07,1859.93 1809.1,1860.15 1810.14,1860.35C1810.01,1861.36 1810.05,1862.44 1809.97,1863.43C1809.87,1864.75 1809.75,1866.07 1809.62,1867.39C1809.35,1870.14 1809.04,1872.88 1808.81,1875.63C1808.37,1880.95 1808.34,1886.42 1809.21,1891.7C1809.39,1892.79 1811.02,1892.32 1810.86,1891.25C1810.07,1885.91 1810.51,1880.6 1810.96,1875.26C1811.19,1872.57 1811.47,1869.89 1811.73,1867.21C1811.84,1865.95 1811.95,1864.69 1812.05,1863.43C1812.11,1862.54 1812.24,1861.6 1812.24,1860.68C1812.55,1860.72 1812.87,1860.75 1813.18,1860.78C1813.46,1861.82 1813.88,1862.83 1814.08,1863.89C1814.41,1865.58 1814.54,1867.31 1814.61,1869.03C1814.74,1872.22 1814.58,1875.44 1815,1878.61C1815.02,1878.75 1815.25,1878.75 1815.27,1878.61C1815.75,1875.2 1816,1871.75 1815.92,1868.3C1815.88,1866.56 1815.74,1864.83 1815.38,1863.13C1815.22,1862.38 1815.03,1861.55 1814.69,1860.82C1816.55,1860.76 1818.32,1860.29 1820.03,1859.54C1821.65,1858.82 1823.12,1857.83 1824.56,1856.81C1825.32,1858.92 1826.24,1860.96 1826.95,1863.09C1827.72,1865.38 1828.29,1867.8 1829.45,1869.93C1829.51,1870.04 1829.65,1869.96 1829.64,1869.85C1829.23,1867.3 1828.34,1864.82 1827.52,1862.38C1826.86,1860.42 1826.14,1858.27 1824.94,1856.54C1825.06,1856.46 1825.17,1856.38 1825.28,1856.3C1826.3,1855.58 1827.34,1854.88 1828.38,1854.19C1829.14,1856.03 1830.05,1857.83 1830.87,1859.6C1832.12,1862.34 1833.43,1865.06 1834.65,1867.82C1835,1868.63 1836.17,1867.93 1835.83,1867.13C1834.65,1864.42 1833.39,1861.75 1832.17,1859.05C1831.31,1857.16 1830.58,1855.2 1829.8,1853.27C1830.4,1852.88 1831.01,1852.49 1831.62,1852.11C1831.94,1851.9 1832.26,1851.7 1832.58,1851.5C1833.02,1853.26 1833.77,1854.98 1834.41,1856.63C1835.31,1858.99 1836.29,1861.31 1837.3,1863.63C1839.36,1868.39 1841.25,1873.4 1844.02,1877.8C1844.17,1878.04 1844.55,1877.89 1844.48,1877.61C1843.21,1872.69 1840.7,1868.12 1838.68,1863.48C1837.64,1861.1 1836.64,1858.7 1835.67,1856.29C1834.96,1854.52 1834.4,1852.62 1833.6,1850.87C1834.19,1850.5 1834.78,1850.13 1835.36,1849.75C1837.02,1852.03 1838.77,1854.24 1840.31,1856.61C1841.21,1858 1842.08,1859.42 1842.9,1860.85C1843.71,1862.27 1844.47,1863.76 1845.34,1865.13C1845.41,1865.24 1845.57,1865.17 1845.54,1865.05C1844.83,1861.8 1842.97,1858.65 1841.14,1855.91C1839.59,1853.6 1837.89,1851.31 1835.81,1849.44C1836.28,1849.12 1836.74,1848.8 1837.19,1848.46C1838.66,1849.58 1839.7,1851.19 1841.17,1852.28C1841.26,1852.35 1841.38,1852.24 1841.35,1852.14C1840.8,1850.45 1839.02,1848.98 1837.36,1848.34C1838.3,1847.62 1839.17,1846.84 1839.95,1845.96C1840.06,1846.06 1840.16,1846.15 1840.25,1846.24C1841.05,1846.95 1841.91,1847.59 1842.79,1848.19C1844.69,1849.48 1846.69,1850.58 1848.51,1851.99C1850.52,1853.55 1852.46,1855.2 1854.32,1856.94C1855.22,1857.78 1856.1,1858.64 1856.95,1859.54C1857.68,1860.3 1858.5,1861.44 1859.47,1861.89C1859.57,1861.94 1859.69,1861.86 1859.66,1861.74C1859.46,1860.83 1858.56,1859.91 1857.94,1859.24C1857.06,1858.3 1856.15,1857.4 1855.22,1856.52C1853.36,1854.77 1851.42,1853.1 1849.41,1851.52C1847.7,1850.18 1845.87,1849.04 1844.03,1847.89C1843.04,1847.27 1842.06,1846.66 1841.15,1845.94C1840.92,1845.75 1840.7,1845.54 1840.49,1845.32C1840.94,1844.75 1841.35,1844.13 1841.7,1843.46C1841.98,1842.94 1842.22,1842.41 1842.45,1841.87C1842.87,1842.4 1843.71,1842.71 1844.29,1843C1845.18,1843.46 1846.07,1843.9 1846.97,1844.34C1848.93,1845.28 1850.91,1846.2 1852.86,1847.16C1854.8,1848.11 1856.73,1849.07 1858.61,1850.14C1860.44,1851.18 1862.13,1852.46 1863.99,1853.46C1864.08,1853.51 1864.17,1853.39 1864.1,1853.31C1862.77,1851.78 1860.95,1850.74 1859.22,1849.73Z" style="fill:rgb(105,77,72);fill-rule:nonzero;"/>
    </g>
</svg>
