<?xml version="1.0" encoding="UTF-8" standalone="no"?>
<!DOCTYPE svg PUBLIC "-//W3C//DTD SVG 1.1//EN" "http://www.w3.org/Graphics/SVG/1.1/DTD/svg11.dtd">
<svg width="100%" height="100%" viewBox="0 0 273 144" version="1.1" xmlns="http://www.w3.org/2000/svg" xmlns:xlink="http://www.w3.org/1999/xlink" xml:space="preserve" xmlns:serif="http://www.serif.com/" style="fill-rule:evenodd;clip-rule:evenodd;stroke-linecap:round;stroke-linejoin:round;stroke-miterlimit:2;">
    <g transform="matrix(1,0,0,1,-1070.11,-1801.01)">
        <path d="M1337.72,1806.05C1336.2,1806.05 1334.69,1806.31 1333.2,1806.57C1331.74,1806.83 1330.27,1806.99 1328.81,1807.21C1326.02,1807.64 1323.23,1807.97 1320.42,1808.25C1314.31,1808.87 1308.19,1809.45 1302.08,1809.96C1295.93,1810.48 1289.78,1810.89 1283.62,1811.16C1277.74,1811.41 1271.84,1811.4 1265.95,1811.59C1260.11,1811.78 1254.27,1812.2 1248.52,1813.25C1247.92,1812.77 1247.1,1812.61 1246.28,1812.74C1233.72,1814.74 1221.46,1818.29 1208.87,1820.18C1202.86,1821.09 1196.69,1820.26 1190.8,1818.98C1184.99,1817.71 1179.35,1815.62 1173.46,1814.77C1170.77,1814.39 1168.04,1814.12 1165.44,1813.29C1162.95,1812.49 1160.98,1810.79 1158.7,1809.59C1156.68,1808.53 1154.53,1807.77 1152.28,1807.41C1149.54,1806.97 1146.78,1806.91 1144.01,1806.74C1137.56,1806.33 1131.16,1805.41 1124.71,1804.97C1118.21,1804.53 1111.66,1804.76 1105.21,1805.76C1099.93,1806.57 1094.84,1808.12 1089.67,1809.39C1085.26,1810.47 1080.47,1811.67 1076.82,1814.49C1076.03,1815.1 1075.31,1815.76 1074.69,1816.55C1074.61,1816.66 1074.53,1816.77 1074.47,1816.89C1074.27,1816.9 1074.06,1816.9 1073.86,1816.91C1074.22,1822.14 1075.86,1835.7 1080.17,1837.99C1079.69,1843.83 1082.85,1849.87 1084.25,1855.46C1085.79,1861.6 1087.26,1867.7 1089.64,1873.58C1094.14,1884.71 1101.59,1894.18 1111.47,1901.08C1112.31,1905.86 1117.79,1911.5 1121.37,1914.5C1124.5,1917.12 1134.65,1924.31 1138.44,1922.66C1146.83,1928.85 1156.46,1933.55 1166.64,1935.82C1172.88,1937.21 1189.67,1944.31 1195.34,1938.93C1209.21,1940.55 1221.11,1941.54 1234.67,1938.2C1243.37,1936.06 1262.6,1933.59 1264.43,1922.34C1283.12,1920.98 1302.21,1906.85 1311.72,1891.27C1313.74,1887.97 1314.56,1884.18 1316.35,1880.82C1318.04,1877.65 1320.5,1874.96 1322.29,1871.79C1325.46,1866.2 1328.28,1859.95 1329.67,1853.66C1330.77,1848.67 1333.2,1844.46 1334.43,1839.43C1335.28,1835.97 1340.43,1806.05 1337.72,1806.05Z" style="fill:rgb(255,233,179);fill-rule:nonzero;"/>
        <path d="M1337.72,1806.05C1336.2,1806.05 1334.69,1806.31 1333.2,1806.57C1331.74,1806.83 1330.27,1806.99 1328.81,1807.21C1326.02,1807.64 1323.23,1807.97 1320.42,1808.25C1314.31,1808.87 1308.19,1809.45 1302.08,1809.96C1295.93,1810.48 1289.78,1810.89 1283.62,1811.16C1277.74,1811.41 1271.84,1811.4 1265.95,1811.59C1260.11,1811.78 1254.27,1812.2 1248.52,1813.25C1247.92,1812.77 1247.1,1812.61 1246.28,1812.74C1233.72,1814.74 1221.46,1818.29 1208.87,1820.18C1202.86,1821.09 1196.69,1820.26 1190.8,1818.98C1184.99,1817.71 1179.35,1815.62 1173.46,1814.77C1170.77,1814.39 1168.04,1814.12 1165.44,1813.29C1162.95,1812.49 1160.98,1810.79 1158.7,1809.59C1156.68,1808.53 1154.53,1807.77 1152.28,1807.41C1149.54,1806.97 1146.78,1806.91 1144.01,1806.74C1137.56,1806.33 1131.16,1805.41 1124.71,1804.97C1118.21,1804.53 1111.66,1804.76 1105.21,1805.76C1099.93,1806.57 1094.84,1808.12 1089.67,1809.39C1085.26,1810.47 1080.47,1811.67 1076.82,1814.49C1076.03,1815.1 1075.31,1815.76 1074.69,1816.55C1074.61,1816.66 1074.53,1816.77 1074.47,1816.89C1074.27,1816.9 1074.06,1816.9 1073.86,1816.91C1074.22,1822.14 1075.86,1835.7 1080.17,1837.99C1079.69,1843.83 1082.85,1849.87 1084.25,1855.46C1085.79,1861.6 1087.26,1867.7 1089.64,1873.58C1094.14,1884.71 1101.59,1894.18 1111.47,1901.08C1112.31,1905.86 1117.79,1911.5 1121.37,1914.5C1124.5,1917.12 1134.65,1924.31 1138.44,1922.66C1146.83,1928.85 1156.46,1933.55 1166.64,1935.82C1172.88,1937.21 1189.67,1944.31 1195.34,1938.93C1209.21,1940.55 1221.11,1941.54 1234.67,1938.2C1243.37,1936.06 1262.6,1933.59 1264.43,1922.34C1283.12,1920.98 1302.21,1906.85 1311.72,1891.27C1313.74,1887.97 1314.56,1884.18 1316.35,1880.82C1318.04,1877.65 1320.5,1874.96 1322.29,1871.79C1325.46,1866.2 1328.28,1859.95 1329.67,1853.66C1330.77,1848.67 1333.2,1844.46 1334.43,1839.43C1335.28,1835.97 1340.43,1806.05 1337.72,1806.05Z" style="fill:none;stroke:white;stroke-width:7.5px;"/>
        <path d="M1253.35,1821.59C1252.64,1821.94 1252.03,1822.31 1251.23,1822.36C1250.48,1822.41 1249.61,1822.44 1248.88,1822.23C1248.45,1822.11 1248.36,1821.61 1248.63,1821.29C1249.18,1820.66 1250.11,1820.45 1250.92,1820.41C1251.88,1820.36 1252.53,1820.78 1253.35,1821.19C1253.5,1821.27 1253.5,1821.52 1253.35,1821.59ZM1322.1,1818.38C1320.81,1819.04 1319.25,1819.09 1317.82,1819.23C1316.25,1819.38 1314.68,1819.64 1313.12,1819.87C1309.97,1820.35 1306.81,1820.8 1303.63,1820.41C1302.22,1820.23 1302.2,1818.01 1303.63,1818.18C1306.86,1818.55 1310.04,1818.04 1313.22,1817.53C1314.8,1817.28 1316.4,1817.02 1318,1816.94C1319.38,1816.88 1320.96,1816.94 1322.1,1817.8C1322.28,1817.94 1322.35,1818.26 1322.1,1818.38ZM1295.87,1819.44C1293.19,1819.99 1290.49,1820.4 1287.76,1820.57C1285.07,1820.75 1282.49,1820.56 1280.13,1819.17C1279.93,1819.05 1280.06,1818.72 1280.28,1818.79C1282.84,1819.57 1285.63,1819.51 1288.26,1819.27C1290.8,1819.04 1293.34,1818.6 1295.87,1819.15C1296.01,1819.18 1296.01,1819.41 1295.87,1819.44ZM1296.95,1858.19C1297.98,1858.73 1298.93,1859.39 1299.93,1859.95C1302.53,1861.4 1305.3,1862.62 1308.12,1863.56C1309.77,1864.12 1311.42,1864.74 1312.98,1865.48C1314.34,1866.13 1316.38,1866.81 1316.9,1868.39C1316.97,1868.6 1316.82,1868.79 1316.63,1868.86C1315.05,1869.43 1313.19,1868.14 1311.84,1867.45C1310.12,1866.57 1308.56,1865.44 1306.96,1864.38C1304.5,1862.74 1301.87,1860.96 1298.95,1860.28C1296.5,1859.71 1294.19,1858.88 1292.01,1857.61C1291.04,1857.05 1290.07,1856.42 1289.35,1855.55C1288.72,1854.78 1288.52,1854.16 1288.47,1853.19C1288.46,1853.06 1288.65,1852.97 1288.74,1853.08C1289.29,1853.73 1290.25,1854.35 1290.95,1854.84C1291.86,1855.47 1292.78,1856.06 1293.76,1856.58C1294.82,1857.13 1295.89,1857.64 1296.95,1858.19ZM1311.99,1846.96C1311.91,1846.91 1311.96,1846.77 1312.05,1846.81C1314.31,1847.72 1316.59,1848.49 1318.75,1849.67C1319.86,1850.27 1320.96,1850.87 1322.07,1851.47C1323.18,1852.07 1323.94,1852.71 1324.82,1853.6C1324.98,1853.77 1324.86,1854.06 1324.63,1854.06C1323.33,1854.06 1322.39,1853.88 1321.21,1853.3C1320.14,1852.76 1319.11,1852.14 1318.09,1851.51C1315.92,1850.17 1314.09,1848.38 1311.99,1846.96ZM1290.35,1838.6C1292.96,1839.69 1295.66,1840.52 1298.38,1841.3C1301.09,1842.07 1303.54,1842.96 1305.85,1844.59C1306.07,1844.75 1305.93,1845.05 1305.67,1845.02C1304.25,1844.82 1302.86,1844.67 1301.48,1844.28C1300.15,1843.91 1298.83,1843.48 1297.53,1843.04C1294.89,1842.14 1292.26,1841.23 1289.71,1840.1C1288.86,1839.72 1289.49,1838.24 1290.35,1838.6ZM1276.28,1834.61C1277.53,1834.93 1278.91,1835.23 1280.01,1835.95C1280.12,1836.02 1280.13,1836.23 1279.97,1836.25C1278.59,1836.45 1277.14,1836.09 1275.81,1835.75C1274.24,1835.35 1272.67,1834.89 1271.14,1834.35C1268.18,1833.31 1265.53,1831.87 1263.34,1829.58C1263.24,1829.48 1263.37,1829.29 1263.5,1829.38C1265.92,1831.15 1268.94,1832.31 1271.75,1833.28C1273.24,1833.79 1274.75,1834.22 1276.28,1834.61ZM1281.94,1843.45C1283.53,1843.97 1285.23,1844.49 1286.67,1845.35C1287.71,1845.97 1289.13,1847.1 1289.51,1848.31C1289.56,1848.49 1289.42,1848.69 1289.23,1848.68C1288.6,1848.64 1287.92,1848.35 1287.3,1848.22C1286.62,1848.08 1285.94,1847.8 1285.29,1847.56C1283.79,1847.01 1282.32,1846.42 1280.8,1845.93C1277.89,1845.01 1274.89,1844.29 1272.06,1843.12C1271.38,1842.84 1270.87,1842.21 1271.1,1841.42C1271.29,1840.77 1272.1,1840.17 1272.8,1840.46C1275.76,1841.7 1278.9,1842.45 1281.94,1843.45ZM1311.14,1871.91C1311.24,1872.09 1311.16,1872.4 1310.92,1872.43C1310.43,1872.5 1310,1872.7 1309.49,1872.67C1308.96,1872.65 1308.43,1872.46 1307.93,1872.28C1306.87,1871.9 1305.87,1871.39 1304.84,1870.93C1302.72,1869.97 1300.58,1869.05 1298.42,1868.15C1297.67,1867.84 1297.11,1867.16 1297.36,1866.29C1297.57,1865.57 1298.47,1864.91 1299.23,1865.23C1301.45,1866.16 1303.66,1867.1 1305.86,1868.09C1306.93,1868.57 1308.04,1869.02 1309.05,1869.62C1309.5,1869.89 1310,1870.19 1310.36,1870.57C1310.76,1870.97 1310.87,1871.44 1311.14,1871.91ZM1286.98,1862.04C1287.15,1862.19 1286.96,1862.43 1286.77,1862.39C1285.67,1862.16 1284.59,1862.02 1283.54,1861.58C1282.54,1861.16 1281.59,1860.62 1280.62,1860.13C1278.59,1859.11 1276.51,1858.18 1274.29,1857.67C1273.14,1857.4 1273.63,1855.67 1274.77,1855.91C1277.04,1856.4 1279.2,1857.31 1281.29,1858.31C1282.38,1858.82 1283.51,1859.33 1284.52,1859.99C1285.43,1860.58 1286.15,1861.36 1286.98,1862.04ZM1266.92,1853.14C1266.97,1853.29 1266.81,1853.41 1266.68,1853.38C1265.78,1853.17 1264.87,1852.6 1264.07,1852.14C1263.14,1851.62 1262.21,1851.09 1261.31,1850.51C1260.04,1849.71 1257.81,1848.37 1257.91,1846.59C1257.91,1846.5 1258.01,1846.44 1258.09,1846.49C1258.82,1846.88 1259.49,1847.54 1260.15,1848.05C1260.97,1848.68 1261.84,1849.22 1262.74,1849.73C1264.15,1850.55 1266.31,1851.49 1266.92,1853.14ZM1259.09,1886.74C1259.13,1886.91 1258.94,1887.03 1258.81,1886.91C1256.24,1884.4 1254.01,1881.51 1251.89,1878.62C1249.7,1875.64 1247.42,1872.73 1245.29,1869.7C1244.38,1868.42 1246.47,1867.24 1247.38,1868.48C1249.56,1871.48 1251.91,1874.36 1254.18,1877.3C1256.34,1880.1 1258.31,1883.24 1259.09,1886.74ZM1287.64,1902.77C1287.53,1902.67 1287.7,1902.49 1287.82,1902.6C1288.8,1903.54 1289.74,1904.51 1290.49,1905.65C1290.55,1905.73 1290.42,1905.8 1290.36,1905.73C1289.6,1904.61 1288.64,1903.68 1287.64,1902.77ZM1276.78,1889.23C1277.74,1890.43 1278.73,1891.61 1279.56,1892.9C1280.28,1894 1280.81,1895.15 1281.66,1896.16C1281.86,1896.4 1281.68,1896.8 1281.34,1896.7C1280.12,1896.37 1279.31,1895.44 1278.53,1894.5C1277.56,1893.31 1276.61,1892.1 1275.65,1890.9C1273.59,1888.32 1271.47,1885.8 1269.33,1883.29C1268.52,1882.32 1269.91,1880.93 1270.73,1881.89C1272.77,1884.31 1274.8,1886.75 1276.78,1889.23ZM1262.76,1874.06C1262.88,1874.24 1262.67,1874.52 1262.46,1874.44C1259.85,1873.48 1258.6,1870.83 1256.99,1868.77C1255,1866.23 1252.73,1863.93 1250.71,1861.41C1249.89,1860.4 1251.32,1858.94 1252.15,1859.97C1254.15,1862.42 1256.38,1864.68 1258.36,1867.14C1259.25,1868.25 1260.1,1869.39 1260.82,1870.61C1261.49,1871.75 1262.03,1872.96 1262.76,1874.06ZM1274.18,1871.85C1275.17,1872.8 1276.17,1873.75 1277.14,1874.72C1278.11,1875.69 1278.72,1876.7 1279.27,1877.95C1279.39,1878.21 1279.15,1878.46 1278.89,1878.33C1277.58,1877.72 1276.58,1877.05 1275.56,1876.02C1274.65,1875.08 1273.74,1874.14 1272.82,1873.2C1270.89,1871.22 1269.18,1869.05 1267.31,1867.01C1266.92,1866.58 1267.52,1865.98 1267.95,1866.37C1269.98,1868.25 1272.19,1869.92 1274.18,1871.85ZM1243.88,1875.32C1243.97,1875.54 1243.68,1875.72 1243.5,1875.62C1242.88,1875.25 1242.43,1875.03 1241.88,1874.55C1241.38,1874.12 1240.99,1873.64 1240.6,1873.1C1239.79,1872 1239.1,1870.81 1238.42,1869.62C1237.71,1868.39 1236.99,1867.14 1236.42,1865.84C1235.87,1864.59 1235.51,1863.3 1234.9,1862.08C1234.67,1861.64 1235.28,1861.29 1235.56,1861.7C1236.33,1862.81 1237.25,1863.79 1238.01,1864.9C1238.79,1866.03 1239.42,1867.25 1240.12,1868.43C1240.82,1869.61 1241.56,1870.76 1242.29,1871.92C1242.66,1872.49 1242.99,1873.06 1243.28,1873.68C1243.54,1874.23 1243.66,1874.76 1243.88,1875.32ZM1208.7,1911.3C1208.75,1913.12 1208.43,1914.77 1208.12,1916.54C1208.09,1916.73 1207.78,1916.73 1207.74,1916.54C1207.56,1915.56 1207.23,1914.64 1207,1913.69C1206.78,1912.78 1206.67,1911.83 1206.54,1910.92C1206.27,1908.95 1206.05,1906.97 1205.91,1904.98C1205.78,1902.95 1205.75,1900.91 1205.97,1898.89C1206.16,1897.06 1206.69,1895.54 1207.45,1893.88C1207.53,1893.69 1207.87,1893.78 1207.85,1893.99C1207.67,1895.8 1207.78,1897.73 1207.84,1899.55C1207.9,1901.48 1208.06,1903.4 1208.23,1905.32C1208.4,1907.32 1208.64,1909.3 1208.7,1911.3ZM1214.92,1907.46C1214.95,1907.57 1214.8,1907.63 1214.75,1907.54C1212.68,1903.88 1212.15,1899.2 1213.13,1895.13C1213.19,1894.91 1213.46,1894.96 1213.53,1895.13C1215.16,1899.03 1213.77,1903.46 1214.92,1907.46ZM1220.47,1870.22C1222.58,1876.82 1223.83,1883.77 1224.16,1890.69C1224.18,1891.03 1223.72,1891.11 1223.55,1890.85C1219.62,1884.81 1221.74,1876.99 1220,1870.35C1219.92,1870.05 1220.37,1869.93 1220.47,1870.22ZM1202.36,1903.8C1202.47,1905.32 1202.52,1906.87 1202.47,1908.4C1202.41,1910 1202.42,1911.62 1202.27,1913.22C1202.13,1914.79 1201.6,1916.22 1201.23,1917.74C1201.19,1917.94 1200.88,1917.94 1200.83,1917.74C1200.46,1916.16 1199.97,1914.68 1199.96,1913.02C1199.95,1911.49 1200.09,1909.94 1200.18,1908.4C1200.28,1906.83 1200.49,1905.25 1200.71,1903.68C1200.94,1902.05 1201.34,1900.43 1201.49,1898.79C1201.51,1898.61 1201.76,1898.61 1201.77,1898.79C1201.92,1900.46 1202.25,1902.11 1202.36,1903.8ZM1204.47,1875.69C1204.5,1878.92 1204,1882.12 1203.53,1885.31C1203.08,1888.43 1202.86,1891.57 1202.12,1894.64C1202.07,1894.85 1201.81,1894.8 1201.74,1894.64C1200.5,1891.68 1201.02,1888.56 1201.45,1885.49C1201.9,1882.23 1202.43,1878.98 1202.39,1875.69C1202.38,1874.35 1204.46,1874.35 1204.47,1875.69ZM1165.03,1911.19C1163.76,1913.97 1162.32,1916.68 1161,1919.44C1160.34,1920.82 1159.72,1922.22 1159.15,1923.64C1158.57,1925.07 1157.92,1926.12 1156.93,1927.29C1156.73,1927.52 1156.29,1927.4 1156.23,1927.1C1155.91,1925.61 1156.02,1924.36 1156.54,1922.92C1157.11,1921.37 1157.81,1919.86 1158.51,1918.37C1159.85,1915.49 1161.33,1912.68 1162.64,1909.79C1163.37,1908.16 1165.77,1909.57 1165.03,1911.19ZM1171.7,1895.95C1170.59,1898.4 1169.3,1900.85 1167.03,1902.42C1166.72,1902.63 1166.42,1902.28 1166.46,1901.99C1166.86,1899.38 1168.07,1897.03 1169.15,1894.66C1170.24,1892.26 1171.19,1889.8 1172.05,1887.31C1172.65,1885.57 1175.42,1886.32 1174.82,1888.07C1173.89,1890.74 1172.86,1893.37 1171.7,1895.95ZM1175.38,1913.78C1174.74,1916.79 1174.03,1919.79 1173.01,1922.7C1172.53,1924.07 1172,1925.47 1171.32,1926.75C1170.93,1927.47 1169.92,1929.34 1168.83,1928.87C1167.81,1928.43 1168.67,1926.78 1168.96,1926.16C1169.59,1924.8 1170.25,1923.48 1170.78,1922.08C1171.86,1919.2 1172.6,1916.2 1173.29,1913.2C1173.6,1911.83 1175.67,1912.41 1175.38,1913.78ZM1184,1887.96C1183.46,1891.19 1182.64,1894.4 1181.54,1897.49C1181,1898.99 1180.38,1900.5 1179.62,1901.9C1179.25,1902.58 1178.82,1903.28 1178.33,1903.88C1177.92,1904.37 1177.45,1905.03 1176.88,1905.33C1176.7,1905.43 1176.44,1905.31 1176.45,1905.09C1176.49,1904.44 1176.82,1903.74 1177.03,1903.12C1177.25,1902.45 1177.53,1901.79 1177.79,1901.13C1178.39,1899.63 1178.99,1898.12 1179.54,1896.59C1180.62,1893.61 1181.48,1890.54 1182.07,1887.42C1182.31,1886.15 1184.21,1886.7 1184,1887.96ZM1180.01,1864.11C1178.76,1866.22 1177.52,1868.33 1176.25,1870.42C1175.65,1871.39 1175.05,1872.35 1174.34,1873.25C1173.56,1874.24 1172.64,1875.13 1171.89,1876.14C1171.67,1876.44 1171.18,1876.18 1171.38,1875.84C1172.01,1874.75 1172.42,1873.55 1172.96,1872.41C1173.49,1871.27 1174.12,1870.19 1174.74,1869.1C1175.91,1867.03 1177.07,1864.94 1178.2,1862.84C1179.38,1860.68 1180.38,1858.44 1181.61,1856.31C1182.21,1855.27 1182.79,1854.21 1183.49,1853.24C1184.23,1852.21 1185.11,1851.75 1186.16,1851.1C1186.44,1850.93 1186.7,1851.21 1186.66,1851.48C1186.57,1852.08 1186.6,1852.71 1186.46,1853.31C1186.33,1853.9 1186.02,1854.46 1185.73,1854.99C1185.14,1856.03 1184.48,1857.04 1183.86,1858.06C1182.61,1860.1 1181.22,1862.05 1180.01,1864.11ZM1168.29,1880.34C1167.51,1882.09 1166.78,1883.84 1165.83,1885.51C1164.95,1887.07 1163.96,1888.56 1163.01,1890.08C1161.04,1893.23 1159.11,1896.41 1157.27,1899.63C1156.58,1900.84 1154.73,1899.76 1155.4,1898.54C1157.25,1895.24 1159.17,1891.99 1161.16,1888.77C1162.14,1887.19 1163.1,1885.61 1164.21,1884.12C1165.3,1882.64 1166.57,1881.32 1167.83,1879.98C1168.07,1879.72 1168.41,1880.06 1168.29,1880.34ZM1150.21,1908.49C1149.36,1910.49 1148.22,1912.39 1147.04,1914.22C1145.94,1915.93 1144.98,1917.83 1143.5,1919.25C1143.43,1919.32 1143.32,1919.25 1143.35,1919.16C1143.81,1917.16 1145.1,1915.43 1146.17,1913.71C1147.31,1911.85 1148.54,1910.02 1149.87,1908.29C1150.02,1908.09 1150.31,1908.25 1150.21,1908.49ZM1115.12,1859.2C1112.33,1861.12 1109.13,1862.06 1105.87,1862.79C1104.08,1863.19 1102.31,1863.7 1100.51,1864.02C1099.02,1864.29 1097,1864.69 1095.63,1863.88C1095.52,1863.81 1095.48,1863.63 1095.59,1863.54C1096.81,1862.54 1098.76,1862.13 1100.25,1861.65C1101.87,1861.12 1103.52,1860.7 1105.19,1860.32C1108.39,1859.59 1111.65,1859.27 1114.84,1858.55C1115.25,1858.45 1115.45,1858.97 1115.12,1859.2ZM1135.05,1862.17C1133.2,1863.05 1131.3,1863.75 1129.34,1864.32C1127.43,1864.88 1125.45,1865.22 1123.73,1866.24C1123.52,1866.36 1123.37,1866.07 1123.55,1865.94C1125.1,1864.74 1126.74,1863.65 1128.52,1862.83C1130.34,1861.98 1132.19,1861.25 1134.01,1860.4C1136.07,1859.43 1138.09,1858.37 1140.11,1857.3C1141.95,1856.33 1143.99,1855.37 1146.07,1855.06C1146.29,1855.03 1146.48,1855.28 1146.3,1855.46C1144.79,1856.98 1142.84,1858.15 1140.97,1859.15C1139.01,1860.19 1137.05,1861.22 1135.05,1862.17ZM1113.64,1871.39C1111.82,1872.19 1109.94,1872.88 1108.04,1873.45C1106.02,1874.05 1103.96,1874.4 1101.87,1874.66C1100.84,1874.78 1099.81,1874.89 1098.78,1875C1097.68,1875.13 1096.58,1875.08 1095.48,1875.23C1095.33,1875.25 1095.19,1875.04 1095.36,1874.96C1097.31,1874.08 1099.17,1873.34 1101.25,1872.81C1103.25,1872.3 1105.29,1871.91 1107.26,1871.28C1109.23,1870.65 1111.12,1869.81 1113.09,1869.18C1114.85,1868.61 1116.98,1868.08 1118.84,1868.27C1119.05,1868.3 1119.13,1868.55 1118.95,1868.68C1118.11,1869.23 1117.16,1869.63 1116.29,1870.12C1115.44,1870.59 1114.53,1871 1113.64,1871.39ZM1152.66,1862.72C1150.21,1865.78 1146.99,1867.8 1143.69,1869.84C1140.41,1871.87 1137.07,1873.84 1134.01,1876.19C1133.17,1876.83 1132.07,1875.38 1132.88,1874.73C1135.88,1872.34 1139.11,1870.29 1142.37,1868.27C1145.66,1866.23 1148.89,1864.12 1152.28,1862.21C1152.61,1862.03 1152.88,1862.45 1152.66,1862.72ZM1125.96,1879.72C1123.86,1882.66 1120.04,1883.5 1116.92,1884.96C1115.51,1885.63 1114.09,1886.32 1112.65,1886.92C1111.97,1887.21 1110.67,1887.81 1110.02,1887.21C1109.97,1887.16 1109.95,1887.06 1109.99,1887C1110.51,1886.27 1111.59,1885.89 1112.38,1885.51C1113.68,1884.89 1114.95,1884.21 1116.25,1883.59C1119.33,1882.11 1122.55,1880.91 1125.61,1879.37C1125.82,1879.27 1126.11,1879.49 1125.96,1879.72ZM1125.74,1845.8C1128.33,1845.53 1130.86,1844.92 1133.38,1844.3C1135.68,1843.74 1138.13,1843.26 1140.5,1843.65C1140.72,1843.68 1140.75,1844.02 1140.56,1844.11C1138.32,1845.24 1135.84,1845.92 1133.41,1846.52C1130.88,1847.14 1128.34,1847.7 1125.74,1847.98C1124.35,1848.13 1124.36,1845.95 1125.74,1845.8ZM1106.84,1848.54C1110.09,1848.52 1113.18,1847.49 1116.44,1847.58C1116.66,1847.58 1116.72,1847.86 1116.55,1847.98C1113.73,1849.96 1110.25,1850.59 1106.84,1850.64C1105.48,1850.66 1105.49,1848.55 1106.84,1848.54ZM1099.44,1851.26C1098.06,1851.98 1096.6,1852.45 1095.1,1852.84C1093.62,1853.24 1092.19,1853.77 1090.64,1853.81C1090.37,1853.82 1090.2,1853.45 1090.41,1853.27C1091.59,1852.24 1093.04,1851.82 1094.52,1851.42C1096.1,1850.98 1097.7,1850.74 1099.34,1850.89C1099.52,1850.91 1099.63,1851.16 1099.44,1851.26ZM1129.94,1829.86C1132.26,1829.84 1134.59,1829.89 1136.91,1829.95C1138.07,1829.98 1139.24,1829.97 1140.4,1830.03C1141.54,1830.09 1142.23,1830.35 1143.25,1830.8C1143.4,1830.86 1143.4,1831.12 1143.25,1831.19C1142.17,1831.66 1141.41,1831.89 1140.21,1831.89C1139.11,1831.88 1138.01,1831.81 1136.91,1831.76C1134.59,1831.66 1132.26,1831.56 1129.94,1831.53C1128.86,1831.51 1128.86,1829.87 1129.94,1829.86ZM1090.3,1840.88C1089.69,1840.84 1089.48,1840.2 1089.83,1839.76C1090.31,1839.16 1090.91,1838.65 1091.44,1838.09C1092.1,1837.39 1092.72,1836.67 1093.43,1836.02C1095.08,1834.51 1097.05,1834.28 1099.16,1833.8C1101.82,1833.19 1104.29,1832 1106.94,1831.36C1108.28,1831.04 1109.65,1830.82 1111.01,1830.57C1112.35,1830.33 1113.59,1830.38 1114.94,1830.36C1115.25,1830.36 1115.4,1830.83 1115.1,1830.98C1113.83,1831.61 1112.73,1832.12 1111.31,1832.38C1110.01,1832.61 1108.7,1832.82 1107.4,1833.01C1106.02,1833.2 1104.62,1833.28 1103.25,1833.51C1102,1833.72 1100.74,1834.12 1099.53,1834.52C1097.38,1835.22 1095.66,1836.36 1094.12,1837.99C1093.2,1838.97 1091.81,1840.95 1090.3,1840.88ZM1141.04,1814.4C1143.25,1814.57 1145.44,1814.55 1147.65,1814.86C1149.79,1815.15 1152.09,1815.41 1154.04,1816.41C1154.23,1816.51 1154.13,1816.79 1153.94,1816.8C1151.8,1816.91 1149.61,1816.41 1147.51,1816.07C1145.29,1815.71 1143.19,1815.11 1141.01,1814.58C1140.91,1814.56 1140.93,1814.39 1141.04,1814.4ZM1118.69,1812.45C1119.79,1812.3 1120.88,1812.13 1121.98,1812.01C1123.12,1811.89 1124.07,1812.01 1125.18,1812.24C1125.33,1812.27 1125.33,1812.52 1125.18,1812.55C1123.12,1812.88 1121.06,1813.22 1118.99,1813.54C1118.27,1813.65 1117.98,1812.55 1118.69,1812.45ZM1111.22,1813.17C1109.04,1815.14 1105.8,1814.27 1103.15,1814.65C1102.17,1814.79 1101.72,1813.38 1102.73,1813.13C1105.41,1812.48 1108.38,1812.38 1111.11,1812.75C1111.29,1812.77 1111.35,1813.05 1111.22,1813.17ZM1094.99,1815.04C1094.49,1815.28 1094,1815.59 1093.54,1815.88C1093.03,1816.2 1092.5,1816.44 1092.01,1816.8C1091.04,1817.52 1090.09,1815.88 1091.07,1815.18C1091.65,1814.76 1092.28,1814.38 1093.01,1814.29C1093.69,1814.2 1094.26,1814.32 1094.92,1814.51C1095.14,1814.58 1095.22,1814.93 1094.99,1815.04ZM1087.5,1817.35C1086.31,1818.34 1084.81,1818.83 1083.64,1819.82C1083,1820.36 1081.83,1819.63 1082.4,1818.86C1083.52,1817.34 1085.55,1816.85 1087.34,1816.97C1087.52,1816.98 1087.66,1817.22 1087.5,1817.35ZM1328.65,1832.41C1328.73,1832.47 1329.24,1832.83 1328.93,1832.7C1329.18,1832.8 1329.31,1833.04 1329.18,1833.3C1328.92,1833.77 1328.91,1834.09 1328.34,1834.43C1327.84,1834.72 1327.32,1834.81 1326.74,1834.81C1325.55,1834.8 1324.34,1834.47 1323.19,1834.18C1322.03,1833.88 1320.9,1833.48 1319.74,1833.21C1318.92,1833.02 1317.76,1833.08 1317.06,1832.6C1317.01,1832.57 1316.99,1832.52 1317,1832.46C1317.22,1831.63 1318.39,1831.35 1319.12,1831.25C1320.29,1831.09 1321.45,1831.23 1322.62,1831.38C1323.83,1831.55 1325.01,1831.83 1326.23,1831.92C1326.76,1831.96 1327.31,1831.95 1327.84,1832.07C1328.11,1832.14 1328.42,1832.25 1328.65,1832.41ZM1137.26,1890.63C1136.15,1892.5 1134.55,1894.06 1133.12,1895.67C1132.17,1896.74 1130.49,1895.06 1131.55,1894.11C1133.17,1892.67 1134.73,1891.08 1136.59,1889.97C1137.01,1889.72 1137.51,1890.22 1137.26,1890.63ZM1269.79,1825.85C1266.37,1825.34 1258.65,1824.13 1256.08,1821.73C1252.39,1818.27 1256.49,1817.87 1260.39,1817.96C1263.93,1818.03 1272.98,1818.34 1275.63,1820.71C1280.7,1825.25 1272.57,1826.27 1269.79,1825.85ZM1200.28,1872.14C1199.9,1875.47 1198.79,1880.35 1195.85,1876.43C1194.18,1874.21 1195.35,1868.98 1195.6,1866.46C1195.89,1863.51 1195.74,1854.15 1200.16,1857.12C1202.3,1860.67 1200.71,1868.39 1200.28,1872.14ZM1160.89,1864.89C1161.6,1861.19 1169.15,1851.6 1172.39,1849.75C1172.4,1849.74 1172.41,1849.73 1172.44,1849.7C1172.42,1849.71 1172.41,1849.73 1172.39,1849.75C1173.34,1849.21 1175.92,1846.06 1176.53,1849.39C1178.33,1853.7 1171.74,1858.18 1169.39,1860.88C1167.63,1862.91 1159.14,1874.08 1160.89,1864.89ZM1237.43,1873.9C1238.72,1877.2 1234.55,1875.45 1233.57,1874.91C1232.03,1874.06 1231.03,1871.63 1230.21,1870.21C1229.07,1868.26 1225.96,1863.38 1226.72,1861C1227.94,1857.18 1230.29,1861.86 1231.24,1863.42C1233.22,1866.67 1236.05,1870.36 1237.43,1873.9ZM1329.7,1817.55C1328.47,1817.26 1327.02,1817.47 1325.83,1817.45C1324.62,1817.44 1324.62,1819.36 1325.83,1819.33C1327.03,1819.3 1328.29,1819.36 1329.51,1819.24C1329.39,1820.37 1329.28,1821.5 1329.18,1822.63C1322.29,1823.11 1315.53,1824.57 1308.65,1825.11C1305.33,1825.36 1288.38,1823.91 1286.35,1826.71C1284.23,1829.63 1298.78,1834.5 1301.3,1835.67C1309.03,1839.24 1316,1844.62 1323.92,1847.69C1324.05,1849.07 1325.62,1849.94 1325.78,1851.19C1326.07,1853.43 1323.86,1857.33 1323.03,1859.4C1322.78,1860.02 1322.52,1860.64 1322.26,1861.27C1321.08,1860.33 1319.51,1859.82 1318.17,1859.23C1316.38,1858.42 1314.58,1857.61 1312.77,1856.83C1309.1,1855.24 1305.39,1853.73 1301.59,1852.46C1299.91,1851.9 1299.19,1854.55 1300.86,1855.12C1304.6,1856.39 1308.25,1857.9 1311.86,1859.49C1313.6,1860.26 1315.34,1861.04 1317.08,1861.81C1318.41,1862.4 1319.84,1863.2 1321.31,1863.43C1319.24,1867.99 1316.7,1872.43 1313.26,1876.03C1305.26,1873.26 1297.56,1869.67 1289.46,1867.03C1285.89,1865.87 1282.52,1864.46 1279.07,1863.03C1277.87,1862.53 1272.11,1861.09 1275.32,1864.06C1275.12,1867 1277.7,1869.06 1279.35,1871.1C1282.19,1874.61 1284.65,1878.34 1287.27,1882.03C1290.81,1887.03 1294.19,1894.33 1299.15,1898.02C1298.85,1898.41 1298.54,1898.8 1298.22,1899.18C1298.21,1899.2 1298.19,1899.22 1298.18,1899.23C1297.66,1898.47 1296.83,1897.82 1296.21,1897.29C1294.89,1896.15 1293.59,1895.01 1292.42,1893.7C1289.94,1890.91 1287.87,1887.77 1285.68,1884.73C1284.86,1883.58 1282.94,1884.69 1283.77,1885.85C1285.96,1888.9 1288.05,1892.04 1290.51,1894.88C1291.7,1896.26 1293,1897.47 1294.38,1898.65C1295.1,1899.26 1295.91,1900.2 1296.82,1900.79C1291.7,1906.35 1285.43,1909.85 1278.56,1913.09C1278.08,1913.32 1277.6,1913.55 1277.12,1913.78C1277.15,1913.1 1276.83,1912.27 1276.55,1911.83C1274.97,1909.25 1272.71,1907.15 1271.1,1904.58C1269.18,1901.51 1267.7,1898.19 1265.71,1895.16C1264.83,1893.83 1262.68,1895.06 1263.55,1896.42C1265.29,1899.12 1266.65,1902.04 1268.16,1904.86C1268.9,1906.25 1269.7,1907.61 1270.63,1908.88C1271.51,1910.07 1272.5,1911.16 1273.38,1912.35C1273.89,1913.02 1274.45,1914.17 1275.28,1914.63C1273.43,1915.49 1271.55,1916.3 1269.63,1916.98C1269.11,1917.16 1268.41,1917.3 1267.62,1917.41C1267.35,1916.36 1266.12,1915.5 1265.44,1914.76C1264.44,1913.67 1263.57,1912.47 1262.66,1911.3C1260.74,1908.84 1258.72,1906.34 1257.57,1903.41C1256.92,1901.77 1256.45,1900.07 1255.76,1898.44C1255.02,1896.69 1254.11,1895.01 1253.3,1893.29C1251.71,1889.89 1250.03,1886.52 1248.54,1883.07C1248.18,1882.22 1246.7,1882.84 1247.04,1883.71C1248.44,1887.31 1249.67,1890.95 1251.27,1894.47C1252.06,1896.22 1252.84,1898.01 1253.86,1899.63C1254.81,1901.15 1255.99,1902.42 1257.07,1903.84C1259,1906.36 1259.89,1909.53 1261.3,1912.34C1262.01,1913.75 1262.88,1915.1 1263.82,1916.36C1264.1,1916.73 1264.47,1917.26 1264.9,1917.72C1262.91,1917.94 1260.94,1918.2 1260.06,1918.88C1255,1911.94 1250.5,1904.58 1245.84,1897.37C1243.42,1893.63 1241.7,1889.22 1239.21,1885.59C1237.11,1882.54 1235.58,1881.21 1235.72,1886.13C1235.93,1893.46 1243.35,1902.63 1247.12,1908.69C1250.11,1913.49 1253.43,1918.67 1256.83,1923.23C1255.31,1924.62 1253.66,1925.72 1251.91,1926.63C1251.31,1925.44 1250.51,1924.34 1249.78,1923.26C1249.17,1922.36 1248.56,1921.44 1248.09,1920.47C1247.76,1919.78 1247.59,1918.97 1247.36,1918.25C1247.33,1918.17 1247.24,1918.13 1247.17,1918.17C1245.35,1919.21 1246.73,1922.23 1247.42,1923.6C1248.16,1925.05 1249.14,1926.25 1250.14,1927.47C1248.05,1928.38 1245.85,1929.07 1243.61,1929.67C1243.49,1927.4 1242.83,1925.04 1242.28,1922.87C1241.72,1920.61 1241.1,1918.35 1240.73,1916.05C1240.43,1914.2 1240.24,1912.34 1239.87,1910.5C1239.61,1909.27 1239.29,1906.94 1237.98,1906.31C1237.72,1906.19 1237.29,1906.27 1237.24,1906.61C1237.13,1907.27 1237.34,1907.95 1237.46,1908.59C1237.63,1909.45 1237.73,1910.33 1237.82,1911.21C1238,1913.01 1238.12,1914.83 1238.32,1916.63C1238.56,1918.86 1239.01,1921.06 1239.42,1923.26C1239.65,1924.51 1239.9,1925.75 1240.12,1927C1240.33,1928.14 1240.42,1929.3 1240.64,1930.43C1238.26,1931.01 1235.88,1931.57 1233.58,1932.26C1232.29,1924.38 1233.99,1916.2 1234.21,1908.29C1234.33,1903.81 1233.95,1899.36 1233.76,1894.88C1233.65,1892.41 1235.04,1885.02 1233.53,1882.76C1230.34,1878 1229.57,1888.89 1229.56,1890.38C1229.55,1894.58 1230.06,1898.77 1230.24,1902.97C1230.68,1913.05 1228.13,1923.79 1230.26,1933.75C1229.54,1934.08 1228.83,1934.37 1228.1,1934.62C1228.06,1933.92 1227.93,1933.22 1227.81,1932.51C1227.58,1931.07 1227.3,1929.64 1227.02,1928.22C1226.45,1925.26 1225.88,1922.33 1225.66,1919.33C1225.22,1913.41 1225.84,1907.45 1224.91,1901.57C1224.75,1900.55 1223.21,1900.99 1223.35,1902C1224.2,1907.95 1223.34,1913.93 1223.52,1919.89C1223.61,1922.78 1224.06,1925.66 1224.6,1928.49C1224.87,1929.92 1225.15,1931.35 1225.39,1932.79C1225.53,1933.65 1225.62,1934.49 1225.82,1935.31C1223.96,1935.78 1222.07,1936.03 1220.16,1936.15C1220.13,1936.02 1220.1,1935.9 1220.08,1935.77C1219.82,1934.51 1219.61,1933.24 1219.42,1931.97C1219.06,1929.62 1219.09,1926.94 1218.05,1924.76C1217.95,1924.55 1217.65,1924.63 1217.59,1924.82C1216.8,1927.2 1217.34,1930.03 1217.72,1932.44C1217.92,1933.71 1218.18,1934.99 1218.55,1936.22C1215.75,1936.29 1212.92,1936.1 1210.1,1935.86C1210.25,1935.1 1210.22,1934.38 1210.15,1933.61C1210.02,1932.01 1209.91,1930.42 1209.73,1928.82C1209.36,1925.63 1208.78,1922.39 1208.62,1919.19C1208.59,1918.69 1207.88,1918.69 1207.85,1919.19C1207.68,1922.47 1206.95,1925.73 1206.7,1929.02C1206.58,1930.61 1206.6,1932.21 1206.74,1933.8C1206.79,1934.4 1206.85,1935.01 1207.02,1935.58C1205.3,1935.43 1203.58,1935.28 1201.88,1935.19C1201.86,1933.71 1201.85,1932.23 1201.87,1930.75C1201.91,1927.78 1201.69,1924.85 1201.51,1921.89C1201.5,1921.66 1201.17,1921.66 1201.16,1921.89C1200.96,1924.86 1200.37,1927.78 1200.16,1930.75C1200.06,1932.19 1199.96,1933.63 1199.96,1935.06L1199.96,1935.12C1198.93,1935.09 1197.91,1935.09 1196.89,1935.13C1197.63,1927.57 1193.38,1927.47 1192.64,1934.85C1189.8,1935.54 1187.12,1935.38 1184.46,1934.88C1184.7,1934.08 1184.93,1933.28 1185.16,1932.48C1185.95,1929.83 1186.57,1927.07 1186.61,1924.29C1186.62,1923.59 1185.71,1923.58 1185.48,1924.14C1184.45,1926.64 1183.6,1929.24 1182.95,1931.87C1182.73,1932.75 1182.58,1933.6 1182.46,1934.44C1181.12,1934.12 1179.76,1933.73 1178.39,1933.35C1182.29,1920.02 1189.24,1906.74 1195.03,1894.08C1194.42,1900.93 1193.69,1907.82 1193.42,1914.69C1193.32,1917.13 1191.36,1929.51 1195.53,1927.77C1199.24,1926.23 1197.8,1912.43 1197.93,1909.35C1198.07,1906.21 1200.78,1888.83 1197.76,1887.3C1198.16,1886.25 1197.61,1885.52 1196.57,1885.24C1195.05,1884.85 1192.41,1889.8 1192.02,1890.46C1189.27,1895.12 1187.51,1900.55 1185.49,1905.55C1181.99,1914.23 1176,1923.17 1174.69,1932.49C1161.87,1929.99 1151.23,1926.06 1140.07,1919.22C1138.33,1913.22 1146.42,1902.81 1148.73,1897.42C1150.13,1894.15 1160.27,1875.86 1157.65,1872.88C1156.28,1871.32 1140.86,1881.4 1137.76,1882.76C1129.82,1886.23 1118.58,1889.2 1113.1,1896.45C1103.62,1890.34 1096.8,1881.06 1092.67,1870.66C1090.46,1865.11 1089.2,1859.36 1087.63,1853.61C1086.22,1848.46 1083.53,1843.05 1083.23,1837.67C1083.79,1837.22 1084.19,1836.56 1084.28,1835.73C1092.57,1832.09 1100.33,1827.25 1108.77,1823.94C1112.26,1822.57 1094.74,1825.74 1083.42,1831.51C1081.96,1826.95 1080.29,1821.82 1079.87,1816.74C1082.39,1815.15 1085.5,1814.32 1088.27,1813.6C1090.43,1813.04 1092.62,1812.58 1094.8,1812.08C1097.48,1811.47 1100.13,1810.79 1102.84,1810.34C1109.03,1809.31 1115.41,1808.96 1121.67,1809.22C1128.06,1809.49 1134.4,1810.39 1140.76,1810.96C1143.73,1811.22 1146.72,1811.28 1149.69,1811.57C1151.38,1811.74 1153.69,1812.24 1155.2,1812.93C1156.78,1813.65 1158.19,1814.68 1159.66,1815.6C1159.48,1815.6 1159.31,1815.59 1159.13,1815.59C1159.19,1817.63 1159.4,1819.69 1159.82,1821.7C1159.6,1821.42 1159.36,1821.16 1159.02,1820.97C1158.37,1820.59 1157.54,1820.42 1156.8,1820.27C1155.4,1819.99 1153.96,1819.83 1152.52,1819.74C1149.7,1819.57 1146.89,1819.72 1144.07,1819.93C1141.65,1820.11 1139.3,1820.15 1136.89,1819.83C1134.23,1819.49 1131.63,1818.79 1128.95,1818.61C1127.48,1818.52 1125.98,1818.65 1124.52,1818.87C1123.13,1819.08 1121.62,1819.43 1120.6,1820.46C1119.57,1821.51 1120.3,1823.47 1121.84,1823.44C1123.2,1823.4 1124.53,1822.9 1125.89,1822.8C1127.46,1822.68 1129.05,1822.76 1130.63,1822.72C1133.77,1822.66 1136.85,1822.95 1139.98,1823.17C1143.18,1823.4 1146.39,1823.45 1149.59,1823.58C1151.23,1823.65 1152.87,1823.76 1154.49,1824.07C1155.28,1824.22 1156.06,1824.43 1156.84,1824.65C1157.81,1824.92 1158.48,1824.79 1159.44,1824.65C1159.85,1824.59 1160.18,1824.28 1160.37,1823.9C1160.92,1825.74 1161.67,1827.51 1162.68,1829.13C1161.33,1829.1 1159.98,1829.11 1158.63,1829.16C1155.86,1829.26 1153.09,1829.51 1150.36,1830C1149.06,1830.23 1149.61,1832.21 1150.91,1831.99C1153.57,1831.53 1156.27,1831.32 1158.97,1831.25C1160.31,1831.22 1161.66,1831.22 1163,1831.27C1163.4,1831.29 1163.82,1831.32 1164.22,1831.34C1165.21,1832.65 1166.63,1834.43 1168.17,1836.12C1166.74,1835.93 1165.61,1836.15 1164.2,1836.58C1162.67,1837.06 1161.13,1837.5 1159.58,1837.93C1156.49,1838.81 1153.39,1839.67 1150.34,1840.72C1148.99,1841.18 1149.57,1843.33 1150.93,1842.87C1153.98,1841.83 1157.08,1840.97 1160.18,1840.1C1161.66,1839.68 1163.14,1839.26 1164.61,1838.81C1165.31,1838.59 1166.02,1838.39 1166.69,1838.07C1167.47,1837.69 1167.95,1837.21 1168.51,1836.57C1168.53,1836.56 1168.53,1836.54 1168.54,1836.53C1169.52,1837.57 1170.53,1838.56 1171.5,1839.36C1171,1839.71 1170.56,1840.1 1170.34,1840.25C1168.87,1841.32 1167.34,1842.3 1165.78,1843.24C1162.69,1845.11 1159.5,1846.81 1156.41,1848.69C1155.27,1849.39 1156.31,1851.19 1157.46,1850.49C1160.54,1848.61 1163.73,1846.9 1166.82,1845.02C1168.37,1844.08 1169.91,1843.09 1171.38,1842.02C1171.98,1841.58 1172.7,1841.13 1173.2,1840.55C1173.89,1840.94 1174.52,1841.16 1175.07,1841.15C1175.19,1841.36 1175.31,1841.56 1175.44,1841.76C1175.22,1841.46 1174.85,1841.29 1174.44,1841.43L1174.45,1841.43C1174.15,1841.48 1173.9,1841.64 1173.65,1841.81C1173.08,1842.22 1172.63,1842.83 1172.14,1843.33C1171.05,1844.46 1169.91,1845.54 1168.75,1846.6C1166.42,1848.71 1163.98,1850.7 1161.58,1852.73C1160.52,1853.63 1162.04,1855.11 1163.09,1854.25C1165.34,1852.4 1167.61,1850.59 1169.81,1848.69C1170.91,1847.74 1172,1846.77 1173.05,1845.77C1173.95,1844.91 1175.34,1843.88 1175.63,1842.61C1175.68,1842.38 1175.64,1842.14 1175.54,1841.93C1178.51,1846.55 1183.73,1849.33 1189.21,1850.94C1187.25,1854.72 1185.29,1858.48 1183.4,1862.29C1182.32,1864.46 1181.19,1866.61 1180.18,1868.82C1179.68,1869.92 1179.28,1871.06 1178.88,1872.2C1178.45,1873.42 1178.27,1874.66 1177.98,1875.92C1177.91,1876.21 1178.3,1876.37 1178.46,1876.12C1179.14,1875.1 1179.93,1874.16 1180.55,1873.1C1181.18,1872.04 1181.83,1870.99 1182.39,1869.89C1183.53,1867.68 1184.59,1865.42 1185.66,1863.18C1187.5,1859.3 1189.1,1855.35 1190.02,1851.18C1190.95,1851.43 1191.89,1851.65 1192.82,1851.84C1191.83,1852.98 1191.45,1854.74 1191.08,1856.12C1190.56,1858.1 1190.2,1860.12 1189.61,1862.08C1188.98,1864.16 1188.13,1866.2 1187.41,1868.25C1186.66,1870.38 1185.6,1872.52 1185.41,1874.79C1185.38,1875.1 1185.77,1875.19 1185.97,1875.02C1187.62,1873.61 1188.26,1871.37 1188.97,1869.39C1189.72,1867.29 1190.53,1865.2 1191.24,1863.08C1191.85,1861.25 1192.19,1859.34 1192.62,1857.47C1192.85,1856.48 1193.09,1855.49 1193.42,1854.53C1193.69,1853.73 1194.11,1852.95 1194.3,1852.13C1196.6,1852.53 1198.85,1852.77 1200.88,1852.88C1202,1852.95 1203.1,1853.01 1204.18,1853.05C1203.28,1854.86 1203.71,1857.31 1203.96,1859.2C1204.3,1861.8 1204.79,1864.66 1204.18,1867.25C1204.15,1867.39 1204.33,1867.53 1204.45,1867.4C1206.22,1865.42 1205.95,1862.69 1205.63,1860.24C1205.32,1857.83 1205.1,1855.5 1205.12,1853.09C1206.36,1853.13 1207.58,1853.14 1208.78,1853.12C1208.45,1854.24 1208.66,1856.08 1208.7,1856.58C1209.06,1861.09 1210.14,1865.51 1210.53,1870.01C1210.75,1872.5 1210.81,1875.02 1211.1,1877.5C1211.24,1878.65 1211.35,1879.82 1211.6,1880.95C1211.88,1882.19 1212.41,1883.34 1212.83,1884.53C1213.05,1885.17 1213.98,1884.91 1213.84,1884.25C1213.62,1883.19 1213.63,1882.11 1213.56,1881.03C1213.48,1879.85 1213.33,1878.68 1213.26,1877.5C1213.12,1875.35 1212.98,1873.2 1212.81,1871.06C1212.47,1866.56 1211.47,1862.16 1211,1857.68C1210.88,1856.59 1210.86,1855.49 1210.78,1854.4C1210.76,1854.07 1210.72,1853.52 1210.57,1853.05C1212.82,1852.92 1215,1852.6 1217.1,1851.99C1216.93,1853.86 1217.56,1855.77 1217.93,1857.59C1218.17,1858.82 1218.31,1860.04 1218.47,1861.28C1218.67,1862.89 1219.14,1864.39 1219.81,1865.86C1219.87,1865.99 1220.09,1865.93 1220.07,1865.79C1219.92,1864.17 1220.14,1862.55 1220.03,1860.93C1219.95,1859.73 1219.77,1858.56 1219.52,1857.39C1219.11,1855.45 1218.69,1853.56 1217.97,1851.72C1220.51,1850.86 1222.94,1849.53 1225.28,1847.51C1225.76,1848.37 1226.4,1849.16 1226.93,1849.96C1227.69,1851.1 1228.42,1852.27 1229.13,1853.46C1230.49,1855.73 1232.11,1857.97 1233.94,1859.88C1234.03,1859.98 1234.19,1859.88 1234.16,1859.76C1233.46,1857.14 1232.35,1854.5 1230.94,1852.19C1230.2,1850.96 1229.42,1849.75 1228.62,1848.56C1228.23,1847.99 1227.83,1847.37 1227.37,1846.8C1228.35,1846.68 1229.41,1846.18 1230.5,1845.44C1230.99,1846.3 1231.73,1847.11 1232.27,1847.85C1233.25,1849.17 1234.19,1850.53 1235.07,1851.91C1236.79,1854.6 1237.97,1857.62 1239.86,1860.19C1239.97,1860.34 1240.23,1860.3 1240.23,1860.09C1240.24,1856.83 1238.14,1853.76 1236.44,1851.12C1235.51,1849.67 1234.52,1848.28 1233.44,1846.94C1232.88,1846.25 1232.21,1845.37 1231.43,1844.75C1232.38,1844 1233.34,1843.1 1234.28,1842.12C1235.3,1843.89 1236.87,1845.4 1238.25,1846.85C1240.2,1848.9 1242.09,1851.03 1244.12,1853C1244.23,1853.11 1244.44,1853 1244.39,1852.85C1243.47,1850.28 1241.46,1848.32 1239.6,1846.41C1238.01,1844.78 1236.57,1843 1235.03,1841.32C1236.02,1840.22 1236.98,1839.06 1237.86,1837.93C1237.96,1838.1 1238.07,1838.26 1238.2,1838.4C1238.45,1838.66 1238.71,1838.89 1238.96,1839.15C1239.5,1839.72 1240.09,1840.23 1240.66,1840.76C1241.76,1841.8 1242.77,1842.91 1243.79,1844.02C1244.83,1845.14 1246.01,1846.08 1247.1,1847.15C1248.19,1848.22 1249.18,1849.38 1250.18,1850.53C1252.51,1853.18 1254.34,1856.21 1256.79,1858.77C1258.01,1860.04 1259.31,1861.3 1260.68,1862.39C1262.15,1863.56 1263.82,1864.17 1265.43,1865.07C1265.64,1865.19 1265.82,1864.92 1265.68,1864.74C1264.49,1863.27 1263.6,1861.66 1262.23,1860.31C1260.98,1859.07 1259.63,1857.89 1258.28,1856.75C1255.59,1854.49 1252.52,1852.51 1250.19,1849.87C1248.1,1847.49 1246.73,1844.62 1244.6,1842.29C1243.59,1841.18 1242.56,1840.08 1241.42,1839.11C1240.89,1838.66 1240.35,1838.23 1239.75,1837.88C1239.4,1837.69 1239.05,1837.44 1238.67,1837.32C1238.57,1837.29 1238.48,1837.26 1238.38,1837.25C1239.08,1836.32 1239.72,1835.43 1240.28,1834.63C1240.35,1834.72 1240.44,1834.8 1240.54,1834.87C1241.29,1835.41 1242.29,1835.66 1243.17,1835.91C1244.17,1836.19 1245.15,1836.51 1246.13,1836.83C1248.04,1837.46 1250.03,1838.04 1252.03,1838.24C1252.79,1838.31 1253.47,1837.59 1253.55,1836.9C1253.65,1836.07 1253.18,1835.5 1252.44,1835.2C1250.53,1834.41 1248.6,1833.58 1246.64,1832.93C1245.17,1832.46 1243.49,1831.93 1241.92,1832.12C1241.97,1832.04 1242.03,1831.95 1242.07,1831.87C1242.91,1830.48 1243.67,1829.05 1244.34,1827.6C1245.15,1828.44 1245.93,1829.22 1246.96,1829.83C1248.18,1830.55 1249.46,1831.19 1250.75,1831.78C1253.26,1832.95 1255.74,1834.17 1258.22,1835.38C1258.45,1835.49 1258.64,1835.23 1258.48,1835.04C1256.73,1832.89 1254.2,1831.82 1251.75,1830.69C1250.51,1830.11 1249.26,1829.56 1248.05,1828.91C1246.92,1828.3 1245.67,1827.74 1244.6,1827.02C1245.96,1823.96 1246.92,1820.77 1247.32,1817.49C1247.4,1817.47 1247.49,1817.46 1247.58,1817.44C1248.03,1817.36 1248.41,1817.12 1248.7,1816.79C1259.6,1814.94 1270.76,1815.32 1281.77,1814.95C1293.89,1814.54 1306.01,1813.61 1318.09,1812.5C1321.36,1812.2 1324.61,1811.86 1327.87,1811.44C1328.76,1811.33 1329.66,1811.21 1330.55,1811.1C1330.25,1813.25 1329.96,1815.4 1329.7,1817.55ZM1328.89,1835.27C1329.31,1836.63 1327.5,1840.6 1326.92,1842.03C1323.97,1841.85 1321.11,1840.09 1318.53,1838.75C1312.11,1835.39 1305.75,1832.25 1299.05,1829.45C1308.82,1829.29 1319.06,1826.66 1328.73,1827.16C1329.24,1827.19 1329.74,1827.26 1330.25,1827.31C1329.83,1829.97 1329.43,1832.63 1328.89,1835.27ZM1307.81,1887.63C1307.13,1886.62 1306.14,1885.76 1305.33,1884.9C1304.22,1883.74 1303.08,1882.61 1301.92,1881.51C1300.78,1880.43 1299.58,1879.45 1298.32,1878.5C1297.54,1877.91 1296.22,1876.71 1295.17,1876.97C1295.07,1877 1295.01,1877.09 1295,1877.19C1294.9,1878.19 1296.16,1879.38 1296.74,1880.08C1297.73,1881.29 1298.73,1882.5 1299.76,1883.68C1300.78,1884.85 1301.78,1886.04 1302.75,1887.25C1303.64,1888.35 1304.4,1889.78 1305.55,1890.64C1305.1,1891.14 1304.63,1891.64 1304.12,1892.13C1303.78,1892.46 1303.4,1892.78 1303.01,1893.12C1294.94,1887.69 1290.03,1875.97 1283.49,1868.91C1292.39,1872.74 1302.16,1874.77 1310.43,1879.94C1310.48,1880.57 1310.76,1881.17 1311.36,1881.6C1310.11,1883.74 1309.06,1885.74 1307.81,1887.63ZM1135.95,1916C1135.44,1915.78 1134.93,1915.58 1134.44,1915.38C1133.5,1914.99 1132.6,1914.59 1131.72,1914.18C1131.84,1914.07 1131.95,1913.96 1131.99,1913.92C1132.29,1913.58 1132.54,1913.21 1132.82,1912.86C1133.45,1912.04 1134.06,1911.21 1134.68,1910.38C1135.84,1908.8 1136.94,1907.07 1137.87,1905.34C1138.11,1904.91 1137.63,1904.37 1137.18,1904.65C1135.48,1905.71 1133.75,1907.13 1132.51,1908.71C1131.55,1909.94 1130.19,1911.65 1129.96,1913.34C1128.45,1912.57 1127.01,1911.77 1125.66,1910.89C1126.26,1910.04 1126.85,1909.17 1127.48,1908.35C1128.76,1906.7 1130.11,1905.09 1131.48,1903.51C1132.83,1901.95 1134.24,1900.45 1135.56,1898.86C1136.2,1898.1 1136.76,1897.29 1137.33,1896.48C1137.95,1895.6 1138.66,1894.76 1139.17,1893.83C1139.33,1893.54 1138.98,1893.3 1138.74,1893.5C1137.96,1894.15 1137.27,1894.94 1136.53,1895.64C1135.77,1896.36 1134.99,1897.05 1134.26,1897.82C1132.77,1899.4 1131.34,1901.05 1129.93,1902.71C1128.61,1904.27 1127.32,1905.86 1126.15,1907.54C1125.58,1908.35 1124.98,1909.2 1124.46,1910.09C1123.09,1909.12 1121.79,1908.07 1120.56,1906.9C1121.42,1906.42 1122.25,1905.85 1123,1905.23C1123.81,1904.56 1124.52,1903.77 1125.05,1902.86C1125.37,1902.3 1125.77,1901.65 1125.91,1901.02C1125.98,1900.67 1125.68,1900.3 1125.31,1900.42C1123.62,1900.95 1121.97,1901.84 1120.67,1903.06C1120.01,1903.67 1119.36,1904.38 1118.84,1905.13C1117.48,1903.63 1116.2,1901.95 1114.97,1900.03C1117.12,1895.36 1126.68,1892.05 1130.95,1890.21C1137.87,1887.23 1144.98,1884.62 1151.38,1880.58C1146.07,1891.88 1139.67,1904.12 1135.95,1916ZM1169.81,1818.98C1172.56,1819.39 1175.26,1819.78 1177.94,1820.53C1180.95,1821.38 1183.96,1822.22 1187,1822.96C1193.09,1824.44 1199.42,1825.56 1205.72,1825.23C1208.87,1825.07 1212,1824.5 1215.1,1823.94C1218.27,1823.38 1221.42,1822.74 1224.57,1822.08C1230.34,1820.86 1236.11,1819.66 1241.89,1818.52C1240.65,1828.05 1235.62,1836.97 1225.84,1842.59C1223.83,1843.51 1221.57,1844.9 1220.31,1846.79C1212.25,1848.35 1203.9,1850.93 1195.51,1849.35C1191.42,1848.58 1187.95,1846.18 1184.55,1843.93C1184.18,1843.68 1179.29,1839.62 1177.92,1839.1C1178.89,1838.96 1175.26,1836.92 1175.11,1837.13C1173.04,1834.88 1170.22,1833.44 1168.43,1830.99C1166.49,1828.32 1165.49,1824.81 1164.56,1821.71C1164.12,1820.22 1163.78,1818.83 1163.55,1817.51C1165.57,1818.24 1167.67,1818.65 1169.81,1818.98ZM1337.72,1806.05C1336.2,1806.05 1334.69,1806.31 1333.2,1806.57C1331.74,1806.83 1330.27,1806.99 1328.81,1807.21C1326.02,1807.64 1323.23,1807.97 1320.42,1808.25C1314.31,1808.87 1308.19,1809.45 1302.08,1809.96C1295.93,1810.48 1289.78,1810.89 1283.62,1811.16C1277.74,1811.41 1271.84,1811.4 1265.95,1811.59C1260.11,1811.78 1254.27,1812.2 1248.52,1813.25C1247.92,1812.77 1247.1,1812.61 1246.28,1812.74C1233.72,1814.74 1221.46,1818.29 1208.87,1820.18C1202.86,1821.09 1196.69,1820.26 1190.8,1818.98C1184.99,1817.71 1179.35,1815.62 1173.46,1814.77C1170.77,1814.39 1168.04,1814.12 1165.44,1813.29C1162.95,1812.49 1160.98,1810.79 1158.7,1809.59C1156.68,1808.53 1154.53,1807.77 1152.28,1807.41C1149.54,1806.97 1146.78,1806.91 1144.01,1806.74C1137.56,1806.33 1131.16,1805.41 1124.71,1804.97C1118.21,1804.53 1111.66,1804.76 1105.21,1805.76C1099.93,1806.57 1094.84,1808.12 1089.67,1809.39C1085.26,1810.47 1080.47,1811.67 1076.82,1814.49C1076.03,1815.1 1075.31,1815.76 1074.69,1816.55C1074.61,1816.66 1074.53,1816.77 1074.47,1816.89C1074.27,1816.9 1074.06,1816.9 1073.86,1816.91C1074.22,1822.14 1075.86,1835.7 1080.17,1837.99C1079.69,1843.83 1082.85,1849.87 1084.25,1855.46C1085.79,1861.6 1087.26,1867.7 1089.64,1873.58C1094.14,1884.71 1101.59,1894.18 1111.47,1901.08C1112.31,1905.86 1117.79,1911.5 1121.37,1914.5C1124.5,1917.12 1134.65,1924.31 1138.44,1922.66C1146.83,1928.85 1156.46,1933.55 1166.64,1935.82C1172.88,1937.21 1189.67,1944.31 1195.34,1938.93C1209.21,1940.55 1221.11,1941.54 1234.68,1938.2C1243.37,1936.06 1262.6,1933.59 1264.43,1922.34C1283.12,1920.98 1302.21,1906.85 1311.72,1891.27C1313.74,1887.97 1314.56,1884.18 1316.35,1880.82C1318.04,1877.65 1320.5,1874.96 1322.29,1871.79C1325.46,1866.2 1328.28,1859.95 1329.67,1853.66C1330.77,1848.67 1333.2,1844.46 1334.43,1839.43C1335.28,1835.97 1340.43,1806.05 1337.72,1806.05Z" style="fill:rgb(105,77,72);fill-rule:nonzero;"/>
    </g>
</svg>
