<?xml version="1.0" encoding="UTF-8" standalone="no"?>
<!DOCTYPE svg PUBLIC "-//W3C//DTD SVG 1.1//EN" "http://www.w3.org/Graphics/SVG/1.1/DTD/svg11.dtd">
<svg width="100%" height="100%" viewBox="0 0 273 143" version="1.1" xmlns="http://www.w3.org/2000/svg" xmlns:xlink="http://www.w3.org/1999/xlink" xml:space="preserve" xmlns:serif="http://www.serif.com/" style="fill-rule:evenodd;clip-rule:evenodd;stroke-linecap:round;stroke-linejoin:round;stroke-miterlimit:2;">
    <g transform="matrix(1,0,0,1,-755.466,-1799.17)">
        <path d="M1024.41,1804.85C1024.22,1803.45 1022.94,1802.71 1021.6,1802.98C1016.45,1804.01 1011.11,1803.72 1005.9,1804.37C999.771,1805.12 993.702,1806.24 987.554,1806.84C986.058,1806.99 984.56,1807.11 983.062,1807.2C982.406,1807.22 981.749,1807.23 981.093,1807.25C981.148,1807.27 981.203,1807.28 981.258,1807.3C976.955,1807.5 972.646,1807.47 968.336,1807.19C962.195,1806.79 956.001,1806.3 949.892,1805.55C947.186,1805.22 944.475,1804.78 941.741,1804.81C939.082,1804.84 936.213,1805.28 934.16,1807.1C934.085,1807.17 934.02,1807.24 933.964,1807.31C933.913,1807.31 933.862,1807.31 933.81,1807.3C933.319,1810.03 932.112,1812.69 930.027,1815.66C920.407,1829.39 909.583,1842.8 891.629,1842.74C857.511,1842.65 856.911,1806.65 850.104,1806.85C848.282,1806.91 846.456,1807.23 844.688,1807.66C841.272,1808.48 837.96,1809.65 834.518,1810.38C826.884,1811.99 819.08,1812.32 811.298,1812.13C803.242,1811.93 795.197,1811.4 787.14,1811.18C783.234,1811.07 779.326,1811.07 775.42,1810.96C773.302,1810.9 771.19,1810.68 769.069,1810.72C766.806,1810.75 764.29,1810.99 762.407,1812.37C761.362,1813.14 760.584,1814.18 760.231,1815.44C760.203,1815.54 760.181,1815.63 760.161,1815.73C760.083,1815.74 760.004,1815.74 759.925,1815.75C759.913,1816.77 759.894,1817.77 759.86,1818.73C759.629,1825.33 757.584,1836.81 762.25,1842.35C758.822,1851.12 771.781,1867.7 777.308,1873.26C776.584,1878.1 785.043,1885 788.124,1888.08C792.792,1892.75 797.621,1897.23 802.617,1901.55C807.94,1906.14 813.34,1910.67 818.734,1915.18C822.865,1918.63 858.527,1936.01 867.366,1934.75C871.039,1938.85 886.568,1937.73 891.69,1937.88C899.692,1938.11 910.485,1938.58 917.383,1933.71C921.335,1934.35 926.506,1931.69 929.958,1930.6C933.125,1929.6 936.607,1928.44 939.237,1926.33C939.397,1926.39 939.567,1926.44 939.748,1926.48C940.321,1926.59 941.722,1925.95 942.15,1926.12C948.013,1924.28 953.418,1924.39 959.102,1921.49C966.181,1917.89 972.972,1913.33 978.562,1907.66C982.788,1903.37 985.691,1898.02 989.63,1893.63C992.275,1890.69 1002.18,1883.75 1000.47,1878.92C1012.6,1864.84 1018.57,1842.79 1019.71,1824.7C1019.97,1820.43 1020.38,1817.61 1021.73,1813.66C1022.49,1811.43 1024.54,1805.81 1024.41,1804.85Z" style="fill:rgb(255,233,179);fill-rule:nonzero;"/>
        <path d="M1024.41,1804.85C1024.22,1803.45 1022.94,1802.71 1021.6,1802.98C1016.45,1804.01 1011.11,1803.72 1005.9,1804.37C999.771,1805.12 993.702,1806.24 987.554,1806.84C986.058,1806.99 984.56,1807.11 983.062,1807.2C982.406,1807.22 981.749,1807.23 981.093,1807.25C981.148,1807.27 981.203,1807.28 981.258,1807.3C976.955,1807.5 972.646,1807.47 968.336,1807.19C962.195,1806.79 956.001,1806.3 949.892,1805.55C947.186,1805.22 944.475,1804.78 941.741,1804.81C939.082,1804.84 936.213,1805.28 934.16,1807.1C934.085,1807.17 934.02,1807.24 933.964,1807.31C933.913,1807.31 933.862,1807.31 933.81,1807.3C933.319,1810.03 932.112,1812.69 930.027,1815.66C920.407,1829.39 909.583,1842.8 891.629,1842.74C857.511,1842.65 856.911,1806.65 850.104,1806.85C848.282,1806.91 846.456,1807.23 844.688,1807.66C841.272,1808.48 837.96,1809.65 834.518,1810.38C826.884,1811.99 819.08,1812.32 811.298,1812.13C803.242,1811.93 795.197,1811.4 787.14,1811.18C783.234,1811.07 779.326,1811.07 775.42,1810.96C773.302,1810.9 771.19,1810.68 769.069,1810.72C766.806,1810.75 764.29,1810.99 762.407,1812.37C761.362,1813.14 760.584,1814.18 760.231,1815.44C760.203,1815.54 760.181,1815.63 760.161,1815.73C760.083,1815.74 760.004,1815.74 759.925,1815.75C759.913,1816.77 759.894,1817.77 759.86,1818.73C759.629,1825.33 757.584,1836.81 762.25,1842.35C758.822,1851.12 771.781,1867.7 777.308,1873.26C776.584,1878.1 785.043,1885 788.124,1888.08C792.792,1892.75 797.621,1897.23 802.617,1901.55C807.94,1906.14 813.34,1910.67 818.734,1915.18C822.865,1918.63 858.527,1936.01 867.366,1934.75C871.039,1938.85 886.568,1937.73 891.69,1937.88C899.692,1938.11 910.485,1938.58 917.383,1933.71C921.335,1934.35 926.506,1931.69 929.958,1930.6C933.125,1929.6 936.607,1928.44 939.237,1926.33C939.397,1926.39 939.567,1926.44 939.748,1926.48C940.321,1926.59 941.722,1925.95 942.15,1926.12C948.013,1924.28 953.418,1924.39 959.102,1921.49C966.181,1917.89 972.972,1913.33 978.562,1907.66C982.788,1903.37 985.691,1898.02 989.63,1893.63C992.275,1890.69 1002.18,1883.75 1000.47,1878.92C1012.6,1864.84 1018.57,1842.79 1019.71,1824.7C1019.97,1820.43 1020.38,1817.61 1021.73,1813.66C1022.49,1811.43 1024.54,1805.81 1024.41,1804.85Z" style="fill:none;stroke:white;stroke-width:7.5px;"/>
        <path d="M802.68,1841.73C803.693,1839.95 806.169,1839.56 808.014,1839.64C808.566,1839.66 808.908,1840.51 808.321,1840.77C806.68,1841.51 804.89,1843.63 802.902,1842.58C802.602,1842.42 802.52,1842.02 802.68,1841.73ZM929.208,1923.93C929.22,1923.93 929.22,1923.95 929.208,1923.95C929.195,1923.95 929.195,1923.93 929.208,1923.93ZM927.706,1918.76C927.768,1919.07 927.424,1919.27 927.189,1919.06C925.873,1917.89 924.955,1916.46 924.357,1914.8C923.788,1913.22 923.328,1911.41 923.873,1909.78C923.926,1909.62 924.154,1909.52 924.28,1909.67C925.328,1910.9 925.836,1912.41 926.418,1913.91C927.037,1915.49 927.37,1917.1 927.706,1918.76ZM921.643,1910.51C921.913,1912.1 922.248,1913.76 921.697,1915.32C921.63,1915.51 921.35,1915.64 921.196,1915.45C920.126,1914.15 919.894,1912.48 919.659,1910.86C919.425,1909.25 919.158,1907.43 919.51,1905.83C919.588,1905.48 920.092,1905.44 920.264,1905.73C921.078,1907.13 921.374,1908.94 921.643,1910.51ZM837.147,1820.11C836.916,1819.89 837.088,1819.46 837.412,1819.47C837.927,1819.49 838.482,1819.33 839.007,1819.31C839.563,1819.29 840.119,1819.27 840.675,1819.24C841.789,1819.18 842.904,1819.31 844.012,1819.19C844.359,1819.15 844.503,1819.71 844.192,1819.85C842.017,1820.87 839.151,1822.04 837.147,1820.11ZM807.801,1828.56C806.005,1829.26 803.84,1829.42 801.931,1829.52C800.007,1829.61 798.068,1829.65 796.146,1829.5C793.003,1829.24 790.021,1828.8 786.911,1829.55C784.209,1830.19 781.556,1831.12 778.766,1831.31C776.454,1831.46 773.798,1831.48 772.044,1829.72C771.78,1829.45 772.045,1828.96 772.418,1829.08C774.721,1829.81 777.211,1829.73 779.59,1829.57C782.275,1829.39 784.965,1829.32 787.643,1829.06C788.819,1828.95 789.99,1828.82 791.17,1828.77C793.045,1828.68 794.856,1828.24 796.701,1827.95C798.564,1827.65 800.432,1827.4 802.317,1827.31C804.077,1827.22 806.145,1827.28 807.801,1827.93C808.11,1828.05 808.112,1828.44 807.801,1828.56ZM825.119,1820.55C823.53,1820.87 821.94,1821.18 820.313,1821.22C818.935,1821.24 818.938,1819.1 820.313,1819.08C822.065,1819.05 823.741,1818.65 825.454,1818.34C827.021,1818.05 828.286,1818.05 829.726,1818.75C829.92,1818.85 829.831,1819.1 829.672,1819.16C828.906,1819.48 828.228,1819.84 827.42,1820.05C826.664,1820.26 825.886,1820.39 825.119,1820.55ZM792.114,1821.56C794.771,1821.21 797.423,1820.81 800.087,1820.51C802.627,1820.23 805.242,1820 807.763,1820.57C807.939,1820.61 807.946,1820.89 807.763,1820.93C805.289,1821.39 802.764,1821.57 800.265,1821.85C797.602,1822.15 794.951,1822.55 792.296,1822.91C791.304,1823.04 791.138,1821.69 792.114,1821.56ZM841.612,1835.16C841.599,1835.16 841.599,1835.14 841.612,1835.14C841.625,1835.14 841.625,1835.16 841.612,1835.16ZM818.428,1853C820.525,1851.4 822.633,1849.81 824.751,1848.24C824.878,1848.15 824.997,1848.36 824.874,1848.45C822.783,1850.04 820.702,1851.65 818.632,1853.26C818.439,1853.42 818.236,1853.15 818.428,1853ZM802.84,1866.48C801.659,1868.47 799.881,1870.32 798.151,1871.84C797.22,1872.66 796.204,1873.42 795.166,1874.09C794.379,1874.6 793.392,1875.22 792.414,1875.15C792.047,1875.12 791.908,1874.74 792.129,1874.46C792.733,1873.7 793.733,1873.24 794.526,1872.71C795.503,1872.05 796.403,1871.3 797.321,1870.57C799.077,1869.16 800.687,1867.58 802.428,1866.16C802.649,1865.98 803.001,1866.21 802.84,1866.48ZM849.411,1839.94C849.424,1839.94 849.424,1839.96 849.411,1839.96C849.399,1839.96 849.399,1839.94 849.411,1839.94ZM835.566,1851.9C836.168,1851.4 836.77,1850.9 837.372,1850.41C837.428,1850.36 837.508,1850.44 837.452,1850.49C836.854,1850.99 836.256,1851.49 835.659,1851.99C835.594,1852.05 835.501,1851.95 835.566,1851.9ZM826.847,1859.88C825.341,1863.03 822.513,1865.35 819.492,1866.99C818.643,1867.45 817.893,1866.17 818.734,1865.7C821.614,1864.07 823.894,1861.65 826.42,1859.55C826.661,1859.35 826.983,1859.6 826.847,1859.88ZM807.999,1874.73C807.712,1875.09 807.091,1874.6 807.365,1874.24C808.529,1872.71 810.375,1872.22 811.774,1871.01C811.946,1870.86 812.182,1871.04 812.083,1871.24C811.237,1872.98 809.167,1873.27 807.999,1874.73ZM856.444,1846.98C855.118,1848.05 853.793,1849.11 852.617,1850.35C852.359,1850.62 851.939,1850.2 852.206,1849.94C853.434,1848.73 854.796,1847.66 856.216,1846.68C856.392,1846.56 856.608,1846.85 856.444,1846.98ZM843.504,1857.89C843.883,1857.7 844.25,1858.08 844.068,1858.45C842.728,1861.23 840.752,1863.49 838.626,1865.69C836.499,1867.89 834.347,1870.07 831.981,1872.01C830.775,1873 829.035,1871.32 830.244,1870.28C832.568,1868.28 834.67,1866.06 836.693,1863.76C838.703,1861.47 840.727,1859.25 843.504,1857.89ZM819.738,1884.13C818.763,1886.95 817.211,1889.27 815.28,1891.53C814.316,1892.66 813.304,1893.74 812.297,1894.82C811.327,1895.87 810.357,1897.15 809.103,1897.87C808.811,1898.03 808.478,1897.76 808.552,1897.44C808.847,1896.17 809.779,1895.06 810.571,1894.05C811.489,1892.89 812.43,1891.74 813.401,1890.62C815.317,1888.4 817.374,1886.22 819.122,1883.87C819.332,1883.59 819.873,1883.74 819.738,1884.13ZM860.022,1854.76C861.316,1853.43 862.52,1852.02 863.808,1850.69C864.459,1850.02 865.117,1849.38 865.873,1848.83C866.645,1848.27 867.321,1848.16 868.226,1848.04C868.478,1848 868.753,1848.25 868.586,1848.51C868.122,1849.23 867.799,1849.9 867.183,1850.53C866.559,1851.16 865.909,1851.77 865.288,1852.41C864.037,1853.7 862.861,1855.06 861.6,1856.33C860.589,1857.36 859.018,1855.78 860.022,1854.76ZM843.474,1878.91C841.628,1880.65 839.806,1882.44 837.812,1884.01C836.915,1884.72 835.95,1885.34 835.038,1886.03C833.991,1886.82 833.124,1887.81 832.284,1888.82C832.003,1889.15 831.431,1888.7 831.68,1888.35C832.404,1887.33 833.195,1886.35 833.871,1885.29C834.517,1884.28 835.138,1883.25 835.877,1882.31C837.409,1880.34 839.316,1878.71 841.126,1877.02C842.972,1875.29 844.887,1873.64 846.659,1871.84C848.28,1870.19 849.816,1868.41 851.679,1867.02C851.879,1866.87 852.105,1867.12 852.064,1867.31C851.58,1869.68 850.071,1871.7 848.549,1873.5C846.959,1875.39 845.268,1877.21 843.474,1878.91ZM826.884,1894.92C826.488,1895.98 825.811,1896.94 825.166,1897.86C824.284,1899.12 823.365,1900.36 822.394,1901.55C821.469,1902.69 820.53,1903.8 819.654,1904.97C819.198,1905.58 818.665,1906.44 818.041,1906.76C817.112,1907.24 817.584,1905.11 817.701,1904.86C818.307,1903.56 819.287,1902.43 820.173,1901.31C822.07,1898.91 824.28,1896.82 826.414,1894.64C826.6,1894.45 826.985,1894.65 826.884,1894.92ZM869.417,1861.69C868.525,1863.15 867.487,1864.5 866.386,1865.81C864.098,1868.54 861.686,1871.17 859.642,1874.09C858.851,1875.22 856.984,1874.14 857.78,1873C859.797,1870.11 862.143,1867.48 864.413,1864.79C865.53,1863.47 866.638,1862.14 867.755,1860.82C868.772,1859.61 869.606,1858.08 870.892,1857.14C871.039,1857.04 871.247,1857.18 871.245,1857.35C871.228,1858.91 870.205,1860.39 869.417,1861.69ZM852.186,1882.84C852.085,1884.85 850.647,1886.9 849.488,1888.45C848.143,1890.24 846.585,1891.87 845.207,1893.64C844.209,1894.92 842.416,1893.12 843.417,1891.85C844.702,1890.22 846.074,1888.64 847.466,1887.1C848.177,1886.31 848.871,1885.51 849.596,1884.74C850.253,1884.04 850.83,1883.21 851.546,1882.58C851.774,1882.38 852.204,1882.5 852.186,1882.84ZM835.01,1904.53C834.478,1906.79 832.936,1908.85 831.459,1910.59C830.611,1911.59 829.722,1912.53 828.728,1913.38C828.047,1913.96 827.243,1914.68 826.313,1914.77C826.232,1914.78 826.157,1914.68 826.186,1914.61C826.5,1913.79 827.26,1913.13 827.844,1912.49C828.658,1911.61 829.457,1910.71 830.223,1909.79C831.703,1908.01 833.037,1906.12 834.445,1904.29C834.651,1904.02 835.096,1904.16 835.01,1904.53ZM1009.18,1842.47C1009.37,1842.64 1009.17,1842.96 1008.94,1842.89C1007.82,1842.55 1006.69,1842.23 1005.55,1842C1004.84,1841.85 1005.14,1840.7 1005.86,1840.89C1007.07,1841.22 1008.24,1841.61 1009.18,1842.47ZM988.576,1835.36C990.514,1836.13 992.414,1836.69 994.438,1837.16C996.364,1837.61 998.214,1837.92 999.855,1839.09C1000.03,1839.21 1000.06,1839.48 999.855,1839.61C997.976,1840.69 995.907,1840.33 993.928,1839.71C991.842,1839.06 989.793,1838.1 987.789,1837.23C986.728,1836.77 987.509,1834.94 988.576,1835.36ZM978.155,1832.63C975.578,1833.02 973.188,1832.89 970.654,1832.27C969.333,1831.95 968.055,1831.55 966.837,1830.94C965.787,1830.41 965.22,1829.8 964.533,1828.89C964.49,1828.83 964.563,1828.74 964.628,1828.77C965.565,1829.15 966.68,1829.38 967.658,1829.69C968.842,1830.05 970.045,1830.38 971.258,1830.63C973.594,1831.12 975.87,1831.58 978.155,1832.27C978.318,1832.31 978.348,1832.6 978.155,1832.63ZM1002.69,1850.21C1000.72,1849.71 998.846,1848.93 996.977,1848.15C996.839,1848.09 996.92,1847.9 997.056,1847.96C998.91,1848.76 1000.76,1849.56 1002.72,1850.08C1002.8,1850.1 1002.77,1850.23 1002.69,1850.21ZM988.852,1844.64C985.886,1843.39 982.805,1842.44 979.696,1841.61C978.716,1841.34 979.143,1839.79 980.114,1840.09C983.112,1840.99 986.919,1841.81 989.044,1844.31C989.156,1844.44 989.052,1844.72 988.852,1844.64ZM959.51,1831.34C961.27,1831.9 963.034,1832.44 964.772,1833.06C966.485,1833.67 967.806,1834.49 969.011,1835.84C969.202,1836.06 969.018,1836.4 968.728,1836.33C967.97,1836.14 967.183,1836.1 966.424,1835.92C965.56,1835.71 964.725,1835.42 963.883,1835.13C962.236,1834.56 960.567,1834.06 958.902,1833.55C957.496,1833.12 958.103,1830.9 959.51,1831.34ZM945.259,1828.34C944.232,1828.19 943.268,1827.85 942.316,1827.44C940.846,1826.83 938.658,1825.88 938.371,1824.08C938.355,1823.98 938.432,1823.88 938.544,1823.91C940.164,1824.35 941.581,1825.47 943.141,1826.09C943.962,1826.41 944.803,1826.68 945.615,1827.03C946.36,1827.35 947.234,1827.63 947.911,1828.07C948.048,1828.16 948.047,1828.41 947.861,1828.45C947.062,1828.6 946.061,1828.46 945.259,1828.34ZM1010.95,1826.11C1009.68,1826.88 1008.12,1826.92 1006.67,1826.84C1005.04,1826.76 1003.42,1826.59 1001.8,1826.39C1000.15,1826.18 1000.47,1823.92 1002.11,1824.14C1003.69,1824.36 1005.27,1824.51 1006.86,1824.62C1008.25,1824.71 1009.74,1824.84 1010.95,1825.59C1011.15,1825.71 1011.15,1825.99 1010.95,1826.11ZM983.062,1824.83C981.666,1824.67 980.226,1824.43 978.867,1824.07C977.544,1823.72 976.229,1823.29 974.86,1823.17C972.304,1822.95 969.703,1823.68 967.146,1823.79C964.64,1823.89 962.026,1823.63 959.587,1823.04C958.553,1822.79 958.993,1821.21 960.025,1821.45C962.543,1822.05 965.102,1822.07 967.671,1822.23C970.182,1822.38 972.665,1822.93 975.183,1822.93C977.942,1822.92 980.684,1822.38 983.446,1822.34C986.28,1822.3 989.022,1822.41 991.689,1823.44C991.99,1823.56 991.99,1823.94 991.689,1824.05C988.918,1825.12 985.991,1825.18 983.062,1824.83ZM937.45,1820.09C937.223,1819.91 937.378,1819.59 937.607,1819.52C937.606,1819.52 937.605,1819.51 937.604,1819.51C938.554,1819.26 939.597,1819.49 940.558,1819.59C941.539,1819.7 942.52,1819.79 943.5,1819.9C945.521,1820.11 947.437,1820.49 949.351,1821.18C949.525,1821.25 949.505,1821.52 949.306,1821.52C947.174,1821.51 945.075,1821.54 942.946,1821.36C941.236,1821.22 938.831,1821.23 937.45,1820.09ZM1010.98,1818.95C1010.35,1819.27 1009.84,1819.64 1009.13,1819.77C1008.5,1819.88 1007.86,1819.89 1007.23,1819.89C1005.75,1819.89 1004.28,1819.76 1002.81,1819.6C999.88,1819.29 996.956,1818.89 994.004,1818.82C992.629,1818.78 992.627,1816.67 994.004,1816.68C996.891,1816.7 999.756,1817.05 1002.63,1817.32C1004.04,1817.45 1005.45,1817.56 1006.86,1817.63C1007.58,1817.67 1008.31,1817.66 1009.03,1817.75C1009.7,1817.84 1010.26,1818.13 1010.9,1818.31C1011.17,1818.39 1011.25,1818.81 1010.98,1818.95ZM967.606,1815.23C970.478,1815.35 973.337,1815.62 976.2,1815.87C977.627,1815.99 979.059,1816.07 980.485,1816.2C981.906,1816.33 983.124,1816.76 984.475,1817.19C984.721,1817.27 984.726,1817.62 984.475,1817.7C983.129,1818.11 981.906,1818.47 980.485,1818.41C979.055,1818.35 977.624,1818.18 976.2,1818.04C973.338,1817.74 970.479,1817.42 967.606,1817.26C966.31,1817.19 966.299,1815.18 967.606,1815.23ZM953.456,1813.24C955.287,1813.5 957.149,1813.46 958.992,1813.57C959.84,1813.63 960.748,1813.66 961.553,1813.96C962.276,1814.23 962.702,1814.72 963.278,1815.17C963.446,1815.31 963.303,1815.6 963.106,1815.59C962.317,1815.56 961.539,1815.82 960.729,1815.77C959.876,1815.71 959.027,1815.6 958.174,1815.54C956.43,1815.41 954.685,1815.34 952.957,1815.05C951.755,1814.85 952.286,1813.08 953.456,1813.24ZM940.332,1813.08C940.196,1812.8 940.209,1812.65 940.281,1812.36C940.225,1812.59 940.42,1812.03 940.426,1812C940.461,1811.78 940.785,1811.85 940.794,1812.05C940.795,1812.06 940.794,1812.07 940.792,1812.07C940.829,1812.07 940.878,1812.08 940.947,1812.09C941.09,1812.12 941.238,1812.16 941.384,1812.18C941.816,1812.26 942.259,1812.31 942.696,1812.35C943.685,1812.44 944.543,1812.67 945.464,1813.04C945.619,1813.1 945.7,1813.34 945.516,1813.43C944.286,1814.04 943.111,1814.37 941.735,1814.04C941.177,1813.9 940.597,1813.62 940.332,1813.08ZM994.039,1864.75C994.075,1864.91 994.012,1865.05 993.879,1865.14C992.573,1866.06 990.832,1865.2 989.688,1864.43C988.247,1863.46 987.014,1862.28 985.246,1861.95C984.531,1861.81 984.115,1860.94 984.303,1860.29C984.522,1859.52 985.236,1859.24 985.964,1859.34C987.705,1859.59 989.382,1860.55 990.88,1861.43C992.169,1862.19 993.69,1863.2 994.039,1864.75ZM975.705,1855.67C975.866,1855.95 975.6,1856.23 975.313,1856.18C974.034,1855.94 972.75,1855.74 971.512,1855.31C970.197,1854.84 968.964,1854.16 967.735,1853.51C965.222,1852.18 963.271,1850.36 961.497,1848.15C960.705,1847.17 962.018,1845.77 962.915,1846.74C963.918,1847.82 965.019,1848.41 966.323,1849.05C967.498,1849.63 968.65,1850.26 969.818,1850.85C972.216,1852.07 974.317,1853.29 975.705,1855.67ZM945.624,1835.97C947.243,1837.01 948.916,1837.95 950.558,1838.95C951.388,1839.46 952.239,1839.97 953.044,1840.52C953.727,1840.98 954.288,1841.6 954.898,1842.15C955.094,1842.33 954.917,1842.59 954.706,1842.62C950.611,1843.16 948.04,1838.91 945.189,1836.72C944.763,1836.39 945.145,1835.67 945.624,1835.97ZM929.581,1825.68C929.468,1825.49 929.658,1825.21 929.877,1825.29C930.656,1825.58 931.351,1826.12 932.058,1826.55C932.797,1827 933.515,1827.51 934.127,1828.13C934.238,1828.24 934.126,1828.47 933.962,1828.41C933.115,1828.08 932.273,1827.7 931.494,1827.23C930.793,1826.81 930.012,1826.39 929.581,1825.68ZM959.213,1913.09C959.45,1913.59 959.05,1914.35 958.419,1914.12C957.852,1913.91 957.265,1913.76 956.699,1913.55C955.9,1913.25 955.364,1912.76 954.787,1912.14C953.799,1911.08 952.99,1909.85 952.231,1908.63C951.485,1907.42 950.805,1906.12 950.385,1904.76C949.95,1903.34 949.557,1901.99 948.794,1900.7C948.058,1899.45 947.087,1898.32 946.191,1897.19C945.21,1895.94 944.209,1894.71 943.165,1893.52C942.092,1892.29 941.1,1891.03 940.24,1889.65C939.826,1888.98 939.396,1888.3 939.085,1887.58C938.775,1886.86 938.695,1886.08 938.545,1885.32C938.495,1885.06 938.799,1884.85 938.999,1885.05C939.533,1885.6 940.146,1886.07 940.617,1886.68C941.063,1887.26 941.449,1887.89 941.851,1888.5C942.739,1889.84 943.572,1891.19 944.345,1892.61C945.112,1894.01 945.96,1895.37 946.77,1896.74C947.44,1897.88 948.019,1899.08 948.742,1900.18C949.526,1901.37 950.501,1902.46 951.636,1903.32C952.775,1904.19 953.743,1905.25 954.674,1906.33C955.589,1907.39 956.539,1908.42 957.405,1909.52C957.845,1910.08 958.368,1910.62 958.614,1911.3C958.829,1911.89 958.943,1912.52 959.213,1913.09ZM965.521,1876.53C965.18,1876.13 965.695,1875.62 966.091,1875.96C967.229,1876.92 968.527,1877.72 969.725,1878.61C970.966,1879.54 972.129,1880.54 973.262,1881.6C974.425,1882.68 975.663,1883.68 976.812,1884.78C977.887,1885.81 978.858,1886.94 979.055,1888.46C979.216,1889.7 977.593,1889.97 976.85,1889.37C975.784,1888.5 975.144,1887.05 974.363,1885.93C973.515,1884.73 972.553,1883.72 971.47,1882.72C969.334,1880.76 967.411,1878.72 965.521,1876.53ZM956.741,1866.58C956.8,1866.73 956.651,1866.89 956.506,1866.89C954.037,1866.95 952.233,1864.12 950.757,1862.49C949.966,1861.62 951.241,1860.33 952.056,1861.2C952.941,1862.13 953.807,1863.09 954.745,1863.98C955.571,1864.76 956.328,1865.5 956.741,1866.58ZM944.433,1854.21C944.536,1854.43 944.315,1854.72 944.074,1854.57C943.544,1854.24 942.981,1853.99 942.495,1853.59C942.02,1853.19 941.628,1852.68 941.224,1852.22C940.797,1851.72 940.354,1851.24 939.953,1850.73C939.637,1850.32 939.384,1849.69 939.001,1849.35C938.892,1849.26 939.007,1849.05 939.147,1849.1C939.77,1849.34 940.387,1849.33 940.987,1849.7C941.495,1850 941.948,1850.43 942.36,1850.85C942.815,1851.32 943.286,1851.82 943.634,1852.38C943.998,1852.96 944.149,1853.6 944.433,1854.21ZM924.355,1834.15C924.379,1834 924.564,1833.87 924.708,1833.88C925.81,1833.99 926.714,1835.22 927.478,1835.92C928.493,1836.85 929.197,1837.83 929.986,1838.94C930.115,1839.12 929.871,1839.31 929.703,1839.22C928.391,1838.56 927.249,1838.02 926.14,1837.02C925.374,1836.32 924.167,1835.31 924.355,1834.15ZM977.909,1893.6C978.4,1894.19 978.747,1894.7 978.653,1895.49C978.622,1895.74 978.589,1896.14 978.377,1896.31C977.586,1896.98 976.312,1896.01 975.815,1895.44C974.924,1894.43 974.444,1893.18 973.851,1891.99C973.086,1890.46 971.553,1890.3 970.368,1889.26C969.375,1888.38 968.807,1887.3 968.052,1886.23C967.946,1886.09 968.15,1885.9 968.295,1885.99C969.416,1886.68 970.576,1887.16 971.534,1888.09C972.035,1888.57 972.326,1889.09 972.665,1889.7C973.129,1890.53 973.765,1891.05 974.615,1891.45C975.809,1892 977.045,1892.56 977.909,1893.6ZM962.506,1880.43C962.519,1880.43 962.519,1880.45 962.506,1880.45C962.493,1880.45 962.493,1880.43 962.506,1880.43ZM954.406,1871.75C954.393,1871.75 954.393,1871.73 954.406,1871.73C954.419,1871.73 954.419,1871.75 954.406,1871.75ZM947.207,1864.55C947.194,1864.55 947.194,1864.53 947.207,1864.53C947.219,1864.53 947.219,1864.55 947.207,1864.55ZM938.807,1857.66C938.794,1857.66 938.794,1857.64 938.807,1857.64C938.82,1857.64 938.82,1857.66 938.807,1857.66ZM917.864,1839.35C917.834,1839.12 918.143,1839.05 918.28,1839.17C918.495,1839.37 918.833,1839.5 919.068,1839.7C919.365,1839.96 919.632,1840.24 919.921,1840.51C920.565,1841.1 921.185,1841.73 921.816,1842.34C923.085,1843.56 924.33,1844.79 925.49,1846.12C926.801,1847.62 928.182,1848.92 929.914,1849.94C930.823,1850.47 931.729,1850.99 932.585,1851.6C933.369,1852.17 933.81,1852.76 934.299,1853.57C934.427,1853.79 934.263,1854.09 934.007,1854.08C932.925,1854.05 932.143,1853.84 931.257,1853.19C930.373,1852.55 929.631,1851.78 928.914,1850.95C927.6,1849.45 926.219,1847.99 924.569,1846.86C923.011,1845.79 921.466,1844.73 920.114,1843.39C919.479,1842.77 918.885,1842.09 918.426,1841.32C918.24,1841.01 918.058,1840.7 917.948,1840.35C917.827,1839.97 917.913,1839.71 917.864,1839.35ZM925.172,1852.98C925.763,1853.59 924.807,1854.54 924.244,1853.91C923.555,1853.14 922.889,1852.31 922.34,1851.44C921.717,1850.45 921.393,1849.27 920.696,1848.34C919.932,1847.32 918.863,1846.99 917.88,1846.26C917.465,1845.96 917.034,1845.6 916.699,1845.2C916.388,1844.84 916.282,1844.4 916.041,1844C915.916,1843.79 916.079,1843.55 916.308,1843.54C917.454,1843.49 918.192,1843.72 919.001,1844.59C919.793,1845.44 919.937,1846.6 920.491,1847.59C921.144,1848.75 922.219,1849.52 923.074,1850.52C923.779,1851.34 924.416,1852.2 925.172,1852.98ZM934.379,1864.75C934.971,1865.56 933.616,1866.35 933.035,1865.54C931.908,1863.97 929.996,1862.41 929.864,1860.34C929.852,1860.17 930.083,1860.03 930.23,1860.13C931.855,1861.3 933.201,1863.15 934.379,1864.75ZM945.504,1879.15C946.049,1879.64 945.258,1880.39 944.709,1879.94C943.724,1879.13 942.885,1878.18 942.158,1877.13C941.441,1876.1 940.854,1874.96 940.105,1873.96C939.947,1873.75 940.24,1873.56 940.425,1873.64C942.936,1874.77 943.574,1877.4 945.504,1879.15ZM952.11,1885.97C954.859,1887.67 956.843,1890.59 958.992,1892.96C959.081,1893.05 958.96,1893.23 958.844,1893.15C956.267,1891.22 953.656,1888.92 951.828,1886.25C951.71,1886.08 951.941,1885.86 952.11,1885.97ZM946.285,1912.56C946.554,1912.9 946.224,1913.4 945.808,1913.18C942.103,1911.21 940.643,1906.64 938.346,1903.39C937.691,1902.46 939.222,1901.57 939.868,1902.5C942.151,1905.76 943.803,1909.42 946.285,1912.56ZM934.533,1895.68C934.574,1895.9 934.315,1896.09 934.141,1895.91C932.662,1894.38 931.62,1892.7 930.507,1890.9C929.355,1889.04 928.263,1887.21 926.617,1885.73C925.943,1885.13 926.92,1884.19 927.598,1884.75C930.908,1887.48 933.742,1891.43 934.533,1895.68ZM920.272,1871.19C921.145,1872.62 922.037,1874.21 921.952,1875.94C921.941,1876.15 921.693,1876.27 921.535,1876.12C920.237,1874.87 919.316,1873.25 918.46,1871.68C917.558,1870.04 916.833,1868.31 916.348,1866.5C916.151,1865.76 917.211,1865.5 917.469,1866.19C918.143,1867.99 919.274,1869.56 920.272,1871.19ZM880.837,1933.07C880.75,1933.25 880.47,1933.25 880.383,1933.07C879.359,1931.04 879.665,1928.56 879.635,1926.34C879.618,1925.08 881.602,1925.09 881.585,1926.34C881.555,1928.55 881.86,1931.05 880.837,1933.07ZM881.529,1910.14C881.524,1912.76 881.972,1915.93 880.82,1918.37C880.745,1918.52 880.475,1918.52 880.399,1918.37C879.246,1915.92 879.696,1912.76 879.691,1910.14C879.689,1908.96 881.531,1908.96 881.529,1910.14ZM881.81,1889.14C881.805,1892.35 882.166,1895.73 881.163,1898.81C881.082,1899.06 880.738,1899.06 880.657,1898.81C879.654,1895.73 880.014,1892.35 880.01,1889.14C880.008,1887.98 881.812,1887.99 881.81,1889.14ZM883.122,1872.02C882.745,1874.7 883.058,1877.97 881.445,1880.28C881.31,1880.47 881.025,1880.45 880.948,1880.22C880.044,1877.5 880.717,1874.24 881.097,1871.47C881.28,1870.13 883.309,1870.7 883.122,1872.02ZM901.309,1923.03C901.322,1923.03 901.322,1923.05 901.309,1923.05C901.296,1923.05 901.296,1923.03 901.309,1923.03ZM900.915,1912.54C900.948,1912.79 900.585,1912.8 900.51,1912.6C899.552,1910.06 899.702,1907.11 899.687,1904.44C899.684,1903.9 900.542,1903.9 900.531,1904.44C900.475,1907.18 900.553,1909.83 900.915,1912.54ZM899.615,1894.06C898.027,1891.92 898.394,1889.18 898.014,1886.69C897.835,1885.51 899.641,1885.03 899.804,1886.2C900.163,1888.78 900.189,1891.35 900.034,1893.94C900.02,1894.18 899.746,1894.23 899.615,1894.06ZM897.32,1869.25C897.691,1871.78 897.979,1874.31 897.7,1876.84C897.67,1877.11 897.313,1877.26 897.158,1876.99C895.843,1874.69 895.764,1872.03 896.011,1869.43C896.263,1866.78 896.663,1864.22 896.25,1861.55C895.57,1857.16 893.507,1852.7 895.192,1848.31C895.239,1848.19 895.434,1848.2 895.431,1848.35C895.394,1850.52 895.788,1852.75 895.956,1854.92C896.131,1857.17 896.419,1859.42 896.559,1861.67C896.719,1864.23 896.946,1866.71 897.32,1869.25ZM891.518,1923.91C891.739,1925.22 891.84,1926.52 891.784,1927.84C891.78,1927.94 891.632,1927.94 891.634,1927.84C891.665,1926.54 891.544,1925.25 891.301,1923.97C891.274,1923.83 891.494,1923.77 891.518,1923.91ZM891.874,1902.43C892.166,1904.08 892.214,1905.73 892.023,1907.39C891.827,1909.1 891.658,1910.74 891.71,1912.47C891.758,1914.07 891.918,1915.63 891.271,1917.14C891.219,1917.26 891,1917.26 890.948,1917.14C890.324,1915.68 890.474,1914.2 890.519,1912.65C890.572,1910.87 890.393,1909.22 890.102,1907.48C889.822,1905.79 889.675,1904.07 889.748,1902.36C889.817,1900.77 890.216,1899.13 890.05,1897.54C890.031,1897.36 890.323,1897.33 890.363,1897.5C890.758,1899.18 891.571,1900.72 891.874,1902.43ZM890.047,1894.29C889.83,1893.63 889.554,1892.97 889.447,1892.29C889.329,1891.53 889.371,1890.7 889.414,1889.94C889.503,1888.34 889.932,1886.83 890.097,1885.24C890.112,1885.1 890.307,1885.1 890.322,1885.24C890.487,1886.83 890.919,1888.34 891.005,1889.94C891.047,1890.71 891.086,1891.52 890.972,1892.29C890.87,1892.97 890.588,1893.63 890.372,1894.29C890.319,1894.45 890.099,1894.45 890.047,1894.29ZM890.047,1882.29C889.66,1880.95 889.232,1879.8 889.219,1878.39C889.205,1876.97 889.242,1875.56 889.253,1874.14C889.263,1872.91 891.156,1872.91 891.166,1874.14C891.177,1875.56 891.214,1876.97 891.2,1878.39C891.186,1879.8 890.759,1880.95 890.372,1882.29C890.326,1882.45 890.093,1882.45 890.047,1882.29ZM889.218,1862.65C889.138,1861.53 889.421,1860.78 890.103,1859.94C890.189,1859.83 890.359,1859.93 890.359,1860.05C890.367,1861.07 890.654,1862.2 890.784,1863.22C890.924,1864.32 890.804,1865.08 890.435,1866.11C890.363,1866.31 890.036,1866.35 889.983,1866.11C889.843,1865.45 889.54,1864.86 889.416,1864.2C889.32,1863.69 889.256,1863.17 889.218,1862.65ZM832.659,1828.62C833.685,1828.38 834.692,1829.54 834.278,1830.52C830.635,1837.4 823.909,1830.65 832.659,1828.62ZM836.23,1829.17C833.933,1825.03 849.501,1817.61 850.95,1821.83C852.152,1825.33 837.739,1831.89 836.23,1829.17ZM875.128,1868.62C874.23,1871.28 871.497,1879.62 868.774,1872.89C867.345,1869.36 872.774,1860.43 873.912,1857.19C874.935,1854.28 877.819,1844.59 879.769,1852.38C880.955,1857.13 876.583,1864.31 875.128,1868.62ZM899.862,1852.13C898.59,1851.25 899.96,1849.28 901.229,1850.16C902.5,1851.04 901.131,1853.01 899.862,1852.13ZM909.897,1868.89C911.503,1876.26 907.688,1874.82 905.387,1869.22C901.72,1860.29 908.33,1861.69 909.897,1868.89ZM958.305,1852.48C963.116,1857.73 960.614,1860.8 955.169,1856.21C948.184,1850.33 940.367,1845.23 934.108,1838.52C928.755,1832.79 932.183,1828.89 937.836,1834.85C944.044,1841.4 952.216,1845.83 958.305,1852.48ZM1016.57,1810.11C1013.29,1809.49 1010.03,1808.83 1006.79,1808.14C1010.24,1807.75 1013.72,1807.61 1017.19,1807.52C1017.04,1808.39 1016.84,1809.26 1016.57,1810.11ZM1014.55,1827.25C1014.2,1832.69 1013.38,1838.12 1012.05,1843.41C1009.27,1854.47 1004.39,1864.75 998.518,1874.46C992.985,1870.81 986.479,1868.79 980.537,1865.92C977.436,1864.42 968.357,1858.54 964.99,1861.74C962.036,1864.54 969.93,1872.16 971.665,1874.1C976.663,1879.67 980.724,1886.39 985.99,1891.65C980.77,1897 977.239,1902.84 972.035,1907.84C971.547,1906.92 970.822,1906.2 970.073,1905.44C969.099,1904.45 968.113,1903.5 967.191,1902.46C966.978,1902.22 966.666,1902.52 966.779,1902.78C967.31,1903.96 968.201,1905.02 969.103,1905.94C969.899,1906.76 970.716,1907.56 971.646,1908.21C970.326,1909.45 968.899,1910.64 967.309,1911.75C959.377,1917.28 951.435,1920.88 941.757,1921.43C941.294,1915.59 935.275,1909.39 931.982,1904.85C926.468,1897.24 920.394,1890 915.226,1882.15C915.235,1881.32 914.042,1879.97 913.346,1879.55C913.323,1879.38 913.283,1879.2 913.265,1879.03C912.14,1874.69 908.486,1879.36 908.17,1881.62C907.464,1886.68 909.99,1893.22 910.694,1898.28C912.022,1907.83 910.114,1921.93 915.111,1930.45C915.043,1930.65 914.999,1930.87 914.982,1931.09C911.211,1932.79 907.145,1933.59 903.021,1933.93C902.965,1932.9 902.721,1931.89 902.281,1930.92C902.068,1930.46 901.403,1930.81 901.493,1931.26C901.677,1932.17 901.537,1933.11 901.462,1934.04C898.619,1934.2 895.762,1934.18 892.967,1934.11C888.821,1934.02 884.645,1933.83 880.53,1933.31C876.784,1932.84 872.665,1931 868.957,1931.05C869.293,1921.45 870.439,1911.89 870.723,1902.31C870.874,1897.21 872.601,1883.41 868.7,1879.42C868.562,1874.4 862.962,1885.07 862.778,1885.36C859.521,1890.54 855.591,1895.13 851.827,1899.93C848.322,1904.39 845.305,1909.29 841.614,1913.6C839.538,1916.03 836.847,1917.98 835.055,1920.64C828.224,1917.3 822.772,1911.67 817.186,1906.61C810.238,1900.32 801.902,1894.09 794.782,1887.06C795.784,1886.27 796.637,1885.33 797.611,1884.5C798.704,1883.57 799.821,1882.66 800.953,1881.78C801.139,1881.64 800.903,1881.38 800.715,1881.47C798.402,1882.62 795.7,1884.38 794.469,1886.75C790.115,1882.41 786.236,1877.76 783.435,1872.61C793.308,1868.89 801.355,1858.71 809.411,1852.17C813.974,1848.47 832.491,1833.18 817.535,1831.35C812.998,1830.79 764.874,1838.38 765.092,1839.35C764.791,1838 764.556,1836.63 764.49,1835.25C764.253,1831.45 764.349,1827.67 764.633,1823.92C765.914,1824.64 767.806,1824.52 769.121,1824.48C771.107,1824.42 773.126,1824.12 774.895,1823.15C775.202,1822.99 775.068,1822.48 774.715,1822.49C772.85,1822.56 770.988,1822.77 769.121,1822.85C767.722,1822.91 766.146,1822.62 764.721,1822.83C764.936,1820.31 765.228,1817.81 765.556,1815.31C765.383,1815.32 765.209,1815.33 765.036,1815.34C765.094,1815.31 765.153,1815.28 765.212,1815.26C765.255,1815.25 765.484,1815.16 765.57,1815.13C765.996,1815 766.431,1814.91 766.87,1814.83C766.913,1814.82 766.948,1814.81 766.976,1814.81C767.078,1814.79 767.18,1814.78 767.282,1814.77C767.509,1814.75 767.737,1814.73 767.965,1814.72C768.502,1814.68 769.041,1814.67 769.58,1814.67C771.559,1814.67 773.53,1814.87 775.508,1814.92C779.253,1815.02 783.001,1815.03 786.746,1815.13C801.862,1815.54 817.21,1817.39 832.239,1814.96C836.198,1814.32 839.985,1813.22 843.836,1812.14C845.517,1811.67 847.236,1811.21 848.979,1811.05C849.513,1811 850.058,1810.96 850.601,1810.96C853.347,1822.86 861.509,1837.12 871.966,1842.79C875.607,1844.76 879.602,1846 883.725,1846.59C882.634,1848.94 882.598,1851.49 882.656,1854.05C882.719,1856.84 882.953,1859.66 883.188,1862.44C883.199,1862.57 883.398,1862.62 883.427,1862.48C883.944,1859.9 883.799,1857.16 883.749,1854.55C883.699,1851.92 883.757,1849.25 884.051,1846.63C885.844,1846.88 887.66,1847 889.481,1847C889.518,1847.88 889.835,1848.76 890.074,1849.58C890.12,1849.74 890.337,1849.7 890.35,1849.55C890.418,1848.72 890.475,1847.84 890.398,1846.99C895.15,1846.9 899.911,1846.02 904.363,1844.49C904.317,1844.57 904.296,1844.67 904.317,1844.77C904.695,1846.51 906.155,1848.13 907.286,1849.44C908.645,1851.03 910.112,1852.51 911.402,1854.15C911.517,1854.3 911.698,1854.11 911.638,1853.97C910.834,1852.09 909.599,1850.43 908.366,1848.81C907.244,1847.34 906.168,1845.8 904.991,1844.38C904.964,1844.34 904.934,1844.32 904.904,1844.3C907.076,1843.52 909.17,1842.58 911.147,1841.5C918.351,1837.54 923.547,1831.61 928.388,1825.13C932.301,1819.89 936.623,1815.05 937.801,1808.63C941.42,1807.48 945.481,1808.35 949.173,1808.9C955.125,1809.78 961.175,1810.41 967.171,1810.91C973.544,1811.44 979.891,1811.42 986.261,1810.85C988.453,1810.65 990.64,1810.4 992.823,1810.12C1002.42,1812.1 1012.27,1813.48 1014.86,1813.79C1012.92,1816.83 1014.79,1823.58 1014.55,1827.25ZM996.625,1878.06C995.286,1879.35 994.025,1881.09 992.776,1882.91C992.085,1881.26 990.425,1880.27 988.908,1879.32C987.086,1878.18 985.501,1877.16 984.234,1875.39C983.949,1875 983.333,1875.13 983.308,1875.64C983.207,1877.7 985.125,1879.48 986.555,1880.7C988.158,1882.07 989.773,1883.55 991.564,1884.67C990.591,1886.08 989.611,1887.45 988.595,1888.59C984.233,1881.39 979.341,1875.17 973.857,1868.82C981.303,1872.1 989.478,1874.21 996.673,1877.95C996.656,1877.99 996.641,1878.02 996.625,1878.06ZM933.799,1924.65C933.205,1923.9 932.669,1922.95 932.354,1922.07C932.1,1921.36 931.403,1920.88 930.636,1921.09C929.976,1921.28 929.373,1922.11 929.66,1922.81C930.106,1923.9 930.711,1924.8 931.571,1925.44C929.407,1926.29 926.898,1927.27 924.398,1927.96C924.573,1926.4 923.751,1923.72 923.677,1923.04C923.527,1921.69 921.388,1921.67 921.539,1923.04C921.682,1924.34 921.949,1925.61 922.203,1926.88C922.276,1927.25 922.367,1927.9 922.604,1928.4C921.328,1928.67 920.079,1928.84 918.907,1928.85L918.255,1928.85C917.28,1916.2 916.971,1903.37 915.06,1890.8C921.903,1899.77 929.529,1908.37 935.5,1917.96C936.312,1919.26 937.036,1920.6 937.817,1921.91C937.795,1921.87 937.767,1921.83 937.73,1921.77C937.977,1922.17 938.069,1922.33 938.251,1922.73C937.808,1923.31 935.482,1924.1 933.799,1924.65ZM865.193,1930.51C864.2,1930.31 863.208,1930.1 862.234,1929.8C859.94,1929.09 857.846,1928.09 855.841,1926.95C855.945,1926.77 856.044,1926.59 856.137,1926.4C856.691,1925.3 857.126,1924.13 857.467,1922.95C857.8,1921.79 858.028,1920.65 858.125,1919.45C858.209,1918.42 858.372,1917.18 857.9,1916.22C857.8,1916.01 857.47,1915.92 857.284,1916.05C856.519,1916.61 856.101,1917.59 855.739,1918.44C855.25,1919.59 854.869,1920.74 854.554,1921.96C854.259,1923.1 853.981,1924.24 853.735,1925.39C853.715,1925.48 853.699,1925.58 853.68,1925.67C852.684,1925.05 851.701,1924.42 850.717,1923.79C850.909,1923.53 851.086,1923.27 851.248,1923.04C852.139,1921.8 852.783,1920.41 853.549,1919.09C854.405,1917.62 855.436,1916.25 856.115,1914.68C856.571,1913.63 857.387,1911.21 856.009,1910.43C855.024,1909.87 853.884,1911.78 853.464,1912.4C852.513,1913.81 851.661,1915.32 850.854,1916.82C850.127,1918.17 849.564,1919.6 848.948,1921C848.775,1921.39 848.546,1921.83 848.325,1922.28C846.598,1921.21 844.832,1920.21 842.95,1919.38C850.787,1910.46 859.137,1900.05 865.304,1889.92C866.191,1903.34 863.393,1917.27 865.193,1930.51ZM779.806,1870.56C779.165,1869.11 778.439,1867.7 777.667,1866.32C778.302,1865.91 778.951,1865.53 779.611,1865.16C781.573,1864.05 783.45,1862.86 785.304,1861.58C787.641,1859.97 790.019,1858.36 792.173,1856.5C793.2,1855.62 794.189,1854.71 795.046,1853.66C795.949,1852.55 797.049,1851.53 797.806,1850.32C797.979,1850.04 797.626,1849.66 797.344,1849.85C796.134,1850.67 795.066,1851.66 793.812,1852.42C792.633,1853.14 791.489,1853.93 790.353,1854.71C787.918,1856.4 785.512,1858.14 783.143,1859.92C781.359,1861.26 779.45,1862.43 777.723,1863.84C777.493,1864.03 777.12,1864.32 776.715,1864.66C775.937,1863.33 775.133,1862.03 774.339,1860.71C775.666,1860.05 776.947,1859.3 778.234,1858.57C779.941,1857.6 781.684,1856.7 783.417,1855.78C785.102,1854.88 786.754,1853.97 788.384,1852.98C789.999,1852 791.511,1850.71 792.94,1849.47C793.182,1849.26 792.925,1848.85 792.63,1848.94C790.847,1849.49 788.994,1850 787.285,1850.75C785.419,1851.56 783.603,1852.42 781.803,1853.37C778.914,1854.91 775.691,1856.59 773.253,1858.89C772.246,1857.17 771.286,1855.43 770.452,1853.62C771.018,1853.68 771.592,1853.65 771.827,1853.63C773.795,1853.4 775.601,1852.73 777.422,1851.98C779.453,1851.13 781.287,1850.04 783.124,1848.86C784.309,1848.09 785.686,1847.22 786.653,1846.18C786.878,1845.94 786.658,1845.53 786.325,1845.62C785.055,1845.98 783.79,1846.53 782.556,1847C780.624,1847.75 778.688,1848.47 776.793,1849.33C775.116,1850.09 773.414,1850.82 771.696,1851.48C771.243,1851.66 770.379,1851.81 769.771,1852.04C769.503,1851.38 769.252,1850.71 769.025,1850.02C768.45,1848.13 767.979,1846.12 767.968,1844.13C775.479,1840.66 786.733,1839.85 794.945,1839C802.073,1838.26 810.581,1835.78 817.705,1836.51C813.888,1843.86 806.035,1848.65 800.11,1854.15C794.539,1859.32 787.453,1869.09 779.806,1870.56ZM1024.41,1804.85C1024.22,1803.45 1022.94,1802.71 1021.6,1802.98C1016.45,1804.01 1011.11,1803.72 1005.9,1804.37C999.771,1805.12 993.702,1806.24 987.554,1806.84C986.058,1806.99 984.56,1807.11 983.062,1807.2C982.406,1807.22 981.749,1807.23 981.093,1807.25C981.148,1807.27 981.203,1807.28 981.258,1807.3C976.954,1807.5 972.646,1807.47 968.336,1807.19C962.195,1806.79 956.001,1806.3 949.892,1805.55C947.186,1805.22 944.475,1804.78 941.741,1804.81C939.082,1804.84 936.213,1805.28 934.16,1807.1C934.085,1807.17 934.02,1807.24 933.964,1807.31C933.913,1807.31 933.862,1807.31 933.81,1807.3C933.319,1810.03 932.112,1812.69 930.027,1815.66C920.407,1829.39 909.583,1842.8 891.629,1842.74C857.511,1842.65 856.911,1806.65 850.104,1806.85C848.282,1806.91 846.456,1807.23 844.688,1807.66C841.272,1808.48 837.96,1809.65 834.518,1810.38C826.884,1811.99 819.08,1812.32 811.298,1812.13C803.242,1811.93 795.197,1811.4 787.14,1811.18C783.234,1811.07 779.325,1811.07 775.42,1810.96C773.302,1810.9 771.19,1810.68 769.069,1810.72C766.806,1810.75 764.29,1810.99 762.407,1812.37C761.362,1813.14 760.584,1814.18 760.231,1815.44C760.203,1815.54 760.181,1815.63 760.161,1815.73C760.083,1815.74 760.004,1815.74 759.925,1815.75C759.913,1816.77 759.894,1817.77 759.86,1818.73C759.629,1825.33 757.584,1836.81 762.25,1842.35C758.822,1851.12 771.781,1867.7 777.308,1873.26C776.584,1878.1 785.043,1885 788.124,1888.08C792.792,1892.75 797.621,1897.23 802.617,1901.55C807.94,1906.14 813.34,1910.67 818.734,1915.18C822.865,1918.63 858.527,1936.01 867.366,1934.75C871.039,1938.85 886.568,1937.73 891.69,1937.88C899.692,1938.11 910.485,1938.58 917.383,1933.71C921.334,1934.35 926.506,1931.69 929.958,1930.6C933.125,1929.6 936.607,1928.44 939.237,1926.33C939.397,1926.39 939.567,1926.44 939.748,1926.48C940.321,1926.59 941.722,1925.95 942.15,1926.12C948.013,1924.28 953.418,1924.39 959.102,1921.49C966.181,1917.89 972.972,1913.33 978.562,1907.66C982.788,1903.37 985.691,1898.02 989.63,1893.63C992.275,1890.69 1002.18,1883.75 1000.47,1878.92C1012.6,1864.84 1018.57,1842.79 1019.71,1824.7C1019.97,1820.43 1020.38,1817.61 1021.73,1813.66C1022.49,1811.43 1024.54,1805.81 1024.41,1804.85Z" style="fill:rgb(105,77,72);fill-rule:nonzero;"/>
    </g>
</svg>
